/* XPM */
static const char *collectible3[] = {
/* columns rows colors chars-per-pixel */
"64 64 200 2 ",
"   c #140E0B",
".  c #16110D",
"X  c #19140E",
"o  c #1F1C0F",
"O  c #1B1511",
"+  c #1D1A11",
"@  c #211D13",
"#  c #241D19",
"$  c #262019",
"%  c #2A231E",
"&  c #2D2621",
"*  c #2F2922",
"=  c #322A26",
"-  c #342B27",
";  c #362D29",
":  c #3B322D",
">  c #3E382F",
",  c #3F3831",
"<  c #403731",
"1  c #433B34",
"2  c #473E38",
"3  c #483E38",
"4  c #533C3E",
"5  c #4B433B",
"6  c #50473F",
"7  c #50483F",
"8  c #554040",
"9  c #544C42",
"0  c #584F45",
"q  c #5A5147",
"w  c #5C5349",
"e  c #60574B",
"r  c #625A4E",
"t  c #655B50",
"y  c #685F53",
"u  c #696255",
"i  c #736C5D",
"p  c #776F60",
"a  c #7E7667",
"s  c gray46",
"d  c #93556A",
"f  c #95596C",
"g  c #976671",
"h  c #9B6A74",
"j  c #3C8833",
"k  c #38943B",
"l  c #4C9A2A",
"z  c #499936",
"x  c #4F9E36",
"c  c #599E36",
"v  c #4AA336",
"b  c #49A63B",
"n  c #54A535",
"m  c #5EA937",
"M  c #52A639",
"N  c #5BA43B",
"B  c #54AC3C",
"V  c #5CAD3C",
"C  c #5BB33D",
"Z  c #67AD38",
"A  c #6DB33D",
"S  c #72B239",
"D  c #74C23D",
"F  c #46A442",
"G  c #5BAB43",
"H  c #54B041",
"J  c #66A941",
"K  c #62B243",
"L  c #6BB441",
"P  c #68B946",
"I  c #75B742",
"U  c #79B746",
"Y  c #72B944",
"T  c #79B849",
"R  c #70AE5A",
"E  c #77BF50",
"W  c #75B26A",
"Q  c #75C345",
"!  c #7DC243",
"~  c #7EC844",
"^  c #84BA4C",
"/  c #87816F",
"(  c #8B8572",
")  c #928B77",
"_  c #948E7A",
"`  c #97907B",
"'  c #99927E",
"]  c #8DBB6C",
"[  c #8DB675",
"{  c #8DBD72",
"}  c #82C343",
"|  c #84C44B",
" . c #8BC54B",
".. c #86CB48",
"X. c #8DCB4B",
"o. c #94CE4C",
"O. c #9DCE4E",
"+. c #8DD24D",
"@. c #94D74B",
"#. c #94D34D",
"$. c #9BD34B",
"%. c #9CD84E",
"&. c #8AC556",
"*. c #97CA52",
"=. c #95CC52",
"-. c #95C459",
";. c #95D153",
":. c #9CD453",
">. c #9CD857",
",. c #A0CF4F",
"<. c #A3D54B",
"1. c #A4D549",
"2. c #A4DB4D",
"3. c #A9DB4D",
"4. c #A2CF5A",
"5. c #A2D553",
"6. c #A4DB52",
"7. c #ACDD52",
"8. c #A9D957",
"9. c #A5DB5D",
"0. c #B0DF54",
"q. c #BBDE5D",
"w. c #A5E051",
"e. c #ADE050",
"r. c #A5E258",
"t. c #AEE35A",
"y. c #B0E055",
"u. c #B2E45B",
"i. c #BCE65E",
"p. c #B6E95E",
"a. c #9ACB6D",
"s. c #9DCB70",
"d. c #A1D262",
"f. c #A9D06C",
"g. c #A8DA69",
"h. c #B2DF68",
"j. c #AFCF74",
"k. c #AED776",
"l. c #A7D279",
"z. c #B2DB75",
"x. c #B4D778",
"c. c #A9E766",
"v. c #B5E562",
"b. c #B9E664",
"n. c #B5E862",
"m. c #BAE965",
"M. c #B5EE6B",
"N. c #BCE96B",
"B. c #B3E274",
"V. c #B9E370",
"C. c #BEEA7D",
"Z. c #C1E662",
"A. c #C1ED62",
"S. c #C3ED6D",
"D. c #C2ED74",
"F. c #C5E87B",
"G. c #C4EC7A",
"H. c #D4EF73",
"J. c #CDF471",
"K. c #C5F37B",
"L. c #CBF47E",
"P. c #9C9681",
"I. c #9F9983",
"U. c #A29C85",
"Y. c #A49E89",
"T. c #A7A18A",
"R. c #AAA48D",
"E. c #AFA790",
"W. c #AFA991",
"Q. c #B2AC94",
"!. c #B6B097",
"~. c #B5B4B4",
"^. c #BBBBBB",
"/. c #BBDE88",
"(. c #B1DA91",
"). c #BDEA88",
"_. c #C5EC80",
"`. c #CBED89",
"'. c #D6EE8A",
"]. c #CAF382",
"[. c #C9F985",
"{. c #D7F486",
"}. c #D3F788",
"|. c #C9E794",
" X c #DAF79D",
".X c #E6FA89",
"XX c #E3F595",
"oX c #E9F79C",
"OX c #F0FE92",
"+X c #D6EFA4",
"@X c #D8EBAC",
"#X c #DDF8A7",
"$X c #E9F9A7",
"%X c #ECFAAE",
"&X c #F2FFA4",
"*X c #E8FABA",
"=X c #C7C6C6",
"-X c #CDCDCD",
";X c #F5FECE",
":X c #F3FFD3",
/* pixels */
"e.e.e.e.e.e.e.e.e.e.e.e.e.e.e.e.e.e.e.e.e.e.e.e.e.e.e.e.e.e.e.e.e.e.e.e.e.e.e.e.e.e.e.e.e.e.e.e.e.e.e.e.e.e.e.e.e.e.e.e.e.e.e.e.",
"e.e.e.e.e.e.e.e.e.e.e.e.e.e.e.e.e.e.e.e.e.e.e.e.e.e.e.e.e.e.e.e.e.e.e.e.e.e.e.e.e.e.e.e.e.e.e.e.e.e.e.e.e.e.e.e.e.e.e.e.e.e.e.e.",
"e.e.e.e.e.e.e.e.e.e.e.e.e.e.e.e.e.e.e.e.e.e.e.e.e.e.e.e.e.e.e.e.e.e.e.e.e.e.e.e.e.e.e.e.e.e.e.e.e.e.e.e.3.7.8.6.e.e.e.e.e.e.e.e.",
"e.e.e.e.e.e.e.e.e.e.e.e.e.e.e.e.e.e.@ X X X X X 3.e.e.e.e.e.e.e.e.e.e.e.e.e.e.e.@ X X X X X 3.e.e.e.3.3.+.} I U ^ *.5.5.e.e.e.e.",
"e.e.e.e.e.e.e.3.3.3.3.3.3.3.3.e.e.e.X           3.e.e.6.%.%.:.6.e.e.e.e.e.e.e.e.X           3.e.3.3.3.V c J -.d.z.x.-.:.2.e.e.e.",
"e.e.e.e.e.e.e.3.s.(.[ W &.:.3.3.e.e.X           <.8. .s s s s S <.e.e.e.e.e.e.e.X           1.3.3.F M &._.oX&X&XoX&X%Xf.:.e.e.e.",
"e.e.e.e.e.e.3.&.{.y.y.XX@XR | 3.7.e.X     O O O $.s s ^.^.^.^.s Z %.e.e.e.e.e.e.@ O O       1.3.b v h..XOX.XH.Z.Z.Z.XX+X=.e.e.e.",
"e.e.e.e.e.e.3.T ].y.y.y.y. X{ I 7.7.X     5 7 1 + . O ~.^.^.^.^.s ! e.e.e.+ X + 2 7 5 .     1.v m V..XH.m.i.p.i.n.A.{.l.I 3.e.e.",
"e.e.e.e.e.e.3.} /.y.y.y.y.y.'.] N e.X     7 q 5 X     =X-X-X-X^.s L 3.e.e.X   O 5 0 9 .     M A }.J.y.y.u.u.p.u.m.J.C.N Y 3.e.e.",
"e.e.e.e.e.e.e.3.x d.y.y.y.y.y.`.{ I X     5 q 5 X     =X-X-X-X^.s J 7.e.o     O 5 q 9 .     | S.i.e.r.e.e.e.t.u.m.M.m B Q 6.e.e.",
"e.e.e.e.e.e.e.e.A x g.y.y.y.y.y.`.R X     _ T._ 1 ; ; O O O = < : * X X O ; ; 1 _ T.U.X     Z.y.7.7.7.7.r.r.t.p.c.n v C #.3.e.e.",
"e.e.e.e.e.e.e.e.3.P x =.y.y.y.y.y.|..     ' R.' 2 : : .     & : : &     O : : 2 P.W.T.O     3.7.7.7.7.e.r.r.t.c.n v H Q 6.3.e.e.",
"e.e.e.e.e.e.e.e.e.3.K x y.y.y.y.y.y.X     P.W.' 2 : : .     & : : & .   O : : 2 P.Q.T.X     1.3.3.7.7.7.r.t.>.l n C Q 6.3.e.e.e.",
"e.e.e.e.e.e.e.e.e.e.3.! x y.y.y.y.y.X     P.W.U.0 5 5 = & & , 5 5 1 & & = 5 5 0 U.Q.T.X     1.3.3.3.3.7.t.| x H C ~ 2.7.3.e.e.e.",
"e.e.e.e.e.e.e.e.e.e.e.3.:.X.y.y.y.e.X     P.Q.U.t w q : : : 5 q q 5 : : , q w r T.Q.T.O     3.e.e.3.3.3.Y M C Q +.w.2.3.e.e.e.e.",
"e.e.e.e.e.e.e.e.e.e.e.e.3.3.3.e.e.e.X     P.W.U.t w q : : : 5 w w 5 : : , w w t Y.Q.T.O     3.e.e.e.3.3.3.D @.3.3.3.3.<.2.e.e.e.",
"e.e.e.e.e.e.e.e.e.e.e.+ X X X X X $ * = = 0 e e w w q 7 5 5 9 w w 9 5 5 5 w w w e w w = = * $ X X X X X X <.2.$.$.$.o.$.:.e.e.e.",
"e.e.e.e.e.e.e.e.e.e.e.X           # : : : 0 w w w w w w w w w w w w w w w w w w w w q : : : #             O.:.o.=.:.;.o.#.6.e.e.",
"e.e.e.e.e.e.e.e.e.e.e.X           # : : : 0 w w w w w w w w w w w w w w w w w w w w q : : : #             k._.].].].L.K.9.6.e.e.",
"e.e.e.e.e.e.e.e.e.e.e.3.X         # 1 2 2 q w w w w w w w w i a a i w w w w w w w w q 3 2 2 %           F.].D.m.b.v.u.m.8.e.e.e.",
"e.e.e.e.e.e.e.e.e.e.e.e.3.3.X     & 9 q w w w w w w w w w w ) Q.W.` w w w w w w w w w q q 0 &       C.G.N.u.u.u.t.u.u.t.6.e.e.e.",
"e.e.e.e.e.e.e.e.e.e.e.e.e.e.X     & 0 w w w w w w w w w w w _ Q.Q.' w w w w w w w w w w q 0 &       b.u.t.t.e.e.r.r.t.6.e.e.e.e.",
"e.e.e.e.3.3.3.3.3.e.e.e.e.3.X     % 5 6 6 w w w w w w w w w _ Q.Q.' w w w w w w w w w 6 5 5 %       3.w.2.2.2.6.6.7.6.2.e.e.e.e.",
"3.e.e.3.3.<.$.$.$.o.$.+ X X       # : : : 0 w w w w w w q w _ Q.Q.' w w w w w w w w q : : : #       X X X #.$.O.5.6.6.e.e.e.e.e.",
"e.e.e.5.5.:.o.;.:.;.X..           # : : : 0 q 0 2 2 2 0 q w _ !.Q.' w q 9 2 2 2 5 w q : : : #             3.e.7.e.e.o.e.e.e.e.e.",
"e.e.:.d.B._.].].].8.8.X           # : : : 0 X X X         y ' Q.Q.P.u     .   O O O q , : : #             3.7.7.e.e.e.e.e.e.e.e.",
"e.>.G.}.].D.m.b.v.*.5.,.<.3..     % 6 9 9 w q w ( ) ) Y.U.T.W.Q.Q.Q.T.U.R._ _ / 0 w w 9 9 9 &       <.3.3.e.7.e.e.e.e.e.e.e.e.e.",
"g.[.L.N.u.u.u.t.z.x.-.:.2.e.X     & 0 w w w q w Q.Y.Y.Q.R.Q.Q.Q.Q.Q.Q.Q.R.Y.Y.W.0 w w w q 0 &       3.e.e.e.e.e.e.e.e.e.e.e.e.e.",
"L.S.u.t.t.e.e.r.r.&X%Xf.:.e.X     % 9 0 0 w q w Q.Q.Q.Q.W.Q.Q.Q.Q.Q.Q.Q.W.W.W.W.w w w 0 9 9 &       3.e.e.e.e.e.e.e.e.e.e.e.7.e.",
"e.e.e.e.e.e.e.e.e.Z.XX+X=.3.3.1.G x X     9 q w Q.Q.Q.Q.Q.Q.h f f h Q.Q.W.W.W.W.w w 0 X     ^ *.,.<.e.e.e.e.e.e.e.e.e.e.e.e.e.e.",
"e.e.e.e.y.y.y.e.e.e.{.l.I 3.e.e.3.! .     5 w e U.Q.Q.Q.Q.Q.h d d h W.Q.Q.W.W.U.w q 0 .     j.-.:.2.e.e.e.e.e.e.e.e.e.e.e.e.e.7.",
"e.e.e.e.e.y.y.e.e.e.e.e.e.e.e.e.e.3.X     5 0 w I.R.W.W.W.W.h d d g E.Q.W.R.R.I.q 0 9       oX%Xf.:.e.e.e.e.e.e.e.e.e.e.e.e.e.7.",
"e.e.e.e.e.y.y.y.e.e.e.e.e.e.e.e.e.e.<.1.1.% # $ : : : 9 w w 8 4 4 4 q w 5 > : : # # #       q.XX+X=.3.e.e.e.e.e.e.e.e.e.e.e.e.e.",
"e.e.e.e.e.e.y.y.y.e.e.e.e.e.e.e.e.e.3.7.3.X     . .   = : : g g g g : : & .                 i.{.l.I 3.e.e.e.e.e.e.6.6.6.6.e.e.e.",
"e.e.e.e.e.e.e.e.e.e.e.e.e.e.e.e.e.e.3.7.7.X           * : : : g g : : : %                   S.C.N Y 3.e.e.e.e.5.=.^ ^ T | :.e.e.",
"e.e.e.e.e.e.e.e.e.e.e.e.e.e.e.e.e.e.@ O X       O O O = : : X X X X X X X X O O             v.m B Q 6.e.3.3.>.T s s s s s J :.6.",
"e.e.e.e.e.e.e.e.e.e.e.e.e.e.e.e.e.e.X         . - : : : : X X q q 5 : : : X X =             c v C #.3.e.6.6.J s ^.^.^.^.^.s L :.",
"e.e.e.e.e.e.e.e.e.e.e.e.e.e.e.e.e.e.X         X ; : : : X X w w w 5 9 9 : : : X X           z H Q 6.e.3.6.I s ^.^.-X-X^.^.^.s =.",
"e.e.e.e.7.3.3.3.7.3.e.e.e.e.e.e.e.e.X         X : 1 1 w X X w w w 9 9 w w 9 , : 5 5         V Q 6.3.e.3...s ^.^.-X-X-X-X^.^.s  .",
"e.e.e.e.e.6.%.%.2.%.@.%.$.O.5.6.6.e.X         O 5 q q _ X w w w w w w w w w 0 5 5 5         ! 2.7.e.3.w.Z s ^.-X-X-X-X-X^.^.s | ",
"e.3.e.e.e.e.w.X.} =.f./.|.+Xk.| o.%.X         O 5 w w ' X w w w w w w 0 0 0 q 5 5 5         %.2.e.3.e.6.s ^.^.-X-X-X-X-X^.^.s  .",
"e.e.e.7.e.:.A U |.:X:X:X;X;X;X(.T @ X X X     O 5 w w _ X X w w X X X X 0 0 0 0 5 5 5 5 5 X + 3.e.e.e.+.s ^.-X-X-X-X-X-X^.s z o.",
"e.e.e.e.X.^ /.*X%X X`.G.D.F.@ O X % 5 5 2 .   O 5 w w w w X X X X ' r X X X X 0 5 5 5 5 5 5 % X X . 3.~ s ^.-X-X-X-X-X^.^.s M 2.",
"7.e.7.X.-.#X$XF.b.n.n.b.b.m.X     & 9 q 5 .   O 5 w w w w w _ Q.Q.' w w w X X X 5 5 5 5 0 0 &       6.! s ^.-X-X-X-X^.^.s k ..2.",
"3.6. .z. XG.v.p.p.v.v.b.b.N.X     & 9 q 5     O 5 w w 0 9 9 ( W.R.) 0 9 0 w X X X 5 5 5 q 0 &       6...s ^.^.-X-X^.^.s k K 2.3.",
"a.| B.}.b.u.u.u.u.p.v.b.m.D.X     & 0 q 5     O 5 w 0 O . . 1 ( Q.w w w w 9 q 5 5 5 5 5 q 0 &       6.;.s ^.^.^.^.s s s B e.e.e.",
"4.o.L.i.u.u.u.u.u.v.b.v.N.)..     & 0 q 5 .   O 5 q 0 X     : ( ( w w w w w w 5 5 5 5 5 q 0 &       3.9.G s s s s s F P >.e.e.e.",
"5. .u.y.y.u.u.u.u.u.v.N.B.G .     & 9 0 5 .   X 5 q 0 X     : 0 q 9 w w w w   1 5 5 5 5 0 0 &       3.t.;.L s s G L +.%.e.e.e.e.",
"S.u.e.0.0.e.e.t.u.u.b.[.K b .     # < 1 :     O 5 q 0 X     & < 1 9 9 9 9     1 5 5 5 5 1 1 #       3.y.u.r.@...@.r.8.e.e.e.e.e.",
"b.0.7.0.7.7.0.y.t.u.N.E v m X     # : : -     O 5 q 0 X     & : : 9 9 9     0 5 5 5 5 - : : #       3.e.u.u.u.t.t.e.e.e.e.e.e.e.",
"7.7.7.7.7.0.0.0.u.p...M A e.X     # : : -     O 5 q 0 X     & : : : 9 9   7 q 5 5 5 5 5 5 : #       3.e.e.e.e.e.e.e.e.e.e.e.e.e.",
"7.7.7.7.7.7.7.0.y.6.A | 7.7.3.3.3.+ O O O     O 5 q 0 X     X O O O O O   7 q 5 5 5 5 5 O O   U 1.3.e.e.e.e.e.e.e.e.e.e.e.e.e.e.",
"7.e.e.e.e.e.7.0.7.1.e.e.e.e.e.e.e.3.X         O 5 q 0 X                   9 q 5 5 5 5 5     |.{ I 7.7.3.e.e.e.e.e.e.e.e.e.e.e.e.",
"e.e.e.e.e.e.e.7.e.e.e.e.e.e.e.e.e.e.X         O 5 q 0 X                   9 q 5 5 5 5       6.'.] N e.3.7.e.e.e.e.e.e.e.e.e.e.e.",
"e.e.e.e.e.e.e.e.e.e.e.e.e.e.e.e.e.e.X         O r p i O                   9 q 5 5 5         6.y.`.{ I e.e.e.e.e.e.e.e.e.e.e.e.e.",
"e.e.e.e.e.e.e.e.e.e.e.<.e.e.e.e.e.e.3.3.3.X   @ ( T.T.O     j | >.3.      9 q 5 5 5 5       y.y.y.`.R +.e.e.e.e.e.e.e.e.6.e.e.e.",
"e.e.e.e.2.2.2.$.$.$.o.$.e.e.e.e.e.e.e.e.e.X   @ ( T.T.+     | e.e.e.e.      9 q q 5 5 5     y.y.y.y.|.K 6.e.e.e.e.e.e.e.6.e.e.e.",
"e.e.e.e.5.5.:.o.;.:.;.o.#.e.e.e.e.e.e.e.e.X   O u / ( O     3.e.e.e.e.e.      9 q q 5 5     y.y.y.y.y.a.| e.e.e.e.e.e.e.e.e.e.e.",
"e.e.e.:.d.B._.].].].L.K.9.6.e.e.e.e.e.e.e.3.3.3.+ X X       3.e.e.e.e.e.e.      9 q q q     y.y.y.y.y.e.e.e.e.e.e.e.e.e.e.e.e.e.",
"e.e.e.G.}.].D.m.b.v.u.m.8.e.e.e.e.e.e.e.y.y.e.e.X           3.e.e.e.e.e.e.e.        9     =XX.y.y.y.e.e.e.e.e.e.e.e.e.e.e.e.e.e.",
"e.e.e.e.N.u.u.u.t.u.u.t.6.e.e.e.e.e.e.e.e.e.e.e.X           3.e.e.e.e.e.e.e.e.              3.3.e.e.e.e.e.e.e.e.e.e.e.e.e.e.e.e.",
"e.e.e.e.t.t.e.e.r.r.t.6.e.e.e.e.e.e.e.e.e.e.7.e.6.3.3.3.3.3.e.7.e.e.3.3.3.3.3.3.    =X  =Xe.7.3.e.e.e.3.3.e.e.e.e.e.e.e.e.e.e.e.",
"e.e.e.e.e.2.2.6.6.7.6.2.e.e.e.e.e.e.e.e.e.e.e.e.e.e.e.e.e.e.e.e.e.e.e.e.e.e.e.e.e.e.e.e.e.e.e.e.e.e.e.e.e.e.e.e.e.e.e.e.e.e.e.e.",
"3.2.e.e.e.%.$.O.5.6.6.e.e.e.e.e.e.e.e.e.e.e.e.e.e.e.e.e.e.e.e.e.e.e.e.e.e.e.e.e.e.e.e.e.e.e.e.e.e.e.e.e.e.e.e.e.e.e.e.e.e.e.e.e."
};
