/* XPM */
static const char *collectible4[] = {
/* columns rows colors chars-per-pixel */
"64 64 199 2 ",
"   c #140E0B",
".  c #16110D",
"X  c #19140E",
"o  c #1F1C0F",
"O  c #1B1511",
"+  c #1D1A11",
"@  c #211D14",
"#  c #241D19",
"$  c #262019",
"%  c #2A231E",
"&  c #2D2621",
"*  c #2F2922",
"=  c #302724",
"-  c #322A26",
";  c #382F2A",
":  c #3B322D",
">  c #3E382F",
",  c #3E3530",
"<  c #3F3831",
"1  c #403731",
"2  c #423A34",
"3  c #473E38",
"4  c #533C3E",
"5  c #4C433B",
"6  c #50473F",
"7  c #50483F",
"8  c #554040",
"9  c #544C42",
"0  c #584F45",
"q  c #5A5147",
"w  c #5C5349",
"e  c #60574B",
"r  c #625A4F",
"t  c #655B50",
"y  c #685F53",
"u  c #6B6457",
"i  c #736B5D",
"p  c #776F60",
"a  c #7B7464",
"s  c gray46",
"d  c #93556A",
"f  c #95596C",
"g  c #976671",
"h  c #9B6A74",
"j  c #3C8833",
"k  c #38943B",
"l  c #4C9A2A",
"z  c #499936",
"x  c #4F9E36",
"c  c #599E36",
"v  c #4AA336",
"b  c #49A63B",
"n  c #54A535",
"m  c #5EA937",
"M  c #52A639",
"N  c #5BA43B",
"B  c #54AC3C",
"V  c #5CAD3C",
"C  c #5BB33D",
"Z  c #67AD38",
"A  c #6DB33D",
"S  c #72B239",
"D  c #74C23D",
"F  c #46A442",
"G  c #5BAB43",
"H  c #54B041",
"J  c #66A941",
"K  c #62B243",
"L  c #6BB441",
"P  c #68B946",
"I  c #75B742",
"U  c #72B944",
"Y  c #79B848",
"T  c #70AE5A",
"R  c #77BF50",
"E  c #75B26A",
"W  c #75C345",
"Q  c #7DC243",
"!  c #7EC844",
"~  c #84BA4C",
"^  c #87816F",
"/  c #8B8572",
"(  c #928B77",
")  c #948E7A",
"_  c #97907C",
"`  c #99937E",
"'  c #8DBB6C",
"]  c #8DB675",
"[  c #8DBD72",
"{  c #82C343",
"}  c #84C44B",
"|  c #8BC54B",
" . c #86CB48",
".. c #8DCB4B",
"X. c #94CE4C",
"o. c #9DCE4E",
"O. c #8DD24D",
"+. c #94D74B",
"@. c #94D34D",
"#. c #9BD34B",
"$. c #9CD84E",
"%. c #8AC556",
"&. c #97CA52",
"*. c #95CC52",
"=. c #95C459",
"-. c #95D153",
";. c #9CD453",
":. c #9CD857",
">. c #A0CF4F",
",. c #A3D54B",
"<. c #A4D549",
"1. c #A4DB4D",
"2. c #A9DB4D",
"3. c #A2CF5A",
"4. c #A2D553",
"5. c #A4DB52",
"6. c #ACDD52",
"7. c #A9D957",
"8. c #A5DB5D",
"9. c #B0DF54",
"0. c #BBDE5D",
"q. c #A5E051",
"w. c #ADE050",
"e. c #A5E258",
"r. c #AEE35A",
"t. c #B0E055",
"y. c #B2E45B",
"u. c #BCE65E",
"i. c #B6E95E",
"p. c #9ACB6D",
"a. c #9DCB70",
"s. c #A1D262",
"d. c #A9D06C",
"f. c #A8DA69",
"g. c #B2DF68",
"h. c #AFCF74",
"j. c #AED776",
"k. c #A7D279",
"l. c #B2DB75",
"z. c #B4D778",
"x. c #A9E766",
"c. c #B5E562",
"v. c #B9E664",
"b. c #B5E862",
"n. c #BAE965",
"m. c #B5EE6B",
"M. c #BCE96B",
"N. c #B3E274",
"B. c #B9E370",
"V. c #BEEA7D",
"C. c #C1E662",
"Z. c #C1ED62",
"A. c #C3ED6D",
"S. c #C2ED74",
"D. c #C5E87B",
"F. c #C4EC7A",
"G. c #D4EF73",
"H. c #CDF471",
"J. c #C5F37B",
"K. c #CBF47E",
"L. c #9C9681",
"P. c #9F9983",
"I. c #A29C85",
"U. c #A49E89",
"Y. c #A7A18A",
"T. c #AAA48D",
"R. c #AEA790",
"E. c #AFA991",
"W. c #B2AC94",
"Q. c #B6B097",
"!. c #B5B4B4",
"~. c #BBBBBB",
"^. c #BBDE88",
"/. c #B1DA91",
"(. c #BDEA88",
"). c #C5EC80",
"_. c #CBED89",
"`. c #D6EE8A",
"'. c #CAF382",
"]. c #C9F985",
"[. c #D7F486",
"{. c #D3F788",
"}. c #C9E794",
"|. c #DAF79D",
" X c #E6FA89",
".X c #E3F595",
"XX c #E9F79C",
"oX c #F0FE92",
"OX c #D6EFA4",
"+X c #D8EBAC",
"@X c #DDF8A7",
"#X c #E9F9A7",
"$X c #ECFAAE",
"%X c #F2FFA4",
"&X c #E8FABA",
"*X c #C7C6C6",
"=X c #CCCCCC",
"-X c #F5FECE",
";X c #F3FFD3",
/* pixels */
"w.w.w.w.w.w.w.w.w.w.w.w.w.w.w.w.w.w.w.w.w.w.w.w.w.w.w.w.w.w.w.w.w.w.w.w.w.w.w.w.w.w.w.w.w.w.w.w.w.w.w.w.w.w.w.w.w.w.w.w.w.w.w.w.",
"w.w.w.w.w.w.w.w.w.w.w.w.w.w.w.w.w.w.w.w.w.w.w.w.w.w.w.w.w.w.w.w.w.w.w.w.w.w.w.w.w.w.w.w.w.w.w.w.w.w.w.w.w.w.w.w.w.w.w.w.w.w.w.w.",
"w.w.w.w.w.w.w.w.w.w.w.w.w.w.w.w.w.w.w.w.w.w.w.w.w.w.w.w.w.w.w.w.w.w.w.w.w.w.w.w.w.w.w.w.w.w.w.w.w.w.w.w.2.6.7.5.w.w.w.w.w.w.w.w.",
"w.w.w.w.w.w.w.w.w.w.w.w.w.w.w.w.w.w.@ X X X X X 2.w.w.w.w.w.w.w.w.w.w.w.w.w.w.w.@ X X X X X 2.w.w.w.2.2.O.{ I Y ~ &.4.4.w.w.w.w.",
"w.w.w.w.w.w.w.2.2.2.2.2.2.2.2.w.w.w.X           2.w.w.5.$.$.;.5.w.w.w.w.w.w.w.w.X           2.w.2.2.2.V c J =.s.l.z.=.;.1.w.w.w.",
"w.w.w.w.w.w.w.2.a./.] E %.;.2.2.w.w.X           ,.7.| s s s s S ,.w.w.w.w.w.w.w.X           <.2.2.F M %.).XX%X%XXX%X$Xd.;.w.w.w.",
"w.w.w.w.w.w.2.%.[.t.t..X+XT } 2.6.w.X     O O O #.s s ~.~.~.~.s Z $.w.w.w.w.w.w.@ O O       <.2.b v g. XoX XG.C.C.C..XOX*.w.w.w.",
"w.w.w.w.w.w.2.Y '.t.t.t.t.|.[ I 6.6.X     5 7 2 + . O !.~.~.~.~.s Q w.w.w.+ X + 3 7 5 .     <.v m B. XG.n.u.i.u.b.Z.[.k.I 2.w.w.",
"w.w.w.w.w.w.2.{ ^.t.t.t.t.t.`.' N w.X     7 q 5 X     *X=X=X=X~.s L 2.w.w.X   O 5 0 9 .     M A {.H.t.t.y.y.i.y.n.H.V.N U 2.w.w.",
"w.w.w.w.w.w.w.2.x s.t.t.t.t.t._.[ I X     5 q 5 X     *X=X=X=X~.s J 6.w.o     O 5 q 9 .     } A.u.w.e.w.w.w.r.y.n.m.m B W 5.w.w.",
"w.w.w.w.w.w.w.w.A x f.t.t.t.t.t._.T X     ) Y.) 2 ; ; O O O - 1 : * X X O ; ; 2 ) Y.I.X     C.t.6.6.6.6.e.e.r.i.x.n v C @.2.w.w.",
"w.w.w.w.w.w.w.w.2.P x *.t.t.t.t.t.}..     ` T.` 3 : : .     & : : &     O : : 3 L.E.T.O     2.6.6.6.6.w.e.e.r.x.n v H W 5.2.w.w.",
"w.w.w.w.w.w.w.w.w.2.K x t.t.t.t.t.t.X     L.E.` 3 : : .     & : : & .   O : : 3 L.W.T.X     <.2.2.6.6.6.e.r.:.l n C W 5.2.w.w.w.",
"w.w.w.w.w.w.w.w.w.w.2.Q x t.t.t.t.t.X     L.E.I.0 5 5 - & & < 5 5 2 & & - 5 5 0 I.W.Y.X     <.2.2.2.2.6.r.} x H C ! 1.6.2.w.w.w.",
"w.w.w.w.w.w.w.w.w.w.w.2.;...t.t.t.w.X     L.W.I.t w q : : : 5 q q 5 : : , q w r Y.W.T.O     2.w.w.2.2.2.U M C W O.q.1.2.w.w.w.w.",
"w.w.w.w.w.w.w.w.w.w.w.w.2.2.2.w.w.w.X     L.E.I.t w q : : : 5 w w 5 : : , w w t U.W.T.O     2.w.w.w.2.2.2.D +.2.2.2.2.,.1.w.w.w.",
"w.w.w.w.w.w.w.w.w.w.w.+ X X X X X $ * - - 0 e e w w q 7 5 5 9 w w 9 5 5 5 w w w e w w - - = $ X X X X X X ,.1.#.#.#.X.#.;.w.w.w.",
"w.w.w.w.w.w.w.w.w.w.w.X           # : : : 0 w w w w w w w w w w w w w w w w w w w w q : : : #             o.;.X.*.;.-.X.@.5.w.w.",
"w.w.w.w.w.w.w.w.w.w.w.X           # : : : 0 w w w w w w w w w w w w w w w w w w w w q : : : #             j.).'.'.'.K.J.8.5.w.w.",
"w.w.w.w.w.w.w.w.w.w.w.2.X         # 2 3 3 q w w w w w w w w i a a i w w w w w w w w q 3 3 3 %           D.'.S.n.v.c.y.n.7.w.w.w.",
"w.w.w.w.w.w.w.w.w.w.w.w.2.2.X     & 9 q w w w w w w w w w w ( W.E._ w w w w w w w w w q q 0 &       V.F.M.y.y.y.r.y.y.r.5.w.w.w.",
"w.w.w.w.w.w.w.w.w.w.w.w.w.w.X     & 0 w w w w w w w w w w w ) W.W.` w w w w w w w w w w q 0 &       v.y.r.r.w.w.e.e.r.5.w.w.w.w.",
"w.w.w.w.2.2.2.2.2.w.w.w.w.2.X     % 5 6 6 w w w w w w w w w ) W.W.` w w w w w w w w w 6 5 5 %       2.q.1.1.1.5.5.6.5.1.w.w.w.w.",
"2.w.w.2.2.,.#.#.#.X.#.+ X X       # : : : 0 w 0 3 3 3 0 q w ) W.W.` w w 9 3 3 3 5 w q : : : #       X X X @.#.o.4.5.5.w.w.w.w.w.",
"w.w.w.4.4.;.X.-.;.-....           # : : : 0 q X X       q w ) Q.W.` w q       O O w q : : : #             2.w.6.w.w.X.w.w.w.w.w.",
"w.w.;.s.N.).'.'.'.7.7.X           # : : : 0 X X X         y ` W.W.L.u     .   O O O q , : : #             2.6.6.w.w.w.w.w.w.w.w.",
"w.:.F.{.'.S.n.v.c.&.4.>.,.2..     % 6 9 9 w q X X       I.T.E.W.W.W.Y.I.  .   O O w w 9 9 9 &       ,.2.2.w.6.w.w.w.w.w.w.w.w.w.",
"f.].K.M.y.y.y.r.l.z.=.;.1.w.X     & 0 w w w q w / ( ( U.T.W.W.W.W.W.W.W.T.) ( ^ 0 w w w q 0 &       2.w.w.w.w.w.w.w.w.w.w.w.w.w.",
"K.A.y.r.r.w.w.e.e.%X$Xd.;.w.X     % 9 0 0 w q w W.U.U.W.E.W.W.W.W.W.W.W.E.U.U.E.w w w 0 9 9 &       2.w.w.w.w.w.w.w.w.w.w.w.6.w.",
"w.w.w.w.w.w.w.w.w.C..XOX*.2.2.<.G x X     9 q w W.W.W.W.W.W.h f f h W.W.E.E.E.E.w w 0 X     ~ &.>.,.w.w.w.w.w.w.w.w.w.w.w.w.w.w.",
"w.w.w.w.t.t.t.w.w.w.[.k.I 2.w.w.2.Q .     6 w e I.W.W.W.W.W.h d d h E.W.W.E.E.I.w q 0 .     h.=.;.1.w.w.w.w.w.w.w.w.w.w.w.w.w.6.",
"w.w.w.w.w.t.t.w.w.w.w.w.w.w.w.w.w.2.X     5 0 w P.T.E.E.E.E.h d d g R.W.E.T.T.P.q 0 9       XX$Xd.;.w.w.w.w.w.w.w.w.w.w.w.w.w.w.",
"w.w.w.w.w.t.t.t.w.w.w.w.w.w.w.w.w.w.,.<.<.% # $ : : : 9 w w 8 4 4 4 q w 5 > : : # # #       0..XOX*.2.w.w.w.w.w.w.w.w.w.w.w.w.w.",
"w.w.w.w.w.w.t.t.t.w.w.w.w.w.w.w.w.w.2.6.2.X           - : : : g g : : : & .                 u.[.k.I 2.w.w.w.w.w.w.5.5.5.5.w.w.w.",
"w.w.w.w.w.w.w.w.w.w.w.w.w.w.w.w.w.w.2.6.6.X           = : : : : : : : : %                   A.V.N U 2.w.w.w.w.4.*.~ ~ Y } ;.w.w.",
"w.w.w.w.w.w.w.w.w.w.w.w.w.w.w.w.w.w.@ O X       O O + - : : , 2 2 , : : = O O O             c.m B W 5.w.2.2.:.Y s s s s s J ;.5.",
"w.w.w.w.w.w.w.w.w.w.w.w.w.w.w.w.w.w.X         . - : : : : : 5 q q 5 : : : : : -             c v C @.2.w.5.5.J s ~.~.~.~.~.s L ;.",
"w.w.w.w.w.w.w.w.w.w.w.w.w.w.w.w.w.w.X         X ; : : : : : 5 w w 5 : : : : : -             z H W 5.w.2.5.I s ~.~.=X=X~.~.~.s *.",
"w.w.w.w.6.2.2.2.6.2.w.w.w.w.w.w.w.w.X         X : 2 2 w r r i a a i r r 9 2 2 : 5 5         V W 5.2.w.2. .s ~.~.=X=X=X=X~.~.s | ",
"w.w.w.w.w.5.$.$.1.$.+.$.#.o.4.5.5.w.X         O 5 q q ) T.R.E.W.W.E.R.T./ w 0 5 5 5         Q 1.6.w.2.q.Z s ~.=X=X=X=X=X~.~.s } ",
"w.2.w.w.w.w.q...{ *.d.^.}.OXj.} X.$.X         O 5 w w ` W.W.W.W.X X X X X X X 5 5           $.1.w.2.w.5.s ~.~.=X=X=X=X=X~.~.s | ",
"w.w.w.6.w.;.A I }.;X;X;X-X-X-X/.Y @ X X X     O 5 w w ) T.T.W.X X w w w w w X X .     5 5 X + 2.w.w.w.O.s ~.=X=X=X=X=X=X~.s z X.",
"w.w.w.w...~ ^.&X$X|._.F.S.D.@ O X % 5 5 3 .   O 5 w w w w e _ X w w r w w w q X . 5 5 5 5 5 % X X . 2.! s ~.=X=X=X=X=X~.~.s M 1.",
"6.w.6.%.=.@X#XD.v.b.b.v.v.n.X     & 9 q 5 .   O 5 w w w w w ) X w w w w w w q 5 5 5 5 5 0 0 &       5.Q s ~.=X=X=X=X~.~.s k  .1.",
"2.5.| l.|.F.c.i.i.c.c.v.v.M.X     & 9 q 5     O 5 w w 0 9 9 / X X *X0 *X0 w q 5 5 5 5 5 q 0 &       5. .s ~.~.=X=X~.~.s k K 1.2.",
"p.} N.{.v.y.y.y.y.i.c.v.n.S.X     & 0 q 5     O 5 w 0 O . . 2 / X X X   X 9 0 5 5 5     q 0 &       5.-.s ~.~.~.~.s s s B w.w.w.",
"3.X.K.u.y.y.y.y.y.c.v.c.M.(..     & 0 q 5 .   O 5 q 0 X     : / / 2 2 2 2 X X X .   5 5 q 0 &       2.8.G s s s s s F P :.w.w.w.",
"4.| y.t.t.y.y.y.y.y.c.M.N.G .     & 9 0 5 .   X 5 q 0 X     : 0 0 9 2 2 2 2 2 2 5 5 5 5 0 0 &       2.r.-.L s s G L O.$.w.w.w.w.",
"A.y.w.9.9.w.w.r.y.y.v.].K b .     # 1 2 :     O 5 0 0 .     & 1 2 9 9 9 9 9 2 < 5 5 5 5 2 2 #       2.t.y.e.+. .+.e.7.w.w.w.w.w.",
"v.9.6.9.6.6.9.t.r.y.M.R v m X     # : : -     O 5 q 0 X     & : : 9 9 9 9 9 0 5 5 5 5 - : : #       2.w.t.y.y.r.r.w.w.w.w.w.w.w.",
"6.6.6.6.6.9.9.9.y.i. .M A w.X     # : : -     O 5 q 0 X     & : : ; 9 9 7 7 q 5 5 5 5 5 5 ; #       2.w.w.w.w.w.w.w.w.w.w.w.w.w.",
"6.6.6.6.6.6.6.9.t.5.A } 6.6.2.2.2.+ O O O     O 5 q 0 X     X O O O O O @ 7 q 5 5 5 5 5 O O   Y 2.2.w.w.w.w.w.w.w.w.w.w.w.w.w.w.",
"6.w.w.w.w.w.6.9.6.<.w.w.w.w.w.w.w.2.X         O 5 q 0 X                   9 q 5 5 5 5 5     }.[ I 6.6.2.w.w.w.w.w.w.w.w.w.w.w.w.",
"w.w.w.w.w.w.w.6.w.w.w.w.w.w.w.w.w.w.X         O 5 q 0 X                   9 q 5 5 5 5       5.`.' N w.2.6.w.w.w.w.w.w.w.w.w.w.w.",
"w.w.w.w.w.w.w.w.w.w.w.w.w.w.w.w.w.w.X         O r p i O                   9 q 5 5 5         5.t._.[ I w.w.w.w.w.w.w.w.w.w.w.w.w.",
"w.w.w.w.w.w.w.w.w.w.w.,.w.w.w.w.w.w.2.2.2.X   @ / T.Y.O     j } :.2.      9 q 5 5 5 5       t.t.t._.T O.w.w.w.w.w.w.w.w.5.w.w.w.",
"w.w.w.w.1.1.1.#.#.#.X.#.w.w.w.w.w.w.w.w.w.X   @ / Y.Y.+     } w.w.w.w.      9 q q 5 5 5     t.t.t.t.}.K 5.w.w.w.w.w.w.w.5.w.w.w.",
"w.w.w.w.4.4.;.X.-.;.-.X.@.w.w.w.w.w.w.w.w.X   O u ^ / O     2.w.w.w.w.w.      9 q q 5 5     t.t.t.t.t.p.} w.w.w.w.w.w.w.w.w.w.w.",
"w.w.w.;.s.N.).'.'.'.K.J.8.5.w.w.w.w.w.w.w.2.2.2.+ X X       2.w.w.w.w.w.w.      9 q q q     t.t.t.t.t.w.w.w.w.w.w.w.w.w.w.w.w.w.",
"w.w.w.F.{.'.S.n.v.c.y.n.7.w.w.w.w.w.w.w.t.t.w.w.X           2.w.w.w.w.w.w.w.        9     *X..t.t.t.w.w.w.w.w.w.w.w.w.w.w.w.w.w.",
"w.w.w.w.M.y.y.y.r.y.y.r.5.w.w.w.w.w.w.w.w.w.w.w.X           2.w.w.w.w.w.w.w.w.              2.2.w.w.w.w.w.w.w.w.w.w.w.w.w.w.w.w.",
"w.w.w.w.r.r.w.w.e.e.r.5.w.w.w.w.w.w.w.w.w.w.6.w.5.2.2.2.2.2.w.6.w.w.2.2.2.2.2.2.    *X  *Xw.6.2.w.w.w.2.2.w.w.w.w.w.w.w.w.w.w.w.",
"w.w.w.w.w.1.1.5.5.6.5.1.w.w.w.w.w.w.w.w.w.w.w.w.w.w.w.w.w.w.w.6.w.w.w.w.w.w.w.w.w.w.w.w.w.w.w.w.w.w.w.w.w.w.w.w.w.w.w.w.w.w.w.w.",
"2.1.w.w.w.$.#.o.4.5.5.w.w.w.w.w.w.w.w.w.w.w.w.w.w.w.w.w.w.w.w.w.w.w.w.w.w.w.w.w.w.w.w.w.w.w.w.w.w.w.w.w.w.w.w.w.w.w.w.w.w.w.w.w."
};
