/* XPM */
static const char *collectible1[] = {
/* columns rows colors chars-per-pixel */
"64 64 205 2 ",
"   c #140E0B",
".  c #17110D",
"X  c #19150E",
"o  c #1F1C0F",
"O  c #1B1411",
"+  c #1D1A11",
"@  c #211C15",
"#  c #241D19",
"$  c #262019",
"%  c #2A231E",
"&  c #2D2621",
"*  c #2F2922",
"=  c #302724",
"-  c #322A26",
";  c #362E29",
":  c #382F2A",
">  c #3B322D",
",  c #3E382F",
"<  c #3E3530",
"1  c #3F3831",
"2  c #403731",
"3  c #433B34",
"4  c #473E38",
"5  c #533C3E",
"6  c #4C433B",
"7  c #4E483F",
"8  c #50473F",
"9  c #50483F",
"0  c #554040",
"q  c #554C43",
"w  c #584F45",
"e  c #5A5147",
"r  c #5C5349",
"t  c #60574B",
"y  c #625A4F",
"u  c #655C50",
"i  c #685F53",
"p  c #696154",
"a  c #6E6759",
"s  c #736C5D",
"d  c #776F60",
"f  c #777162",
"g  c #7B7464",
"h  c gray46",
"j  c #93556A",
"k  c #95596C",
"l  c #976671",
"z  c #9B6A74",
"x  c #3C8833",
"c  c #38943B",
"v  c #4C9A2A",
"b  c #499936",
"n  c #4F9E36",
"m  c #599E36",
"M  c #4AA336",
"N  c #49A63B",
"B  c #54A535",
"V  c #5EA937",
"C  c #52A639",
"Z  c #5BA43B",
"A  c #54AC3C",
"S  c #5CAD3C",
"D  c #5BB33D",
"F  c #67AD38",
"G  c #6DB33D",
"H  c #72B239",
"J  c #74C23D",
"K  c #46A442",
"L  c #57A844",
"P  c #5FAE42",
"I  c #54B041",
"U  c #66A941",
"Y  c #62B243",
"T  c #6BB441",
"R  c #68B946",
"E  c #75B742",
"W  c #72B944",
"Q  c #79B848",
"!  c #70AE5A",
"~  c #77BF50",
"^  c #75B26A",
"/  c #75C345",
"(  c #7DC243",
")  c #7EC844",
"_  c #84BA4C",
"`  c #86816F",
"'  c #89826F",
"]  c #8A8471",
"[  c #918A77",
"{  c #948E7A",
"}  c #97907C",
"|  c #99937E",
" . c #8DBB6C",
".. c #8DB675",
"X. c #8DBD72",
"o. c #82C343",
"O. c #84C44B",
"+. c #8BC54B",
"@. c #86CB48",
"#. c #8DCB4B",
"$. c #94CE4C",
"%. c #9DCE4E",
"&. c #8DD24D",
"*. c #94D74B",
"=. c #94D34D",
"-. c #9BD34B",
";. c #9CD84E",
":. c #8AC556",
">. c #95CC53",
",. c #98CB55",
"<. c #95C459",
"1. c #95D153",
"2. c #9CD453",
"3. c #9CD857",
"4. c #A0CF4F",
"5. c #A3D44B",
"6. c #A4D549",
"7. c #A4DB4D",
"8. c #A9DB4D",
"9. c #A2CF5A",
"0. c #A2D553",
"q. c #A4DB52",
"w. c #ACDD52",
"e. c #A9D957",
"r. c #A5DB5D",
"t. c #B0DF54",
"y. c #BBDE5D",
"u. c #A5E051",
"i. c #ADE050",
"p. c #A5E258",
"a. c #AEE35A",
"s. c #B0E055",
"d. c #B2E45B",
"f. c #BCE65E",
"g. c #B6E95E",
"h. c #9ACB6D",
"j. c #9DCB70",
"k. c #A1D262",
"l. c #A9D06C",
"z. c #A8DA69",
"x. c #B2DF68",
"c. c #AFCF74",
"v. c #AED776",
"b. c #A7D279",
"n. c #B2DB75",
"m. c #B4D778",
"M. c #A9E766",
"N. c #B5E562",
"B. c #B9E664",
"V. c #B5E862",
"C. c #BAE965",
"Z. c #B5EE6B",
"A. c #BCE96B",
"S. c #B3E274",
"D. c #B9E370",
"F. c #BEEA7D",
"G. c #C1E662",
"H. c #C1ED62",
"J. c #C3ED6D",
"K. c #C2ED74",
"L. c #C5E87B",
"P. c #C4EC7A",
"I. c #D4EF73",
"U. c #CDF471",
"Y. c #C5F37B",
"T. c #CBF47E",
"R. c #9C9681",
"E. c #9F9983",
"W. c #A29C85",
"Q. c #A59F89",
"!. c #A7A18A",
"~. c #AAA48D",
"^. c #AEA790",
"/. c #AFA991",
"(. c #B3AD94",
"). c #B6B097",
"_. c #B5B4B4",
"`. c #BBBBBB",
"'. c #BBDE88",
"]. c #B1DA91",
"[. c #BDEA88",
"{. c #C5EC80",
"}. c #CBED89",
"|. c #D6EE8A",
" X c #CAF382",
".X c #C9F985",
"XX c #D7F486",
"oX c #D3F788",
"OX c #C9E794",
"+X c #DAF79D",
"@X c #E6FA89",
"#X c #E3F595",
"$X c #E9F79C",
"%X c #F0FE92",
"&X c #D6EFA4",
"*X c #D8EBAC",
"=X c #DDF8A7",
"-X c #E9F9A7",
";X c #ECFAAE",
":X c #F2FFA4",
">X c #E8FABA",
",X c #C7C6C6",
"<X c #CDCDCD",
"1X c #F5FECE",
"2X c #F3FFD3",
/* pixels */
"i.i.i.i.i.i.i.i.i.i.i.i.i.i.i.i.i.i.i.i.i.i.i.i.i.i.i.i.i.i.i.i.i.i.i.i.i.i.i.i.i.i.i.i.i.i.i.i.i.i.i.i.i.i.i.i.i.i.i.i.i.i.i.i.",
"i.i.i.i.i.i.i.i.i.i.i.i.i.i.i.i.i.i.i.i.i.i.i.i.i.i.i.i.i.i.i.i.i.i.i.i.i.i.i.i.i.i.i.i.i.i.i.i.i.i.i.i.i.i.i.i.i.i.i.i.w.i.i.i.",
"i.i.i.i.i.i.i.i.i.i.i.i.i.i.i.i.i.i.i.i.i.i.i.i.i.i.i.i.i.i.i.i.i.i.i.i.i.i.i.i.i.i.i.i.i.i.i.i.i.i.i.i.8.w.e.q.i.i.i.i.i.i.i.i.",
"i.i.i.i.i.i.i.i.i.i.i.i.i.i.i.i.i.i.@ X X X X X 8.i.i.i.i.i.i.i.i.i.i.i.i.i.i.i.@ X X X X X 8.i.i.i.8.8.&.o.E Q _ >.0.0.i.i.i.i.",
"i.i.i.i.i.i.i.8.8.8.8.8.8.8.8.i.i.i.X           8.i.i.q.;.;.2.q.i.i.i.i.i.i.i.i.X           8.i.8.8.8.S m U <.k.n.m.<.2.7.i.i.i.",
"i.i.i.i.i.i.i.8.j.]...^ :.2.8.8.i.i.X           5.e.+.h h h h H 5.i.i.i.i.i.i.i.X           6.8.8.K C :.{.$X:X:X$X:X;Xl.2.i.i.i.",
"i.i.i.i.i.i.8.:.XXs.s.#X*X! O.8.w.i.X     O O O -.h h `.`.`.`.h F ;.i.i.i.i.i.i.@ O O       6.8.N M x.@X%X@XI.G.G.G.#X&X>.i.i.i.",
"i.i.i.i.i.i.8.Q  Xs.s.s.s.+XX.E w.w.X     6 9 3 + . O _.`.`.`.`.h ( i.i.i.+ X + 4 9 6 .     6.M V D.@XI.C.f.g.f.V.H.XXb.E 8.i.i.",
"i.i.i.i.i.i.8.o.'.s.s.s.s.s.|. .Z i.X     9 e 6 X     ,X<X<X<X`.h T 8.i.i.X   O 6 w q .     C G oXU.s.s.d.d.g.d.C.U.F.Z W 7.i.i.",
"i.i.i.i.i.i.i.8.n k.s.s.s.s.s.}.X.E X     6 e 6 X     ,X<X<X<X`.h U w.i.o     O 6 e q .     O.J.f.i.p.i.i.i.a.d.C.Z.V A / q.i.i.",
"i.i.i.i.i.i.i.i.G n z.s.s.s.s.s.}.! X     { !.{ 3 : ; O O O - 2 > * X X O ; : 3 { !.W.X     G.s.w.w.w.w.p.p.a.g.M.B M D =.8.i.i.",
"i.i.i.i.i.i.i.i.8.R n >.s.s.s.s.s.OX.     | ~.| 4 > > .     & > > &     O > > 4 R./.~.O     8.w.w.w.w.i.p.p.a.M.B M I / q.8.i.i.",
"i.i.i.i.i.i.i.i.i.8.Y n s.s.s.s.s.s.X     R./.| 4 > > .     & > > & .   O > > 4 R.(.~.X     6.8.8.w.w.w.p.a.3.v B D / q.8.i.i.i.",
"i.i.i.i.i.i.i.i.i.i.8.( n s.s.s.s.s.X     R./.W.w 6 6 - & & 1 6 6 3 & & - 6 6 w W.(.!.X     6.8.8.8.8.w.a.O.n I D ) 7.w.8.i.i.i.",
"i.i.i.i.i.i.i.i.i.i.i.8.2.#.s.s.s.i.X     R.(.W.u r e > > > 6 e e 6 > > < e r y !.(.~.O     8.i.i.8.8.8.W C D / &.u.7.8.i.i.i.i.",
"i.i.i.i.i.i.i.i.i.i.i.i.8.8.8.i.i.i.X     R./.W.u r e > > > 6 r r 6 > > < r r u Q.(.~.O     8.i.i.i.8.8.8.J *.8.8.7.7.5.7.i.i.i.",
"i.i.i.i.i.i.i.i.i.i.i.+ X X X X X $ * - - w t t r r e 9 6 6 q r r q 6 6 6 r r r t r r - - = $ X X X X X X 5.7.-.-.-.$.-.2.i.i.i.",
"i.i.i.i.i.i.i.i.i.i.i.X           # > > > w r r r r r r r r r r r r r r r r r r r r e > > > #             %.2.$.>.2.1.$.=.q.i.i.",
"i.i.i.i.i.i.i.i.i.i.i.X           # > > > w r r r r r r r r r r r r r r r r r r r r e > > > #             v.{. X X XT.Y.r.q.i.i.",
"i.i.i.i.i.i.i.i.i.i.i.8.X         # 3 4 4 e r r r r r r r r s g g s r r r r r r r r e 4 4 4 %           L. XK.C.B.N.d.C.e.i.i.i.",
"i.i.i.i.i.i.i.i.i.i.i.i.8.8.X     & q e r r r r r r r r r r [ (./.} r r r r r r r r r e e w &       F.P.A.d.d.d.a.d.d.a.q.i.i.i.",
"i.i.i.i.i.i.i.i.i.i.i.i.i.i.X     & w r r r r r r r r r r r { (.(.| r r r r r r r r r r e w &       B.d.a.a.i.i.p.p.a.q.i.i.i.i.",
"i.i.i.i.8.8.8.8.7.i.i.i.i.8.X     % 6 8 8 r r w 4 3 4 w r r { (.(.| r r q 4 3 4 e r r 8 6 6 %       7.u.7.7.7.q.q.w.q.7.i.i.i.i.",
"8.i.i.7.7.5.-.-.-.$.-.+ X X       # > > > w r 6 O . . 4 e r { (.(.| r r < . . O 6 r e > > > #       X X X =.-.%.0.q.q.i.i.i.i.i.",
"i.i.i.0.0.2.$.1.2.>.#..           # > > > w e 6 X     4 e r { ).(.| r e >     O 6 r e > > > #             8.i.w.i.i.$.i.i.i.i.i.",
"i.i.2.k.S.{. X X Xe.e.X           # > > > w e 6 X     7 u i | (.(.R.p u 4 .   O 6 r e < > > #             8.w.w.i.i.i.i.i.i.i.i.",
"i.3.P.oX XK.C.B.N.>.0.4.5.8..     % 8 q q r e 6 X     g W.~./.(.(.(.!.W.a .   O 6 r r q q q &       5.8.8.i.w.i.i.i.i.i.i.i.i.i.",
"z..XT.A.d.d.d.a.n.m.<.2.7.i.X     & w r r r e 6 O     ` ~.(.(.(.(.(.(.(.s .   O 6 r r r e w &       8.i.i.i.i.i.i.i.i.i.i.i.i.i.",
"T.J.d.a.a.i.i.p.p.:X;Xl.2.i.X     % q w w r e 6 O     ` /.(.(.(.(.(.(.(.s X   O 6 r r w q q &       8.i.i.i.i.i.i.i.i.i.i.i.i.i.",
"i.i.i.i.i.i.i.i.i.G.#X&X>.8.8.6.P n X     q e r ] [ { Q.(.(.z k k z (.(.~.{ [ ` w r w X     _ ,.4.5.i.i.i.i.i.i.i.i.i.i.i.i.i.i.",
"i.i.i.i.s.s.s.i.i.i.XXb.E 8.i.i.8.( .     8 r t W.(.(.(.(.(.z j j l /.(.(././.W.r e w .     c.<.2.7.i.i.i.i.i.i.i.i.i.i.i.i.i.i.",
"i.i.i.i.i.s.s.i.i.i.i.i.i.i.i.i.i.8.X     6 w r E.~././././.l j j l ^.(./.~.~.E.e w q       $X;Xl.2.i.i.i.i.i.i.i.i.i.i.i.i.i.i.",
"i.i.i.i.i.s.s.s.i.i.i.i.i.i.i.i.i.i.5.6.6.% # $ > > > q r r 0 5 5 5 e r 6 , > > # # #       y.#X&X>.8.i.i.i.i.i.i.i.i.i.i.i.i.i.",
"i.i.i.i.i.i.s.s.s.i.i.i.i.i.i.i.i.i.8.w.8.X           - > > > > > > > > & .                 f.XXb.E 8.i.i.i.i.i.i.q.q.q.q.i.i.i.",
"i.i.i.i.i.i.i.i.i.i.i.i.i.i.i.i.i.i.8.w.w.X           = > > > > > > > > %                   J.F.Z W 7.i.i.i.i.0.>._ _ Q O.,.i.i.",
"i.i.i.i.i.i.i.i.i.i.i.i.i.i.i.i.i.i.@ O X       O O + - > > < 3 3 < > > = O O O             N.V A / q.i.8.8.3.Q h h h h h U 2.q.",
"i.i.i.i.i.i.i.i.i.i.i.i.i.i.i.i.i.i.X         . - > > > > > 6 e e 6 > > > > > -             m M D =.8.i.q.q.U h `.`.`.`.`.h T 2.",
"i.i.i.i.i.i.i.i.i.i.i.i.i.i.i.i.i.i.X         X ; > > > > > 6 r r 6 > > > > > -             b I / q.i.8.q.E h `.`.<X<X`.`.`.h >.",
"i.i.i.i.w.8.8.8.w.8.i.i.i.i.i.i.i.i.X         X > 3 3 r y y a f f s y y q 3 3 >             S / q.8.i.8.@.h `.`.<X<X<X<X`.`.h +.",
"i.i.i.i.i.q.;.;.7.;.*.;.-.%.0.q.q.i.X         O 6 e e { ~.^./.(.(./.^.~.] r w 6 .           ( 7.w.i.8.u.F h `.<X<X<X<X<X`.`.h O.",
"i.8.i.i.i.i.u.#.o.>.l.'.OX&Xv.O.$.;.X         O 6 r r | (.(.(.(.(.(.(.(.[ r e 6 .           ;.7.i.8.i.q.h `.`.<X<X<X<X<X`.`.h +.",
"i.i.i.w.i.2.G E OX2X2X2X1X1X1X].Q @ X X X     O 6 r r { ~.~.(.(.(.(.~.!.' r e 6 .     X O X + 8.i.i.i.&.h `.<X<X<X<X<X<X`.h b $.",
"i.i.i.i.#._ '.>X;X+X}.P.K.L.@ O X % 6 6 4 .   O 6 r r r r t } (.(.| y r r r e 6 .     3 6 6 % X X . 7.) h `.<X<X<X<X<X`.`.h C 7.",
"w.i.w.:.<.=X-XL.B.V.V.B.B.C.X     & q e 6 .   O 6 r r r r r { (.(.| r r r r e 6 .     6 w w &       q.( h `.<X<X<X<X`.`.h c @.7.",
"7.q.+.n.+XP.N.g.g.N.N.B.B.A.X     & q e 6 .   O 6 r r w q q ] /.~.[ w q w r e 6 .     6 e w &       q.@.h `.`.<X<X`.`.h c Y 7.7.",
"h.O.S.oXB.d.d.d.g.g.N.B.C.K.X     & w e 6 .   O 6 r w O . . 3 r r 4 X . # w e 6 .     6 e w &       q.1.h `.`.`.`.h h h A i.i.i.",
"9.$.T.f.d.d.d.d.d.N.B.N.A.[..     & w e 6 .   O 6 e w X     > w e 3     @ q e 6 .     6 e w &       8.r.L h h h h h K R 3.i.i.i.",
"0.+.d.s.s.d.d.d.d.d.N.A.S.L .     & q w 6 .   X 6 e w .     > w w 3     @ q e 6 .     6 w w &       8.a.1.T h h P T &.;.i.i.i.i.",
"J.d.i.t.t.i.i.a.d.d.B..XY N .     # 2 3 >     O 6 w w X     & 2 3 -     @ q e 6 .     ; 3 3 #       8.s.d.p.*.@.*.p.e.i.i.i.i.i.",
"B.t.w.t.t.w.t.s.a.d.A.~ M V X     # > > -     O 6 e w X     & > > &     @ q e 6 .     - > > #       7.i.s.d.d.a.a.i.i.i.i.i.i.i.",
"w.w.w.w.w.w.t.t.d.g.@.C G i.X     # > > -     O 6 e w X     & > > &     @ q e 6 .     - > > #       8.i.i.i.i.i.i.i.i.i.i.i.i.i.",
"w.w.w.w.w.w.w.t.s.q.G O.w.w.8.8.8.+ O O O     O 6 e w X     X O O O     @ q e 6 .     O O O X Q 8.8.i.i.i.i.i.i.i.i.i.i.i.i.i.i.",
"w.i.i.i.i.i.w.t.w.6.i.i.i.i.i.i.i.8.X         O 6 e w X                 @ q e 6 X           OXX.E w.w.8.i.i.i.i.i.i.i.i.i.i.i.i.",
"i.i.i.i.i.i.i.w.i.i.i.i.i.i.i.i.i.i.X         O 6 e w X                 @ q e 6 .           q.|. .Z i.8.w.i.i.i.i.i.i.i.i.i.i.i.",
"i.i.i.i.i.i.i.i.i.i.i.i.i.i.i.i.i.i.X         O y d s O                 % a f p X           q.s.}.X.E i.i.i.i.i.i.i.i.i.i.i.i.i.",
"i.i.i.i.i.i.i.i.i.i.i.5.i.i.i.i.i.i.8.8.8.X   @ ] ~.!.O     x O.3.8.X   - | ~.{ X     ,.q.q.s.s.s.}.! &.i.i.i.i.i.i.i.i.q.i.i.i.",
"i.i.i.i.7.7.7.-.-.-.$.-.i.i.i.i.i.i.i.i.i.X   @ ] !.!.+     O.i.i.i.X   - | ~.{ O     n >.s.s.s.s.s.OXY q.i.i.i.i.i.i.i.q.i.i.i.",
"i.i.i.i.0.0.2.$.1.2.1.$.=.i.i.i.i.i.i.i.i.X   O p ` ] O     8.i.i.i.X   % f ] g X     P n s.s.s.s.s.s.h.O.i.i.i.i.i.i.i.i.i.i.i.",
"i.i.i.2.k.S.{. X X XT.Y.r.q.i.i.i.i.i.i.i.8.8.8.+ X X       8.i.i.i.X     . X . 5.8.8.8.( n s.s.s.s.s.i.i.i.i.i.i.i.i.i.i.i.i.i.",
"i.i.i.P.oX XK.C.B.N.d.C.e.i.i.i.i.i.i.i.s.s.i.i.X           8.i.i.i.X           8.i.i.i.8.2.#.s.s.s.i.i.i.i.i.i.i.i.i.i.i.i.i.i.",
"i.i.i.i.A.d.d.d.a.d.d.a.q.i.i.i.i.i.i.i.i.i.i.i.X           8.i.i.i.X           8.i.w.i.i.8.8.8.i.i.i.i.i.i.i.i.i.i.i.i.i.i.i.i.",
"i.i.i.i.a.a.i.i.p.p.a.q.i.i.i.i.i.i.i.i.i.i.w.i.q.8.8.8.8.8.i.w.i.i.8.8.8.8.8.8.i.i.w.w.i.8.w.8.i.i.i.8.8.i.i.i.i.i.i.i.i.i.i.i.",
"i.i.i.i.i.7.7.q.q.w.q.7.i.i.i.i.i.i.i.i.i.i.i.i.i.i.i.i.i.i.i.w.i.i.i.i.i.i.i.i.i.i.i.i.i.i.i.i.i.i.i.i.i.i.i.i.i.i.i.i.i.i.i.i.",
"7.7.i.i.i.;.-.%.0.q.q.i.i.i.i.i.i.i.i.i.i.i.i.i.i.i.i.i.i.i.i.i.i.i.i.i.i.i.i.i.i.i.i.i.i.i.i.i.i.i.i.i.i.i.i.i.i.i.i.i.i.i.i.i."
};
