/* XPM */
static const char *exit3[] = {
/* columns rows colors chars-per-pixel */
"64 64 235 2 ",
"   c #000000",
".  c #090C05",
"X  c #0D1708",
"o  c #171E0F",
"O  c #2E1715",
"+  c #17230D",
"@  c #232C15",
"#  c #253011",
"$  c #29331B",
"%  c #242323",
"&  c #3A3735",
"*  c #46342F",
"=  c #224A1A",
"-  c #2C4F20",
";  c #42551E",
":  c #44591F",
">  c #495B2A",
",  c #4B6725",
"<  c #536D2F",
"1  c #5C772A",
"2  c #6F7334",
"3  c #5C4D4A",
"4  c #737150",
"5  c #686565",
"6  c gray46",
"7  c #897E0C",
"8  c #AD4C31",
"9  c #A75B3E",
"0  c #C95537",
"q  c #9E5243",
"w  c #B16953",
"e  c #B07466",
"r  c #D15950",
"t  c #E95653",
"y  c #CF6356",
"u  c #C67B5A",
"i  c #E4685C",
"p  c #F16254",
"a  c #F45E64",
"s  c #D27267",
"d  c #DA7A79",
"f  c #EC7071",
"g  c #3E9236",
"h  c #35943D",
"j  c #4F9F36",
"k  c #4B9A39",
"l  c #549C32",
"z  c #698931",
"x  c #73923B",
"c  c #49A537",
"v  c #57A73A",
"b  c #5BB33D",
"n  c #6CAF3A",
"m  c #6CB43C",
"M  c #6BB83B",
"N  c #74C23D",
"B  c #3F9D43",
"V  c #419C45",
"C  c #52AA42",
"Z  c #66AA41",
"A  c #67B544",
"S  c #74B742",
"D  c #77B947",
"F  c #70AE56",
"G  c #75B26A",
"H  c #74C244",
"J  c #7BC243",
"K  c #7AC548",
"L  c #9E910E",
"P  c #A0963C",
"I  c #DAC714",
"U  c #FFE917",
"Y  c #FFE91C",
"T  c #FFEB2D",
"R  c #82BA4C",
"E  c #92BD45",
"W  c #AFA442",
"Q  c #BBAF46",
"!  c #BEB352",
"~  c #A99E69",
"^  c #8EBB6D",
"/  c #8DBB73",
"(  c #D3A25D",
")  c #D7876B",
"_  c #C68D79",
"`  c #F08573",
"'  c #EAAF77",
"]  c #87C748",
"[  c #84C54C",
"{  c #8DCC4B",
"}  c #95CE4C",
"|  c #9DCF4D",
" . c #8CD14E",
".. c #94D649",
"X. c #93D34D",
"o. c #9BD34B",
"O. c #9BD84D",
"+. c #89C557",
"@. c #95C756",
"#. c #94CC53",
"$. c #8CD152",
"%. c #95D152",
"&. c #9BD452",
"*. c #9DD659",
"=. c #A1D446",
"-. c #A2D64B",
";. c #A4DA4D",
":. c #AADC4D",
">. c #A2CF5A",
",. c #A2D553",
"<. c #A4DB52",
"1. c #ACDE52",
"2. c #A6D95C",
"3. c #B0DF54",
"4. c #A5E04D",
"5. c #AEE14F",
"6. c #B1E14E",
"7. c #A5E153",
"8. c #ADE050",
"9. c #ADE35A",
"0. c #B0E055",
"q. c #B2E45B",
"w. c #B8E95E",
"e. c #9ACB6D",
"r. c #9DCB70",
"t. c #A0D261",
"y. c #AADA69",
"u. c #B7D969",
"i. c #AECD71",
"p. c #B3D977",
"a. c #A9E766",
"s. c #B6E662",
"d. c #B7E864",
"f. c #BBEA65",
"g. c #BDEA6B",
"h. c #B3E174",
"j. c #BBE776",
"k. c #F5D64E",
"l. c #C9C772",
"z. c #C1E761",
"x. c #C3EE6C",
"c. c #C2EC77",
"v. c #C6F479",
"b. c #CAF47E",
"n. c #D1F272",
"m. c #F6E062",
"M. c #FFF16C",
"N. c #FFF277",
"B. c #F17E89",
"V. c #B1938B",
"C. c #B3A389",
"Z. c #BBBBBB",
"A. c #D28C8B",
"S. c #D6948A",
"D. c #CB9B9A",
"F. c #D6999A",
"G. c #E38D8B",
"H. c #F28789",
"J. c #F0918D",
"K. c #E79996",
"L. c #F6999A",
"P. c #CCB08C",
"I. c #C5A799",
"U. c #E5A59A",
"Y. c #F6A197",
"T. c #E8B29B",
"R. c #D59EA0",
"E. c #F59FA3",
"W. c #C7A6A7",
"Q. c #D2AFAB",
"!. c #D5B6AA",
"~. c #DAB9BA",
"^. c #E8A7A9",
"/. c #F7A8A9",
"(. c #E7B5A9",
"). c #F7B4AD",
"_. c #E7B8B6",
"`. c #F4B4B4",
"'. c #F6BBBB",
"]. c #B8DA92",
"[. c #BCE787",
"{. c #D0C48A",
"}. c #FAC683",
"|. c #F1CF8B",
" X c #C8EC84",
".X c #D6EE8A",
"XX c #CAF382",
"oX c #CBF987",
"OX c #D4F688",
"+X c #C8E794",
"@X c #DDF99E",
"#X c #EEF38E",
"$X c #FDF185",
"%X c #E6F799",
"&X c #FBF594",
"*X c #D8C4BE",
"=X c #F2D0AD",
"-X c #E6C4B8",
";X c #F4C6B7",
":X c #D8ECA7",
">X c #DDF8A7",
",X c #FDECA4",
"<X c #FAE6A8",
"1X c #EAF9A9",
"2X c #FFF6A1",
"3X c #F7F6A8",
"4X c #F9E6B4",
"5X c #F3F6B5",
"6X c #F28CD0",
"7X c #DBBCC4",
"8X c #F3B7C3",
"9X c #FCA9DF",
"0X c #CECCC7",
"qX c #CDCDCD",
"wX c #D9CAC6",
"eX c #DDD7C9",
"rX c #D4CDD1",
"tX c #DBD6D9",
"yX c #ECC1C4",
"uX c #E6CAC7",
"iX c #EDCDCB",
"pX c #F6C6C6",
"aX c #F5CCCD",
"sX c #ECD5CB",
"dX c #F5D5CB",
"fX c #E2CAD1",
"gX c #F8CED2",
"hX c #EAD9D7",
"jX c #F3D3D2",
"kX c #F8D8D8",
"lX c #F8E3C7",
"zX c #F3F4D3",
"xX c #DBDAE1",
"cX c #EEE8E4",
"vX c #F6E9E9",
/* pixels */
"8.8.8.8.8.8.8.8.8.8.8.8.8.8.8.8.8.8.8.8.8.8.8.8.8.8.8.8.8.8.8.8.8.8.8.8.8.8.8.8.8.8.8.8.8.8.8.8.8.8.8.8.8.8.8.8.8.8.8.8.8.8.8.8.",
"8.8.8.8.8.8.8.8.1.1.8.8.8.8.8.8.8.8.8.8.8.8.8.8.8.8.8.8.8.8.8.8.8.8.8.8.8.8.8.8.8.8.8.8.8.8.8.8.8.8.8.8.8.8.8.8.8.8.8.8.8.8.8.8.",
"8.8.8.8.8.8.8.8.8.1.8.1.8.8.8.8.8.8.8.8.8.8.8.8.8.8.8.8.8.8.8.8.8.8.8.8.8.8.8.8.8.8.8.8.8.8.8.8.8.8.8.8.:.1.<.<.8.8.8.8.5.8.8.8.",
"8.8.8.8.8.8.8.8.1.1.8.8.8.8.8.8.8.8.8.8.8.8.8.8.8.8.8.8.8.8.8.8.8.8.8.8.8.8.8.8.8.8.8.8.8.8.8.8.8.8.:.:.$.[ S D R @.,.,.8.8.8.8.",
"8.8.8.8.8.8.8.:.:.:.:.:.:.:.:.8.8.8.8.8.8.8.8.8.8.8.8.<.o.o.&.<.8.8.8.8.8.8.8.8.8.8.8.8.8.8.8.8.:.:.:.b v Z +.t.p.p.@.&.;.8.8.8.",
"8.8.8.8.8.8.8.:.r.]./ G +.&.:.:.8.8.8.8.8.8.8.8.1.<.] 6 6 6 6 n -.8.8.8.8.8.8.8.8.8.8.8.8.8.:.:.:.C v +. X%X3X3X%X1X1Xi.&.8.8.8.",
"8.8.8.8.8.8.:.+.OX0.0.%X:XF [ :.1.8.8.8.8.8.:.:.;.6 6 Z.Z.Z.Z.6 n O.8.8.8.8.8.8.8.8.8.8.8.8.:.:.c c u.#X#X#Xn.z.z.z.%X:X#.8.8.8.",
"8.8.8.8.8.8.:.D XX0.0.0.0.@X/ S 1.1.8.8.8.8.:.<.m 6 Z.Z.Z.Z.Z.Z.6 J 8.8.8.8.8.8.8.8.8.8.8.:.:.c b j.#Xn.z.w.q.w.d.z.OXi.S :.8.8.",
"8.8.8.8.8.8.:.] [.0.0.0.0.0..X^ v 8.:.8.8.8.1.] 6 Z.Z.qXqXqXqXZ.6 A :.8.8.8.8.8.8.8.8.8.8.:.v m OXn.0.8.q.q.q.q.f.n.j.v S ;.8.8.",
"8.8.8.8.8.8.8.:.j t.0.0.0.0.0. X/ S 8.8.8.8.;.6 6 Z.qXqXqXqXqXZ.6 Z 1.8.8.8.8.8.8.8.8.8.<.m [ x.w.8.7.8.8.8.9.q.f.g.v v H <.8.8.",
"8.8.8.8.8.8.8.8.m j y.0.0.0.0.0. XF  .8.8.8.} 6 Z.Z.qXqXqXqXqXZ.6 Z 8.8.8.8.8.8.8.8.8.8.=.<.x.0.1.1.1.1.7.7.9.q.a.v c b ..:.8.8.",
"8.8.8.8.8.8.8.8.:.A j #.0.0.0.0.0.+XZ <.8.8.] 6 Z.qXqXqXqXqXZ.Z.6 S 8.8.8.8.8.8.8.8.8.:.:.0.1.1.1.1.1.8.7.9.9.a.v c C K <.:.8.8.",
"8.8.8.8.8.8.8.8.8.:.A j 0.0.0.0.0.0.e.[ 8.8.J 6 Z.qXqXqXqXZ.Z.6 6 ] 6.8.8.8.8.8.8.8.8.8.1.:.:.:.:.1.1.1.7.9.*.l v b H <.:.8.8.8.",
"8.8.8.8.8.8.8.8.8.8.:.J j 0.0.0.0.0.:.8.8.8.] 6 Z.qXqXqXZ.Z.6 6 k <.0.8.8.8.8.8.8.8.8.8.8.8.:.:.:.:.:.1.9.[ j C b K ;.:.:.8.8.8.",
"8.8.8.8.8.8.8.8.8.8.8.:.&.{ 0.0.0.8.8.8.8.8.{ 6 Z.Z.qXZ.Z.6 6 h $.8.8.8.:.8.8.8.8.8.8.8.8.8.8.8.8.:.:.:.S v b H  .4.:.:.8.8.8.8.",
"8.8.8.8.8.8.8.8.8.8.8.8.:.:.:.8.8.8.8.8.8.8.&.g 6 Z.Z.Z.6 6 B K 8.8.8.:.:.:.:.;.;.-.;.8.8.8.8.8.8.8.:.:.:.N O.:.:.;.;.-.;.8.8.8.",
"8.8.8.8.8.8.8.8.8.8.8.8.8.5.5.8.8.8.8.8.8.8.<.A h 6 6 6 V A ] 9.8.8.;.;.-.o.o.o.} o.&.8.8.8.8.8.8.8.8.8.;.;.;.o.o.o.} o.&.8.8.8.",
"8.8.8.8.8.8.8.8.8.8.8.8.8.5.5.8.8.8.8.8.8.8.8.&.J M M H ] O.7.9.8.8.,.,.&.} %.*.%.{ X.<.8.8.8.8.8.8.8.8.,.,.&.} #.*.%.} X.<.8.8.",
"8.8.8.8.8.8.5.8.8.8.8.8.8.8.1.8.8.8.8.8.8.8.8.0.9.<.;.7.7.7.8.8.8.*.t.h. XXXXXXXb.v.2.<.8.8.8.8.8.8.8.*.t.h. XXXXXXXb.v.2.<.8.8.",
"8.8.8.8.8.8.5.5.8.8.8.8.8.8.1.1.8.8.8.8.8.8.8.8.8.8.8.8.8.8.8.8.*.c.OXXXc.f.d.s.q.f.2.8.8.8.8.8.8.8.*.c.OXXXc.f.d.s.q.f.2.8.8.8.",
"8.8.8.8.8.8.5.5.8.8.8.8.1.1.1.8.8.8.8.8.8.8.8.8.8.8.8.1.1.1.,.y.oXb.g.q.q.q.9.q.q.9.<.8.8.8.1.1.,.y.oXb.g.q.q.q.9.q.q.9.<.8.8.8.",
"8.8.8.8.8.8.8.8.8.8.8.8.1.1.:.:.:.:.:.:.:.:.8.8.8.8.8.:.:.;.g.b.x.q.9.9.8.8.7.7.9.<.8.8.8.8.:.;.g.b.x.q.9.9.8.8.7.1.9.<.8.8.8.8.",
"8.8.8.8.:.:.:.:.;.8.8.8.8.:.r.]./ G +.&.:.:.8.8.8.8.8.:.:.w.v.f.8.4.;.<.;.<.<.1.<.-.8.8.8.:.:.w.v.f.8.4.;.;.;.<.<.1.<.;.8.8.8.8.",
":.8.8.;.;.-.o.o.o.} o.8.:.+.OX0.0.%X:XF K :.8.8.8.8.8.1.q.f.f.7.;.O...O.o.| ,.<.O.&.8.8.8.1.q.f.f.7.;.O...O.o.| ,.<.<.8.8.8.8.8.",
"8.8.8.,.,.&.} %.*.%.{ X.:.D XX3.0.0.0.:X;Xm                                     } o.8.8.1.0.w.d.7.{ 8.8.8.8.8.8.8.8.} 8.8.8.8.8.",
"8.8.*.t.h. XXXXXXX<.<.2.:.] [.3.0.0.0.S.sX^ 5                                   D X.8.8.0.w.w.&.8.8.5.8.8.8.8.8.8.8.8.8.8.8.8.8.",
"8.*.c.OXXXc.f.d.s.@.,.,.;.8.j t.0.0.u.e S.5 P.W W W W W W W W W W W W W W W W W . . # 8.q.9.{ 8.8.8.8.5.8.8.8.8.8.8.8.8.8.8.8.8.",
"y.oXb.g.q.q.q.9.p.p.@.&.;.8.M j p.l.;XS.3   Q Q Q Q Q 2X2X2X2X2X2X2X2X2XQ Q Q Q     + 8.! J.8.8.8.8.8.5.8.8.8.8.8.8.8.8.8.8.8.8.",
"b.x.q.9.9.8.8.7.7.1X1Xi.&.1.:.D _.S.sXC.V.% Q Q Q 2X2X2XU U U U U U U 2X3X&XQ !     + <.e s `.<.8.8.8.8.8.8.8.8.8.8.8.8.5.5.8.8.",
"8.8.8.8.8.8.8.8.8.z.%X:X#.:.1.I.F.w !.~.hXl.l.lX&X$XU U U U #XU U U U U uXwX|.wX0X! P $ q u J.(.,.;.8.8.8.8.8.8.8.8.8.8.5.5.8.8.",
"8.8.8.8.0.0.0.8.5.5.OXi.S :.8.P.F.w S.kXvXfXiXpX|.8Xm.U U m.tXxXU zXtXY kXeXpXwXhXgX-Xf B.) _ ) -X;.8.8.8.8.8.8.8.8.8.8.5.5.1.1.",
"8.8.8.8.8.0.0.8.8.8.8.1.1.u.(.f L.S.i pXgXgX`.pXdXyXyXyXpXfXhXxX-XcXvX4X,X_.` J.;XcX_.w E.  w s E._.8.8.8.8.8.8.8.8.8.8.8.5.1.1.",
"8.8.5.5.8.0.0.0.8.8.8.8.8.{.K.t H.) ^.gXH./.;XiXdXd s ^._.xX|.rX^.(.uXiXuXwXwX` uX0XtXk.U * q 8 L.pX:.8.8.8.8.8.8.8.8.8.1.1.8.8.",
"8.8.8.8.8.8.0.0.0.8.8.8.u.D.G.y G.kXvXfX^.fXjXiXjX}.8 d 7XtXtXrXr d cXeX_.cX*XiX*XwXhXiXm.f f u Y._.:.8.8.8.8.8.8.<.<.<.<.1.1.1.",
"8.8.8.8.8.8.8.8.8.8.8.8.u.F.S.G.`.gXkXhXyXyXaXgXyXgXy _.~.hXtXtXA.hXcXcXwX-XiXT.U.pXjXvXT.y /.$ v S ;.8.8.5.5.,.#.R R D [ &.8.8.",
"8.8.8.8.8.8.8.8.8.8.8.8.8.i.s t i `.kXpX'.'.dXaXyXyX_.pX8XtXhXxXwXsXcXsXhX`.K.f ` J.jXyX^.V.O + v H <.8.:.:.*.D 6 6 6 6 6 Z *.<.",
"8.8.8.8.8.8.8.8.8.8.5.:.8.8.2 t i pX/.L.K.pXjXgXd y ^.^.7XxXeXrXG.' _.uXyXuX(.f p ` _.7XpX    + b ..:.5.<.<.Z 6 Z.Z.Z.Z.Z.6 S &.",
"8.8.8.8.8.8.8.8.5.8.8.1.8.8., O S.e `.a /.(.jXiX) r r F.7XtXrXW.r G.U.*X~.~.(.^._ Y.aXyX4X    + K <.8.:.<.S 6 Z.Z.qXqXZ.Z.Z.6 #.",
"8.8.8.8.1.:.:.:.1.:.1.1.1.1.,   % ~ L.p Y.pXgX=X9 0 A.F.~.rX~.Q.q u I.I.W.Q.!.'.iX4Xw u 8 U.  + <.:.8.:.] 6 Z.Z.qXqXqXqXZ.Z.6 { ",
"8.8.8.8.8.<.o.o.;.O...O.o.| >     ,X/.H.;XkXaXkX<X_ D.D.W.*XQ.D.C.D.V.D.F.^.K.aX2X2X2XP.d G.uX# 1.8.:.7.b 6 Z.qXqXqXqXqXZ.Z.6 [ ",
"8.:.8.8.8.8.7.{ ] 1     +X:X>     2X3XhXlXhXpXkX_.Q.!.W.W.V.W.!.D.Q.~.fX~.=X2X2X2X2X2X,Xd J.  # 8.5.    % Z.Z.qXqXqXqXqXZ.Z.6 { ",
"8.8.8.1.8.&.S S +X1     zXzX4     2X2X3X*XpXaXkXR.T.{.2X~ {.2X2X|.^.pX/.(.2X2X2X2X2X2X2X2X    # 8.5.    % Z.qXqXqXqXqXqXZ.6 k } ",
"8.8.8.8.{ R ].5X1XE x x           2X2X2X2X2X<X2X(.2X2X2X2X2X2X2X_.pX;X).`.,X2X2X2X2X2X2X2X          z 1 3 Z.qXqXqXqXqXZ.Z.6 v ;.",
"1.8.8.{ @.>X1Xc.s.d.d.d.          2X2X2X2X2X2X2X2X2X2X2X2X2X2X_.`.;X=X`.pX,X2X2X2X2X2X2X2X          8.J 6 Z.qXqXqXqXZ.Z.6 g ] :.",
";.<.] p.@Xc.s.q.q.q.q.q.> > @     M.2X2X2X2X2X2X2X2X2X&X2X2X,X`.gX3X2X=X<X2X2X2X2X2X2X2XM.    X : : 8.J 6 Z.Z.qXqXZ.Z.6 h A ;.;.",
"e.[ h.OXd.q.q.q.q.q.q.q.f.c.<     U T N.2X2X$X$X&X2X2X&X2X2X2XsXlX2X2X2X2X&X$X$X2X2X&XT U     # :.8.8.J 6 Z.Z.Z.Z.6 6 6 v 8.8.8.",
">.} b.w.0.0.0.0.q.q.q.q.g.[.-     U U M.2X        2X2X2X2X2X2X2X2X2X2X2X2X        2X&XU U     # :.8.8.%.A 6 6 6 6 6 V A *.8.8.8.",
",.] q.0.0.0.0.0.q.q.d.g.h.C =     U U }.9X9X6X6X=X2X2X2X2X2X2X2X2X2X2X2X2X,X6X6X9X9X8XU U     # :.8.8.9.%.A 6 6 Z A  .O.8.8.8.8.",
"x.q.8.3.3.0.0.9.0.0.d.XXZ c =     U U }.9X9X6X6X=X2X2X2X2X2X2X,X,X2X2X2X2X,X6X6X9X9X8XU U     # 8.5.8.0.q.7...] ..7.<.8.8.8.8.8.",
"s.3.1.3.3.3.3.0.9.q.g.D c b x , , 7 7 ( }.}.'.'.<X2X2X2X2X2X2X4 4 2X2X2X2X2X'.'.}.}.' 7 7 , , 1 :.5.8.8.q.q.q.9.9.8.8.8.8.8.8.8.",
"1.1.1.1.1.1.3.3.0.q.] v m 8.8.8.8.    L U U 2X2X2X2X2X2X2X2X2X2X2X2X2X2X2X2X2X2XU U I     +.&.:.:.8.8.8.8.8.8.8.8.8.8.8.8.8.8.8.",
"1.1.1.1.1.1.1.3.0.<.m [ 8.8.8.8.8.    L U U U 2X2X2X2X2X2X2X2X2X2X2X2X2X2X2X2XY U U I     :XF [ 1.8.8.8.5.8.8.8.8.8.8.8.8.8.8.8.",
"1.8.8.8.8.8.1.3.1.=.8.8.8.8.8.8.8.8.8.;                                             + 0.0.0.@X/ S 1.1.:.5.8.8.8.8.8.8.8.8.8.8.8.",
"8.8.8.8.8.8.8.1.8.8.8.8.8.8.8.8.8.8.8.;                                             + 0.0.0.0..X^ v 8.:.8.8.8.8.8.8.8.8.8.8.8.8.",
"8.8.8.8.8.8.8.8.8.8.8.8.8.8.8.8.8.8.8.;     1 , & 5 5 5 5 5 & , , 1 1 1 1 1 1 1     o 0.0.0.0.0. X/ S 8.8.8.8.8.8.8.8.8.8.8.8.8.",
"8.8.8.8.8.8.8.8.8.8.8.-.8.8.8.8.8.8.8.;     8.{ g 6 Z.Z.6 6 g ] <.8.8.5.8.8.8.8.    X y.0.0.0.0.0. XF  .8.8.8.8.8.8.8.8.<.8.8.8.",
"8.8.8.8.;.:.;.o.o.o.} o.8.8.8.8.8.8.8.;     8.&.&.g 6 6 g M ] 8.8.8.8.8.8.8.8.8.    X j #.0.0.0.0.0.+XZ <.8.8.8.8.8.8.8.<.8.8.8.",
"8.8.8.8.,.,.&.} %.*.%.} X.8.8.8.8.8.8.    z 8.8.&.J M M H 8.8.8.8.8.8.8.8.8.8.8.E     &.j &.0.0.0.0.0.e.[ 8.8.8.8.8.8.8.8.8.8.8.",
"8.8.8.*.t.h. XXXXXXXb.v.2.<.8.8.8.8.8.    z 8.8.8.8.8.8.8.8.8.8.8.8.8.8.8.8.8.8.E     8.#.j 0.0.0.0.0.8.8.8.8.8.8.8.8.8.8.8.8.8.",
"8.8.8.c.OXXXc.f.d.s.q.f.2.8.8.8.8.8.8.z z E 8.8.8.8.8.8.8.8.8.8.8.8.8.8.8.8.8.8.-.z z 8.8.&.{ 0.0.0.8.8.8.8.8.8.8.8.8.8.8.8.8.8.",
"8.8.8.8.g.q.q.q.9.q.q.9.<.8.8.8.8.8.8.8.8.8.8.8.8.8.8.8.8.7.8.8.8.8.8.8.8.8.8.8.8.8.8.8.8.:.:.:.8.8.8.8.8.8.8.8.8.8.8.8.8.8.8.8.",
"8.8.8.8.9.9.8.8.7.1.9.<.8.8.8.8.8.8.8.8.8.8.1.8.8.8.8.8.8.8.8.8.8.8.8.8.8.8.8.8.8.8.8.8.8.:.1.:.8.8.8.:.:.8.8.8.8.8.8.8.8.8.8.8.",
"8.8.8.8.8.;.;.<.<.1.<.;.8.8.8.8.8.8.8.8.8.8.8.8.8.8.8.8.8.8.8.8.8.8.8.8.8.8.8.8.8.8.8.8.8.8.8.8.8.8.8.8.8.8.8.8.8.8.8.8.8.8.8.8.",
";.:.8.8.8.O.o.| ,.<.<.8.8.8.8.8.8.8.8.8.8.8.8.8.8.8.8.8.8.8.8.8.8.8.8.8.8.8.8.8.8.8.8.8.8.8.8.8.8.8.8.8.8.8.8.8.8.8.8.8.8.8.8.8."
};
