/* XPM */
static const char *exit4[] = {
/* columns rows colors chars-per-pixel */
"64 64 233 2 ",
"   c #000000",
".  c #090C05",
"X  c #0D1708",
"o  c #171E0F",
"O  c #2E1715",
"+  c #17230D",
"@  c #232C15",
"#  c #253011",
"$  c #29331B",
"%  c #363332",
"&  c #46342F",
"*  c #224A1A",
"=  c #2C4F20",
"-  c #42551E",
";  c #44591F",
":  c #485B29",
">  c #4B6725",
",  c #4F652F",
"<  c #5C772A",
"1  c #6F7334",
"2  c #634541",
"3  c #737150",
"4  c #686565",
"5  c gray46",
"6  c #897E0C",
"7  c #AD4C31",
"8  c #A75B3E",
"9  c #C95537",
"0  c #9E5243",
"q  c #B16953",
"w  c #B07466",
"e  c #D15950",
"r  c #E95653",
"t  c #CF6356",
"y  c #C67B5A",
"u  c #E4685C",
"i  c #F16254",
"p  c #F45E64",
"a  c #D27267",
"s  c #DA7A79",
"d  c #EC7071",
"f  c #3E9236",
"g  c #35943D",
"h  c #4F9F36",
"j  c #4B9A39",
"k  c #549C32",
"l  c #698831",
"z  c #799D38",
"x  c #49A537",
"c  c #57A73A",
"v  c #5BB33D",
"b  c #6CAF3A",
"n  c #6CB43C",
"m  c #6BB83B",
"M  c #74C23D",
"N  c #3F9D43",
"B  c #419C45",
"V  c #52AA42",
"C  c #66AA41",
"Z  c #67B544",
"A  c #74B742",
"S  c #77B947",
"D  c #70AE56",
"F  c #75B26A",
"G  c #74C244",
"H  c #7BC344",
"J  c #9E910E",
"K  c #A0963C",
"L  c #DAC714",
"P  c #FFE917",
"I  c #FFE91C",
"U  c #FFEB2D",
"Y  c #82BA4C",
"T  c #92BE42",
"R  c #AFA442",
"E  c #BBAF46",
"W  c #BEB352",
"Q  c #A2906C",
"!  c #8EBB6D",
"~  c #8DBB73",
"^  c #B3B06B",
"/  c #D3A25D",
"(  c #D7876B",
")  c #C68D79",
"_  c #F08573",
"`  c #EAAF77",
"'  c #87C748",
"]  c #84C54C",
"[  c #8DCC4B",
"{  c #95CE4C",
"}  c #9DCF4D",
"|  c #8DD14D",
" . c #94D649",
".. c #93D34D",
"X. c #9BD34B",
"o. c #9BD84D",
"O. c #89C557",
"+. c #95C756",
"@. c #94CC53",
"#. c #8CD152",
"$. c #95D152",
"%. c #9BD452",
"&. c #9DD659",
"*. c #A1D446",
"=. c #A2D64B",
"-. c #A4DA4D",
";. c #AADC4D",
":. c #A2CF5A",
">. c #A2D553",
",. c #A4DB52",
"<. c #ACDE52",
"1. c #A6D95C",
"2. c #B0DF54",
"3. c #B1E14E",
"4. c #A5E153",
"5. c #ADE050",
"6. c #ADE35A",
"7. c #B0E055",
"8. c #B2E45B",
"9. c #B8E95E",
"0. c #9ACB6D",
"q. c #9DCB70",
"w. c #A0D261",
"e. c #A9D969",
"r. c #B7D969",
"t. c #AECD71",
"y. c #B3D977",
"u. c #A9E766",
"i. c #B6E662",
"p. c #B8E864",
"a. c #BBEA65",
"s. c #BDEA6B",
"d. c #B3E174",
"f. c #BBE776",
"g. c #F5D64E",
"h. c #C9C772",
"j. c #C1E761",
"k. c #C3EE6C",
"l. c #C2EC77",
"z. c #C6F479",
"x. c #CAF47E",
"c. c #D1F272",
"v. c #F6E062",
"b. c #FFF16C",
"n. c #FFF277",
"m. c #F17E89",
"M. c #B1938B",
"N. c #B3A389",
"B. c #BBBBBB",
"V. c #D28C8B",
"C. c #D6948A",
"Z. c #CB9B9A",
"A. c #D6999A",
"S. c #E38D8B",
"D. c #F28789",
"F. c #F0918D",
"G. c #E79996",
"H. c #F6999A",
"J. c #CCB08C",
"K. c #C5A799",
"L. c #E5A59A",
"P. c #F6A197",
"I. c #E8B29B",
"U. c #D59EA0",
"Y. c #F59FA3",
"T. c #C7A6A7",
"R. c #D2AFAB",
"E. c #D5B6AA",
"W. c #DAB9BA",
"Q. c #E8A7A9",
"!. c #F7A8A9",
"~. c #E7B5A9",
"^. c #F7B4AD",
"/. c #E7B8B6",
"(. c #F4B4B4",
"). c #F6BBBB",
"_. c #B9DB8F",
"`. c #BCE787",
"'. c #D0C48A",
"]. c #FAC683",
"[. c #F1CF8B",
"{. c #C8EC84",
"}. c #D6EE8A",
"|. c #CAF382",
" X c #CBF987",
".X c #D4F688",
"XX c #C8E794",
"oX c #DDF99E",
"OX c #FDF185",
"+X c #EDEE90",
"@X c #E6F799",
"#X c #FBF594",
"$X c #D8C4BE",
"%X c #F2D0AD",
"&X c #E6C4B8",
"*X c #F4C6B7",
"=X c #D8ECA7",
"-X c #DDF8A7",
";X c #FCE9A6",
":X c #EAF9A9",
">X c #FFF6A1",
",X c #F8F5A9",
"<X c #F9E6B4",
"1X c #F3F6B5",
"2X c #F28CD0",
"3X c #DBBCC4",
"4X c #F3B7C3",
"5X c #FCA9DF",
"6X c #CECCC7",
"7X c #CDCDCD",
"8X c #D9CAC6",
"9X c #DDD7C9",
"0X c #D4CDD1",
"qX c #DBD6D9",
"wX c #ECC1C4",
"eX c #E6CAC7",
"rX c #EDCDCB",
"tX c #F5C4C5",
"yX c #F8C7C7",
"uX c #F5CCCD",
"iX c #ECD5CB",
"pX c #F5D5CB",
"aX c #E2CAD1",
"sX c #F8CED2",
"dX c #EAD9D7",
"fX c #F3D3D2",
"gX c #F8D8D8",
"hX c #F8E3C7",
"jX c #F1F5D3",
"kX c #F4FCD3",
"lX c #DBDAE1",
"zX c #EEE7E4",
"xX c #F6E9E9",
/* pixels */
"5.5.5.5.5.5.5.5.5.5.5.5.5.5.5.5.5.5.5.5.5.5.5.5.5.5.5.5.5.5.5.5.5.5.5.5.5.5.5.5.5.5.5.5.5.5.5.5.5.5.5.5.5.5.5.5.5.5.5.5.5.5.5.5.",
"5.5.5.5.5.5.5.5.<.<.5.5.5.5.5.5.5.5.5.5.5.5.5.5.5.5.5.5.5.5.5.5.5.5.5.5.5.5.5.5.5.5.5.5.5.5.5.5.5.5.5.5.5.5.5.5.5.5.5.5.5.5.5.5.",
"5.5.5.5.5.5.5.5.<.<.5.<.5.5.5.5.5.5.5.5.5.5.5.5.5.5.5.5.5.5.5.5.5.5.5.5.5.5.5.5.5.5.5.5.5.5.5.5.5.5.5.5.;.<.,.,.5.5.5.5.5.5.5.5.",
"5.5.5.5.5.5.5.5.<.<.5.5.5.5.5.5.5.5.5.5.5.5.5.5.5.5.5.5.5.5.5.5.5.5.5.5.5.5.5.5.5.5.5.5.5.5.5.5.5.5.;.;.#.] A S Y +.>.,.5.5.5.5.",
"5.5.5.5.5.5.5.;.;.;.;.;.;.;.;.5.5.5.5.5.5.5.5.5.5.5.5.,.X.X.%.,.5.5.5.5.5.5.5.5.5.5.5.5.5.5.5.5.;.;.;.v c C O.w.y.y.+.%.-.5.5.5.",
"5.5.5.5.5.5.5.;.q._.~ F O.%.;.;.5.5.5.5.5.5.5.5.<.,.' 5 5 5 5 b =.5.5.5.5.5.5.5.5.5.5.5.5.5.;.;.;.V c O.{.@X:X:X@X:X:Xt.%.5.5.5.",
"5.5.5.5.5.5.;.O..X7.7.@X=XD ] ;.<.5.5.5.5.5.;.;.-.5 5 B.B.B.B.5 b o.5.5.5.5.5.5.5.5.5.5.5.5.;.;.x x r.@X#X+Xc.j.j.j.@X=X@.5.5.5.",
"5.5.5.5.5.5.;.S |.7.7.7.7.oX~ A <.<.5.5.5.5.;.,.n 5 B.B.B.B.B.B.5 H 5.5.5.5.5.5.5.5.5.5.5.;.;.x v d.+Xc.j.9.8.9.i.j..Xt.A ;.5.5.",
"5.5.5.5.5.5.;.' `.7.7.7.7.7.}.! c 5.;.5.5.5.<.' 5 B.B.7X7X7X7XB.5 Z ;.5.5.5.5.5.5.5.5.5.5.;.c n .Xc.7.7.8.8.8.8.a.c.f.c A -.5.5.",
"5.5.5.5.5.5.5.;.h w.7.7.7.7.7.{.~ A 5.5.5.5.-.5 5 B.7X7X7X7X7XB.5 C <.5.5.5.5.5.5.5.5.5.,.n ] k.9.5.4.5.5.5.6.8.a.s.c c G ,.5.5.",
"5.5.5.5.5.5.5.5.n h e.7.7.7.7.7.{.D | 5.5.5.{ 5 B.B.7X7X7X7X7XB.5 C 5.5.5.5.5.5.5.5.5.5.*.,.k.7.<.<.<.<.4.4.6.8.u.c x v  .;.5.5.",
"5.5.5.5.5.5.5.5.;.Z h @.7.7.7.7.7.XXC ,.5.5.' 5 B.7X7X7X7X7XB.B.5 A 5.5.5.5.5.5.5.5.5.;.;.7.<.<.<.<.<.5.4.6.6.u.c x V G ,.;.5.5.",
"5.5.5.5.5.5.5.5.5.;.Z h 7.7.7.7.7.7.0.] 5.5.H 5 B.7X7X7X7XB.B.5 5 ' 3.5.5.5.5.5.5.5.5.5.<.;.;.;.;.<.<.<.4.6.&.k c v G ,.;.5.5.5.",
"5.5.5.5.5.5.5.5.5.5.;.H h 7.7.7.7.7.;.5.5.5.' 5 B.7X7X7XB.B.5 5 j ,.7.5.5.5.5.5.5.5.5.5.5.5.;.;.;.;.;.<.6.] h V v H -.;.;.5.5.5.",
"5.5.5.5.5.5.5.5.5.5.5.;.%.[ 7.7.7.5.5.5.5.5.[ 5 B.B.7XB.B.5 5 g #.5.5.5.;.5.5.5.5.5.5.5.5.5.5.5.5.;.;.;.A c v G | 4.;.;.5.5.5.5.",
"5.5.5.5.5.5.5.5.5.5.5.5.;.;.;.5.5.5.5.5.5.5.%.f 5 B.B.B.5 5 N G 5.5.5.;.;.;.;.-.-.=.-.5.5.5.5.5.5.5.;.;.;.M o.;.;.-.-.=.-.5.5.5.",
"5.5.5.5.5.5.5.5.5.5.5.5.5.5.5.5.5.5.5.5.5.5.,.Z g 5 5 5 B Z ' 6.5.5.-.-.=.X.X.X.{ X.%.5.5.5.5.5.5.5.5.5.-.-.-.X.X.X.{ X.%.5.5.5.",
"5.5.5.5.5.5.5.5.5.5.5.5.5.5.5.5.5.5.5.5.5.5.5.%.H m m G ' o.4.6.5.5.>.>.%.{ $.&.$.[ ..,.5.5.5.5.5.5.5.5.>.>.%.{ @.&.$.{ ..,.5.5.",
"5.5.5.5.5.5.5.5.5.5.5.5.5.5.<.5.5.5.5.5.5.5.5.7.6.,.-.4.4.4.5.5.5.%.w.d.{.|.|.|.x.z.1.,.5.5.5.5.5.5.5.&.w.d.{.|.|.|.x.z.1.,.5.5.",
"5.5.5.5.5.5.5.5.5.5.5.5.5.5.<.<.5.5.5.5.5.5.5.5.5.5.5.5.5.5.5.5.&.l..X|.l.a.a.i.8.a.1.5.5.5.5.5.5.5.&.l..X|.l.a.a.i.8.a.1.5.5.5.",
"5.5.5.5.5.5.5.5.5.5.5.5.<.<.<.5.5.5.5.5.5.5.5.5.5.5.5.<.<.<.>.e. Xx.s.8.8.8.6.8.8.6.,.5.5.5.<.<.>.e. Xx.s.8.8.8.6.8.8.6.,.5.5.5.",
"5.5.5.5.5.5.5.5.5.5.5.5.<.<.;.;.;.;.;.;.;.;.5.5.5.5.5.;.;.-.s.x.k.8.6.6.5.5.4.4.6.,.5.5.5.5.;.-.s.x.k.8.6.6.5.5.4.<.6.,.5.5.5.5.",
"5.5.5.5.;.;.;.;.-.5.5.5.5.;.q._.~ F O.%.;.;.5.5.5.5.5.;.;.9.z.a.5.4.-.,.-.,.,.<.,.=.5.5.5.;.;.9.z.a.5.4.-.-.-.,.,.<.,.-.5.5.5.5.",
";.5.5.-.-.=.X.X.X.{ X.5.;.O..X7.7.@X=XD H ;.5.5.5.5.5.<.8.a.a.4.-.o. .o.X.} >.,.o.%.5.5.5.<.8.a.a.4.-.o. .o.X.} >.,.,.5.5.5.5.5.",
"5.5.5.>.>.%.{ $.&.$.[ ..;.S |.2.7.5.7.=X*XA                                     { X.5.5.<.7.9.a.4.[ 5.5.5.5.5.5.5.5.{ 5.5.5.5.5.",
"5.5.&.w.d.{.|.|.|.,.,.1.;.' `.2.7.5.7.C.iX! 4                                   S ..5.5.7.9.9.%.5.5.5.5.5.5.5.5.5.5.5.5.5.5.5.5.",
"5.&.l..X|.l.a.a.i.+.>.>.-.5.h w.7.7.r.w C.4 J.R R R R R R R R R R R R R R R R R . . # 5.8.6.[ 5.5.5.5.5.5.5.5.5.5.5.5.5.5.5.5.5.",
"e. Xx.s.8.8.8.6.y.y.+.%.-.5.m h y.h.*XC.2   E E E E E >X>X>X>X>X>X>X>X>XE E E E     + 5.^ F.5.5.5.5.5.5.5.5.5.5.5.5.5.5.5.5.5.5.",
"x.k.8.6.6.5.5.4.4.:X:Xt.%.<.;.S /.C.iXN.M.$ E E E >X>X>XP P P P P P P >X,X#XE W     + ,.w a (.,.5.5.5.5.5.5.5.5.5.5.5.5.5.5.5.5.",
"5.5.5.5.5.5.5.5.5.j.@X=X@.;.<.K.A.q E.W.dXh.h.hX#XOXP P P P +XP P P P P eX8X[.8X6XW K $ 0 y F.~.>.-.5.5.5.5.5.5.5.5.5.5.5.5.5.5.",
"5.5.5.5.7.7.7.5.5.5..Xt.A ;.5.J.A.q C.gXxXaXrXtX[.4Xv.P P v.qXlXP jXqXI gX9XtX8XdXsX&Xp m.( ) ( &X-.5.5.5.5.5.5.5.5.5.5.5.5.<.<.",
"5.5.5.5.5.7.7.5.5.5.5.<.<.r.~.d H.C.u tXsXsX(.yXpXwXwXtXtXaXdXlX&XzXxX<X;X/._ F.*XzX/.q Y.  q a Y./.5.5.5.5.5.5.5.5.5.5.5.5.<.<.",
"5.5.5.5.5.7.7.7.5.5.5.5.5.'.G.r D.( Q.sXD.!.*XrXpXs a Q./.lX[.0XQ.~.eXrXeX8X8X_ eX6XqXg.P & 0 7 H.tX;.5.5.5.5.5.5.5.5.5.<.<.5.5.",
"5.5.5.5.5.5.7.7.7.5.5.5.r.Z.S.t S.gXxXaXQ.aXfXrXfX].7 s 3XqXqX0Xe s zX9X/.zX$XrX$X8XdXrXv.d d y P./.;.5.5.5.5.5.5.,.,.,.,.<.<.<.",
"5.5.5.5.5.5.5.5.5.5.5.5.r.A.C.S.(.sXgXdXwXwXuXsXwXsXt /.W.dXqXqXV.dXzXzX8X&XrXI.L.yXfXxXI.t !.$ c A -.5.5.5.5.>.@.Y Y S ] %.5.5.",
"5.5.5.5.5.5.5.5.5.5.5.5.5.t.a r u (.gXyX).).pXuXwXwX/.tX4XqXdXlX8XiXzXiXdX(.G.d _ F.fXwXQ.M.O + c G ,.5.;.;.&.S 5 5 5 5 5 C &.,.",
"5.5.5.5.5.5.5.5.5.5.5.;.5.5.1 r u yX!.H.G.uXfXsXs t Q.Q.3XlX9X0XS.` /.eXwXeX~.d i _ /.3XyX    + v  .;.5.,.,.C 5 B.B.B.B.B.5 A %.",
"5.5.5.5.5.5.5.5.5.5.5.<.5.5.> O C.w (.p !.~.fXrX( e e A.3XqX0XT.e S.L.$XW.W.~.Q.) P.uXwX<X    + G ,.5.;.,.A 5 B.B.7X7XB.B.B.5 @.",
"5.5.5.5.<.;.;.;.<.;.<.<.<.<.>   O Q H.i P.yXsX%X8 9 V.A.3X0XW.R.0 y K.K.T.R.E.).rX<Xq y 7 L.  + ,.;.5.;.' 5 B.B.7X7X7X7XB.B.5 [ ",
"5.5.5.5.5.,.X.X.-.o. .o.X.} :     ;X!.D.*XgXuXgX;X) Z.Z.T.$XR.Z.N.Z.M.Z.A.Q.G.yX>X>X>XJ.s S.eX# <.5.;.4.b 5 B.7X7X7X7X7XB.B.5 ] ",
"5.;.5.5.5.5.4.[ ' @.e.`.XX=X,     >X,XdXhXdXtXgX/.T.E.T.T.M.T.E.A.R.W.aXW.%X>X>X>XtX>X;Xs F.  # 5.;.5.,.5 B.B.7X7X7X7X7XB.B.5 [ ",
"5.5.5.<.5.%.A A XXkXkXkXkXkX3     >X>X,X$XyXyXgXU.I.'.>X^ '.>X>X[.Q.yX!.~.>X>X>XtXzXtX>X>X    # 5.5.5.| 5 B.7X7X7X7X7X7XB.5 j { ",
"5.5.5.5.[ Y _.1X:X                >X>X>X>X>X;X>X~.>X>X>X>X>X>X>X).tX*X^.(.;X>X>X>XtX>X>X>X                B.7X7X7X7X7XB.B.5 c -.",
"<.5.5.[ +.-X:Xl.i.                >X>X>X>X>X>X>X>X>X>X>X>X>X>X/.(.*X%X(.tX,X>X>X>X>X>X>X>X                B.7X7X7X7XB.B.5 f ' ;.",
"-.,.' y.oXl.i.8.8.: : : : : @     b.>X>X>X>XOXOX#X>X>X>X>X>X;X(.sX,X>X%X;X,XOXOX>X>X>X>Xb.    X ; ; ; ; ; B.B.7X7XB.B.5 g Z -.-.",
"0.] d..Xa.8.8.8.8.8.8.8.a.l.,     P U n.>X>X    ^ >X>X#X>X>X>XfXhX>X>X>X>X+X    >X>X#XU P     # ;.5.5.$.Z B.B.B.B.5 5 5 c 5.5.5.",
":.{ x.9.7.7.7.7.8.8.8.8.s.`.=     P P b.>X      ^ >X>X>X>X>X>X>X>X>X>X>X>X+X      >X#XP P     # ;.5.5.6.$.5 5 5 5 5 B Z &.5.5.5.",
">.' 8.7.7.7.7.7.8.8.a.s.d.V *     P P ].5X5X2X2X%X>X>X>X>X>X>X>X>X>X>X>X>X;X2X2X5X5X4XP P     # ;.5.5.6.$.Z 5 5 C Z | o.5.5.5.5.",
"k.8.5.2.2.7.7.6.7.7.a.|.C x *     P P ].5X5X2X2X%X>X>X>X>X>X>X+X+X>X>X>X>X;X2X2X5X5X4XP P     # 5.5.5.7.8.4. .'  .4.,.5.5.5.5.5.",
"i.2.<.2.2.2.2.7.6.8.s.S x v z > > 6 6 / ].].).).;X>X>X>X>X>X>X3 3 >X>X>X>X>X).).].].` 6 6 > > < ;.5.5.5.8.8.8.6.6.5.5.5.5.5.5.5.",
"<.<.<.<.<.<.2.2.7.8.' c n 5.5.5.5.    J P P >X>X>X>X>X>X>X>X>X>X>X>X>X>X>X>X>X>XP P L     O.%.;.;.5.5.5.5.5.5.5.5.5.5.5.5.5.5.5.",
"<.<.<.<.<.<.<.2.7.,.n ] 5.5.5.5.5.    J P P P >X>X>X>X>X>X>X>X>X>X>X>X>X>X>X>XI P P L     =XD ] <.5.5.5.5.5.5.5.5.5.5.5.5.5.5.5.",
"<.5.5.5.5.5.<.2.<.*.5.5.5.5.5.5.5.5.5.-                                             + 7.7.7.oX~ A <.<.;.5.5.5.5.5.5.5.5.5.5.5.5.",
"5.5.5.5.5.5.5.<.5.5.5.5.5.5.5.5.5.5.5.-                                             + 7.7.7.7.}.! c 5.;.5.5.5.5.5.5.5.5.5.5.5.5.",
"5.5.5.5.5.5.5.5.5.5.5.5.5.5.5.5.5.5.5.-     < > % 4 4 5 4 4 % > > < < < < < < <     o 7.7.7.7.7.{.~ A 5.5.5.5.5.5.5.5.5.5.5.5.5.",
"5.5.5.5.5.5.5.5.5.5.5.=.5.5.5.5.5.5.5.-     5.[ f 5 B.B.5 5 f ' ,.5.5.5.5.5.5.5.    X e.7.7.7.7.7.{.D | 5.5.5.5.5.5.5.5.,.5.5.5.",
"5.5.5.5.-.;.-.X.X.X.{ X.5.5.5.5.5.5.5.-     5.%.%.f 5 5 f m ' 5.5.5.5.5.5.5.5.5.    X h @.7.7.7.7.7.XXC ,.5.5.5.5.5.5.5.,.5.5.5.",
"5.5.5.5.>.>.%.{ $.&.$.{ ..5.5.5.5.5.    l 5.5.5.%.H m m G 5.5.5.5.5.5.5.5.5.5.5.5.T     @.7.7.7.7.7.7.0.] 5.5.5.5.5.5.5.5.5.5.5.",
"5.5.5.&.w.d.{.|.|.|.x.z.1.,.5.5.5.5.    l 5.5.5.5.5.5.5.5.5.5.5.5.5.5.5.5.5.5.5.5.T     h h 7.7.7.7.7.5.5.5.5.5.5.5.5.5.5.5.5.5.",
"5.5.5.l..X|.l.a.a.i.8.a.1.5.5.5.5.5.l l T 7.5.5.5.5.5.5.5.5.5.5.5.5.5.5.5.5.5.5.5.=.l l 5.%.[ 7.7.7.5.5.5.5.5.5.5.5.5.5.5.5.5.5.",
"5.5.5.5.s.8.8.8.6.8.8.6.,.5.5.5.5.5.5.5.5.5.5.5.5.5.5.5.5.4.5.5.5.5.5.5.5.5.5.5.5.5.5.5.5.;.;.;.5.5.5.5.5.5.5.5.5.5.5.5.5.5.5.5.",
"5.5.5.5.6.6.5.5.4.<.6.,.5.5.5.5.5.5.5.5.5.5.<.5.5.5.5.5.5.5.5.5.5.5.5.5.5.5.5.5.5.5.5.5.5.;.<.;.5.5.5.;.;.5.5.5.5.5.5.5.5.5.5.5.",
"5.5.5.5.5.-.-.,.,.<.,.-.5.5.5.5.5.5.5.5.5.5.5.5.5.5.5.5.5.5.5.5.5.5.5.5.5.5.5.5.5.5.5.5.5.5.5.5.5.5.5.5.5.5.5.5.5.5.5.5.5.5.5.5.",
"-.;.5.5.5.o.X.} >.,.,.5.5.5.5.5.5.5.5.5.5.5.5.5.5.5.5.5.5.5.5.5.5.5.5.5.5.5.5.5.5.5.5.5.5.5.5.5.5.5.5.5.5.5.5.5.5.5.5.5.5.5.5.5."
};
