/* XPM */
static const char *exit1[] = {
/* columns rows colors chars-per-pixel */
"64 64 234 2 ",
"   c #000000",
".  c #090C05",
"X  c #10180A",
"o  c #2E1715",
"O  c #17230D",
"+  c #183013",
"@  c #232C15",
"#  c #253011",
"$  c #29331B",
"%  c #32302F",
"&  c #46342F",
"*  c #224A1A",
"=  c #2C4F20",
"-  c #43561E",
";  c #495B2A",
":  c #4B6725",
">  c #5C772A",
",  c #536D30",
"<  c #6F7334",
"1  c #5C4D4A",
"2  c #737251",
"3  c #686565",
"4  c gray46",
"5  c #897E0C",
"6  c #AD4C31",
"7  c #A75B3E",
"8  c #C95537",
"9  c #9E5243",
"0  c #B16953",
"q  c #B07466",
"w  c #D15950",
"e  c #E95653",
"r  c #CF6356",
"t  c #C67B5A",
"y  c #E4685C",
"u  c #F16254",
"i  c #F45E64",
"p  c #D27267",
"a  c #DA7A79",
"s  c #EC7071",
"d  c #3E9236",
"f  c #35943D",
"g  c #4F9F36",
"h  c #4B9A39",
"j  c #549C32",
"k  c #6A8933",
"l  c #708F37",
"z  c #49A537",
"x  c #57A73A",
"c  c #5BB33D",
"v  c #6CAF3A",
"b  c #6CB43C",
"n  c #6BB83B",
"m  c #74C23D",
"M  c #3F9D43",
"N  c #419C45",
"B  c #52AA42",
"V  c #66AA41",
"C  c #67B544",
"Z  c #74B742",
"A  c #77B947",
"S  c #70AE56",
"D  c #75B26A",
"F  c #74C244",
"G  c #7CC243",
"H  c #7AC548",
"J  c #9E910E",
"K  c #A0963C",
"L  c #DAC714",
"P  c #FFE917",
"I  c #FFE91C",
"U  c #FFEB2D",
"Y  c #9A9550",
"T  c #82BA4C",
"R  c #93BD46",
"E  c #AFA442",
"W  c #BBAF46",
"Q  c #BEB352",
"!  c #A2906C",
"~  c #8EBB6D",
"^  c #8DBB73",
"/  c #B3B06B",
"(  c #D3A25D",
")  c #D7876B",
"_  c #C68D79",
"`  c #F08573",
"'  c #EAAF77",
"]  c #87C748",
"[  c #84C54C",
"{  c #8DCC4B",
"}  c #95CE4C",
"|  c #9DCF4D",
" . c #8DD14D",
".. c #94D649",
"X. c #93D34D",
"o. c #9BD34B",
"O. c #9BD84D",
"+. c #89C557",
"@. c #95C756",
"#. c #95CC53",
"$. c #8CD152",
"%. c #95D052",
"&. c #9BD452",
"*. c #9DD659",
"=. c #A1D446",
"-. c #A2D64B",
";. c #A4DA4D",
":. c #AADC4D",
">. c #A2CF5A",
",. c #A2D553",
"<. c #A4DB52",
"1. c #ACDE52",
"2. c #A6D95C",
"3. c #B0DF54",
"4. c #B1E14E",
"5. c #A5E153",
"6. c #ADE050",
"7. c #ADE35A",
"8. c #B0E055",
"9. c #B2E45B",
"0. c #B8E95E",
"q. c #9ACB6D",
"w. c #9DCB70",
"e. c #A6D666",
"r. c #B7D969",
"t. c #AECD71",
"y. c #B3D977",
"u. c #A9E766",
"i. c #B6E662",
"p. c #B7E864",
"a. c #BBEA65",
"s. c #BDEA6B",
"d. c #B3E174",
"f. c #BBE776",
"g. c #F5D64E",
"h. c #C9C772",
"j. c #C1E761",
"k. c #C3EE6C",
"l. c #C2EC77",
"z. c #C6F479",
"x. c #CAF47E",
"c. c #D1F272",
"v. c #F6E062",
"b. c #FFF16C",
"n. c #FFF277",
"m. c #F17E89",
"M. c #B1938B",
"N. c #B3A389",
"B. c #BBBBBB",
"V. c #D28C8B",
"C. c #D6948A",
"Z. c #CB9B9A",
"A. c #D6999A",
"S. c #E38D8B",
"D. c #F28789",
"F. c #F0918D",
"G. c #E79996",
"H. c #F6999A",
"J. c #CCB08C",
"K. c #C5A799",
"L. c #E5A59A",
"P. c #F6A197",
"I. c #E8B29B",
"U. c #D59EA0",
"Y. c #F59FA3",
"T. c #C7A6A7",
"R. c #D2AFAB",
"E. c #D5B6AA",
"W. c #DAB9BA",
"Q. c #E8A7A9",
"!. c #F7A8A9",
"~. c #E7B5A9",
"^. c #F7B4AD",
"/. c #E7B8B6",
"(. c #F4B4B4",
"). c #F6BBBB",
"_. c #B9DB8F",
"`. c #BCE787",
"'. c #D0C48A",
"]. c #FAC683",
"[. c #F6C98E",
"{. c #E5DA86",
"}. c #C8EC85",
"|. c #D6EE8A",
" X c #CAF382",
".X c #CBF987",
"XX c #D4F688",
"oX c #C8E794",
"OX c #DBF79D",
"+X c #EAF08C",
"@X c #FDF185",
"#X c #F5EC9A",
"$X c #E6F799",
"%X c #FBF594",
"&X c #D8C4BE",
"*X c #F2D0AD",
"=X c #E6C4B8",
"-X c #F4C6B7",
";X c #D8ECA7",
":X c #DDF8A7",
">X c #FCE9A6",
",X c #EAF9A9",
"<X c #FFF6A1",
"1X c #F7F6A8",
"2X c #F9E6B4",
"3X c #F3F6B5",
"4X c #F28CD0",
"5X c #DBBCC4",
"6X c #F3B7C3",
"7X c #FCA9DF",
"8X c #CECCC7",
"9X c #CDCDCD",
"0X c #D9CAC6",
"qX c #DDD7C9",
"wX c #D4CDD1",
"eX c #DBD6D9",
"rX c #ECC1C4",
"tX c #E6CAC7",
"yX c #EDCDCB",
"uX c #F6C6C6",
"iX c #F5CCCD",
"pX c #ECD5CB",
"aX c #F5D5CB",
"sX c #E2CAD1",
"dX c #F8CED2",
"fX c #EAD9D7",
"gX c #F3D3D2",
"hX c #F8D8D8",
"jX c #F8E3C7",
"kX c #F1F5D3",
"lX c #F4FCD3",
"zX c #DBDAE1",
"xX c #EEE8E4",
"cX c #F6E9E9",
/* pixels */
"6.6.6.6.6.6.6.6.6.6.6.6.6.6.6.6.6.6.6.6.6.6.6.6.6.6.6.6.6.6.6.6.6.6.6.6.6.6.6.6.6.6.6.6.6.6.6.6.6.6.6.6.6.6.6.6.6.6.6.6.6.6.6.6.",
"6.6.6.6.6.6.6.6.1.1.6.6.6.6.6.6.6.6.6.6.6.6.6.6.6.6.6.6.6.6.6.6.6.6.6.6.6.6.6.6.6.6.6.6.6.6.6.6.6.6.6.6.6.6.6.6.6.6.6.6.6.6.6.6.",
"6.6.6.6.6.6.6.6.6.1.6.1.6.6.6.6.6.6.6.6.6.6.6.6.6.6.6.6.6.6.6.6.6.6.6.6.6.6.6.6.6.6.6.6.6.6.6.6.6.6.6.6.:.1.<.<.6.6.6.6.6.6.6.6.",
"6.6.6.6.6.6.6.6.1.1.6.6.6.6.6.6.6.6.6.6.6.6.6.6.6.6.6.6.6.6.6.6.6.6.6.6.6.6.6.6.6.6.6.6.6.6.6.6.6.6.:.:.$.[ Z A T @.,.,.6.6.6.6.",
"6.6.6.6.6.6.6.:.:.:.:.:.:.:.:.6.6.6.6.6.6.6.6.6.6.6.6.<.o.o.&.<.6.6.6.6.6.6.6.6.6.6.6.6.6.6.6.6.:.:.:.c x V +.e.y.y.@.&.;.6.6.6.",
"6.6.6.6.6.6.6.:.w._.^ D +.&.:.:.6.6.6.6.6.6.6.6.1.<.] 4 4 4 4 v -.6.6.6.6.6.6.6.6.6.6.6.6.6.:.:.:.B x +.}.$X1X1X$X,X,Xt.&.6.6.6.",
"6.6.6.6.6.6.:.+.XX8.8.$X;XS [ :.1.6.6.6.6.6.:.:.;.4 4 B.B.B.B.4 v O.6.6.6.6.6.6.6.6.6.6.6.6.:.:.z z r.$X%X+Xc.j.j.j.$X;X#.6.6.6.",
"6.6.6.6.6.6.:.A  X8.8.8.8.OX^ Z 1.1.6.6.6.6.:.<.b 4 B.B.B.B.B.B.4 G 6.6.6.6.6.6.6.6.6.6.6.:.:.z c d.+Xc.j.0.9.0.p.j.XXt.Z :.6.6.",
"6.6.6.6.6.6.:.] `.8.8.8.8.8.|.~ x 6.:.6.6.6.1.] 4 B.B.9X9X9X9XB.4 C :.6.6.6.6.6.6.6.6.6.6.:.x b XXc.8.6.9.9.9.9.a.c.f.x Z ;.6.6.",
"6.6.6.6.6.6.6.:.g q.8.8.8.8.8.}.^ Z 6.6.6.6.;.4 4 B.9X9X9X9X9XB.4 V 1.6.6.6.6.6.6.6.6.6.<.b [ k.0.6.5.6.6.6.7.9.a.s.x x F <.6.6.",
"6.6.6.6.6.6.6.6.n g e.8.8.8.8.8.}.S  .6.6.6.} 4 B.B.9X9X9X9X9XB.4 V 6.6.6.6.6.6.6.6.6.6.=.<.k.8.1.1.1.1.5.5.7.9.u.x z c ..:.6.6.",
"6.6.6.6.6.6.6.6.:.C g #.8.8.8.8.8.oXV <.6.6.] 4 B.9X9X9X9X9XB.B.4 Z 6.6.6.6.6.6.6.6.6.:.:.8.1.1.1.1.1.6.5.7.7.u.x z B H <.:.6.6.",
"6.6.6.6.6.6.6.6.6.:.C g 8.8.8.8.8.8.q.[ 6.6.G 4 B.9X9X9X9XB.B.4 4 ] 4.6.6.6.6.6.6.6.6.6.1.:.:.:.:.1.1.1.5.7.*.j x c F <.:.6.6.6.",
"6.6.6.6.6.6.6.6.6.6.:.G g 8.8.8.8.8.:.6.6.6.] 4 B.9X9X9XB.B.4 4 h <.8.6.6.6.6.6.6.6.6.6.6.6.:.:.:.:.:.1.7.[ g B c H ;.:.:.6.6.6.",
"6.6.6.6.6.6.6.6.6.6.6.:.&.{ 8.8.8.6.6.6.6.6.{ 4 B.B.9XB.B.4 4 f $.6.6.6.:.6.6.6.6.6.6.6.6.6.6.6.6.:.:.:.Z x c F  .5.:.:.6.6.6.6.",
"6.6.6.6.6.6.6.6.6.6.6.6.:.:.:.6.6.6.6.6.6.6.&.d 4 B.B.B.4 4 M H 6.6.6.:.:.:.:.;.;.-.;.6.6.6.6.6.6.6.:.:.:.m O.:.:.;.;.-.;.6.6.6.",
"6.6.6.6.6.6.6.6.6.6.6.6.6.6.6.6.6.6.6.6.6.6.<.C f 4 4 4 N C ] 7.6.6.;.;.-.o.o.o.} o.&.6.6.6.6.6.6.6.6.6.;.;.;.o.o.o.} o.&.6.6.6.",
"6.6.6.6.6.6.6.6.6.6.6.6.6.6.6.6.6.6.6.6.6.6.6.&.G n n F ] O.5.7.6.6.,.,.&.} %.*.%.{ X.<.6.6.6.6.6.6.6.6.,.,.&.} #.*.%.} X.<.6.6.",
"6.6.6.6.6.6.6.6.6.6.6.6.6.6.1.6.6.6.6.6.6.6.6.8.7.<.;.5.5.5.6.6.6.&.e.d.}. X X Xx.z.2.<.6.6.6.6.1.6.6.*.e.d.}. X X Xx.z.2.<.6.6.",
"6.6.6.6.6.6.6.6.6.6.6.6.6.6.1.1.6.6.6.6.6.6.6.6.6.6.6.6.6.6.6.6.*.l.XX Xl.a.p.i.9.a.2.6.6.6.6.6.6.6.*.l.XX Xl.a.p.i.9.a.2.6.6.6.",
"6.6.6.6.6.6.6.6.6.6.6.6.6.6.1.1.6.6.6.6.6.6.6.6.6.6.6.1.1.1.,.e..Xx.s.9.9.9.7.9.9.7.<.6.6.6.1.1.,.e..Xx.s.9.9.9.7.9.9.7.<.6.6.6.",
"6.6.6.6.6.6.6.6.6.6.6.6.6.6.:.:.:.:.:.:.:.:.6.6.6.6.6.:.:.;.s.x.k.9.7.7.6.6.5.5.7.<.6.6.6.6.:.;.s.x.k.9.7.7.6.6.5.1.7.<.6.6.6.6.",
"6.6.6.6.:.:.:.:.;.6.6.6.6.:.w._.^ D +.&.:.:.6.6.6.6.6.:.:.0.z.a.6.5.;.<.;.<.<.1.<.-.6.6.6.:.:.0.z.a.6.5.;.;.;.<.<.1.<.;.6.6.6.6.",
":.6.6.;.;.-.o.o.o.} o.6.:.+.XX8.8.$X;XS H :.6.6.6.6.6.1.9.a.a.5.;.O...O.o.| ,.<.O.&.6.6.6.1.9.a.a.5.;.O...O.o.| ,.<.<.6.6.6.6.6.",
"6.6.6.,.,.&.} %.*.%.{ X.:.A  X8.8.8.8.;X-Xb                                     } o.6.6.1.8.0.p.5.{ 6.6.6.6.6.6.6.6.} 6.6.6.6.6.",
"6.6.*.e.d.}. X X X<.<.2.:.] `.8.8.8.8.C.pX~ 3                                   A X.6.6.8.0.0.&.6.6.6.6.6.6.6.6.6.6.6.6.6.6.6.6.",
"6.*.l.XX Xl.a.p.i.@.,.,.;.6.g q.8.8.r.q C.3 J.E E E E E E E E E E E E E E E E E . . # 6.9.7.{ 6.6.6.6.6.6.6.6.6.6.6.6.6.6.6.6.6.",
"e..Xx.s.9.9.7.7.y.y.@.&.;.6.n g y.h.-XC.1   W W W W W <X<X<X<X<X<X<X<X<XW W W W     O 6./ F.6.6.6.6.6.6.6.6.6.6.6.6.6.6.6.6.6.6.",
"x.k.9.7.7.6.6.5.5.,X,Xt.&.1.:.A /.C.pXN.M.% W W W <X<X<XP P P P P P P <X1X#XW Q     O <.q p (.<.6.6.6.6.6.6.6.6.6.6.6.6.6.6.6.6.",
"6.6.6.6.6.6.6.6.6.j.$X;X#.:.1.K.A.0 E.W.fXh.h.jX%X@XP P P P +XP P P P P tX0X{.0X8XQ K % 9 t F.~.,.;.6.6.6.6.6.6.6.6.6.6.6.6.6.6.",
"6.6.6.6.8.8.8.6.6.6.XXt.Z :.6.J.A.0 C.hXcXsXyXuX{.6Xv.P P v.eXzXP kXeXI hXqXuX0XfXaX=Xi m.) _ ) =X;.6.6.6.6.6.6.6.6.6.6.6.6.1.1.",
"6.6.6.6.6.8.8.6.6.6.6.1.1.r.~.s H.C.y uXiXdX(.uXaXrXrXrXuXsXfXzX=XxXcX2X>X/.` F.-XxX/.0 Y.  0 p Y./.6.6.6.6.6.6.6.6.6.6.6.6.6.1.",
"6.6.6.6.6.8.8.8.6.6.6.6.6.'.G.e D.) Q.dXD.!.-XyXaXa p Q./.zX{.wXQ.~.tXyXtX0X0X` tX8XeXg.P & 9 6 H.uX:.6.6.6.6.6.6.6.6.6.1.1.6.6.",
"6.6.6.6.6.6.8.8.8.6.6.6.r.Z.S.r S.hXcXsXQ.sXgXyXgX].6 a 5XeXeXwXw a xXqX/.xX&XyX&X0XfXyXv.s s t P./.:.6.6.6.6.6.6.<.<.<.<.1.1.1.",
"6.6.6.6.6.6.6.6.6.6.6.6.r.A.C.S.(.dXhXfXrXrXiXaXrXdXr /.W.fXeXeXV.fXxXxX0X=XyXI.L.uXgXcXI.r !.$ x Z ;.6.6.6.6.,.#.T T A [ %.6.6.",
"6.6.6.6.6.6.6.6.6.6.6.6.6.t.p e y (.hXuX).).aXiXrXrX/.uX6XeXfXzX0XpXxXpXfX(.G.s ` F.gXrXQ.M.o O x F <.6.:.:.*.A 4 4 4 4 4 V *.<.",
"6.6.6.6.6.6.6.6.6.6.6.:.6.6.< e y uX!.H.G.uXgXaXa r Q.Q.5XzXqXwXS.' /.tXrXtX~.s u ` /.5XuX    O c ..:.6.<.<.V 4 B.B.B.B.B.4 Z &.",
"6.6.6.6.6.6.6.6.6.6.6.1.6.6.: o C.q (.i !.~.gXyX) w w A.5XeXwXT.w S.L.&XW.W.~.Q._ P.iXrX2X    O H <.6.:.<.Z 4 B.B.9X9XB.B.B.4 #.",
"6.6.6.6.1.:.:.:.1.:.1.1.1.1.:   o ! H.u P.uXdX*X7 8 V.A.5XwXW.R.9 t K.K.T.R.E.).yX2X0 t 6 L.  O <.:.6.:.] 4 B.B.9X9X9X9XB.B.4 { ",
"6.6.6.6.6.<.o.o.;.O...O.o.| ;     >X!.D.-XhXiXhX>X_ Z.Z.T.&XR.Z.N.Z.M.Z.A.Q.G.iX<X<X<XJ.a S.tX# 1.6.:.5.v 4 B.9X9X9X9X9XB.B.4 [ ",
"6.:.6.6.6.6.5.{ ] #.e.`.oX;X;     <X1XfXjXfXuXhX/.T.E.T.T.M.T.E.Z.R.W.sXW.*X<X<X<X<X<X#Xa F.  # 6.6.6.<.4 B.B.9X9X9X9X9XB.B.4 { ",
"6.6.6.1.6.&.Z Z oXlXlXlXlXlX2     <X<X1X&XuXiXhXU.I.'.<X/ '.<X<X[.Q.uX!.~.<X<X<X<X<X<X<X<X    # 6.6.6. .4 B.9X9X9X9X9X9XB.4 h } ",
"6.6.6.6.{ T _.3X,XOX}.l.          <X<X<X<X<X>X<X~.<X<X<X<X<X<X<X).uX-X^.(.>X<X<X<X<X<X<X<X          6.G 4 B.9X9X9X9X9XB.B.4 x ;.",
"1.6.6.{ @.:X,Xl.i.p.p.p.          <X<X<X<X<X@X@X%X<X<X<X<X<X<X/.(.-X*X(.uX>X@X@X<X<X<X<X<X          6.G 4 B.9X9X9X9XB.B.4 d ] :.",
";.<.] y.OXl.p.i.0.R l l ; ; @     b.<X<X<X<XY Y {.<X<X<X<X<X>X(.dX1X<X*X>X#XY Y <X<X<X<Xb.    X - - k > 1 B.B.9X9XB.B.4 f C ;.;.",
"q.[ d.XXp.9.9.9.9.>     a.l.,     P U n.<X<X    / <X<X%X<X<X<XpXjX<X<X<X<X#X    <X<X%XU P     # 1.6.    @ B.B.B.B.4 4 4 x 6.6.6.",
">.} x.0.8.8.8.8.9.>     s.`.=     P P b.<X<X    / <X<X<X<X<X<X<X<X<X<X<X<X#X    <X<X%XP P     # :.6.    + 4 4 4 4 4 N C *.6.6.6.",
",.] 9.8.8.8.8.8.9.9.p.s.d.B *     P P [.7X7X4X4X*X<X<X<X<X<X<X<X<X<X<X<X<X>X4X4X7X7X6XP P     # :.6.6.7.%.C 4 4 V C  .O.6.6.6.6.",
"k.9.6.3.3.8.8.7.8.8.p. XC z *     P P [.7X7X4X4X*X<X<X<X<X<X<X#X#X<X<X<X<X>X4X4X7X7X6XP P     # 6.6.6.8.9.5...] ..5.<.6.6.6.6.6.",
"i.3.1.3.3.3.3.8.7.9.s.A z c l : : 5 5 ( ].].).).>X<X<X<X<X<X<X2 2 <X<X<X<X<X).).].].' 5 5 : : > :.6.6.6.9.9.9.7.7.6.6.6.6.6.6.6.",
"1.1.1.1.1.1.3.3.8.9.] x b 6.6.6.6.    J P P <X<X<X<X<X<X<X<X<X<X<X<X<X<X<X<X<X<XP P L     +.&.:.:.6.6.6.6.6.6.6.6.6.6.6.6.6.6.6.",
"1.1.1.1.1.1.1.3.8.<.b [ 6.6.6.6.6.    J P P P <X<X<X<X<X<X<X<X<X<X<X<X<X<X<X<XI P P L     ;XS [ 1.6.6.6.6.6.6.6.6.6.6.6.6.6.6.6.",
"1.6.6.6.6.6.1.3.1.=.6.6.6.6.6.6.6.6.6.-                                             O 8.8.8.OX^ Z 1.1.:.6.6.6.6.6.6.6.6.6.6.6.6.",
"6.6.6.6.6.6.6.1.6.6.6.6.6.6.6.6.6.6.6.-                                             O 8.8.8.8.|.~ x 6.:.6.6.6.6.6.6.6.6.6.6.6.6.",
"6.6.6.6.6.6.6.6.6.6.6.6.6.6.6.6.6.6.6.-     > : % 3 3 4 3 3 % : : > > > > > > >     O 8.8.8.8.8.}.^ Z 6.6.6.6.6.6.6.6.6.6.6.6.6.",
"6.6.6.6.6.6.6.6.6.6.6.-.6.6.6.6.6.6.6.-     6.{ d 4 B.B.4 4 d ] <.6.6.6.6.6.6.6.    X e.8.8.8.8.8.}.S  .6.6.6.6.6.6.6.6.<.6.6.6.",
"6.6.6.6.;.:.;.o.o.o.} o.6.6.6.6.6.6.6.-     6.&.&.d 4 4 d n ] 6.6.6.6.6.6.6.6.6.    X g #.8.8.8.8.8.oXV <.6.6.6.6.6.6.6.<.6.6.6.",
"6.6.6.6.,.,.&.} %.%.%.} X.6.6.6.6.    k 6.6.6.6.&.G n n F 6.6.6.6.6.6.6.6.6.6.6.6.6.R     8.8.8.8.8.8.q.[ 6.6.6.6.6.6.6.6.6.6.6.",
"6.6.6.*.>.d.}. X X Xx.z.2.<.6.6.6.    k 6.6.6.6.6.6.6.6.6.6.6.6.6.6.6.6.6.6.6.6.6.6.R     g 8.8.8.8.8.6.6.6.6.6.6.6.6.6.6.6.6.6.",
"6.6.6.l.XX Xl.a.p.i.9.a.2.6.6.6.6.k k R 8.8.6.6.6.6.6.6.6.6.6.6.6.6.6.6.6.6.6.6.6.6.-.k k &.{ 8.8.8.6.6.6.6.6.6.6.6.6.6.6.6.6.6.",
"6.6.6.6.s.9.9.9.7.9.9.7.<.6.6.6.6.6.6.6.6.6.6.6.6.6.6.6.6.5.6.6.6.6.6.6.6.6.6.6.6.6.6.6.6.:.:.:.6.6.6.6.6.6.6.6.6.6.6.6.6.6.6.6.",
"6.6.6.6.7.7.6.6.5.5.7.<.6.6.6.6.6.6.6.6.6.6.1.6.6.6.6.6.6.6.6.6.6.6.6.6.6.6.6.6.6.6.6.6.6.:.1.:.6.6.6.:.:.6.6.6.6.6.6.6.6.6.6.6.",
"6.6.6.6.6.;.;.<.<.1.<.;.6.6.6.6.6.6.6.6.6.6.6.6.6.6.6.6.6.6.6.6.6.6.6.6.6.6.6.6.6.6.6.6.6.6.6.6.6.6.6.6.6.6.6.6.6.6.6.6.6.6.6.6.",
";.:.6.6.6.O.o.| ,.<.<.6.6.6.6.6.6.6.6.6.6.6.6.6.6.6.6.6.6.6.6.6.6.6.6.6.6.6.6.6.6.6.6.6.6.6.6.6.6.6.6.6.6.6.6.6.6.6.6.6.6.6.6.6."
};
