/* XPM */
static const char *floor3[] = {
/* columns rows colors chars-per-pixel */
"64 64 166 2 ",
"   c #4C9A2A",
".  c #4F9F36",
"X  c #4D9F39",
"o  c #5C9E3A",
"O  c #4AA336",
"+  c #46A93B",
"@  c #54A535",
"#  c #5EA937",
"$  c #52A63A",
"%  c #5BA43B",
"&  c #55AB3D",
"*  c #5AAD3D",
"=  c #5CB43D",
"-  c #6BB53C",
";  c #4CA841",
":  c #59A644",
">  c #5FA841",
",  c #53B141",
"<  c #6DA641",
"1  c #65AD41",
"2  c #79AE45",
"3  c #62B244",
"4  c #6ABA48",
"5  c #75B742",
"6  c #78B745",
"7  c #72BA44",
"8  c #78B945",
"9  c #76B24C",
"0  c #7FBA4A",
"q  c #6AA85B",
"w  c #70AE5A",
"e  c #77BF50",
"r  c #75B26A",
"t  c #74C243",
"y  c #7EC143",
"u  c #7EC844",
"i  c #80BB47",
"p  c #83B94B",
"a  c #80B656",
"s  c #8DBB6C",
"d  c #8DB675",
"f  c #8DBD72",
"g  c #83C444",
"h  c #85C54B",
"j  c #8AC54B",
"k  c #8DCC4C",
"l  c #94CE4C",
"z  c #9DCF4D",
"x  c #8CD24E",
"c  c #94D74B",
"v  c #93D24D",
"b  c #9BD34B",
"n  c #9DD84E",
"m  c #8DC157",
"M  c #8BCB51",
"N  c #85C358",
"B  c #8FC359",
"V  c #94C750",
"C  c #95CC53",
"Z  c #94C45A",
"A  c #95D152",
"S  c #9BD552",
"D  c #9DDB53",
"F  c #96D559",
"G  c #9DD15D",
"H  c #A1D446",
"J  c #A2D74B",
"K  c #A4DB4D",
"L  c #ACDE4E",
"P  c #A2CF5A",
"I  c #A2D552",
"U  c #A4DB52",
"Y  c #ACDE53",
"T  c #A5DA5E",
"R  c #AADB59",
"E  c #B0DE54",
"W  c #A5E04D",
"Q  c #AEE24F",
"!  c #A5E052",
"~  c #ADE050",
"^  c #ACE359",
"/  c #B0E055",
"(  c #B2E45B",
")  c #BDE75E",
"_  c #B4E95C",
"`  c #B9E95F",
"'  c #9ACB6D",
"]  c #9CD067",
"[  c #96CD72",
"{  c #9EC579",
"}  c #A1D262",
"|  c #A7D768",
" . c #A9D06C",
".. c #ABDF6A",
"X. c #B2DF68",
"o. c #A7D279",
"O. c #ADD57C",
"+. c #B2DB75",
"@. c #B4D778",
"#. c #A9E665",
"$. c #A8E867",
"%. c #B6E562",
"&. c #B8E664",
"*. c #B6E962",
"=. c #BBEA64",
"-. c #B5EE6B",
";. c #BCEA6B",
":. c #B3E274",
">. c #B9E370",
",. c #BDEB7C",
"<. c #C2E661",
"1. c #C1ED62",
"2. c #C4EE6C",
"3. c #CAF66F",
"4. c #C4E776",
"5. c #C3ED74",
"6. c #C3EC7A",
"7. c #CAED7D",
"8. c #D4EF73",
"9. c #C4F278",
"0. c #CBF57E",
"q. c #CAF87B",
"w. c #D0F372",
"e. c #AFDE80",
"r. c #ABDB8B",
"t. c #BBDE88",
"y. c #B7D997",
"u. c #BBE386",
"i. c #BEF089",
"p. c #C5EB80",
"a. c #CBED89",
"s. c #D6EE8A",
"d. c #C6F783",
"f. c #CAF382",
"g. c #CCFA88",
"h. c #D7F486",
"j. c #D2F881",
"k. c #D0F588",
"l. c #D8F78A",
"z. c #D6F98B",
"x. c #C5E495",
"c. c #C9E990",
"v. c #CAE79A",
"b. c #DCF897",
"n. c #D9F79C",
"m. c #DDF79F",
"M. c #E6F686",
"N. c #E5FC86",
"B. c #E8FD8F",
"V. c #E3F595",
"C. c #E0F498",
"Z. c #EEFC9D",
"A. c #F0FE92",
"S. c #D6EEA3",
"D. c #D8EBAC",
"F. c #DDF8A7",
"G. c #DBF5AC",
"H. c #E0F7A3",
"J. c #EFFAA4",
"K. c #E5F9AF",
"L. c #ECFAAE",
"P. c #F2FFA4",
"I. c #E8FBB7",
"U. c #E8FABA",
"Y. c #F5FECE",
"T. c #F3FFD3",
/* pixels */
"~ ~ ~ ~ ~ ~ ~ ~ Q ~ ~ ~ ~ ~ ~ ~ ~ ~ ~ ~ ~ ~ ~ ~ ~ ~ ~ ~ ~ ~ ~ ~ ~ ~ ~ ~ ~ ~ ~ ~ ~ ~ ~ ~ ~ ~ ~ ~ ~ ~ ~ ~ ~ ~ ~ ~ ~ ~ ~ ~ ~ ~ ~ ~ ",
"~ ~ ~ ~ ~ ~ ~ ~ ~ ~ ~ ~ ~ ~ ~ ~ ~ ~ ~ ~ ~ ~ ~ ~ ~ ~ ~ ~ ~ ~ ~ ~ ~ ~ ~ ~ ~ ~ ~ ~ ~ ~ ~ ~ ~ ~ ~ ~ ~ ~ ~ ~ ~ ~ ~ ~ ~ ~ ~ ~ ~ ~ ~ ~ ",
"~ ~ ~ ~ ~ ~ ~ ~ ~ ~ ~ ~ ~ ~ ~ ~ ~ ~ ~ ~ ~ b z I U U ~ ~ ~ ~ ~ ~ ~ ~ ~ ~ ~ ~ ~ ~ ~ ~ ~ ~ ~ ~ ~ ~ ~ ~ ~ ~ L Y U U ~ ~ ~ ~ ~ ~ ~ ~ ",
"~ ~ ~ ~ ~ ~ ~ ~ ~ ~ ~ ~ ~ ~ ~ ! k g C  .t.v.S.O.h l n ~ ~ ~ ~ ~ ~ ~ ~ ~ ~ ~ ~ ~ ~ ~ ~ ~ ~ ~ ~ ~ ~ ~ L L M g 8 6 i V I I ~ ~ ~ ~ ",
"~ ~ ~ Q ~ ~ ~ ~ ~ ~ ~ ~ ~ ` S - 2 x.T.T.T.T.Y.Y.r.8 v ~ ~ ~ ~ ~ ~ ~ ~ ~ ~ ~ ~ ~ ~ ~ ~ ~ ~ ~ ~ ~ L L L * o < B } +.@.Z S K ~ ~ ~ ",
"~ ~ ~ Q ~ ~ ~ ~ ~ ~ ~ / ^ k p t.U.K.n.a.6.5.7.b.I.a l ~ ~ ~ ~ ~ ~ ~ ~ ~ ~ ~ ~ ~ ~ ~ ~ ~ ~ ~ L L L ; $ N p.Z.P.P.Z.J.L. .S ~ ~ ~ ",
"~ ~ ~ ~ ~ ~ ~ ~ L ~ ~ ^ M Z F.H.4.&.*.*.&.&.=.6.G.9 ~ Y ~ ~ ~ ~ ~ ~ ~ ~ ~ ~ ~ ~ ~ ~ ~ ~ ~ ~ L L + O X.B.A.M.8.<.<.<.V.S.C ~ ~ ~ ",
"~ ~ ~ ~ ~ ~ ~ L ~ ~ U j +.m.6.%.( ( %.%.&.;.;.k.[ - ~ Y Y ~ ~ ~ ~ ~ ~ ~ ~ ~ ~ ~ ~ ~ ~ ~ ~ L L O # >.N.8.=.` ( ` *.1.h.o.5 K ~ ~ ",
"~ ~ ~ ~ ~ ~ L ~ ~ ~ h :.z.&.( ( ( ( ( %.&.=.5.e.> ~ ~ ~ ~ ~ ~ ~ ~ ~ ~ ~ ~ ~ ~ ~ ~ ~ ~ ~ ~ L $ - j.w./ / ( ( ( ( =.3.,.% 7 K ~ ~ ",
"~ ~ ~ ~ ~ ~ L / ~ P l 0.) / / / / ( %.&.%.;.i.3 * ~ ~ ~ ~ ~ ~ ~ ~ ~ ~ ~ ~ ~ ~ ~ ~ Y ~ ~ U - h 2.) ~ ~ ~ ~ ~ ^ ( =.-.# & t U ~ ~ ",
"~ ~ ~ ~ ~ ~ / / / I j ( / / / / / ( ( %.;.:.: ; ~ ~ ~ ~ ~ ~ ~ ~ ~ ~ ~ ~ ~ ~ ~ ~ ~ ~ ~ ~ H U 2.( Y Y Y Y ~ ~ ^ _ #.@ O = c L ~ ~ ",
"~ ~ ~ ~ ~ ~ ~ A k 2.( ~ / / ~ ~ ^ / / &.d.3 + ~ ~ ~ ~ ~ ~ ~ ~ ~ ~ ~ ~ ~ ~ ~ ~ ~ ~ ~ ~ L L ( Y Y Y Y Y ~ ~ ^ ^ $.@ O , t U K ~ ~ ",
"~ ~ ~ ~ ~ ~ U k T &.E Y E Y ~ Y ~ / ( ;.e O ~ ~ ~ ~ ~ ~ ~ ~ ~ ~ ~ ~ ~ ~ ~ ~ ~ ~ ~ ~ ~ ~ Y ~ ~ ~ ~ ~ ~ Y ~ ^ F   @ = t U L ~ ~ ~ ",
"~ ~ ~ ~ ~ Y S C &.Y Y Y Y Y Y Y E / ( h $ ~ ~ ~ ~ ~ ~ / ~ ~ ~ ~ ~ ~ ~ ~ ~ ~ ~ ~ ~ ~ ~ ~ ~ ~ ~ ~ ~ ~ ~ ~ ~ ~ X , = u ~ ~ ~ ~ ~ ~ ",
"~ ~ ~ ~ ~ Y I R E Y Y Y E Y Y Y Y / U - ~ ~ ~ ~ ~ ~ ~ / ~ ~ ~ ~ ~ ~ ~ ~ ~ ~ ~ ~ ~ ~ ~ ~ ~ ~ ~ ~ ~ ~ ~ ~ ~ ~ ~ t x ~ ~ ~ ~ ~ ~ ~ ",
"~ ~ ~ ~ ~ Y I R Y Y ~ ~ ~ ~ ~ Y E Y ~ ~ ~ ~ ~ ~ ~ ~ ~ ~ ~ ~ ~ ~ ~ ~ ~ ~ ~ ~ ~ ~ ~ ~ ~ ~ ~ ~ ~ ~ ~ ~ ~ ~ ~ ~ ~ K ~ ~ ~ ~ ~ ~ ~ ~ ",
"~ ~ ~ ~ ~ ~ U Y Y ~ ~ ~ ~ ~ ~ ~ ~ ~ ~ ~ ~ ~ ~ ~ ~ ~ ~ ~ ~ ~ ~ ~ ~ ~ ~ ~ ~ ~ ~ ~ ~ ~ ~ ~ ~ ~ ~ ~ ~ ~ ~ ~ ~ ~ ~ ~ ~ ~ ~ ~ ~ ~ ~ ~ ",
"~ ~ ~ ~ ~ ~ ~ ~ ~ ~ ~ ~ ~ ~ ~ ~ ~ ~ ~ ~ ~ ~ ~ ~ ~ ~ ~ ~ ~ ~ ~ ~ ~ ~ ~ ~ ~ ~ ~ ~ ~ ~ ~ ~ ~ ~ ~ ~ ~ ~ ~ ~ ~ ~ ~ ~ ~ ~ ~ ~ ~ ~ ~ ~ ",
"~ ~ ~ ~ ~ ~ Q ~ ~ ~ ~ ~ ~ ~ ~ ~ ~ ~ ~ ~ ~ ~ ~ ~ ~ ~ ~ ~ ~ ~ ~ ~ ~ ~ ~ ~ ~ ~ ~ ~ ~ ~ ~ ~ ~ ~ ~ ~ ~ ~ ~ ~ ~ ~ L K K K K K ~ ~ ~ ~ ",
"~ ~ ~ ~ ~ ~ Q Q ~ ~ ~ ~ ~ ~ ~ ~ ~ ~ ~ ~ ~ ~ ~ ~ ~ ~ ~ ~ ~ ~ ~ ~ ~ ~ ~ ~ ~ ~ ~ ~ ~ ~ ~ ~ ~ ~ ~ ~ ~ ~ ~ ~ ~ K K J b b b l b ~ ~ ~ ",
"~ ~ ~ ~ ~ Q Q Q ~ ~ ~ ~ ~ ~ ~ ~ ~ ~ ~ ~ ~ ~ ~ ~ ~ ~ ~ Y ~ ~ ~ ~ ~ ~ ~ ~ ~ ~ ^ ( ( ~ ~ ~ ~ ~ ~ ~ ~ ~ ~ ~ ~ I I S l A S A ~ ~ ~ ~ ",
"~ ~ ~ ~ ~ ~ ~ Q ~ ~ ~ ~ ~ ~ ~ ~ ~ ~ ~ ~ ~ ~ ~ ~ ~ ~ ~ ~ ~ ~ ~ ~ ~ ~ ~ ^ ~ ~ ~ ~ ^ ~ ~ ~ ~ ~ ~ ~ ~ ~ ~ ~ S } :.p.f.f.f.0.~ ~ ~ ~ ",
"~ ~ ~ ~ L K K K K ~ ~ ~ ~ ~ ~ ~ L K K K L ~ ~ ~ ~ ~ ~ ~ ~ ~ ~ ~ ~ ~ K U K U U Y U K ~ ~ ~ ~ ~ ~ ~ ~ ~ G 6.k.f.5.=.&.%.( ~ ~ ~ ~ ",
"L ~ ~ K K J b b b l b ~ L ~ ~ K { y.d r N S ~ ~ ~ ~ ~ ~ ~ ~ ~ ~ K n c n b z I U U S ~ ~ ~ ~ ~ ~ Y I ..g.0.;.( ( ( ^ ( ( ~ ~ ~ ~ ",
"~ ~ ~ I I S l A F A k v ~ ~ L m l./ / C.D.q h ~ L L ~ ~ ~ ~ ~ k g C  .t.v.S.O.h l n ~ ~ ~ ~ ~ ~ K ;.q.;.^ ^ ^ ~ ~ ~ ~ ^ ~ ~ ~ ~ ",
"~ ~ S } :.p.f.f.f.U U T ~ ~ L 0 f./ / / / m.f 5 Y Y / _ ` S - 2 x.T.T.T.Y.Y.Y.r.8 v ~ Y ~ ~ ~ L ` 9.=.~ W K U K U U Y U ~ ~ ~ ~ ",
"~ G 6.k.f.5.=.&.%.V I I ~ ~ L g u./ / / / / s.s % ~ / ^ k p t.U.K.n.a.6.5.7.b.I.a l Y ~ ~ ~ Y ( =.=.~ K n c n b z I U ~ ~ ~ ~ ~ ",
"..g.0.;.( ( ( ^ +.@.Z S ~ ~ ~ ~ . ] / / / / / a.f 5 ^ M Z F.H.4.&.*.*.&.&.=.6.G.9 S Y ~ L Y / ` *.~ ~ ~ ~ ~ ~ ~ ~ ~ ~ ~ ~ ~ ~ ~ ",
"q.2./ ^ ^ ~ ~ ~ ~ J.L. .~ ~ ~ ~ - . | / / / / / a.w j +.m.6.%.( ( %.%.&.;.;.k.[ - D Y U Y / _ ` ~ ~ ~ ~ ~ ~ ~ ~ ~ ~ ~ ~ ~ ~ ~ ~ ",
"~ ~ ~ ~ ~ ~ ~ ~ ~ <.V.S.~ ~ ~ ~ L 4 . C / / / / / h :.z.&.( ( ( ( ( %.&.=.5.e.> 4 ~ ~ ~ ~ ~ ~ ~ ~ ~ ~ ~ ~ ~ ~ ~ ~ ~ ~ ~ ~ ~ ~ ~ ",
"~ ~ ~ ~ / / / ~ ~ ~ h.o.5 S ~ ~ ~ L 3 . / / / / P l 0.) / / / / ( %.&.%.;.i.3 * ~ ~ ~ ~ ~ ~ ~ ~ ~ ~ ~ ~ ~ ~ ~ ~ ~ ~ ~ ~ ~ ~ ~ ~ ",
"~ ~ ~ ~ ~ / / ~ ~ ~ ~ ~ ~ ~ ~ ~ ~ ~ L y . / / / I j ( / / / / / ( ( %.;.:.: ; ~ ~ ~ ~ ~ ~ ~ ~ ~ ~ ~ ~ ~ ~ ~ ~ ~ ~ ~ ~ ~ ~ ~ ~ ~ ",
"~ ~ ~ ~ ~ / / / ~ ~ ~ ~ ~ ~ ~ ~ ~ ~ ~ L S j / k 2.( ~ E E ~ / / / / &.d.3 + ~ ~ ~ ~ ~ ~ ~ ~ ~ ~ ~ ~ ~ ~ ~ ~ ~ ~ ~ ~ ~ ~ ~ ~ ~ ~ ",
"~ ~ ~ ~ ~ ~ / / / ~ ~ ~ ~ ~ ~ ~ ~ ~ L ~ L L k T &.E Y E Y Y E / / ( ;.e O ~ ~ ~ ~ ~ ~ ~ ~ ~ ~ ~ ~ ~ ~ ~ ~ ~ ~ ~ ~ ~ ~ ~ ~ ~ ~ ~ ",
"~ ~ ~ ~ ~ ~ ~ ~ ~ ~ ~ ~ ~ ~ ~ ~ ~ ~ L Y Y S C &.Y Y Y Y Y Y Y E / ( h $ ~ ~ ~ ~ ~ ~ ~ ~ ~ ~ ~ ~ ~ ~ ~ ~ ~ ~ ~ ~ ~ ~ ~ ~ ~ ~ ~ ~ ",
"~ ~ ~ ~ ~ ~ ~ ~ ~ ~ ~ ~ ~ ~ ~ ~ ~ ~ ~ L Y I R E Y Y Y Y Y Y Y Y / U - ~ ~ ~ ~ ~ ~ ~ ~ ~ ~ ~ ~ ~ ~ ~ ~ ~ ~ ~ ~ ~ ~ ~ ~ ~ ~ ~ ~ ~ ",
"~ ~ ~ ~ ~ ~ ~ ~ ~ ~ ~ ~ ~ ~ ~ ~ L L L K ~ I R Y Y ~ ~ ~ ~ ~ Y E Y H ~ ~ ~ ~ ~ ~ ~ ~ ~ ~ ~ ~ ~ ~ ~ ~ ~ ~ ~ ~ ~ ~ ~ ~ ~ ~ ~ ~ ~ ~ ",
"~ ~ ~ ~ ~ ~ ~ ~ ~ ~ ~ ~ ~ ~ ~ ~ ~ ~ L L ~ ~ ~ Y ~ ~ ~ ~ ~ ~ ~ Y Y / ~ ~ ~ ~ ~ ~ ~ ~ ~ ~ ~ ~ ~ ~ ~ ~ ~ ~ ~ ~ ~ ~ ~ ~ ~ ~ ~ ~ ~ ~ ",
"~ ~ ~ ~ ~ ~ ~ ~ ~ ~ ~ Q ~ ~ ~ ~ ~ ~ ~ ~ ~ ~ ~ L ~ ~ ~ ~ ~ ~ ~ ~ ~ E ~ ~ ~ ~ ~ ~ ~ ~ ~ ~ ~ ~ ~ ~ ~ ~ ~ ~ ~ ~ ~ ~ ~ ~ ~ ~ ~ ~ ~ ~ ",
"~ ~ ~ ~ ~ ~ ~ ~ L K K K K ~ ~ ~ ~ ~ ~ ~ Y Y ~ ~ ~ ~ ~ ~ ~ ~ ~ ~ ~ ~ ~ ~ ~ ~ ~ ~ ~ ~ ~ ~ ~ ~ ~ ~ ~ ~ ~ ~ ~ ~ ~ ~ ~ ~ ~ ~ ~ ~ ~ ~ ",
"~ ~ ~ L L ~ ~ K K J b b b l b ~ L ~ ~ ~ ~ ~ ~ ~ ~ ~ ~ ~ ~ ~ ~ K L K K K L L ~ ~ ~ ~ ~ ~ ~ ~ ~ ~ ~ ~ ~ ~ ~ ~ ~ ~ ~ ~ ~ ~ ~ ~ ~ ~ ",
"~ ~ ~ ~ ~ ~ ~ I I S l A F A k v ~ ~ ~ ~ ~ ~ ~ ~ ~ ~ ~ ~ ~ ~ ~ K { y.d r N S L L ~ ~ ~ ~ ~ ~ ~ ~ ~ ~ ~ ~ ~ ~ ~ ~ ~ ~ ~ ~ ~ ~ ~ ~ ",
"~ ~ ~ ~ ~ ~ S } :.p.f.f.f.U U T ~ ~ L ~ ~ ~ ~ ~ ~ ~ ~ ~ ~ ~ L m l./ / C.D.q h L Y ~ ~ ~ ~ ~ ~ ~ ~ ~ ~ ~ ~ ~ ~ ~ ~ ~ ~ ~ ~ ~ ~ ~ ",
"~ ~ ~ ~ ~ G 6.k.f.5.=.&.%.V I I ~ ~ L ~ ~ ~ ~ ~ ~ ~ ~ ~ ~ ~ L 0 f./ / / / m.f 5 Y Y ~ ~ ~ ~ ~ ~ ~ Q ~ ~ ~ ~ ~ ~ ~ ~ ~ ~ ~ ~ ~ ~ ",
"~ ~ ~ ~ ..g.0.;.( ( ( ^ +.@.Z S ~ ~ ~ ~ ~ ~ ~ ~ ~ ~ ~ ~ ~ ~ L g u./ / / / / s.s % ~ L ~ ~ ~ L ~ L ~ ~ ~ ~ ~ ~ ~ ~ ~ ~ ~ ~ ~ ~ ~ ",
"~ ~ ~ ~ q.2./ ^ ^ ~ ~ ~ ~ J.L. .~ ~ ~ ~ ~ ~ ~ ~ ~ ~ ~ ~ ~ ~ ~ L . ] / / / / / a.f 5 ~ ~ ~ / ~ ~ L ~ ~ ~ ~ ~ ~ ~ ~ ~ ~ ~ ~ ~ ~ ~ ",
"~ ~ L ~ ~ ~ ~ ~ ~ ~ ~ ~ ~ <.V.S.~ ~ ~ ~ ~ ~ ~ ~ ~ / / / / ~ ~ ~ - . | / / / / / a.w x ~ ~ ~ ~ Q L ~ ~ ~ ~ ~ ~ ~ ~ ~ ~ ~ ~ ~ ~ ~ ",
"~ ~ L ~ ~ ~ ~ ~ / / / ~ ~ ~ h.o.5 S ~ ~ ~ ~ ~ ~ ~ ~ / / / / ~ ~ L 4 . C / / / / / c.1 U ~ ~ ~ ~ L ~ ~ ~ ~ ~ ~ ~ ~ ~ b z I U U ~ ",
"~ Y Y ~ ~ ~ ~ ~ ~ / / ~ ~ ~ ~ ~ ~ ~ ~ ~ ~ ~ ~ ~ ~ ~ ~ / / / ~ ~ ~ L 3 . / / / / / / ' h ~ ~ ~ L ~ ~ ~ ~ ! k g C  .t.v.S.O.h l n ",
"~ L Y ~ ~ ~ ~ ~ ~ / / / ~ ~ ~ ~ ~ ~ ~ ~ L ~ ~ ~ ~ ~ ~ ~ ~ / / ~ ~ ~ L y . / / / / / L ~ ~ ~ ~ ~ ~ ~ ` S - 2 x.T.T.T.T.Y.Y.r.8 v ",
"~ ~ L L L L L ~ ~ ~ / / / ~ ~ ~ ~ ~ ~ ~ L ~ ~ ~ ~ ~ ~ ~ ~ ~ ~ ~ ~ ~ ~ L S j / / / ~ ~ ~ ~ ~ ~ ~ / ^ k p t.U.K.n.a.6.5.7.b.I.a l ",
"~ ~ L L L L L L L ~ L ~ ~ ~ ~ ~ ~ ~ ~ ~ ~ ~ ~ ~ ~ ~ ~ ~ S ~ ~ ~ ~ ~ ~ ~ L L L ~ ~ ~ ~ ~ L L ~ ~ ^ M Z F.H.4.&.*.*.&.&.=.6.G.9 ~ ",
"Y ~ L L L L L L L L L ~ ~ ~ ~ ~ ~ ~ ~ ~ ~ ~ ~ ~ ~ ~ ~ G 6.k.f.L ~ ~ ~ ~ ~ ~ ~ ~ ~ ~ ~ L L ~ ~ U j +.m.6.%.( ( %.%.&.;.;.k.[ - ~ ",
"~ ~ L L L L L L L L L K ~ ~ ~ ~ ~ ~ ~ ~ ~ ~ ~ ~ Y I ..g.0.;.( ( ~ ~ ~ ~ ~ ~ ~ ~ ~ ~ ~ L ~ ~ ~ h :.z.&.( ( ( ( ( %.&.=.5.e.> ~ ~ ",
"~ ~ ~ ~ L L L L L L L ~ ~ ~ ~ ~ ~ ~ ~ ~ ~ ~ ~ ~ K ;.q.;.^ ^ ^ ~ ~ ~ ~ ^ L ~ ~ ~ ~ ~ ~ L / ~ P l 0.) / / / / ( %.&.%.;.i.3 * ~ ~ ",
"~ ~ ~ ~ ~ ~ ~ ~ ~ ~ ~ J ~ ~ ~ ~ ~ ~ ~ ~ ~ ~ ~ L ` 9.=.~ W K U K U U Y U ~ ~ ~ ~ ~ ~ ~ / / / I j ( / / / / / ( ( %.;.:.: ; ~ ~ ~ ",
"~ ~ ~ ~ K K J b b b l b ~ ~ ~ ~ ~ ~ ~ ~ ~ ~ Y ( =.=.~ K n c n b z I U ~ ~ ~ ~ ~ ~ ~ ~ ~ A k 2.( ~ / / ~ ~ ^ / / &.d.3 + ~ ~ ~ ~ ",
"~ ~ ~ ~ I I S l A S A l v ~ ~ ~ ~ ~ ~ ~ L Y / ` *.~ ~ ~ ~ ~ ~ ~ ~ ~ ~ ~ ~ ~ ~ ~ ~ ~ ~ U k T &.E Y E Y ~ Y ~ / ( ;.e O ~ ~ ~ ~ ~ ",
"~ ~ ~ S ] :.p.f.f.f.0.9.T U ~ ~ ~ ~ ~ ~ Y / _ ` ~ ~ ~ ~ ~ ~ ~ ~ ~ ~ ~ ~ ~ ~ ~ ~ ~ ~ Y S C &.Y Y Y Y Y Y Y E / ( h $ ~ ~ ~ ~ ~ ~ ",
"~ ~ ~ 6.k.f.5.=.&.%.( =.R ~ ~ ~ ~ ~ ~ ~ ~ / ^ ~ ~ ~ ~ ~ ~ ~ ~ ~ ~ ~ ~ ~ ~ ~ ~ ~ ~ ~ Y I R E Y Y Y E Y Y Y Y / U - ~ ~ ~ ~ ~ ~ ~ ",
"~ ~ ~ ~ ;.( ( ( ^ ( ( ^ U ~ ~ ~ ~ ~ ~ ~ ~ ~ ~ ~ ~ ~ ~ ~ ~ ~ ~ ~ ~ ~ ~ ~ ~ ~ ~ ~ ~ ~ Y I R Y Y ~ ~ ~ ~ ~ Y E Y ~ ~ ~ ~ ~ ~ ~ ~ ~ ",
"~ ~ ~ ~ ^ ^ ~ ~ ~ ~ ^ U ~ ~ ~ ~ ~ ~ ~ ~ ~ ~ Y ~ ~ ~ ~ ~ ~ ~ ~ ~ ~ ~ ~ ~ ~ ~ ~ ~ ~ ~ ~ U Y Y ~ ~ ~ ~ ~ ~ ~ ~ ~ ~ ~ ~ ~ ~ ~ ~ ~ ~ ",
"~ ~ ~ ~ ~ K K U U Y U K ~ ~ ~ ~ ~ ~ ~ ~ ~ ~ ~ ~ ~ ~ ~ ~ ~ ~ ~ ~ ~ ~ ~ ~ ~ ~ ~ ~ ~ ~ ~ Y Y ~ ~ ~ ~ ~ ~ ~ ~ ~ ~ ~ ~ ~ ~ ~ ~ ~ ~ ~ ",
"K K ~ ~ ~ n b z I U U ~ ~ ~ ~ ~ ~ ~ ~ ~ ~ ~ ~ ~ ~ ~ ~ ~ ~ ~ ~ ~ ~ ~ ~ ~ ~ ~ ~ ~ ~ ~ ~ ~ L ~ ~ ~ ~ ~ ~ ~ ~ ~ ~ ~ ~ ~ ~ ~ ~ ~ ~ ~ "
};
