/* XPM */
static const char *floor2[] = {
/* columns rows colors chars-per-pixel */
"64 64 187 2 ",
"   c gray46",
".  c #3F9136",
"X  c #36953C",
"o  c #4C9A2A",
"O  c #4F9F36",
"+  c #4D9F39",
"@  c #5C9E3A",
"#  c #4AA336",
"$  c #46A93B",
"%  c #54A535",
"&  c #5EA937",
"*  c #52A63A",
"=  c #5BA53B",
"-  c #55AB3D",
";  c #5AAD3D",
":  c #5CB33D",
">  c #6BAB3A",
",  c #6BB735",
"<  c #6BB43C",
"1  c #6BB83B",
"2  c #71B13D",
"3  c #74C23D",
"4  c #3F9D43",
"5  c #419C45",
"6  c #4CA841",
"7  c #59A644",
"8  c #5FA841",
"9  c #53B141",
"0  c #6DA641",
"q  c #66AC40",
"w  c #68AE41",
"e  c #79AE45",
"r  c #62B244",
"t  c #6AB042",
"y  c #60BB4A",
"u  c #6ABA48",
"i  c #75B742",
"p  c #78B745",
"a  c #72BA44",
"s  c #78B945",
"d  c #76B24C",
"f  c #7FBA4A",
"g  c #6AA85B",
"h  c #70AE5A",
"j  c #77BF50",
"k  c #75B26A",
"l  c #74C344",
"z  c #7DC143",
"x  c #7BC646",
"c  c #80BB47",
"v  c #83B94B",
"b  c #80B656",
"n  c #8DBB6C",
"m  c #8DB675",
"M  c #8DBD72",
"N  c #83C444",
"B  c #84CD46",
"V  c #84C54C",
"C  c #8AC54B",
"Z  c #86CB4C",
"A  c #8DCC4C",
"S  c #94CE4C",
"D  c #9DCF4D",
"F  c #8CD14E",
"G  c #93D447",
"H  c #93D24D",
"J  c #9BD34B",
"K  c #96DA4F",
"L  c #9CD84D",
"P  c #86C155",
"I  c #8DC157",
"U  c #8BCB51",
"Y  c #84C55B",
"T  c #8FC359",
"R  c #94C750",
"E  c #95CC53",
"W  c #94C45A",
"Q  c #8CD152",
"!  c #95D152",
"~  c #9BD552",
"^  c #99D856",
"/  c #9DD15D",
"(  c #A1D446",
")  c #A2D74B",
"_  c #A4DB4D",
"`  c #AADD4D",
"'  c #A2CF5A",
"]  c #A2D553",
"[  c #A4DB52",
"{  c #ACDE52",
"}  c #A5DA5E",
"|  c #AADB59",
" . c #B0DE54",
".. c #A5E04D",
"X. c #AEE14F",
"o. c #B1E14E",
"O. c #A5E052",
"+. c #ADE050",
"@. c #ADE359",
"#. c #B0E055",
"$. c #B2E45B",
"%. c #BDE75E",
"&. c #B5E95D",
"*. c #B9E95F",
"=. c #9ACB6D",
"-. c #9CD067",
";. c #96CD72",
":. c #9EC579",
">. c #A1D262",
",. c #A8DB64",
"<. c #A5D36C",
"1. c #A9D06C",
"2. c #ABDF6A",
"3. c #B2DF68",
"4. c #A7D279",
"5. c #ADD57C",
"6. c #B2DB75",
"7. c #B4D778",
"8. c #A9E665",
"9. c #A8E867",
"0. c #B6E562",
"q. c #B8E664",
"w. c #B6EA62",
"e. c #BBEA64",
"r. c #B5EE6B",
"t. c #BCEA6B",
"y. c #B3E274",
"u. c #BBE776",
"i. c #C2E561",
"p. c #C1ED62",
"a. c #C4EE6C",
"s. c #CAF66F",
"d. c #C4E776",
"f. c #C3ED74",
"g. c #C3EC7A",
"h. c #CAED7D",
"j. c #D4EF73",
"k. c #C5F573",
"l. c #C3F07B",
"z. c #CBF57E",
"x. c #CAF87B",
"c. c #D0F372",
"v. c #BBBBBB",
"b. c #AFDE80",
"n. c #ABDB8B",
"m. c #BBDE88",
"M. c #B7D997",
"N. c #BBE386",
"B. c #BEF089",
"V. c #C5EB80",
"C. c #CBED89",
"Z. c #D6EE8A",
"A. c #C6F783",
"S. c #CAF382",
"D. c #CDF48B",
"F. c #CCFA88",
"G. c #D7F486",
"H. c #D4F986",
"J. c #D0F588",
"K. c #D8F78A",
"L. c #C5E495",
"P. c #C9E990",
"I. c #CAE79A",
"U. c #DCF897",
"Y. c #D9F79C",
"T. c #DDF79F",
"R. c #E6F686",
"E. c #E5FC86",
"W. c #E8FD8F",
"Q. c #E3F595",
"!. c #E0F498",
"~. c #EEFC9D",
"^. c #F0FE92",
"/. c #D6EEA3",
"(. c #D8EBAC",
"). c #DDF8A7",
"_. c #DBF5AC",
"`. c #E0F7A3",
"'. c #EFFAA4",
"]. c #E5F9AF",
"[. c #ECFAAE",
"{. c #F2FFA4",
"}. c #E8FBB7",
"|. c #E8FABA",
" X c #CDCDCD",
".X c #F5FECE",
"XX c #F3FFD3",
/* pixels */
"+.+.+.+.+.+.+.+.+.+.+.+.+.+.+.+.+.+.+.+.+.+.+.+.+.+.+.+.+.+.+.+.+.+.+.+.+.+.+.+.+.+.+.+.+.+.+.+.+.+.+.+.+.+.+.+.+.+.+.+.+.+.+.+.",
"+.+.+.+.+.+.+.+.+.+.+.+.+.+.+.+.+.+.+.+.+.+.+.+.+.+.+.+.+.+.+.+.+.+.+.+.+.+.+.+.+.+.+.+.+.+.+.+.+.+.+.+.+.+.+.+.+.+.+.+.+.+.+.+.",
"+.+.+.+.+.+.+.+.+.+.+.+.+.+.+.+.+.+.+.+.+.+.+.+.+.+.+.+.+.+.+.+.+.+.+.+.+.+.+.+.+.+.+.+.+.+.+.+.+.+.+.+.` { [ [ +.+.+.+.+.+.+.+.",
"+.+.+.+.+.+.+.+.+.+.+.+.+.+.+.+.+.+.+.+.+.+.+.+.+.+.+.+.+.+.+.+.+.+.+.+.+.+.+.+.+.+.+.+.+.+.+.+.+.+.` ` U N s p c R ] ] +.+.+.+.",
"+.+.+.X.+.+.+.` ` ` ` ` ` ` ` +.+.+.+.+.+.+.+.+.+.+.+.[ L L ~ [ +.+.+.+.+.+.+.+.+.+.+.+.+.+.+.+.` ` ` ; @ 0 T >.6.7.W ~ _ +.+.+.",
"+.+.+.+.+.+.+.` :.M.m k Y ~ ` ` +.+.+.+.+.+.+.+.{ [ C         2 ) +.+.+.+.+.+.+.+.+.+.+.+.+.` ` ` 6 * P V.~.{.{.~.'.[.1.~ +.+.+.",
"+.+.+.+.+.+.` I K.#.#.!.(.g V ` { +.+.+.+.+.` ` _     v.v.v.v.  > L +.+.+.+.+.+.+.+.+.+.+.+.` ` $ # 3.W.^.R.j.i.i.i.Q./.E +.+.+.",
"+.+.+.+.+.+.` f S.#.#.#.#.T.M i { { +.+.+.+.` [ 2   v.v.v.v.v.v.  z +.+.+.+.+.+.+.+.+.+.+.` ` # & u.E.j.e.*.$.*.w.p.G.4.i ) +.+.",
"+.+.+.+.+.+.` N N.#.#.#.#.#.Z.n = +.` +.+.+.{ N   v.v. X X X Xv.  t ` +.+.+.+.+.+.+.+.+.+.` * < H.c.#.#.$.$.$.$.e.s.u.= a _ +.+.",
"+.+.+.+.+.+.+.` O -.#.#.#.#.#.C.M i +.+.+.+._     v. X X X X Xv.  q { +.+.+.+.+.+.+.+.+.{ < V a.%.+.@.+.+.+.@.$.e.r.& - l [ +.+.",
"+.+.+.+.+.+.+.+.< O ,.#.#.#.#.#.C.h F +.+.+.S   v.v. X X X X Xv.  w +.+.  q +.+.+.+.+.+.( [ a.$.{ { { { @.@.@.&.8.% # : H ` +.+.",
"+.+.+.+.+.+.+.+.` u O E #.#.#.#.#.P.q [ +.+.C   v. X X X X Xv.v.  a +.  v.  +.+.+.+.+.` ` $.{ { { { { +.@.@.@.9.% # 9 l [ ` +.+.",
"+.+.+.+.+.+.+.+.+.` r O #.#.#.#.#.#.=.V +.+.z   v. X X X Xv.v.    Z o.q   +.+.+.+.+.+.+.{ ` ` ` ` { { { @.@.^ o % : l [ ` +.+.+.",
"+.+.+.+.+.+.+.+.+.+.` z O #.#.#.#.#.` +.+.+.N   v. X X Xv.v.    + [ #.+.+.+.+.+.+.+.+.+.+.+.` ` ` ` ` { @.V + 9 : x _ { ` +.+.+.",
"+.+.+.+.+.+.+.+.+.+.+.` ~ A #.#.#.+.+.+.+.+.A   v.v. Xv.v.    X Q +.+.  q +.+.+.+.+.+.+.+.+.+.+.+.` ` ` a * : l F O._ ` +.+.+.+.",
"+.+.+.+.+.+.+.+.+.+.+.+.` ` ` +.+.+.+.+.+.+.~ .   v.v.v.    4 l +.+.+.` ) ) ) _ _ ) _ +.+.+.+.+.+.+.` ` ` 3 K ) ) _ _ ) _ +.+.+.",
"+.+.+.+.+.+.+.+.+.+.+.+.+.+.+.+.+.+.+.+.+.+.[ r X       5 y B @.+.+._ _ ) J J J S J ~ +.+.+.+.+.+.+.+.+._ _ ) J J J S J ~ +.+.+.",
"+.+.+.+.+.+.+.+.+.+.+.+.+.+.+.+.+.+.+.+.+.+.+.~ z < 1 l B L @.@.+.+.] ] ~ S ! ^ ! A H [ +.+.+.+.+.+.+.+.] ] ~ S E ^ ! S H [ +.+.",
"+.+.+.+.+.+.+.+.+.+.+.+.+.+.+.+.+.+.+.+.+.+.+.#.@.[ _ O.@.@.+.+.+.^ >.y.V.S.S.S.z.l.} [ +.+.+.+.+.+.+.^ >.y.V.S.S.S.z.l.} [ +.+.",
"+.+.+.+.+.+.+.+.+.+.+.+.+.+.+.+.+.+.+.+.+.+.+.+.+.+.+.+.+.+.+.+./ g.J.S.f.e.q.0.$.e.| +.+.+.+.+.+.+./ g.J.S.f.e.q.0.$.e.| +.+.+.",
"+.+.+.+.+.+.+.+.+.+.+.+.+.+.+.+.+.+.+.+.+.+.+.+.+.+.+.{ { { ] 2.F.z.t.$.$.$.@.$.$.@.[ +.+.+.{ { ] 2.F.z.t.$.$.$.@.$.$.@.[ +.+.+.",
"+.+.+.+.+.+.+.+.+.+.+.+.+.+.` ` ` ` ` ` ` ` +.+.+.+.+.` _ _ t.x.t.@.@.@.+.+.@.@.@.[ +.+.+.+.` _ t.x.a.$.@.@.+.+.@.@.@.[ +.+.+.+.",
"+.+.+.+.` ) ) ) _ +.+.+.+.` :.M.m k Y ~ ` ` +.+.+.+.+.` ` &.k.e.+..._ _ _ [ [ { [ _ +.+.+.` ` &.k.e.+..._ _ _ [ [ { [ _ +.+.+.+.",
"` +.+._ _ ) J J J S J +.` I K.#.#.!.(.g V ` +.+.+.+.+.{ $.e.e.@._ L G L J D ] [ [ ~ +.+.+.{ $.e.e.@.) L G L J D ] [ [ +.+.+.+.+.",
"+.+.+.] ] ~ S ! ^ ! A H ` f S.#.#.#.#.T.M i { { ` ` { #.*.w.O.A N E <.m.I./.5.V S L +.+.{ #.*.w.O.A +.+.+.+.+.+.+.+.S +.+.+.+.+.",
"+.+.^ >.y.V.S.S.S.[ [ } ` N N.#.#.#.#.#.Z.n = +.` { #.&.&.~ < e L.XXXXXX.X.X.Xn.s H +.{ #.&.&.~ +.+.+.X.+.+.+.+.+.+.+.+.+.+.+.+.",
"+./ g.J.S.f.e.q.0.R ] ] _ { O -.#.#.#.#.#.C.M i +.+.#.@.A v m.|.].Y.C.g.f.h.U.}.b S { +.#.@.A +.+.+.+.+.+.+.+.+.+.+.+.+.+.+.+.+.",
"2.F.z.t.$.$.$.@.6.7.W ~ _ { < O ,.#.#.#.#.#.C.h F +.@.U W ).`.d.q.w.w.q.q.e.g._.d ~ { +.@.U +.+.+.+.+.X.+.+.+.+.+.+.+.+.+.+.+.+.",
"x.a.#.@.@.+.+.@.@.'.[.1.~ +.` u O E #.#.#.#.#.P.q [ C 6.T.g.0.$.$.0.0.q.q.t.D.;.1 L { [ [ ] [ [ +.+.+.+.+.+.+.+.+.+.+.+.+.+.+.+.",
"+.+.+.+.+.+.+.+.+.i.Q./.E ` +.` r O #.#.#.#.#.#.=.V y.K.q.$.$.$.$.0.0.q.e.f.b.8 u U N s p c R ] ] _ +.+.+.+.+.+.+.+.+.+.+.+.+.+.",
"+.+.+.+.#.#.#.+.+.+.G.4.i ) +.+.` z O #.#.#.#.#.' S z.%.#.#.#.#.$.0.q.0.t.B.r 7 ; @ 0 T >.6.7.W ~ _ +.+.+.+.+.+.+.+.+.+.+.+.+.+.",
"+.+.+.+.+.#.#.+.+.+.+.+.+.+.+.+.+.` ~ A #.#.#.#.] C $.#.#.#.#.#.$.$.0.t.y.7 6 * P V.~.{.{.~.'.[.1.~ +.+.+.+.+.+.+.+.+.+.+.+.+.+.",
"+.+.+.+.+.#.#.#.+.+.+.+.+.+.+.+.+.+.` ` ` +.! A a.$.+. . .+.#.#.#.#.q.A.r $ # 3.W.^.R.j.i.i.i.Q./.E ` +.+.+.+.+.+.+.+.+.+.+.+.+.",
"+.+.+.+.+.+.#.#.#.+.+.+.+.+.+.+.+.+.` { ` [ A } q. . . .{ {  .#.#.$.t.j # & u.E.j.e.*.$.*.w.p.G.4.i ) +.+.+.+.+.+.+.+.+.+.+.+.+.",
"+.+.+.+.+.+.+.+.+.+.+.+.+.+.+.+.+.+.` { { ~ E q.{ { { { { { {  .#.$.C * < H.c.#.#.$.$.$.$.e.s.u.= a _ +.+.+.+.+.+.+.+.+.+.+.+.+.",
"+.+.+.+.+.+.+.+.+.+.+.+.+.+.+.+.+.+.+.` { ] |  .{ { { { { { { { #.{ < V a.%.+.@.+.+.+.@.$.e.r.& - l [ +.+.+.+.+.+.+.+.+.+.+.+.+.",
"+.+.+.+.+.+.+.+.+.+.+.+.+.+.+.+.+.+.+.+.{ ] | { { +.+.+.+.+.{  .{ ( [ a.$.{ { { @.@.@.@.&.8.% # : H ` +.+.+.+.+.+.+.+.+.+.+.+.+.",
"+.+.+.+.+.+.+.+.+.+.+.+.+.+.+.+.+.+.J D ] [ [ { +.+.+.+.+.+.+.{ { #.$.{ { { { { +.@.@.@.9.% # 9 l [ +.+.+.+.+.+.+.+.+.+.+.+.+.+.",
"+.+.+.+.+.+.+.+.+.+.+.+.O.A N E <.m.I./.5.V S L +.+.+.+.+.+.+.+.+.{ +.{ { { { { { @.@.^ o % : l [ ` +.+.+.+.+.+.+.+.+.+.+.+.+.+.",
"+.+.+.+.+.+.+.+.+.+.&.~ < e L.XXXXXX.X.X.Xn.s H +.+.+.+.+.+.+.+.+.+.+.{ { { { ` { @.V + 9 : x _ { +.` +.+.+.+.+.+.+.+.+.+.+.+.+.",
"+.+.+.+.+.+.+.+.#.@.A v m.|.].Y.C.g.f.h.U.|.b S { +.+.+.+.+.+.+.+.+.+.+.{ { { [ ~ a * : l F O._ +.X.+.+.+.+.+.+.+.+.+.+.+.+.+.+.",
"+.+.+.+.+.+.+.+.@.U W ).).d.q.w.w.q.q.e.g._.d +.+.+.+.+.+.+.+.{ +.+.+.+.{ { { H , , 3 K O.{ +.+.+.X.+.+.+.+.+.+.+.+.+.+.+.+.+.+.",
"+.+.+.+.+.+.+.[ C 6.T.g.0.$.$.0.0.q.q.t.D.;.1 +.+.+.+.+.+.+.+.+.+.+.+.+.+.{ _ J L _ [ ` +.+.+.+.+.X.+.+.+.+.+.+.+.+.+.+.+.+.+.+.",
"+.+.+.+.+.+.+.V y.K.q.$.$.$.$.$.0.q.e.f.b.8 +.+.+.+.+.+.+.+.+.+.+.+.+.+.+.+.+.` ` ` ` +.+.+.+.+.X.X.+.+.+.+.+.+.+.+.y ~ +.+.+.+.",
"+.+.+.+.#.+.' S z.%.#.#.#.#.$.0.q.0.t.B.r ; +.+.+.+.+.+.+.+.+.+.+.+.+.+.+.+.+.` ` ` { +.+.+.` +.` +.+.+.+.+.+.~ ~ ~     y +.+.+.",
"+.+.+.#.#.#.] C $.#.#.#.#.#.$.$.0.t.y.7 6 +.+.+.+.+.+.+.+.+.+.+.+.+.+.+.+.+.+.` ` ` { ` ` #.+.+.` +.+.+.+.~ ~ q q y     ~ ~ +.+.",
"+.+.` +.! A f.$.+. . .+.+.@.#.#.q.A.r $ +.+.+.+.+.+.+.+.+.+.+.+.+.+.+.+.+.+.+.` ` ` o.o.+.+.+.X.` +.+.+.+.y         q y q   +.+.",
"+.+.` [ U } q. . . .{ { { +.@.$.t.j # +.+.+.+.+.+.+.+.[ L L ~ [ +.+.+.+.+.+.+.+.+.+.+.+.+.+.X.+.` +.+.+.+.q    X X X  y y ~ +.+.",
"+.{ { ~ E q.{ { { { { { {  .#.&.C * +.+.+.+.+.+.+.+.[     z z L L +.` ` +.+.+.+.+.+.+.+.+.+.+.` +.X.+.+.+.~    X X X  ~   q +.+.",
"+.` { ] |  .{ { { { { { { { #.{ < +.+.+.+.+.+.+.+..   v.v.    z z +._ ` +.+.+.+.+.` ` ` ` ` ` ` ` X.+.+.+.~    X X X  q ~ +.+.+.",
"+.+.{ ] | { { +.+.+.+.+.{  .{ +.+.+.+.+.+.+.+.+.2   v.v.v.v.v.  t +.` ` +.+.+.+.` :.M.m k Y ~ ` ` +.+.+.+.~ q         q ~ +.+.+.",
"+.+.+.[ { { +.+.+.+.+.+.+.+.+.+.+.+.+.+.+.+.+.S   v.v. X Xv.v.  q +.{ ` +.+.X.` I K.#.#.!.(.g V ` +.+.+.+.~ ~ y q q y +.~ +.+.+.",
"{ +.+.{ { +.+.+.+.+.+.+.+.+.+.+.+.+.+.+.+.+.+.C   v. X X X Xv.  w +.X.X.+.+.` ` f S.#.#.#.#.T.M i { { ` +.+.+.+.+.+.+.+.+.+.+.+.",
"+.+.+.+.` +.+.{ +.+.+._ +.+.+.+.+.+.+.+.+.+.+.z   v. X X Xv.  a a +.X.X.+.+.) ` N N.#.#.#.#.#.Z.n = +.` { +.+.+.+.+.+.+.+.+.+.+.",
"+.+.+.+.+.+.+.+.+.+.+.+.+.+.+.+.+.+.+.+.+.+.+.N   v.v. Xv.v.  Z Z +.o.X.+.+.+.` ` O -.#.#.#.#.#.C.M i +.+.+.+.+.+.+.+.+.+.+.+.+.",
"+.+.+.+.+.+.+.+.+.+.+.) +.+.+.+.+.+.+.+.+.+.+.A .   v.v.    . Z [ +.+.X.+.+.+.+.` < O ,.#.#.#.#.#.C.h F +.+.+.+.+.+.+.+.[ +.+.+.",
"+.+.+.+._ _ ) J J J S J +.+.+.+.+.+.+.+.+.+.+.~ ~ .     . 1 Z +.+.+.+.+.+.+.+.+.` ` u O E #.#.#.#.#.P.q [ +.+.+.+.+.+.+.[ +.+.+.",
"+.+.+.+.] ] ~ S ! ^ ! S H +.+.+.+.+.+.+.+.+.+.+.~ z < 1 l +.+.+.+.+.+.+.+.+.+.+.+.+.` r O #.#.#.#.#.#.=.V +.+.+.+.+.+.+.+.+.+.+.",
"+.+.+.^ -.y.V.S.S.S.z.l.} [ +.+.+.+.+.+.+.+.+.+.+.+.+.+.+.+.+.+.+.+.+.+.+.+.+.+.+.+.+.` z O #.#.#.#.#.+.+.+.+.+.+.+.+.+.+.+.+.+.",
"+.+.+.g.J.S.f.e.q.0.$.e.| +.+.+.+.+.+.+.#.#.+.+.+.+.+.+.+.+.+.+.+.+.+.+.+.+.+.+.+.+.+.+.` ~ A #.#.#.+.+.+.+.+.+.+.+.+.+.+.+.+.+.",
"+.+.+.+.t.$.$.$.@.$.$.@.[ +.+.+.+.+.+.+.+.+.+.+.+.+.+.+.+.@.+.+.+.+.+.+.+.+.+.+.+.+.+.+.+.` ` ` +.+.+.+.+.+.+.+.+.+.+.+.+.+.+.+.",
"+.+.+.+.@.@.+.+.@.@.@.[ +.+.+.+.+.+.+.+.+.+.{ +.+.+.+.+.+.+.+.+.+.+.+.+.+.+.+.+.+.+.+.+.+.` { ` +.+.+.` ` +.+.+.+.+.+.+.+.+.+.+.",
"+.+.+.+.+._ _ [ [ { [ _ +.+.+.+.+.+.+.+.+.+.+.+.+.+.+.+.+.+.+.+.+.+.+.+.+.+.+.+.+.+.+.+.+.+.+.+.+.+.+.+.+.+.+.+.+.+.+.+.+.+.+.+.",
"_ _ +.+.+.L J D ] [ [ +.+.+.+.+.+.+.+.+.+.+.+.+.+.+.+.+.+.+.+.+.+.+.+.+.+.+.+.+.+.+.+.+.+.+.+.+.+.+.+.+.+.+.+.+.+.+.+.+.+.+.+.+."
};
