/* XPM */
static const char *floor1[] = {
/* columns rows colors chars-per-pixel */
"64 64 192 2 ",
"   c gray46",
".  c #3E9236",
"X  c #35943D",
"o  c #4C9A2A",
"O  c #479236",
"+  c #4F9F36",
"@  c #4D9F39",
"#  c #5C9E3A",
"$  c #4AA236",
"%  c #46A93B",
"&  c #54A535",
"*  c #5EA937",
"=  c #52A63A",
"-  c #5BA53B",
";  c #54AC3C",
":  c #5AAD3D",
">  c #5CB33D",
",  c #67AD38",
"<  c #6BB735",
"1  c #6CB43C",
"2  c #6BB83B",
"3  c #71B13D",
"4  c #74C23D",
"5  c #3F9D43",
"6  c #419C45",
"7  c #40A143",
"8  c #4CA841",
"9  c #58A744",
"0  c #5FAA42",
"q  c #53B141",
"w  c #69A541",
"e  c #64AD41",
"r  c #68AC41",
"t  c #79AE45",
"y  c #62B244",
"u  c #6BB341",
"i  c #63BA47",
"p  c #6BBB48",
"a  c #75B742",
"s  c #78B745",
"d  c #72BA44",
"f  c #78B945",
"g  c #75B44D",
"h  c #7BB74A",
"j  c #7FBA4A",
"k  c #6AA85B",
"l  c #70AE5A",
"z  c #77BF50",
"x  c #75B26A",
"c  c #74C344",
"v  c #7DC143",
"b  c #7BC646",
"n  c #80BB47",
"m  c #80B54E",
"M  c #84BB4C",
"N  c #80B656",
"B  c #8DBB6C",
"V  c #8DB675",
"C  c #8DBD72",
"Z  c #83C444",
"A  c #87CC45",
"S  c #84C54C",
"D  c #8BC54B",
"F  c #85CB4C",
"G  c #8DCC4C",
"H  c #94CE4C",
"J  c #9DCF4D",
"K  c #8CD14D",
"L  c #93D447",
"P  c #94D34D",
"I  c #9BD34B",
"U  c #96DA4F",
"Y  c #9CD84D",
"T  c #8BC257",
"R  c #8DC157",
"E  c #8ACC52",
"W  c #84C55B",
"Q  c #94C750",
"!  c #95CC53",
"~  c #9ACF57",
"^  c #94C45A",
"/  c #8CD152",
"(  c #95D152",
")  c #9BD452",
"_  c #9EDB53",
"`  c #99D759",
"'  c #9DD15D",
"]  c #A1D446",
"[  c #A2D74B",
"{  c #A4DB4D",
"}  c #AADD4D",
"|  c #A2CF5A",
" . c #A2D553",
".. c #A4DB52",
"X. c #ACDE52",
"o. c #A5DA5D",
"O. c #A9DA5A",
"+. c #B0DE54",
"@. c #A5E04D",
"#. c #AEE14F",
"$. c #B1E14E",
"%. c #A5E052",
"&. c #ADE050",
"*. c #A5E258",
"=. c #ADE35A",
"-. c #B0E055",
";. c #B2E45B",
":. c #BDE75E",
">. c #B5E95D",
",. c #B9E95F",
"<. c #9ACB6D",
"1. c #9CD067",
"2. c #96CD72",
"3. c #9EC579",
"4. c #A1D262",
"5. c #A8DB64",
"6. c #A5D36C",
"7. c #A9D06C",
"8. c #ABDF6A",
"9. c #B2DF68",
"0. c #A7D279",
"q. c #ADD57C",
"w. c #B2DB75",
"e. c #B4D778",
"r. c #A9E665",
"t. c #A8E867",
"y. c #B6E562",
"u. c #B8E664",
"i. c #B6EA62",
"p. c #BBEA64",
"a. c #B5EE6B",
"s. c #BCEA6B",
"d. c #B3E274",
"f. c #BBE776",
"g. c #C2E561",
"h. c #C1ED62",
"j. c #C4EE6C",
"k. c #CAF66F",
"l. c #C4E776",
"z. c #C3ED74",
"x. c #C3EC7A",
"c. c #CAED7D",
"v. c #D4EF73",
"b. c #C5F573",
"n. c #C3F07B",
"m. c #CBF57E",
"M. c #CAF87B",
"N. c #D0F372",
"B. c #BBBBBB",
"V. c #AFDE80",
"C. c #ABDB8B",
"Z. c #BBDE88",
"A. c #B7D997",
"S. c #BBE386",
"D. c #BEF089",
"F. c #C5EB80",
"G. c #CBED89",
"H. c #D6EE8A",
"J. c #C6F783",
"K. c #CAF382",
"L. c #CDF48B",
"P. c #CCFA88",
"I. c #D7F486",
"U. c #D4F986",
"Y. c #D0F588",
"T. c #D8F78A",
"R. c #C9E990",
"E. c #C8E698",
"W. c #DCF897",
"Q. c #D9F79C",
"!. c #DDF79F",
"~. c #E6F686",
"^. c #E5FC86",
"/. c #E8FD8F",
"(. c #E3F595",
"). c #E0F498",
"_. c #EEFC9D",
"`. c #F0FE92",
"'. c #D6EEA3",
"]. c #D8EBAC",
"[. c #DDF8A7",
"{. c #DBF5AC",
"}. c #E0F7A3",
"|. c #EFFAA4",
" X c #E5F9AF",
".X c #ECFAAE",
"XX c #F2FFA4",
"oX c #E8FBB7",
"OX c #E8FABA",
"+X c #CDCDCD",
"@X c #F5FECE",
"#X c #F3FFD3",
/* pixels */
"&.&.&.&.&.&.&.&.#.#.&.&.&.&.&.&.&.&.&.&.&.&.&.&.&.&.&.&.&.&.&.&.&.&.&.&.&.&.&.&.&.&.&.&.&.&.&.&.&.&.&.&.&.&.&.&.&.&.&.&.&.&.&.&.",
"&.&.&.&.&.&.&.&.&.&.&.&.&.&.&.&.&.&.&.&.&.&.&.&.&.&.&.&.&.&.&.&.&.&.&.&.&.&.&.&.&.&.&.&.&.&.&.&.&.&.&.&.&.&.&.&.&.&.&.&.&.&.&.&.",
"&.&.&.&.&.&.&.&.&.&.&.&.&.&.&.&.&.&.&.&.&.&.&.&.&.&.&.&.&.&.&.&.&.&.&.&.&.&.&.&.&.&.&.&.&.&.&.&.&.&.&.&.} X.....&.&.&.&.&.&.&.&.",
"&.&.&.&.&.&.&.&.&.&.&.&.&.&.&.&.&.&.&.&.&.&.&.&.&.&.&.&.&.&.&.&.&.&.&.&.&.&.&.&.&.&.&.&.&.&.&.&.&.&.} } E Z f s n Q  . .&.&.&.&.",
"&.&.&.#.&.&.&.} } } } } } } } &.&.&.&.&.&.&.&.&.&.&.&...I I ) ..&.&.&.&.&.&.&.&.&.&.&.&.&.&.&.&.} } } : # w R 4.w.e.^ ) { &.&.&.",
"&.&.&.&.&.&.&.} 3.A.V x W ) } } &.&.&.&.&.&.&.&.X...D         3 [ &.&.&.&.&.&.&.&.&.&.&.&.&.} } } 8 = T F._.XXXX_.|..X7.) &.&.&.",
"&.&.&.&.&.&.} R T.-.-.).].k S } X.&.&.&.&.&.} } {     B.B.B.B.  , Y &.&.&.&.&.&.&.&.&.&.&.&.} } % $ 9./.`.~.v.g.g.g.(.'.! &.&.&.",
"&.&.&.&.&.&.} j K.-.-.-.-.!.C a X.X.&.&.&.&.} ..3   B.B.B.B.B.B.  v &.&.&.&.&.&.&.&.&.&.&.} } $ * f.^.v.p.,.;.,.i.h.I.0.a [ &.&.",
"&.&.&.&.&.&.} Z S.-.-.-.-.-.H.B - &.} &.&.&.X.Z   B.B.+X+X+X+XB.  u } &.&.&.&.&.&.&.&.&.&.} = 1 U.N.-.-.;.;.;.;.p.k.f.- d { &.&.",
"&.&.&.&.&.&.&.} + 1.-.-.-.-.-.G.C a &.&.&.&.{     B.+X+X+X+X+XB.  e X.&.&.&.&.&.&.&.&.&...1 S j.:.&.*.&.&.&.=.;.p.a.* ; c ..&.&.",
"&.&.&.&.&.&.&.&.1 + 5.-.-.-.-.-.G.l K &.&.&.H   B.B.+X+X+X+X+XB.  r &.&.&.&.&.&.&.&.&.&.] ..j.;.X.X.X.X.*.*.=.>.r.& $ > P } &.&.",
"&.&.&.&.&.&.&.&.} p + ! -.-.-.-.-.R.e ..&.&.S   B.+X+X+X+X+XB.B.  d &.&.&.&.&.&.&.&.&.} } ;.X.X.X.X.X.&.*.=.=.t.& $ q c ..} &.&.",
"&.&.&.&.&.&.&.&.&.} y + -.-.-.-.-.-.<.S &.&.v   B.+X+X+X+XB.B.    F $.&.&.&.&.&.&.&.&.&.X.} } } } X.X.X.*.=.` o & > c ..} &.&.&.",
"&.&.&.&.&.&.&.&.&.&.} v + -.-.-.-.-.} &.&.&.Z   B.+X+X+XB.B.    @ ..-.&.&.&.&.&.&.&.&.&.&.&.} } } } } X.=.S @ q > b { X.} &.&.&.",
"&.&.&.&.&.&.&.&.&.&.&.} ) G -.-.-.&.&.&.&.&.G   B.B.+XB.B.    X / &.&.&.} &.&.&.&.&.&.&.&.&.&.&.&.} } } d = > c K %.{ } &.&.&.&.",
"&.&.&.&.&.&.&.&.&.&.&.&.} } } &.&.&.&.&.&.&.) .   B.B.B.    5 c &.&.&.} [ [ [ { { [ { &.&.&.&.&.&.&.} } } 4 U [ [ { { [ { &.&.&.",
"&.&.&.&.&.&.&.&.&.&.&.&.&.&.&.&.&.&.&.&.&.&...u X       6 i A =.&.&.{ { [ I I I H I ) &.&.&.&.&.&.&.&.&.{ { [ I I I H I ) &.&.&.",
"&.&.&.&.&.&.&.&.&.&.&.&.&.&.&.&.&.&.&.&.&.&.&.) v 1 2 c A Y *.=.&.&. . .) H ( ` ( G P ..&.&.&.&.&.&.&.&. . .) H ! ` ( H P ..&.&.",
"&.&.&.&.&.&.&.&.&.&.&.&.&.&.&.&.&.&.&.&.&.&.&.-.=...{ %.*.*.&.&.&.` 4.d.F.K.K.K.m.n.o...&.&.&.&.&.&.&.` 4.d.F.K.K.K.m.n.o...&.&.",
"&.&.&.&.&.&.&.&.&.&.&.&.&.&.&.&.&.&.&.&.&.&.&.&.&.&.&.&.&.&.&.&.' x.Y.K.z.p.u.y.;.p.O.&.&.&.&.&.&.&.' x.Y.K.z.p.u.y.;.p.O.&.&.&.",
"&.&.&.&.&.&.&.&.&.&.&.&.&.&.&.&.&.&.&.&.&.&.&.&.&.&.&.X.X.X. .8.P.m.s.;.;.;.=.;.;.=...&.&.&.X.X. .8.P.m.s.;.;.;.=.;.;.=...&.&.&.",
"&.&.&.&.&.&.&.&.&.&.&.&.&.&.} } } } } } } } &.&.&.&.&.} { { s.M.s.;.=.=.&.&.*.*.=...&.&.&.&.} { s.M.j.;.=.=.&.&.*.*.=...&.&.&.&.",
"&.&.&.&.} [ [ [ { &.&.&.&.} 3.A.V x W ) } } &.&.&.&.&.} } ,.b.p.%.@.{ { { ....X...[ &.&.&.} } >.b.p.%.@.{ { { ....X...{ &.&.&.&.",
"} &.&.{ { [ I I I H I &.} R T.-.-.).].k S } &.&.&.&.&.X.;.p.p.*.{ Y L Y I J  ..._ ) &.&.&.X.;.p.p.*.[ Y L Y I J  .....&.&.&.&.&.",
"&.&.&. . .) H ( ` ( G P } j K.-.-.-.-.!.C a X.X.} } X.-.,.i.%.G Z ! 6.Z.E.'.q.S H I &.&.X.-.,.i.%.G &.&.&.&.&.&.&.&.H &.&.&.&.&.",
"&.&.` 4.d.F.K.K.K.....o.} Z S.-.-.-.-.-.H.B - &.} X.-.>.>.) 1 t E.#X#X#X@X@X@XC.f P &.X.-.>.>.) &.&.&.&.&.&.&.&.&.&.&.&.&.&.&.&.",
"&.' x.Y.K.z.p.u.y.Q  . .{ X.+ 1.-.-.-.-.-.G.C a &.&.-.=.G M Z.OX XQ.G.x.z.c.W.oXN H X.&.-.=.G &.&.&.&.&.&.&.&.&.&.&.&.&.&.&.&.&.",
"8.P.m.s.;.;.;.=.w.e.^ ) { X.1 + 5.-.-.-.-.-.G.l K &.=.E ^ [.}.l.u.i.i.u.u.p.x.{.g ) X.&.=.E &.&.&.&.&.&.&.&.&.&.&.&.&.&.&.&.&.&.",
"M.j.-.=.=.&.&.*.*.|..X7.) &.} p + ! -.-.-.-.-.R.e ..D w.!.x.y.;.;.y.y.u.u.s.L.2.2 _ X..... .....&.&.&.&.&.&.&.&.&.&.&.&.&.&.&.&.",
"&.&.&.&.&.&.&.&.&.g.(.'.! } &.} y + -.-.-.-.-.-.<.S d.T.u.;.;.;.;.y.y.u.p.z.V.0 p E Z f s n Q  . .{ &.&.&.&.&.&.&.&.&.&.&.&.&.&.",
"&.&.&.&.-.-.-.&.&.&.I.0.a [ &.&.} v + -.-.-.-.-.| H m.:.-.-.-.-.;.y.u.y.s.D.y : : # w R 4.w.e.^ ) { &.&.&.&.&.&.&.&.&.&.&.&.&.&.",
"&.&.&.&.&.-.-.&.&.&.&.&.&.&.&.&.&.} ) G -.-.-.-. .D ;.-.-.-.-.-.;.;.y.s.d.9 8 = T F._.XXXX_.|..X7.) &.&.&.&.&.&.&.&.&.&.&.&.&.&.",
"&.&.&.&.&.-.-.-.&.&.&.&.&.&.&.&.&.&.} } } &.( G j.;.&.+.+.&.-.-.-.-.u.J.y % $ 9./.`.~.v.g.g.g.(.'.! } &.&.&.&.&.&.&.&.&.&.&.&.&.",
"&.&.&.&.&.&.-.-.-.&.&.&.&.&.&.&.&.&.} X.} ..G o.u.+.+.+.X.X.+.-.-.;.s.z $ * f.^.v.p.,.;.,.i.h.I.0.a [ &.&.&.&.&.&.........&.&.&.",
"&.&.&.&.&.&.&.&.&.&.&.&.&.&.&.&.&.&.} X.X.) ! u.X.X.X.X.X.X.X.+.-.;.S = 1 U.N.-.-.;.;.;.;.p.k.f.- d { &.&.&.&. .! M m h S ~ &.&.",
"&.&.&.&.&.&.&.&.&.&.&.&.&.&.&.&.&.&.&.} X. .O.+.X.X.X.X.X.X.X.X.-...1 S j.:.&.*.&.&.&.=.;.p.a.* ; c ..&.} } _ g           w ` ..",
"&.&.&.&.&.&.&.&.&.&.&.&.&.&.&.&.&.&.&.&.X. .O.X.X.&.&.&.&.&.X.+.X.] ..j.;.X.X.X.*.*.*.=.>.r.& $ > P } &.....w   B.B.B.B.B.  u ) ",
"&.&.&.&.&.&.&.&.&.&.&.&.&.&.&.&.&.&.&.&.X...X.X.&.&.&.&.&.&.&.X.X.-.;.+.X.X.X.X.&.*.=.=.t.& $ q c ..&.} ..a   B.B.+X+XB.B.B.  ! ",
"&.&.&.&.X.} } } X.} &.&.&.&.&.&.&.&.&.&.&.X.X.X.&.&.&.&.&.&.&.&.&.+.&.X.X.X.X.X.X.*.=.` o & > c ..} &.} A   B.B.+X+X+X+XB.B.  D ",
"&.&.&.&.&...I I [ Y L Y I J  .....&.&.&.&.} } &.&.&.&.&.&.&.&.&.&.&.&.X.X.X.X.} X.=.S @ q > b { X.&.} %.,   B.+X+X+X+X+XB.B.  S ",
"&.} &.&.&.&.%.G Z ! 6.Z.E.'.q.S H I &.&.&.&.&.&.&.&.&.&.&.&.&.&.&.&.&.&...X.X...) d = > c K %.} &.#.&...  B.B.+X+X+X+X+XB.B.  D ",
"&.&.&.&.&.) u t E.#X#X#X@X@X@XC.f P &.&.&.&.&.&.&.&.&.&.&.&.&.&.&.&.&.&.X.X.X.P < < 4 U %.X.&.&.&.#.&.K   B.+X+X+X+X+X+XB.  O H ",
"&.&.&.&.G M Z.OX XQ.G.x.z.c.W.oXN H X.&.&.&.&.&.&.&.&.&.&.&.&.&.&.&.&.&.&.X.{ I Y { ..} &.&.&.&.&.#.&.b   B.+X+X+X+X+XB.B.  = { ",
"X.&.&.E ^ [.}.l.u.i.i.u.u.p.x.{.g ) X.&.&.&.&.&.&.&.&.&.&.&.&.&.&.&.&.&.&.&.&.} } } } &.&.&.&.&.#.#.%.b   B.+X+X+X+XB.B.  . F { ",
"{ ..D w.!.x.y.;.;.y.y.u.u.s.L.2.2 _ &.&.&.&.&.&.&.&.&.&.&.&.&.&.&.&.&.&.&.&.&.} } } X.&.&.&.} &.#.&.&.F   B.B.+X+XB.B.  X y { { ",
"<.S d.T.u.;.;.;.;.y.y.u.p.z.V.0 p E &.&.&.&.&.&.&.&.&.&.&.&.&.&.&.&.&.&.&.&.&.} } } X.} } -.&.&.} &.&.(   B.B.B.B.      ; &.&.&.",
"| H m.:.-.-.-.-.;.y.u.y.s.D.y : : &.&.&.&.&.&.&.&.&.&.&.&.&.&.&.&.&.&.&.&.&.&.} } } $.$.&.&.&.#.} &.&.O.9           7 i _ &.&.&.",
" .D ;.-.-.-.-.-.;.;.y.s.d.9 8 = &.&.&.&.&.&.&.&.&.&.&...I I ) ..&.&.&.&.&.&.&.&.&.&.&.&.&.&.#.&.} &.&.=.( u     0 u K _ &.&.&.&.",
"j.;.&.+.+.&.&.=.-.-.u.J.y % $ &.&.&.&.&.&.&.&.&.&.&...    v v Y Y &.} } &.&.&.&.&.&.&.&.&.&.&.} &.#.&.-.-.*.P A P *...&.&.&.&.&.",
"u.+.X.+.X.X.+.-.=.;.s.z $ * &.&.&.&.&.&.&.&.&.&.&..   B.B.    v v &.{ } &.&.&.&.&.} } } } } } } } #.&.&.-.;.;.=.=.&.&.&.&.&.&.&.",
"X.X.X.X.X.+.+.+.-.;.S = 1 &.&.&.&.&.&.&.&.&.&.&.3   B.B.B.B.B.  u &.} } &.&.&.&.} 3.A.V x W ) } } &.&.&.&.&.&.&.&.&.&.&.&.&.&.&.",
"X.X.X.X.X.X.X.+.-...1 S &.&.&.&.&.&.&.&.&.&.&.H   B.B.+X+XB.B.  e &.X.} &.&.#.} R T.-.-.).].k S } &.&.&.&.&.&.&.&.&.&.&.&.&.&.&.",
"X.&.&.&.&.&.X.+.X.] &.&.&.&.&.&.&.&.&.&.&.&.&.S   B.+X+X+X+XB.  r &.#.#.&.&.} } j K.-.-.-.-.!.C a X.X.} &.&.&.&.&.&.&.&.&.&.&.&.",
"&.&.&.&.&.&.&.X.&.&.&.&.&.&.&.&.&.&.&.&.&.&.&.v   B.+X+X+XB.  d d &.#.#.&.&.[ } Z S.-.-.-.-.-.H.B - &.} &.&.&.&.&.&.&.&.&.&.&.&.",
"&.&.&.&.&.&.&.&.&.&.&.&.&.&.&.&.&.&.&.&.&.&.&.Z   B.B.+XB.B.  F F &.$.#.&.&.&.} } + 1.-.-.-.-.-.G.C a &.&.&.&.&.&.&.&.&.&.&.&.&.",
"&.&.&.&.&.&.&.&.&.&.&.[ &.&.&.&.&.&.&.&.&.&.&.G .   B.B.    . F ..&.&.#.&.&.&.&.} 1 + 5.-.-.-.-.-.G.l K &.&.&.&.&.&.&.&...&.&.&.",
"&.&.&.&.{ { [ I I I H I &.&.&.&.&.&.&.&.&.&.&.) ) .     . 2 F &.&.&.&.&.&.&.&.&.} } p + ! -.-.-.-.-.R.e ..&.&.&.&.&.&.&...&.&.&.",
"&.&.&.&. . .) H ( ` ( H P &.&.&.&.&.&.&.&.&.&.&.) 4 1 2 c &.&.&.&.&.&.&.&.&.&.&.&.&.} y + -.-.-.-.-.-.<.S &.&.&.&.&.&.&.&.&.&.&.",
"&.&.&.` 1.d.F.K.K.K.m.n.o...&.&.&.&.&.&.&.&.&.&.&.&.&.&.&.&.&.&.&.&.&.&.&.&.&.&.&.&.&.} v + -.-.-.-.-.&.&.&.&.&.&.&.&.&.&.&.&.&.",
"&.&.&.x.Y.K.z.p.u.y.;.p.O.&.&.&.&.&.&.&.-.-.&.&.&.&.&.&.&.&.&.&.&.&.&.&.&.&.&.&.&.&.&.&.} ) G -.-.-.&.&.&.&.&.&.&.&.&.&.&.&.&.&.",
"&.&.&.&.s.;.;.;.=.;.;.=...&.&.&.&.&.&.&.&.&.&.&.&.&.&.&.&.*.&.&.&.&.&.&.&.&.&.&.&.&.&.&.&.} } } &.&.&.&.&.&.&.&.&.&.&.&.&.&.&.&.",
"&.&.&.&.=.=.&.&.*.*.=...&.&.&.&.&.&.&.&.&.&.X.&.&.&.&.&.&.&.&.&.&.&.&.&.&.&.&.&.&.&.&.&.&.} X.} &.&.&.} } &.&.&.&.&.&.&.&.&.&.&.",
"&.&.&.&.&.{ { ....X...{ &.&.&.&.&.&.&.&.&.&.&.&.&.&.&.&.&.&.&.&.&.&.&.&.&.&.&.&.&.&.&.&.&.&.&.&.&.&.&.&.&.&.&.&.&.&.&.&.&.&.&.&.",
"{ { &.&.&.Y I J  .....&.&.&.&.&.&.&.&.&.&.&.&.&.&.&.&.&.&.&.&.&.&.&.&.&.&.&.&.&.&.&.&.&.&.&.&.&.&.&.&.&.&.&.&.&.&.&.&.&.&.&.&.&."
};
