/* XPM */
static const char *floor4[] = {
/* columns rows colors chars-per-pixel */
"64 64 181 2 ",
"   c gray46",
".  c #3F9136",
"X  c #30923A",
"o  c #3C983D",
"O  c #4C9A2A",
"+  c #4F9F36",
"@  c #4C9E3A",
"#  c #5C9E3A",
"$  c #4AA336",
"%  c #46A93B",
"&  c #54A535",
"*  c #5EA937",
"=  c #52A63A",
"-  c #5BA53B",
";  c #55AB3D",
":  c #5AAD3D",
">  c #5CB33D",
",  c #6BAB3A",
"<  c #6BB735",
"1  c #6BB43C",
"2  c #6BB83B",
"3  c #72B23C",
"4  c #74C23D",
"5  c #3F9D43",
"6  c #419C45",
"7  c #4CA841",
"8  c #59A644",
"9  c #5FA841",
"0  c #53B141",
"q  c #6DA641",
"w  c #66AC40",
"e  c #68AE41",
"r  c #79AE45",
"t  c #63B343",
"y  c #6AB042",
"u  c #60BB4A",
"i  c #6AB948",
"p  c #75B742",
"a  c #78B745",
"s  c #72BA44",
"d  c #78B944",
"f  c #76B24C",
"g  c #7FBA4A",
"h  c #6AA85B",
"j  c #70AE5A",
"k  c #77BF50",
"l  c #75B26A",
"z  c #74C243",
"x  c #7DC143",
"c  c #7EC844",
"v  c #75C34B",
"b  c #80BB47",
"n  c #83B94B",
"m  c #80B656",
"M  c #8DBB6C",
"N  c #8DB675",
"B  c #8CBD71",
"V  c #83C444",
"C  c #84CD46",
"Z  c #84C54B",
"A  c #8AC54B",
"S  c #86CB4C",
"D  c #8DCC4C",
"F  c #94CE4C",
"G  c #9DCF4D",
"H  c #8CD14E",
"J  c #93D447",
"K  c #93D24D",
"L  c #9BD34C",
"P  c #96DA4F",
"I  c #9BD94C",
"U  c #86C155",
"Y  c #8DC157",
"T  c #8BCC52",
"R  c #84C55B",
"E  c #8FC359",
"W  c #94C750",
"Q  c #95CD53",
"!  c #94C45A",
"~  c #8CD152",
"^  c #95D152",
"/  c #9CD452",
"(  c #9BD658",
")  c #A1D446",
"_  c #A1D64C",
"`  c #A4DA4D",
"'  c #AADC4D",
"]  c #A2CF5A",
"[  c #A2D553",
"{  c #A4DB53",
"}  c #ACDE53",
"|  c #A5DA5E",
" . c #ABDB59",
".. c #B0DE54",
"X. c #A5E04D",
"o. c #AEE24F",
"O. c #B0E14E",
"+. c #A5E052",
"@. c #ACE151",
"#. c #ACE35A",
"$. c #B0E055",
"%. c #B3E45B",
"&. c #BDE75E",
"*. c #B4E95C",
"=. c #B9E95F",
"-. c #9ACB6D",
";. c #9CD067",
":. c #96CD72",
">. c #9EC579",
",. c #A1D263",
"<. c #A8DB64",
"1. c #A9D06C",
"2. c #B2DF68",
"3. c #A7D279",
"4. c #ADD57C",
"5. c #B2DB75",
"6. c #B4D778",
"7. c #A9E665",
"8. c #A8E867",
"9. c #B6E562",
"0. c #B8E664",
"q. c #B6EA61",
"w. c #BBEA64",
"e. c #B5EE6B",
"r. c #BCEA6B",
"t. c #B2E373",
"y. c #BBE776",
"u. c #C2E561",
"i. c #C1ED62",
"p. c #C4EE6C",
"a. c #CAF66F",
"s. c #C4E776",
"d. c #C3EC74",
"f. c #C4EC7A",
"g. c #CAED7D",
"h. c #D4EF73",
"j. c #CBF57E",
"k. c #D0F372",
"l. c #BBBBBB",
"z. c #AFDE80",
"x. c #ABDB8B",
"c. c #BBDE88",
"v. c #B7D997",
"b. c #BBE386",
"n. c #BEF089",
"m. c #C5EB81",
"M. c #CBED89",
"N. c #D6EE8A",
"B. c #C6F783",
"V. c #CAF281",
"C. c #CDF78A",
"Z. c #D7F486",
"A. c #D4F986",
"S. c #D0F588",
"D. c #D8F78A",
"F. c #C9E990",
"G. c #C8E698",
"H. c #DCF897",
"J. c #D9F79C",
"K. c #DDF79F",
"L. c #E6F686",
"P. c #E5FC86",
"I. c #E8FD8F",
"U. c #E3F595",
"Y. c #E0F498",
"T. c #EEFC9D",
"R. c #F0FE92",
"E. c #D6EEA3",
"W. c #D8EBAC",
"Q. c #DDF8A7",
"!. c #DBF5AC",
"~. c #E0F7A3",
"^. c #EFFAA4",
"/. c #E5F9AF",
"(. c #ECFAAE",
"). c #F2FFA4",
"_. c #E8FBB7",
"`. c #E8FABA",
"'. c #CDCDCD",
"]. c #F5FECE",
"[. c #F3FFD3",
/* pixels */
"@.@.@.@.@.@.@.@.@.o.@.@.@.@.o.o.o.@.@.@.@.@.@.@.@.o.@.@.@.@.@.@.@.@.@.@.@.@.@.@.@.@.@.@.@.@.@.@.@.@.@.@.@.@.@.@.@.@.@.@.@.@.@.@.",
"@.@.@.@.@.@.@.@.@.@.@.@.@.@.o.o.@.@.@.@.@.@.@.@.@.@.@.{ L L / { @.@.@.@.@.@.@.@.@.@.@.@.@.@.@.@.@.@.@.@.@.#.{ ` +.+.@.@.@.@.@.@.",
"@.@.@.@.o.o.@.@.@.@.@.@.@.@.@.@.@.} } } @.@.@.@.} { A         3 _ @.@.@.@.@.@.@.@.@.@.@.@.@.@.@.@.@.@.@.@.@.@.@.@.@.@.@.@.@.@.@.",
"@.@.@.@.o.o.@.@.@.@.@.@.@.@.@.@.@.} } } @.@.@.' `     l.l.l.l.  , @.@.@.@.@.' ' ' ' ' ' ' @.@.@.@.@.@.@.@.@.@.@.@.I J I L G [ { ",
"o.@.o.o.o.@.@.' ' ' ' ' ' ' ' @.@.o.@.@.@.@.' { 3   l.l.l.l.l.l.  x @.@.@.@.' >.v.N l R / ' ' @.@.@.q.+.@.q.+.D V Q 1.c.G.E.4.Z ",
"o.@.@.o.@.@.@.' >.v.N l R / ' ' o.o.@.@.@.@.} V   l.l.'.'.'.'.l.  y ' @.@.' Y D.$.$.Y.W.h Z ' } @.@.@.@.@./ 1 r G.[.[.[.].].].x.",
"o.@.o.o.} } ' Y D.$.$.Y.W.h Z ' } o.o.o.@.} `     l.'.'.'.'.'.l.  w } @.@.' n V.$.$.$.$.K.B p } @.@.@.@.D n c.`./.J.M.f.d.g.H._.",
"@.@.o.@.} } ' g V.$.$.$.$.K.B p ' ' o.o.@.@.F   l.l.'.'.'.'.'.l.  e @.@.@.' V b.$.$.$.$.$.N.M p @.@.#.T ! Q.~.s.9.q.q.0.0.w.f.!.",
"} } } @.@.@.' V b.$.$.$.$.$.N.M - @.' @.@.@.A   l.'.'.'.'.'.l.l.  s +.+.+.+.' & ;.$.$.$.$.$.N.M p { A 5.K.f.9.%.%.9.9.0.r.r.C.:.",
"} } @.@.@.@.o.' + ;.$.$.$.$.$.M.B p @.@.@.@.x   l.'.'.'.'.l.l.    S +.+.+.+.@.1 + <.$.$.$.$.@.N.-.Z t.D.0.%.%.%.%.%.9.0.w.d.z.9 ",
"o.o.@.@.@.@.} } 1 + <.$.$.$.$.$.M.j H @.@.@.V   l.'.'.'.l.l.    @ +.@.@.+.@.@.' i + Q $.$.@.@.$.] F j.=.%.%.%.%.%.9.9.9.r.n.t : ",
"o.o.@.@.} } } } ' i + Q $.$.$.$.$.F.w { @.@.D   l.l.'.l.l.    X ~ @.@.@.@.@.@.@.' t + $.$.@.$.$.[ A %.$.$.%.%.%.%.%.9.r.t.8 7 @.",
"o.o.} @.@.@.@.@.@.' t + $.$.$.$.$.$.-.Z @.@./ .   l.l.l.    5 v #.@.@.@.@.@.@.@.@.' x @.@.@.^ D p.%.@.....$.@.#.%.%.0.B.t % @.@.",
"o.o.} } @.@.@.o.@.@.' x + $.$.$.$.$.' @.@.@.{ t o       6 u C #.@.+.@.@.@.@.@.@.@.} { D @.{ D | 9...} ..} } ..@.#.%.r.k $ @.@.@.",
"@.@.@.} o.o.o.o.@.@.@.' / A $.$.$.@.@.@.@.@.@./ x 1 2 z C I @.@.+.+.+.+.+.@.@.@.@.@./ Q @./ Q 9.} } } } } ......%.%.A = @.@.@.@.",
"@.@.@.} o.o.o.o.@.@.@.@.' ' ' @.@.@.@.@.@.@.@.@.#.{ ` +.+.@.@.@.+.+.+.+.+.+.@.@.@.@.[  .@.[  ...} } } } } } } ..$.{ 1 _ ` @.@.@.",
"o.o.o.o.} } o.@.@.@.@.@.@.@.@.@.@.@.@.@.@.@.' } { { @.@.@.@.@.@.@.+.+.+.+.+.@.@.@.+.+. .} [  .} } @.@.@.@.@.} ..} ) F L / @.} } ",
"o.o.o.o.} } @.@.@.@.@.@.@.@.@.@.@.@.@.@.' ' T V d a b W [ [ @.@.@.@.+.+.@.@.@.@.+.+.@.+.} @.@.} @.@.@.@.@.@.@.} } ( ^ F K { @.} ",
"o.@.@.@.} } o.o.} } o.@.@.@.@.@.@.@.' ' ' : # q E ,.5.6.! / ` @.@.@.@.@.@.+.@.@.@.@.+.+.@.@.@.@.@.@.@.@.@.@.@.@.V.V.j.f.| { } } ",
"@.@.@.@.@.} o.o.} } o.o.o.@.@.@.' ' ' 7 = U m.T.).).T.^.(.1./ @.@.@.@.@.@.@.@.@.@.@.+.+.@.@.@.@.@.@.( f.S.V.d.w.0.9.%.w. .o.} } ",
"@.} } } @.o.o.o.} o.o.o.@.@.@.@.' ' % $ 2.I.R.L.h.u.u.u.U.E.Q @.@.@.@.@.@.@.@.@.@.@.@.@.@.@.} } [ 2.C.j.r.%.%.%.#.%.%.#.{ o.o.@.",
"@.} @.} @.@.@.o.@.@.o.o.@.@.@.' ' $ * y.P.h.w.=.%.=.q.i.Z.3.p ` @.@.@.@.@.@.@.@.@.@.@.@.@.@.' ` r.j.p.%.#.#.@.@.+.+.#.{ o.o.o.@.",
"o.o.@.@.' ` ` ` ` o.o.o.@.@.@.' = 1 A.k.$.$.%.%.%.%.w.a.y.- s ` @.@.@.@.@.@.@.@.@.@.@.@.@.' ' *.a.w.@.X.` ` ` { { } { ` o.o.@.@.",
"' @.@.` ` _ L L L F L o.@.@.{ 1 Z p.&.@.+.@.@.@.#.%.w.e.* ; z { @.@.@.@.@.@.@.    u @.@.@.} %.w.w.+._ I J I L G [ { { @.o.o.@.@.",
"o.@.@.[ [ / F ^ ( ^ D @.@.@.) { p.$.} } } } +.+.#.*.7.& $ > K @.@.@.@.@.w w u     @.o.@.@.%.w.q.+.D @.@.@.@.@.@.@.@.F o.o.o.} } ",
"@.o.( ,.t.m.V.V.V.{ { | @.} ' $.} } } } } @.+.#.#.8.& $ 0 z @.@.@.@.@.        w u w   @.@.*.*./ @.@.@.@.o.@.@.@.@.@.o.o.o.o.} } ",
"@.( f.S.V.d.w.0.9.W [ [ ` @.} ' ' ' ' } } } +.#.( O & > z @.@.@.@.@.w   '.'.'.  u u @.@.@.#.D @.o.@.@.@.@.@.@.@.@.@.@.@.@.@.@.} ",
"2.C.j.r.%.%.%.#.5.6.! / ` @.@.} ' ' ' ' ' } #.Z + 0 > $.@.@.@.@.@.@.w   '.'.'.  @.  w @.@.@.+.@.o.@.@.@.@.@.@.@.} } } @.@.@.@.@.",
"j.p.%.#.#.@.@.+.+.^.(.1./ @.@.} } @.@.' ' ' s = > z $.@.{ L L / { @.@.  '.'.'.  w @.@.@.@.+.+.+.@.@.@.@.@.o.o.o.o.o.@.@.} } @.@.",
"@.@.@.@.@.@.@.@.@.u.U.E.Q ' @.' @.} @.@.' ' ' 4 P } { A         3 _ @.w         w @.@.@.@.@.+.+.@.@.@.} @.o.@.o.o.o.@.@.} } } o.",
"@.@.@.@.$.$.$.@.@.@.Z.3.p ` @.@.@.@.@.@.@.@.` ` ' `     l.l.l.l.  , @.@.u w w u @.@.@.@.@.@.@.@.@.@.@.} @.@.@.@.o.o.@.@.} } o.o.",
"@.@.@.@.@.$.$.@.@.@.@.@.@.@.@.@.@.@.+.@.@.@.@.' { 3   l.l.l.l.l.l.  x @.@.@.@.@.@.@.@.@.@.@.@.@.@.@.@.@.} @.@.@.o.o.@.@.@.@.o.o.",
"@.o.o.o.@.$.$.$.@.@.@.@.@.@.o.o.@.+.+.+.+.@.@.} V   l.l.'.'.'.'.l.  y ' @.@.@.@.@.@.+.+.+.+.+.+.+.+.@.@.@.@.@.@.@.@.@.@.o.o.o.o.",
"o.o.@.o.@.@.$.$.$.@.@.@.@.@.@.@.@.@.+.+.@.@.@.`     l.'.'.'.'.'.l.  w } @.@.@.@.@.@.@.@.+.+.+.+.+.+.@.@.@.@.@.@.@.@.@.@.@.@.o.o.",
"@.@.@.@.@.@.@.@.@.@.@.@.@.@.@.@.@.@.@.@.@.@.@.K   l.l.'.'.'.'.'.l.  e @.@.  w @.@.@.@.@.@.@.+.+.+.+.+.+.@.@.@.@.@.@.@.@.} @.} } ",
"@.@.@.@.@.@.@.@.@.@.@.@.@.@.@.@.@.+.@.@.@.@.@.A   l.'.'.'.'.'.l.l.  s o.  l.  @.@.@.@.@.@.@.@.@.+.+.+.+.@.@.@.@.@.@.@.@.} } } @.",
"} ' ' ' ' ' ' ' ' @.@.@.@.@.} @.@.@.@.@.@.@.@.V   l.'.'.'.'.l.l.    S O.w   @.@.@.@.@.@.@.@.@.@.@.@.@.@.@.@.@.@.@.@.@.@.@.@.@.@.",
"} ' >.v.N l R / ' ' @.@.@.@.o.o.@.@.@.@.@.@.@.V   l.'.'.'.l.l.    @ { $.@.@.@.@.@.@.@.@.@.@.@.@.@.@.@.@.@.@.@.@.@.o.@.@.@.@.@.@.",
"' Y D.$.$.Y.W.h Z ' } @.@.@.@.@.@.@.@.@.@.@.@.D   l.l.'.l.l.    X ~ @.@.  w @.@.@.@.@.@.+.+.@.+.@.@.@.@.@.@.@.@.o.@.@.@.@.o.o.@.",
"' g j.$.$.$...K.M 3 } } @.@.@.@.@.@.@.@.@.' @./ .   l.l.l.    5 v @.@.@.' ` ` @.@.@.+.+.+.+.+.+.@.@.@.@.@.@.@.@.@.@.@.@.o.o.o.@.",
"' V b.$.$.$.$.$.N.M - @.' @.@.@.@.@.@.@.@.@.@.} t o       6 u C #.@.@.` ' ` } @.@.+.@.@.@.@.@.@.@.' ' ' ' ' ' ' @.@.@.@.@.@.@.@.",
"@.' + ;.$.$.$.$.$.M.B p @.@.@.@.@.@.@.@.@.@.@.@./ x 1 2 z C I +.#.@.@.@.@.@.@.@.+.+.@.@.@.@.@.@.@.' >.v.N l R / ' ' @.@.@.@.@.@.",
"@.@.1 + <.$.$.$.$.$.M.j H @.@.@.@.@.+.+.@.@.@.@.@.#.{ ` +.+.+.@.@.@.@.@.@.@.@.@.+.+.+.@.+.+.@.@.' Y D.$.$.U.W.h Z ' } @.@.@.@.@.",
"@.@.' i + Q $.$.$.$.$.F.w { +.@.@.@.+.+.+.+.@.@.@.@.@.@.@.@.@.@.@.@.@.@.@.@.+.+.+.+.+.@.+.+.@.@.' g V.$.$.$.$.K.B p } } @.@.@.@.",
"@.@.@.' t + $.$.$.$.$.$.-.Z @.+.+.+.+.+.@.@.@.@.@.@.I J I L G [ { { @.@.+.+.+.+.@.@.@.@.+.@.@.@.' V b.$.$.$.$.$.N.M - @.' @.@.@.",
"@.@.@.@.' x + $.$.$.$.$.' @.@.+.+.+.+.+.@.@.q.+.D V Q 1.c.G.E.4.Z F L @.+.+.+.+.@.@.} ' +.@.@.@.@.' + ;.$.$.$.$.$.M.B p @.@.@.@.",
"@.@.o.@.@.' / A $.$.$.@.@.@.@.@.@.@.@.@.@.@./ 1 r G.[.[.[.].].].x.a K @.@.@.@.@.@.@.O.O.@.@.@.@.@.@.1 + <.$.$.$.$.$.M.j H @.@.@.",
"@.@.@.@.@.@.' ' ' @.@.@.@.@.@.@.@.@.@.@.@.D n c.`./.J.M.f.d.g.H._.m F } @.+.@.@.@.@.@.@.@.@.o.@.@.@.' i + Q $.$.$.$.$.F.w { @.@.",
"@.@.@.@.@.@.@.@.@.+.+.+.+.+.@.@.@.@.+.#.T ! Q.~.s.9.q.q.0.0.w.f.!.f / } @.@.@.+.@.@.@.@.@.@.+.+.@.@.@.' t & $.$.@.@.@.@.-.Z @.@.",
"@.@.@.@.@.@.@.@.@.@.+.+.+.+.@.@.@.@.{ A 5.K.f.9.%.%.9.9.0.r.r.C.:.1 I } { { [ { { @.' @.@.@.@.@.+.@.@.@.' x @.{ L L / { @.@.@.@.",
"@.@.@.@.@.@.@.@.@.@.@.@.+.@.@.@.@.-.Z t.D.0.%.%.%.%.%.9.0.r.d.z.9 i T V d a n W [ [ ` @.@.@.@.@.+.+.+.@.} { A         3 _ @.@.@.",
"@.@.@.@.+.@.@.@.@.@.@.@.+.+.@.@.$.] F j.=.%.%.%.%.%.9.9.9.r.n.t : : # q E ,.5.6.! / ` @.@.@.@.@.+.+.+.' `     l.l.l.l.  , @.@.@.",
"} @.@.@.+.+.+.@.@.@.@.@.@.@.@.$.$.[ A %.$.$.%.%.%.%.%.9.r.t.8 7 = U m.T.).).T.^.(.1./ @.+.+.+.+.@.@.' { 3   l.l.l.l.l.l.  x @.@.",
"@.@.@.@.@.@.@.} @.@.@.@.@.@.@.^ D p.%.@.$...@.@.#.%.%.0.B.t % $ 2.I.R.L.h.u.u.u.U.E.Q ' $.$.+.+.@.@.} V   l.l.'.'.'.'.l.  y ' @.",
"@.@.@.@.@.@.@.@.@.@.@.@.@.@.{ D | 9...} ..} } } @.#.%.r.k $ * y.P.h.w.=.%.=.q.i.Z.3.d ` $.$.$.+.@.@.`     l.'.'.'.'.'.l.  w } @.",
"@.@.@.@.@.@.@.@.@.@.@._ @.@./ Q 9.} } } } } } } ..%.%.A = 1 A.k.$.$.%.%.%.%.w.a.y.- s ` @.@.+.+.@.@.F   l.l.'.'.'.'.'.l.  e @.@.",
"@.@.@.@.` ` _ L L L F L @.@.[  ...} } } } } } } } $.{ 1 Z p.&.@.@.@.@.@.#.%.w.e.* ; z @.@.@.@.+.@.@.A   l.'.'.'.'.'.l.l.  s @.@.",
"@.@.o.o.[ [ / F ^ ( ^ F K @.[  .} } @.@.@.@.o.} ..} ) { p.$.} } } } +.+.#.*.7.& $ > K @.@.@.@.+.@.@.x   l.'.'.'.'.l.l.    S @.@.",
"@.@.o.( ,.t.m.V.V.V.j.f.| { @.} } @.@.@.} } @.@.} } $.$.} } } } } @.+.#.#.8.& $ 0 z { @.@.@.@.@.@.@.V   l.'.'.'.l.l.    @ { @.@.",
"@.@.@.f.S.V.d.w.0.9.%.w. .@.@.@.@.@.@.@.} } } @.@.@...@.} } } } } } +.#.( O & > z { @.@.@.@.@.@.@.@.D   l.l.'.l.l.    X ~ @.@.@.",
"@.@.@.@.r.%.%.%.#.%.%.#.{ @.@.@.@.@.@.@.@.@.@.@.@.@.@.@.} } } } } } #.Z $ 0 > c ` @.@.@.@.@.@.@.@.@./ .   l.l.l.    5 v @.@.@.@.",
"} @.o.o.#.#.@.@.+.+.#.{ @.@.@.@.@.@.@.@.@.@.@.@.@.@.o.@.@.{ } } } / s = > z H +.' @.@.@.@.' } ' @.@.{ t o       6 u C #.@.@.@.@.",
"} } ' o.@.` ` { { } { ` @.@.@.@.@.@.@.@.@.o.o.@.@.@.@.@.@.} } } / < < 4 P +.} @.@.@.@.@.@.@.@.@.@.@.@./ x 1 2 z C I @.@.@.@.@.@.",
"` ` o.@.@.I L G [ { { @.@.@.@.@.@.@.@.@.@.o.o.@.@.@.@.@.@.@.} ` L _ ` { ' @.@.@.@.@.@.@.@.@.@.@.@.@.@.@.#.{ ` +.+.@.@.@.@.@.@.@."
};
