/* XPM */
static const char *p_down[] = {
/* columns rows colors chars-per-pixel */
"64 64 244 2 ",
"   c #090C05",
".  c #02080F",
"X  c #0C0B0B",
"o  c #050A11",
"O  c #090E14",
"+  c #0C1216",
"@  c #0D1813",
"#  c #0D1219",
"$  c #121616",
"%  c #141B1B",
"&  c #221818",
"*  c #161C22",
"=  c #292926",
"-  c #2A312C",
";  c #464D51",
":  c #585B5A",
">  c #704E4E",
",  c #784C4A",
"<  c #605F60",
"1  c #6C5F62",
"2  c #72716F",
"3  c #835653",
"4  c #8E625B",
"5  c #846A68",
"6  c #937370",
"7  c #A16E69",
"8  c #529D34",
"9  c #49A437",
"0  c #57A839",
"q  c #5CB43D",
"w  c #6BB53C",
"e  c #54AB42",
"r  c #6FB146",
"t  c #76B746",
"y  c #7D817D",
"u  c #76C343",
"i  c #82BB4A",
"p  c #8ABB5A",
"a  c #88877E",
"s  c #86907E",
"d  c #A68C7C",
"f  c #AD9778",
"g  c #B89A79",
"h  c #C59F7F",
"j  c #86C549",
"k  c #8DCC4C",
"l  c #9BC74C",
"z  c #94CE4C",
"x  c #9DCC4C",
"c  c #8CD24E",
"v  c #97D54D",
"b  c #9BD34B",
"n  c #8BC854",
"m  c #94C855",
"M  c #95D152",
"N  c #9BD552",
"B  c #99D35B",
"V  c #A3CF4F",
"C  c #A2D74B",
"Z  c #A4DB4D",
"A  c #ACDE4E",
"S  c #A1CF59",
"D  c #A2D552",
"F  c #A4DB52",
"G  c #ACDD53",
"H  c #A5D85B",
"J  c #ABDB59",
"K  c #B0D757",
"L  c #B0DE54",
"P  c #AEE24F",
"I  c #A5E052",
"U  c #ADE050",
"Y  c #ACE359",
"T  c #B0E055",
"R  c #B2E45B",
"E  c #B8E95E",
"W  c #99CF6D",
"Q  c #A6D567",
"!  c #ADD774",
"~  c #B3DA76",
"^  c #A9E766",
"/  c #B6E562",
"(  c #B8E664",
")  c #B6EA64",
"_  c #BBEA64",
"`  c #BCEA6B",
"'  c #B4E375",
"]  c #C3EA66",
"[  c #C4EC78",
"{  c #CAF57D",
"}  c #D1F172",
"|  c #7D8687",
" . c #848583",
".. c #878A86",
"X. c #8A8B8A",
"o. c #8F8D89",
"O. c #94918D",
"+. c #879595",
"@. c #999794",
"#. c #AD8B8A",
"$. c #B89886",
"%. c #A59C98",
"&. c #BB9D97",
"*. c #9CA296",
"=. c #A5A29D",
"-. c #BEA194",
";. c #86A3A4",
":. c #8BA4A5",
">. c #8AA6A9",
",. c #8BA8AB",
"<. c #94A8A9",
"1. c #90AEB0",
"2. c #93B2B2",
"3. c #99B6B8",
"4. c #9CBBBD",
"5. c #ABA8A5",
"6. c #B8AAAA",
"7. c #AFB1A4",
"8. c #BBB3AB",
"9. c #A6B9BA",
"0. c #A4BEBD",
"q. c #BDB6B1",
"w. c #BEB9B3",
"e. c #B8B8B7",
"r. c #D68D86",
"t. c #CB918A",
"y. c #C89495",
"u. c #D69995",
"i. c #C5A785",
"p. c #C9A598",
"a. c #D4A89B",
"s. c #D4BC9F",
"d. c #C9A9A6",
"f. c #C1AEAB",
"g. c #D9A7A3",
"h. c #C5B2AC",
"j. c #D9B8A7",
"k. c #C4ADB3",
"l. c #D3AEB1",
"z. c #C6B1B5",
"x. c #C1BAB5",
"c. c #C7BDBB",
"v. c #D7B9B4",
"b. c #D4BCBE",
"n. c #DBBCBC",
"m. c #E5AAA7",
"M. c #F4AEA4",
"N. c #ECB5AB",
"B. c #F3B3A8",
"V. c #EAB7B7",
"C. c #F5BAB6",
"Z. c #FDBCBC",
"A. c #ADDD85",
"S. c #BBDE88",
"D. c #BEF089",
"F. c #A6C1BE",
"G. c #BDC1BF",
"H. c #C6EB82",
"J. c #CAF382",
"K. c #CAF986",
"L. c #D2F689",
"P. c #C9E698",
"I. c #D9F496",
"U. c #E9FB92",
"Y. c #C7C3BE",
"T. c #DDC4B8",
"R. c #E4C5AB",
"E. c #E9C9B8",
"W. c #F7C6BA",
"Q. c #F4C1BD",
"!. c #F9D1BE",
"~. c #D6ECA6",
"^. c #DCF7AA",
"/. c #E9F8A9",
"(. c #EDFDAE",
"). c #A3BFC1",
"_. c #D0BEC0",
"`. c #DDBEC1",
"'. c #E2BFC2",
"]. c #A4C2C3",
"[. c #ABC3C4",
"{. c #AEC9C7",
"}. c #ABC6C9",
"|. c #ADCBCD",
" X c #B4C7C7",
".X c #B1CDCD",
"XX c #AECFD0",
"oX c #B1CED1",
"OX c #B1D2D0",
"+X c #B3D2D3",
"@X c #B9D6D7",
"#X c #B6DCDB",
"$X c #BADCDD",
"%X c #BADEE1",
"&X c #C4C4C2",
"*X c #CBC6C3",
"=X c #C4C9C7",
"-X c #CCC9C5",
";X c #CCCCCB",
":X c #DDC3C4",
">X c #D3CBC9",
",X c #D3D1CD",
"<X c #C1DBDD",
"1X c #D5D4D2",
"2X c #DBD9D6",
"3X c #E3C4C4",
"4X c #EAC8C5",
"5X c #E5C5C9",
"6X c #E9C6CA",
"7X c #E6CACA",
"8X c #EBCBCC",
"9X c #F5CAC6",
"0X c #E9D4CB",
"qX c #F6D2CE",
"wX c #E3CDD1",
"eX c #EDCED1",
"rX c #F2CFD1",
"tX c #EED2D3",
"yX c #E8DBD8",
"uX c #F3D3D3",
"iX c #FAD7D4",
"pX c #F2DAD6",
"aX c #FAD9D4",
"sX c #F6DDDA",
"dX c #F3FDCE",
"fX c #E6E1D9",
"gX c #F6E5D9",
"hX c #F6E5DB",
"jX c #F3FFD3",
"kX c #C0DFE1",
"lX c #E6E4E2",
"zX c #EBE8E5",
"xX c #EDEDEC",
"cX c #F7E9E5",
"vX c #FCEDE4",
"bX c #F4F1ED",
"nX c #FCF3E8",
"mX c #FCF3EB",
"MX c #F0EEF0",
"NX c #F3F4F3",
"BX c #FBF6F4",
"VX c #FDF8F6",
"CX c #F7F9F9",
"ZX c #F9F9F9",
/* pixels */
"U U U U U U U U P U U U U U U U U U U U U U U U U U U U U U U U U U U U U U U U U U G G U U U U U U U U U U U U G G G U P P U U ",
"U U U U U U U U U U U U U U U U U U U U U U U U U U U U U U U U U U U U U U U U U U U U U U U U U U U U U U U U U U U U P P U U ",
"U U U U U U U U U U U U U U U U U U U U U b b D F H 3.;.;.;.;.<.f.f.f.f.f.8.U U U U U U U U U U U U U U A G F F G U G U P U U U ",
"U U U U U U U U U U U U U U U I k j m Q S.P.~.].+X}.].4.4.4.0.F.:X'.'.'.3X4X:Xf.8.U U U U U U U U U A A n j t t i m D D U U U U ",
"U U U P U U U U U U U U U E N w t P.jXjXjXjXdX}.+X+X+X+X+X+XoXoX7X6X6X6X6X8X4X4X3XU P P P P U U A A A 0 0 r n Q ~ ~ m N Z U U U ",
"U U U P U U U U U U U T Y k i S.~.X X $ 2 1.].$X$X#X#X#X#X#X$X<XtX8X4X6X6XiXaXaXuX3X6.;   X X % A e 0 n H.U.(.(.U./.(.Q N U U U ",
"U U U U U U U U A U U Y n m P.+ % e.xX&Xo * $X$X$X$X$X$X$X$X$X<XpXiX8X8XiXaXaXaXiX5XO * 2XzX-XO.@ 9 / U.U.U.} ] ] ] U.~.m U U U ",
"U U U U U U U A U U F j ~ P.$ O.7.w.2XxX=X .- $X$X$X$X$X$X$X$X$XpXiX8X8XiXaXiXiX3X* 5.2XzX2X*X8.@.% U.} _ E R E ) ] L.! t Z U U ",
"U U U U U U A U U U j ' L.H # 5.q.w.lXlX>X5.< * $X$X$X$X$X$X$X$XpXaXuXuXaXaXiX3X# 2 w.yXlXlX-Xq.8.: - T R R R R _ } ' 0 t Z U U ",
"U U U U U U A T U S z { K $ e.x.x.c.bX2Xq.Y.&X$ $X$X$X$X$X$X$X$XpXaXaXaXaXaXiX3X= ;Xx.x.fXNX,Xx.q.6.= U U U Y R _ ) 0 0 u F U U ",
"U U U U U U T T T D j R V $ NX2XlXbX2Xq.q.x.fX$ $X$X$X$X$X$X$X$XpXaXaXaXaXaXiXn.- lXq.q.Y.2XzXxX2XfX@ G U U Y E ^ 0 9 q v A U U ",
"U U U U U U U M k ] R U V $ 2XbXzX2Xq.q.q.x.&X$ @X$X$X$X$X$X$X$XpXaXaXaXaXaXiXb.= ;Xq.h.q.w.>XyXNX-X@ U U Y Y ^ 0 9 e u F Z U U ",
"U U U U U U F k H ( L G G l * *X>Xq.q.q.x.-X8.$ @X$X$X$X$X$X$X<XpXaXaXaXaXaXiXb.= q.>Xq.q.q.x.Y.;X% Z G U Y B 8 0 q u F A U U U ",
"U U U U U G N m ( G G G G x +  .5.Y.q.q.*X6.2 % $X$X$X$X$X#X@X<XpXaXaXuXaXaXiX6X+ 2 x.*Xq.q.*Xw.a @ U U U U 9 e q u P P U U U U ",
"U U U U U G D J L G G G L J 1.# 1 2XbX1Xw.6 % +X#X$X$X$X$X+XoX.XsXaXuXiXaXaXaXuXd.& =.-XfXMXfX5.& T.U U U U U u c U U U U U U U ",
"U U U U U G D J G G U U U J ].].o X X X X * @XXX%X$X$X$X#X|.;.>.pXaXrX8XiXaXaXuXtX:XO X X X X * eXv.U U U U U Z U U U U U U U U ",
"U U U U U U F G G U U U U J ].#X#X@X@X@X{.[.].$X%X$X$X$X|.:.4.@XpXiX8X8XuXaXaXaXiXuXuX0X0XuX0XrXuXv.U U U U U U U U U U U U U U ",
"U U U U U U U U U U U U U J ].#X$X$X$X+X}.}.+X$X$X$X$X$XoX;.2. XpX8X3X5XuXaXaXaXiXuX8XrXuXuXuXaXiX:XU U U U U U U U U U U U U U ",
"U U U U U U P U U U U U U J ].@X$X@X@X].}.XX$X$X$X$X$X#X0.;.2.[.tX4X`.3XeXuXiXaXuXeX8X4XeXuXuXiXuX7XU U U U A Z Z Z Z Z U U U U ",
"U U U U U U P P U U U U J F.|.$X@XoX|.,.XX$X#X#X$X#X@X|.:.2.).[.4Xn.n.:X7XuXiXaXuX8XuX4X3XuXuXuXuXuXE.U U Z Z C b b b z b U U U ",
"U U U U U P P P U U U U J ].|.oXoX|.>.|.@X$X$X$X$X+X|.0.;.2.).[.4Xn.fXtXn.4XuXuXuX`.uX4X3X`.8XuXuXtXc.U U D D N z M N M U U U U ",
"U U U U U U U P U U U U J 4.|.oXoX|.].@X$X$X#X$X+X{.0.0.;.2.).0.z.cXvXfXn.6XuXuX8Xn.uXaXuX5X8XuXtXeXb.8.N Q ' H.J.J.J.{ U U U U ",
"U U U U A Z Z Z Z U U U J 4..X.X|.}.|.$X$X#X#X Xs.i.i.f ;.2.).0.z.vXgXf i.i.j.R.8X4XuXaXuXeX8XeXuXtX4Xf.[ L.J.[ _ ( / R U U U U ",
"A U U Z Z C b b b z b U J 4..X|.].4.+XkX#X#X|.|.{.0.[.0X;.2.2.0.z.cXbXvXgXgXv.n.3X4XuXuXqXuX8X5XuXuX5Xf.{ ` R R R Y R R U U U U ",
"U U U D D N z M B M k z J >.oX|.4.,.#X$X@Xf f $.i.i.i.i.fX;.:.].wX:XzXyX$.i.i.i.h g 8XuXuXuX7X3XuXuX6Xf.Y Y Y U U U U Y U U U U ",
"U U N Q ' H.J.J.J.F F Q :.|.|.].}.|.#X$X#X{.g R.p.&.$.d $.fXfX:.k.eXb.f d $.-.p.j.g E.uXuXiXuXeX7XuXuXwX8.Z F Z F F G F U U U U ",
"U B [ L.J.[ _ ( / m S :.].oX|.1.).@X#XXX.X Xg gXR.d.&.&.9XgXgXgXtXk.5X3Xh.&.d.R.pXg 4XuXuXaXuXtXn.uXuX8Xf.v N b x D F U U U U U ",
"Q K.{ ` R R R Y ~ ~ m >.]..X|.3.].$X@X.XoX Xg uXQ.p.&.d.sXgXgXsXgX7Xk.3Xd.&.p.4X4Xg j.4XuXaXiXuX:XuXtX8Xf.U U U U U U U U U U U ",
"{ ] T Y Y U U U U /./.>.].|.|.].XX$X$X.X Xg r.B.Z.9X9XpXcXcXcXcXcXgXk.3XrX9XQ.C.M.r.g T.uXaXiXuX7XuXtX8Xf.U U U U U U U U U U U ",
"U U U U U U U U U ] I.>.].|.].|.@X$X.X.X Xh.r.C.9XqXaXcXmXVXVXVXVXbXk.3XcXuX9XQ.B.r.Q.uXuXuXuXuXtX7XtX8Xf.U U U U U U U U U U U ",
"U U U U T T T U U U L.;.1.|.>.}..XoX|..X.Xz.r.*XgXvXmXVXVXVXVXVXbXz.yXBXBXmXcXiXW.r.9XuXuXuXuXuXtX:XeX3Xf.U U U U U U U U U U U ",
"U U U U U T T U U U J ;.1.|.4.|..X.X.X.X.X Xf..XgXvXmXmXmXmXmXVXBXtXz.yXmXvXgXE.u.N.rXuXuXuXuXuXuX3XeX5Xf.U U U U U U U U U U U ",
"U U U U U T T T U U G J ,.).).].}..X.X.X.X|.F. X3X4X0XvXmXcX0XmXmX0XgXz.vX0XE.g.g.6XtXuXuXuXuXeX4X4XeX3XG U U U U U U U U U U U ",
"U U U U U U T T T U U G J >.4.,.3..X.X.X.X.X.X{.y.u.j.gXnXnXvX0X0XvXvXvXaXa.u.m.6XuXuXuXuXuXtX8X`.6X3XL U U U U U U U U U U U U ",
"U U U U U U U U U U U U G J >.4.4.]..X.X.X{.]..Xe.<.%.t.a.mXmXmXmXvXgXa.t.v.3X6X5X6XtXuXuXuX8X5X5Xb.G U U U U U U U U U U U U U ",
"U U U U U U U U U U U U U G G G J >.0.M.M.M.]..X:.5.y., , t.gXgXgXa.4 , 3 g.v.`.6X4XV.N.V.5Xn.f.G G U U U U U U U U U U U U U U ",
"U U U U U U U U U U U U U U U U J <.M.Q.qXqXM.2.c.&.#.5 5 4 7 7 7 7 4 5 5 #.V.'.n.V.C.C.C.V.n.f.U U U U U U U U U U U U U U U U ",
"U U U U U U U U U U U U U U U U J <.M.C.Q.qXM.<.l.d.=.%.O.1 6 =.%.1 a @.=.=.l.v.n.C.C.C.C.N.n.f.U U U U U U U U U U U U U U U U ",
"U U U U U U U U U U U P U U U U G 0.e.N.M.B.<X0.X.*XCXNXc.@.CXCXxXo.6.1XNXxX@.6.4XqXN.M.C.4X5X>XU U U U U U U U U U U U U U U U ",
"U U U U U U U U A Z Z Z Z U U U J 1. X;Xc.e.}.2.NXZXCX*Xw.@.ZXCX&Xa 8.=X;XZXxXxXz.iX4X9X4X5X`.f.U U U U U U U U U U U U U U U U ",
"U U U A A U U Z Z C b b b z b U J >.oX#X|.].0.,.CXZXZXNXxX5.e.Y.5.5.;XNXCXZXZXxXk.aXuXuXuX5Xn.f.U U U U U U U U U U U U U U U U ",
"U U U U U U U D D N z M B M k M +.>.oX#XoX}.0.>.CXZXZXZXxXe.=.%.%.x.NXZXZXZXNXxXk.aXuXuXuX5X`.f.U U U U U U U U U U U U U U U U ",
"U U U U U U N Q ' H.J.J.J.F D ..+.>.|.@XoX|.0.:.&XCXZXCXc.O.6.Z.C.O.w.NXZXNX=Xc.k.iXuXuXuX4Xn.6...U U U U U U U U U U U U U U U ",
"U U U U U B [ L.J.[ _ ( / m S  .+.;.].1.[.}.0.;.O.q.NXxXO.v.V.Z.C.N.&.5.NXxX@.6.k.4X8X5X:X4X`.6...P U U U U U U U U U U U U U U ",
"U U U U Q K.{ ` R R R Y ~ ~ p  .+.>.1.>.).}.0.:.d.&.%.@.d.C.Z.Z.Z.C.m.d.%.%.f.l.k.6XeX:Xb.k.b.6...U U U U U U U U U U U U U U U ",
"U U U U { ] T Y Y U U U U /./...G.;.9.:.).{.0.<.V.g.&.&.C.Z.Z.Z.Z.Z.C.N.&.&.V.V.k.6XeX:Xb.k.k.k.=.U U U U U U U U U U U U U U U ",
"U U A U U U U U U U U U U ( X.&X&X9. X:.).}.0.<.4XZ.C.Z.Z.Z.Z.Z.Z.Z.Z.Z.C.Z.Z.V.k.6XeX:Xb.k.>X,X=Xs U U U U U U U U U U U U U U ",
"U U A U U U U U T T T U U J X.CXZXCX&X:.3.).F.<.4XZ.Z.Z.Z.Z.Z.Z.Z.Z.Z.Z.Z.Z.Z.V.k.5XeX3X_.k.lXZXxXa U U U U U U U U b x D F F U ",
"U G G U U U U U U T T U U J X.ZXZXCXzX:.3.].F.<.Q.Z.Z.Z.Z.Z.Z.Z.Z.Z.Z.Z.Z.Z.Z.V.k.5X6X:Xz.xXZXZXMXa U U I k j m Q S.P.~.! j z N ",
"U A G U U U U U U T T T U J ..,XZXZXNX:.}.}.0.<.4XZ.Z.Z.Z.Z.Z.Z.Z.Z.Z.Z.Z.Z.Z.V.k.5X`.k.z.ZXCXNX1X..E N w t P.jXjXjXjXdXdXA.t z ",
"U U A A A A A U U U T T T J | 5.w.1XNX:.}.}.3.:.y.y.u.C.Z.Z.Z.Z.Z.Z.Z.C.N.y.y.d.k.:Xk.k.2XZXCX*X7.Y k i S.(./.I.H.[ [ [ I.(.p z ",
"U U A A A A A A A U A U U G H | y y e.:.}.[.:.+.5 4 7 u.m.m.m.m.m.m.m.g.y.4 4 #.k.k.x.x.2X1X@.2 ..n m ^./.[ ( ) ) ( ( _ [ ^.t U ",
"G U A A A A A A A A A U U U G G x #  . ...+.:.:.T.R.g., > , , , , , , , , N.R.v.k.6.O...o. .: % j ~ I.[ / R R / / ( ` ` L.W w U ",
"U U A A A A A A A A A Z U U U U G l # ; ; ; : <.E.E.j.p.p.4 > o + 5 $.p.a.!.gX7X6.< ; ; ; % G i ' L.( R R R R R / ( _ [ A.e U U ",
"U U U U A A A A A A A U U U U U U G l o o o # X.mXmXE.j.j.7 > . O 5 a.!.!.gXgXc.6 o o o $ Z S z { E T T Y Y R / ( / ` D.r q U U ",
"U U U U U U U U U U U C U U U U U U G Z l . + 6 mXmXvXE.E.6 > . + 5 -.T.gXmX2X%.1 . @ G G T D j R T T T Y G R R / ` ' e e U U U ",
"U U U U Z Z C b b b z b U U U U U U U U G l #  .@.mXmXcXO. .: . #  .O.2XmXcX%...2 @ Z U M k ] R U T T U U Y T T ( K.r 9 U U U U ",
"U U U U D D N z M N M z z U U U U U U U A G D X.zXNXZXZXlX..: . # ..>XNXZXZXxXe.a Z P F k H ( L G L G U G U T R ` t 9 U U U U U ",
"U U U N W ' H.J.J.J.{ [ H F U U U U U U G T R / e.mXmXZXNXO.y Z D  .1XZXZXCXe.*.G U G N m ( G G G G G G G L T R j 0 U U U U U U ",
"U U U [ L.J.[ _ ( / R _ J U U U U U U U U T Y J X.;XZXZXNX*.G U G J 1XZXZXNX*.G U U G D J L G G G L G G G G T F w U U U U U U U ",
"U U U U ` R R R Y R R Y F U U U U U U U U U U G G J ......G U U U U J ......G U U U G D J G G U U U U U G L G U U U U U U U U U ",
"U U U U Y Y U U U U Y F U U U U U U U U U U G U U G G G G U U U U U G G G G U U U U U F G G U U U U U U U U U U U U U U U U U U ",
"U U U U U Z Z F F G F Z U U U U U U U U U U U U U U U U U U U U U U U U U U U U U U U G G U U U U U U U U U U U U U U U U U U U ",
"Z Z U U U N b x D F F U U U U U U U U U U U U U U U U U U U U U U U U U U U U U U U U U A U U U U U U U U U U U U U U U U U U U "
};
