/* XPM */
static const char *p_left[] = {
/* columns rows colors chars-per-pixel */
"64 64 235 2 ",
"   c #232323",
".  c #2A2B2B",
"X  c #302F2F",
"o  c #2E3131",
"O  c #5B4537",
"+  c #5C5848",
"@  c #714C44",
"#  c #6A5548",
"$  c #77584A",
"%  c #6D5D53",
"&  c #6C6455",
"*  c #796F68",
"=  c #86594D",
"-  c #875B5A",
";  c #886456",
":  c #9A6B53",
">  c #A3795C",
",  c #8E6E6B",
"<  c #9D736D",
"1  c #977773",
"2  c #A9786E",
"3  c #A97975",
"4  c #B57B7B",
"5  c #4D9D33",
"6  c #569D39",
"7  c #49A537",
"8  c #57A739",
"9  c #5CB43D",
"0  c #6BB53C",
"q  c #54A842",
"w  c #53B141",
"e  c #72AF49",
"r  c #66B346",
"t  c #75B742",
"y  c #79B946",
"u  c #76C343",
"i  c #82BA4A",
"p  c #80B656",
"a  c #94826A",
"s  c #8D887C",
"d  c #93857A",
"f  c #AE8B74",
"g  c #B78A76",
"h  c #8DBD72",
"j  c #87C548",
"k  c #85C54B",
"l  c #8DCC4C",
"z  c #94CE4C",
"x  c #9DCF4D",
"c  c #8CD24E",
"v  c #93D34C",
"b  c #9BD34B",
"n  c #9DD84E",
"m  c #8BC755",
"M  c #94C855",
"N  c #95D152",
"B  c #9BD552",
"V  c #9AD35B",
"C  c #A1D446",
"Z  c #A3D64C",
"A  c #A9D44F",
"S  c #A4DB4D",
"D  c #ACDE4E",
"F  c #A3CF56",
"G  c #A2D552",
"H  c #AAD551",
"J  c #A4DB52",
"K  c #ACDE53",
"L  c #A5DA5E",
"P  c #ABDC5A",
"I  c #B0DE54",
"U  c #B2DA59",
"Y  c #A5E04D",
"T  c #AEE24F",
"R  c #A5E052",
"E  c #ADE050",
"W  c #ACE359",
"Q  c #B0E055",
"!  c #B2E45B",
"~  c #B9E85D",
"^  c #B9E95F",
"/  c #9ACE6B",
"(  c #A6D865",
")  c #A9D06C",
"_  c #B4DF6A",
"`  c #A9D37A",
"'  c #B3DA76",
"]  c #A9E766",
"[  c #B6E562",
"{  c #B8E664",
"}  c #B6E962",
"|  c #BBEA64",
" . c #B5E66A",
".. c #BCEA6B",
"X. c #B3E274",
"o. c #BBE776",
"O. c #C2E661",
"+. c #C1ED62",
"@. c #C4EE6C",
"#. c #C3ED74",
"$. c #C7EA7A",
"%. c #C3EC7A",
"&. c #C8F67A",
"*. c #CBF57E",
"=. c #D1F272",
"-. c #788585",
";. c #898784",
":. c #948B87",
">. c #98938B",
",. c #9B948C",
"<. c #879797",
"1. c #999694",
"2. c #A98F8B",
"3. c #B68A83",
"4. c #B99589",
"5. c #A79D98",
"6. c #9BA29B",
"7. c #A9A39B",
"8. c #B5AD96",
"9. c #A09FA0",
"0. c #8DA8A8",
"q. c #96A6A7",
"w. c #9CB5AF",
"e. c #9CBBAD",
"r. c #93AFB1",
"t. c #8FB0B1",
"y. c #95B2B3",
"u. c #9AB5B5",
"i. c #9CBAB3",
"p. c #9BB7B9",
"a. c #9DBABA",
"s. c #AAAAA7",
"d. c #B1ACA7",
"f. c #B5B3AB",
"g. c #A5B7B7",
"h. c #A2BDBD",
"j. c #B8BAB6",
"k. c #C9918C",
"l. c #C99A96",
"z. c #CCAC95",
"x. c #C5A49A",
"c. c #C9ABA7",
"v. c #D6A8A8",
"b. c #D6B5A8",
"n. c #DCACB3",
"m. c #C2BDB7",
"M. c #CBBBB4",
"N. c #D9B8B3",
"B. c #E9A8A7",
"V. c #F1ADB0",
"C. c #E7B9B4",
"Z. c #EBB9B4",
"A. c #F3B4B3",
"S. c #F6B9B6",
"D. c #FCBDBB",
"F. c #9EC480",
"G. c #ACDC87",
"H. c #BBDE88",
"J. c #BDEA88",
"K. c #A3C0BD",
"L. c #B5C4BD",
"P. c #C5EB80",
"I. c #CBED89",
"U. c #CAF382",
"Y. c #CBF987",
"T. c #D6F687",
"R. c #D0F589",
"E. c #C8E696",
"W. c #DCF897",
"Q. c #DBF79E",
"!. c #E6FA89",
"~. c #E7F898",
"^. c #F0FE92",
"/. c #C5C4BC",
"(. c #D7C1B2",
"). c #E8C5BC",
"_. c #F2C8BC",
"`. c #D6EEA3",
"'. c #DCF7A9",
"]. c #E9F9A9",
"[. c #F2FFA4",
"{. c #E8FBB9",
"}. c #9EBFC1",
"|. c #A3BEC1",
" X c #F3BEC1",
".X c #A4C2C2",
"XX c #AAC5C5",
"oX c #ABC8C6",
"OX c #A6C6C9",
"+X c #AAC8C9",
"@X c #ACCBCC",
"#X c #B8C9C6",
"$X c #B1CECD",
"%X c #B7D3C9",
"&X c #B3D0CF",
"*X c #AECED0",
"=X c #B2CFD0",
"-X c #AED1D2",
";X c #B3D3D4",
":X c #BAD5D5",
">X c #B9DCD6",
",X c #B6D6D8",
"<X c #B9D7D8",
"1X c #B6DBDC",
"2X c #B9DCDE",
"3X c #BBDEE0",
"4X c #B8E0E0",
"5X c #CAC6C2",
"6X c #C8C9C4",
"7X c #CCCCCA",
"8X c #CDD0CC",
"9X c #D4D1CD",
"0X c #C2DDD6",
"qX c #D8D7D4",
"wX c #EBCDC7",
"eX c #F4C5C3",
"rX c #E8D3CC",
"tX c #F7D5CB",
"yX c #E7DDD6",
"uX c #F4DAD3",
"iX c #F5FECE",
"pX c #F8E4D8",
"aX c #F3FFD3",
"sX c #F9F0DC",
"dX c #DDE7E1",
"fX c #E6E7E7",
"gX c #EAE9E7",
"hX c #EDEBEA",
"jX c #F8ECE7",
"kX c #F4F2ED",
"lX c #FEF4E8",
"zX c #FDF3EC",
"xX c #FEF6F3",
"cX c #F8F6F5",
"vX c #FCF9F6",
/* pixels */
"E E E E E E E E T E E E E E E E E E E E E E E E E E E E E E E E E E E E E E E E E E E E E E E E E E E E E E E E E E E E E E E E ",
"E E E E E E E E E E E E E E E E E E E E E E E E E E E E E E E E E E E E E E E E E E E E E E E E E E E E E E E E E E E E E E E E ",
"E E E E E E E E E E E E E E E E E E E E E b x G J J E E E E E E E E E E E E E E E E E E E E E E E E E E D K J J E E E E E E E E ",
"E E E E E E E E E E E E E E E R l k M ) H.E.`.` k z n E E E E E E E E E E E E E E E E E E E E E E E D D l k y y i M G G E E E E ",
"E E E T E E E E E E E E E ~ B 0 e E.aXaXaXaXiXiXG.y v E E E E E E E E E E E E E E E E E E E E E D D D 9 6 e m ( ' ' M B S E E E ",
"E E E T E E E E E E E Q W l i H.{.].Q.I.%.#.$.W.{.p z E E E E E E E E E E E E E E E E E E E D D D q 8 m P.~.[.[.~.[.].) B E E E ",
"E E E E E E E E D E E W l M '.].$.{ } } {  .i.i.a.u.i.i.i.i.i.i.i.i.i.i.i.e.E E E E E E E E D D 7 7 _ !.^.!.=.O.O.O.~.`.M E E E ",
"E E E E E E E D E E J k ' Q.%.[ ! ! [  .i.a.$X0.a.}.OXOXOXOXOXOXOXOXXXOXXX$Xi.e.E E E E E D D 7 8 X.!.=.| ~ ! ~ } +.T.` t S E E ",
"E E E E E E D E E E k X.T.{ ! ! ! [ i.a.$Xh.K..X,X,X2X2X2X2X1X@X    o 0X1X,X;X$Xi.e.E E T D 8 0 T.=.K K ! ! ! ! | =.o.8 t S E E ",
"E E E E E E D Q E F z *.~ E Q Q P i.u.@X+XXX$X,X3X2X2X2X2X2X@X. 9.j.;.o 1X2X2X,X:X$Xe.E J 0 k @.~ E E E E E W ! |  .8 8 u J E E ",
"E E E E E E Q Q Q G k ! Q Q Q P a.$X@X,X;X;X1X2X2X2X2X3X2X@X. 1.qXfXd.. 1X1X1X2X2X2X.Xe.C J @.! K K K K E E W ! ] 8 7 9 v D E E ",
"E E E E E E E N l @.! E Q Q E P a.-X1X2X,X,X3X2X2X2X2X2X$X. ;.yXgXkXhX5.  o 0X1X3X2X1Xi.D ! K K K K K E E W W ] 8 7 w u J S E E ",
"E E E E E E J l L { I K I K E P a.2X2X2X2X2X2X2X2X2X2X2X@X. 5XgXgXkXkXhXf.* o 2X2X2X2X1X%XE E E E E E K E W V 5 8 9 u J D E E E ",
"E E E E E K B M { K K K K K P a.2X2X2X2X2X2X2X2X2X2X2X2X@X. 9XgXgXgXhXkXfX1.. 2X2X2X2X1X.Xe.E E E E E E E E 5 w 9 u T T E E E E ",
"E E E E E K G P I K K K I K P r.2X2X2X2X2X2X2X2X2X1X2X2X@X. /.m.gXgXgXfX7X;.. 3X2X2X2X2X2X$Xe.E E E E E E E E u c E E E E E E E ",
"E E E E E K G P K K E E E E K r.2X2X3X2X2X2X2X2X2X,X2X2X@X. 5X/.m.gXfX7X  . ;X2X2X2X2X2X2X$Xi.E E E E E E E E S E E E E E E E E ",
"E E E E E E J K K E E E E E K r.2X2X3X1X1X2X2X2X2X,X2X1X1XOXX 5X5X9Xm.o ;X;X1X2X2X2X2X2X2X:X$Xe.E E E E E E E E E E E E E E E E ",
"E E E E E E E E E E E E E E P 0.2X2X2X,X,X2X2X2X2X2X2X,X<X1XOX      o ;X1X,X,X2X2X2X2X,X2X1X;Xi.E E E E E E E E E E E E E E E E ",
"E E E E E E T E E E E E E E P 0.2X2X2X@X*X2X2X2X2X2X2X2X1X,X1X;X;X;X;X1X2X,X-X2X2X2X2X1X,X,X<X$Xe.E E E E E D S S S S S E E E E ",
"E E E E E E T T E E E E E E P 0.2X2X2X@X@X2X2X2X2X2X2X2X2X,X@X=X,X2X2X2X2X,X;X2X2X2X2X1X-X,X,X@Xi.E E E E S S Z b b b z b E E E ",
"E E E E E T T T E E E E E E P a.2X2X2X;X*X1X2X2X2X2X2X2X2X2X@X+X-X2X2X2X2X1X,X2X2X2X2X1X-X=X;X&Xi.E E E E G G B z N B N E E E E ",
"E E E E E E E T E E E E E E K P +X2X1X;Xa.OX,X>X0X0X>X>X3X2X,XOXt.@X2X2X2X,X&X,X3X2X2X2X,X@X@X&Xi.E E E B ( X.P.U.U.U.*.E E E E ",
"E E E E D S S S S E E E E E E P XX$X$X$X@Xy.a./.f f 8.#X2X2X1X,X;X=X2X2X2X1X+X-X2X2X2X2X2X;X;X&Xi.E E V %.R.U.#.| { [ ! E E E E ",
"D E E S S Z b b b z b E D E E S F.a.oX#XdXkXkXzXpX(./.:X>X>X>X2X2XXX;X2X2X,Xa..X2X2X2X2X2X;X$XoXi.G _ Y.*...! ! ! W ! ! E E E E ",
"E E E G G B z N V N l v E E D m R.a.#XM.rXzXlXsX(.z.z.z.8.8.#X2X2X.X@X2X2X,X.X@X2X2X2X2X2X;X+X.Xi...&...W W W E E E E W E E E E ",
"E E B ( X.P.U.U.U.J J L E E D y U.( p.c.wXxXpX).4.x.z.z.k.5.oX2X2X+Xa.4X2X,X+X-X2X2X2X2X1X@XOXh.i.&.| E Y S J S J J K J E E E E ",
"E V %.R.U.#.| { [ M G G E E D k H.K P 3.wXxXyXN.2.x.b.).b.f.:X2X2X$Xy.,X1X,X+X;X2X2X2X2X2X@X.Xh.i.| E S n v n b x G J E E E E E ",
"_ Y.*...! ! ! W ' ' M B E E E E 5 / U k.tXjXzXjXN.C.).wXM.7.#X2X3X$X.X$X;X;X+X@X<X2X2X3X,X+X.Xh.i.E E E E E E E E E E E E E E E ",
"&.@.Q W W E E E E [.].) E E T T 0 6 f C.pXjXjXjXuXeX_.Z.f.6.L.>X<X@X.X$X$X=X+X+X;X,X,X,X;XXX.Xh.i.E E E E E E E E E E E E E E E ",
"E E E E E E E E E O.~.`.E T T T D e 2 ).zXxXxXxXjXuXeX).j.w.#X&X$X$X.X$X$X@X+X+X*X;X;X&X@XXXK.w.i.E E E E E E E E E E E E E E E ",
"E E E E Q Q Q E E E T.` t B T T E H g C.lXxXvXxXxXjXpXrXL.a.$X@X$X$X.X$X$X$X+X+X$X$X$X$X@XXXh.i.K E E E E E E E E E E E E E E E ",
"E E E E E Q Q E E E K E E E E E E H : g _.lXxXvXvXxXhX#Xg.@X$X$X$X@X.X$X$X@Xa.u.XX@X$X$X.X.Xi.i.E E E E E E E E E E E E E E E E ",
"E E E E E Q Q Q E E E E E E E E E K H : g _.jXxXxXvXhXXXp.=X$X$X$X@X.X@X$X+Xu.y..X.X.X.Xh.w.i.K E E E E E E E E E E E E E E E E ",
"E E E E E E Q Q Q E E E E E E E E E D H > z.).wXjXxXhXh.y.@X$X$X@X+X.X+XXX.Xa.a.h..X.X.Xy.i.K E E E E E E E E E E E E E E E E E ",
"E E E E E E E E E E E E E E E E E E D K H f l.b.tXpXuXg.y.+X$X$XoX.Xh.K.K..Xh..X.XK.K.K.i.K T E E E E E E E E E E E E E E E E E ",
"E E E E E E E E E E E E E E E E E E E D P 2.d.b.l.v.c.s.p.h.j.Z.C.h.|.a.a.y.t.a.a.g.p.i.K T E E E E E E E E E E E E E E E E E E ",
"E E E E E E E E E E E E E E E E D D D Z a 5Xm.>.5XgXhX6Xp.a.N.A.C.C.a.p.p.p.p.p.p.i.K K E E E E E E E E E E E E E E E E E E E E ",
"E E E E E E E E E E E E E E E E E T D A * s.s.1.9XqXgXs.<.g.A.D._.Z.y.% K K K K K K E E E E E E E E E E E E E E E E E E E E E E ",
"E E E E E E E E E E E T E E E E D T E A # d 7.f.gXhXgXs.<.a.(.S.Z.8Xr.# E E E E E E E E E E E E E E E E E E E E E E E E E E E E ",
"E E E E E E E E D S S S S E E E K E E A @ 3.x.7.qXvXhXs.<.K.%X7X#X,Xu.3 ; E E E E E E E E E E E E E E E E E E E E E E E E E E E ",
"E E E D D E E S S Z b b b z b E D K K A = l.Z.c.5.qX7Xq.<.a.<X<X;X,Xq.n.2 D E E E E E E E E E E E E E E E E E E E E E E E E E E ",
"E E E E E E E G G B z N V N l v K E E H 3 A.D. XN.,.>.;.<.a.<X,X;X<Xq. Xv.f D D E E E E E E E E E E E E E E E E E E E E E E E E ",
"E E E E E E B ( X.P.U.U.U.J J L E K A : l.A.D.D.S.l.2.:.<.u.;X;X@X=Xq.eXA.4.k D K E E E E E E E E E E E E E E E E E E E E E E E ",
"E E E E E V %.R.U.#.| { [ M G G E H = 4 A.D.D.D.D.A.x.,.<.u.@X@X.X+Xq.eXS.k.$ t K K E E E E E E E T E E E E E E E E E E E E E E ",
"E E E E _ Y.*...! ! ! W ' ' M B H ; k.V.D.D.D.D.D.C.,.f.g.u.XXh.0.a.q.v.A.A.3 O 8 E D E E E D E D E E E E E E E E E E E E E E E ",
"E E E E &.@.Q W W E E E E [.].) A = 4 B.D.D.D.D.D.Z.,.7X:Xu.oX|.p.p.u.:.v.S.3.O h t E E E Q E E D E E E E E E E E E E E E E E E ",
"E E D E E E E E E E K E E O.~.`.K A @ 2 V.D.D.D.D.Z.,.7X:Xu.oXh.h.fXu.:.l.B.< O I.e c E E E E T D E E E E E E E E E E E E E E E ",
"E E D E E E E E Q Q I E E E T.` t B A @ k.S.D.D.D.Z.,.j.XXu.XXh.h.hXf.s 1 < $ H Q E.r J E E E E D E E E E E E E E E b x G J J E ",
"E K K E E E E E E Q Q E E E E E E E K H ; 3.3.k.A.S.4.s.q.y..Xa.a.qX5.* # K K Q Q Q / k E E E D E E E E R l k M ) H.E.`.` k z n ",
"E D K E E E E E E Q Q Q E E E E E E E A @ 3 3.3.2 4 < , -.y.p.p.u.7.K y 5 Q Q Q Q Q D E E E E E E E ~ B 0 e E.aXaXaXaXiXiXG.y v ",
"E E D D D D D E E E Q Q Q E E E E E E A $ N.pXtX4.- ; 2.6.p.j.g.i.K E D B k Q Q Q E E E E E E E Q W l i H.{.].Q.I.%.#.$.W.{.p z ",
"E E D D D D D D D E D E E E E E E E E H % c.yXzXrX, < x.j.a.5XM.,.E E E D D D E E E E E D D E E W l M '.].$.{ } } { { | %.'.e E ",
"K E D D D D D D D D D E E E E E E E E H & >.j.kXhX1 < z.j.a.7XM.a E E E E E E E E E E D D E E J k ' Q.%.[ ! ! [ [ [ ....R./ 0 E ",
"E E D D D D D D D D D S E E E E E E E H * 9XkXvXkX1 1 c.m.6XhXM.a E E E E E E E E E E D E E E k X.T.{ ! ! ! ! ! [ { | #.G.q E E ",
"E E E E D D D D D D D E E E E E E E E H & ;.s s s _ d :.j.jXf.s d E E W D E E E E E E D Q E F z *.~ Q Q Q Q ! [ { [ ..J.r 9 E E ",
"E E E E E E E E E E E Z E E E E E E E K K K K D [ %.>.7XcXvXhX/.s J K J E E E E E E E Q Q Q G k ! Q Q Q E E ! ! [ ..X.q q E E E ",
"E E E E S S Z b b b z b E E E E E E E E E E K ! | { >.9XvXcX7X;.+ G J E E E E E E E E E N l @.! E Q Q E E W Q Q { U.r 7 E E E E ",
"E E E E G G B z N B N z v E E E E E E E D K Q ~ } P :.j.qX9X,.+ D E E E E E E E E E E J l L { I K I K E K E Q ! ..y 7 E E E E E ",
"E E E B / X.P.U.U.U.*.&.L J E E E E E E K Q ! ~ E K K K E K K D E E E E E E E E E E K B M { K K K K K K K I Q ! k 8 E E E E E E ",
"E E E %.R.U.#.| { [ ! | P E E E E E E E E Q W E E E E E E E E E E E E E E E E E E E K G P I K K K I K K K K Q J 0 E E E E E E E ",
"E E E E ..! ! ! W ! ! W J E E E E E E E E E E E E E E E E E E E E E E E E E E E E E K G P K K E E E E E K I K E E E E E E E E E ",
"E E E E W W E E E E W J E E E E E E E E E E K E E E E E E E E E E E E E E E E E E E E J K K E E E E E E E E E E E E E E E E E E ",
"E E E E E S S J J K J S E E E E E E E E E E E E E E E E E E E E E E E E E E E E E E E K K E E E E E E E E E E E E E E E E E E E ",
"S S E E E n b x G J J E E E E E E E E E E E E E E E E E E E E E E E E E E E E E E E E E D E E E E E E E E E E E E E E E E E E E "
};
