/* XPM */
static const char *p_right[] = {
/* columns rows colors chars-per-pixel */
"64 64 223 2 ",
"   c #1B1B1B",
".  c #201F1F",
"X  c #21201F",
"o  c #232121",
"O  c #533C2A",
"+  c #584433",
"@  c #6A483C",
"#  c #685447",
"$  c #7C574F",
"%  c #675C52",
"&  c #696358",
"*  c #796C68",
"=  c #767167",
"-  c #7F7C76",
";  c #83594C",
":  c #8F5D59",
">  c #8C6659",
",  c #93645B",
"<  c #8A6661",
"1  c #986C67",
"2  c #8B776A",
"3  c #94756F",
"4  c #877C76",
"5  c #967A77",
"6  c #A97670",
"7  c #A67874",
"8  c #529D34",
"9  c #4AA336",
"0  c #46A93B",
"q  c #57A839",
"w  c #5CB43D",
"e  c #6BB53C",
"r  c #54A842",
"t  c #53B141",
"y  c #66B343",
"u  c #76B047",
"i  c #76B745",
"p  c #76C343",
"a  c #83BB4A",
"s  c #80B656",
"d  c #89877E",
"f  c #BE8A79",
"g  c #B89A7B",
"h  c #C2897B",
"j  c #87C548",
"k  c #85C54B",
"l  c #8DCC4C",
"z  c #94CE4C",
"x  c #9DCF4D",
"c  c #8CD24E",
"v  c #93D44C",
"b  c #9BD34B",
"n  c #9DD84E",
"m  c #8BC854",
"M  c #94C855",
"N  c #95D152",
"B  c #9BD552",
"V  c #9AD35B",
"C  c #A2D74B",
"Z  c #A4DB4D",
"A  c #ACDE4E",
"S  c #A2CF5A",
"D  c #A2D552",
"F  c #A8D650",
"G  c #A4DB52",
"H  c #ADDD53",
"J  c #A5DA5E",
"K  c #AADB5A",
"L  c #B0DE54",
"P  c #B1DD58",
"I  c #A5E04D",
"U  c #AEE24F",
"Y  c #A5E052",
"T  c #ADE050",
"R  c #ACE359",
"E  c #B0E055",
"W  c #B2E45B",
"Q  c #B9E85D",
"!  c #B9E95F",
"~  c #99CF6D",
"^  c #A1D262",
"/  c #A9D06C",
"(  c #ABDF6A",
")  c #B2DF68",
"_  c #A9D37A",
"`  c #B3DA76",
"'  c #A9E766",
"]  c #B6E562",
"[  c #B8E664",
"{  c #B6E962",
"}  c #BBEA64",
"|  c #B5EE6B",
" . c #BCEA6B",
".. c #B3E274",
"X. c #BBE776",
"o. c #C2E661",
"O. c #C3EE6A",
"+. c #C3ED74",
"@. c #C7EA7A",
"#. c #C3EC7A",
"$. c #D4EF73",
"%. c #CDF471",
"&. c #C7F57A",
"*. c #CBF57E",
"=. c #8B8885",
"-. c #938785",
";. c #96938B",
":. c #989492",
">. c #A78783",
",. c #BC8F8C",
"<. c #AE9587",
"1. c #B49888",
"2. c #A89B98",
"3. c #B69B98",
"4. c #BDA089",
"5. c #A9A398",
"6. c #BEA19C",
"7. c #ABA7A5",
"8. c #B4A8A5",
"9. c #B4B1AE",
"0. c #B9B6AE",
"q. c #BAB6B4",
"w. c #BBB9B7",
"e. c #C7918A",
"r. c #C39A98",
"t. c #D39A98",
"y. c #C3A68C",
"u. c #C8A196",
"i. c #D4A899",
"p. c #D2B49B",
"a. c #D9BA9A",
"s. c #C5ABA8",
"d. c #D9A7A5",
"f. c #C4B3AC",
"g. c #D9B9AB",
"h. c #C3BBB6",
"j. c #DBBBB8",
"k. c #E7ABA8",
"l. c #F1ACAD",
"z. c #E4B3AC",
"x. c #EAB3AF",
"c. c #ECB4B3",
"v. c #E6BDB8",
"b. c #F2B5B4",
"n. c #F3BDB3",
"m. c #F4BCBB",
"M. c #FDBCBB",
"N. c #ACDC87",
"B. c #BBDE88",
"V. c #BEF089",
"C. c #C5EB80",
"Z. c #CBED89",
"A. c #CAF382",
"S. c #CBF987",
"D. c #D6F687",
"F. c #D0F588",
"G. c #C8E698",
"H. c #DCF897",
"J. c #DBF79E",
"K. c #E6FA89",
"L. c #E7F898",
"P. c #F0FE92",
"I. c #C5C1BD",
"U. c #C9C4BD",
"Y. c #DCC4B0",
"T. c #DEC4BD",
"R. c #E2C5BC",
"E. c #E8C7B9",
"W. c #F5C8BA",
"Q. c #E4D2BA",
"!. c #D6EEA3",
"~. c #DCF7A9",
"^. c #E9F9A9",
"/. c #F2FFA4",
"(. c #E8FBB9",
"). c #DCBFC0",
"_. c #E2BFC2",
"`. c #FBBFC1",
"'. c #C9C9C6",
"]. c #CBCBC6",
"[. c #DDC4C3",
"{. c #D3CDCB",
"}. c #D5D2CD",
"|. c #DAD8D5",
" X c #DED9D5",
".X c #E2C4C3",
"XX c #E5C9C6",
"oX c #E6C6C9",
"OX c #EAC7C8",
"+X c #E6CACB",
"@X c #EBCCCC",
"#X c #F2CCC8",
"$X c #E9D4CA",
"%X c #EED1CE",
"&X c #F7D7C8",
"*X c #F2D2CD",
"=X c #EDCED1",
"-X c #F0CFD2",
";X c #EED2D3",
":X c #E9D6D6",
">X c #E2DCD9",
",X c #F3D4D4",
"<X c #F9D7D3",
"1X c #F6D9D4",
"2X c #F9D9D4",
"3X c #F5D6D9",
"4X c #F6DBDA",
"5X c #F9DAD8",
"6X c #F5FECE",
"7X c #EAE1D7",
"8X c #F7E4DA",
"9X c #F3FFD3",
"0X c #EDEAE4",
"qX c #ECEAE9",
"wX c #F4E9E4",
"eX c #FBECE4",
"rX c #FAEFEB",
"tX c #FBF1E8",
"yX c #FDF2EB",
"uX c #F5F6F5",
"iX c #FDF6F2",
"pX c #FCF9F5",
"aX c #F9F9F9",
/* pixels */
"T T T T T T T T U T T T T T T T T T T T T T T T T T T T T T T T T T T H H T T T T T T T T T T T T T T T T T T T T T T T T T T T ",
"T T T T T T T T T T T T T T T T T T T T T T T T T T T T T T T T T T T T T T T T T T T T T T T T T T T T T T T T T T T T T T T T ",
"T T T T T T T T T T T T T T T T T T T T T b x D G G T T T T T T U U U U T T T T T T T T T T T T T T T T A H G G T T T T T T T T ",
"T T T T T T T T T T T T T T T Y l k M / B.G.!._ k z n T T T T T U U U U T T T T T T T T T T T T T T A A m k i i a M D D T T T T ",
"T T T U T T T T T T T T T ! B e u G.9X9X9X9X6X6XN.i v T T T T T T U T U T T T T T T T T T T T T A A A q q u M ^ ` ` M B Z T T T ",
"T T T U T T T T T T T E R l a B.(.^.J.Z.#.+.@.H.(.s T..X.X.X.X.X.X.X.XR..X.X.X.X.XH T T T T A A A r q m C.L././.L./.^./ B T T T ",
"T T T T T T T T A T T R m M ~.^.@.[ { { [ [ } #..X[..X@X@X@X@X@X@X@X@X@X@XOX.Xj..X.X.XH T T A A 0 9 ) K.P.K.$.o.o.o.L.!.M T T T ",
"T T T T T T T A T T G k ` J.#.] W W ] ] [  . ..XOX%X,X1X1Xo       *X<X<X2X,X*X@XOXoX.X.X.X.XH 9 q ..K.$.} ! W ! { o.D._ i Z T T ",
"T T T T T T A T T T k ..D.[ W W W W W ] [ R.@X,X<X2X2X1Xo = =.=.-   ;X2X2X2X2X2X,X-X@X;X@X.XT.i D.%.T E W W W W } %.X.q i Z T T ",
"T T T T T T A E T S z *.! E E E E W ] [ R.1X1X2X2X<X1X%X  9.{. X X;.. OX2X2X2X2X2X,X@X,X2X3XT..X} T T T T T R W } | q q p G T T ",
"T T T T T T E E E D k W E E E E E W W R.2X5X2X1X1X,X%Xo =. X0X0X0X'.  XX%X2X2X2X2X2X1X2X<X2X,X.XH H H H T T R ! ' q 9 w v A T T ",
"T T T T T T T N l O.W T E E T T R E T.1X<X2X2X1X1X%Xo = 8.0X0XrX>XI.7.X OX2X2X2X2X2X2X2X2X2X,XXXH H H T T R R ' q 9 t p G Z T T ",
"T T T T T T G l J [ L H L H T H T E .X2X2X2X<X<X*Xo :.q. X0X>X0X>XI.|.  XX2X2X2X2X2X2X2X2X2X2X@X.XH T H T R V 8 q w p G A T T T ",
"T T T T T H B M [ H H H H H H H L T.1X2X2X2X<X2X%X  w.>X0X0X0X>Xh.h.I.  XX2X2X2X2X2X2X2X2X2X2X*X.XH T T T T 9 t w p U T T T T T ",
"T T T T T H D K L H H H L H H H H .X1X2X2X2X<X2X%X  7. X0X0X>X>Xh. Xo .X,X*X1X2X2X2X2X1X2X2X2X*X.XH T T T T T p c T T T T T T T ",
"T T T T T H D K H H T T T T T H T.,X1X2X2X2X1X<X%X  :. X>X>X>Xq.I.q.  XX5X1X1X2X2X2X2X1X1X2X2X*X.XH T T T T T Z T T T T T T T T ",
"T T T T T T G H H T T T T T T T.@X1X5X5X1X<X2X2X5XOX. =.U.U.I.h.w.. +X,X<X2X2X2X2X2X5X,X,X<X2X*X.XH T T T T T T T T T T T T T T ",
"T T T T T T T T T T T T T T T .X*X1X,X1X1X2X2X2X,X%X$X. =.7.7.2.  [.,X<X2X2X2X2X2X2X2X@X,X2X2X*X.XH T T T T T T T T T T T T T T ",
"T T T T T T U T T T T T T T T.@X1X3X,X5X2X2X2X2X1X@X1X%X.       [.,X2X<X<X2X2X2X2X2X,XXX@X2X2X*X.XH T T T T A Z Z Z Z Z T T T T ",
"T T T T T T U U T T T T T T R.,X,X,X,X2X2X2X2X2X,X,X<X1X@XXXXX).@X<X2X<X<X1X2X2X2X2X,X;X,X2X2X%X.XH T T T Z Z C b b b z b T T T ",
"T T T T T U U U T T T T T T .X,X1X@X1X2X2X2X2X,X,X,X1X<X1X1X@X.X%X2X2X2X&X&X<X2X<X,X+X;X1X5X5XXXP T T T T D D B z N B N T T T T ",
"T T T T T T T U T T T T T U R.,X,X*X<X2X2X2X2X,X;X,X1X<X1X,X@XOX<X<X2X2XW.p.p.g.@X+X+X;X,X3X,XXXH T T T B ^ ..C.A.A.A.*.T T T T ",
"T T T T A Z Z Z Z T T T T T .X,X1X1X2X2X2X2X2X,X+X,X1X2X1X@X;X,X<X<X2X2X&Xg.Y.$X8X8XeX:X;X,XXXP T T T V #.F.A.+.} [ ] W T T T T ",
"A T T Z Z C b b b z b T A T .X@X,X@X1X2X2X2X2X,X@X,X,X,X,XoX@X1X<Xp.p.p.a.a.a.Q.wXiXiXj._.;X.XH H D ( S.*. .W W W R W W T T T T ",
"T T T D D B z N V N l v T T .X@X=X+X1X2X2X2X2X,X@X,X,X5X=X+X@X2X*Xg g g y.y.y.y.7XyXiXu.z.,XXXH Z  .&. .R R R T T T T R T T T T ",
"T T B ^ ..C.A.A.A.G G J T T .X@X=XoX1X2X2X2X2X,X@X,X,X5XoX=X,X2X<XE.g p.g.6.1.<.5.7XyXt.k.R.L A ! &.} T I Z G Z G G H G T T T T ",
"T V #.F.A.+.} [ ] M D D T T .X@X=XoX1X2X2X2X2X,X@X,X,X1X@X;X,X2X<X&X4..X3Xg.8.f.7XiXeXt.: O H W } } T Z n v n b x D G T T T T T ",
"( S.*. .W W W R ` ` M B T T .X+X@X+X*X2X2X2X3X;X@X,X;X,X@X,X3X2X1X1.g.x.b.#X*X1X8XeX4X2Xg.h L ! { T T T T T T T T T T T T T T T ",
"&.O.E R R T T T T /.^./ T T .XXXOXXX,X,X,X,X3X=X=X,X;X,X@X,X,X,X,Xj.j.c.n.#X2XwXrXiXrXeXE.h ! ! T T T T T T T T T T T T T T T T ",
"T T T T T T T T T o.L.!.U T H .XoXoX;X;X;X;X,X=X@X,X;X,X@X;X,X;X;X;Xj.v.#X1XwXrXiXpXpXtXv.f H T T T T T T T T T T T T T T T T T ",
"T T T T E E E T T T D._ i B T .XoXoX=X,X;X;X;X@XOX;X;X,X@X;X,X;X;X;X[.XX;XtXpXpXpXpXtX#Xi.H T T T T T T T T T T T T T T T T T T ",
"T T T T T E E T T T T T T U T H .X_.oX=X=X=X@X.X.X=X;X,X+X=X,X,X,X;X;X.X:XiXpXiXiXyXE.f H T T T T T T T T T T T T T T T T T T T ",
"T T T T T E E E T T T T T T T T H .X_.oXoXXXoX.X_.OX=X=XOX=X,X,X,X:X;X[.:XiXiXrX8X&Xe.H T T T T T T T T T T T T T T T T T T T T ",
"T T T T T T E E E T T T T T T T T H .XXXoXoXoXoXXXoXOX@XoX+X=X,X,X;XXX[.=XyXeX1XE.i.H T T T T T T T T T T T T T T T T T T T T T ",
"T T T T T T T T T T T T T T T T T T H .X.X.XoXoXoX.XoXoXoXoXOX@X+X@X.X.Xj.z.z.k.g.1.H T T T T T T T T T T T T T T T T T T T T T ",
"T T T T T T T T T T T T T T T T T T T H H D .X.X.X.X.X.XoXoXc.b.b.XX.Xj.[.,X[.s.2.U.H H T T T T T T T T T T T T T T T T T T T T ",
"T T T T T T T T T T T T T T T T A A A Z T D K H H H H H s.c.n.M.n.c..X7.q.0X{.9.;.w.;.H T T T T T T T T T T T T T T T T T T T T ",
"T T T T T T T T T T T T T T T T T T A A T T T H T T T T 3.c.m.W.n.v..X9.uX0X|.I.5.8.4 H T T T T T T T T T T T T T T T T T T T T ",
"T T T T T T T T T T T U T T T T T T T T T T T A T T T @ r.*Xb.c.c.@X.X9.uXaXuX0X'.2.% H T T T T T T T T T T T T T T T T T T T T ",
"T T T T T T T T A Z Z Z Z T T T T T T T H H T T T T $ 7 g.*X1X,X<X=X.X9.uXaX X9.>.z.: H T T T T T T T T T T T T T T T T T T T T ",
"T T T A A T T Z Z C b b b z b T A T T T T T T T H H ; e.v.,X3X,X3X;X.X9.uX'.7.3.z.M., H T T T T T T T T T T T T T T T T T T T T ",
"T T T T T T T D D B z N V N l v T T T T T T T T H > e.c..X,X1X,X1X;X.X9.=.-.6.m.M.M.k.; A T T T T T T T T T T T T T T T T T T T ",
"T T T T T T B ^ ..C.A.A.A.G G J T T A T T T T T H , t.b..X;X,X=X,X@X.X2.>.,.d.M.M.M.l.6 $ H T H T T T T T T T T T T T T T T T T ",
"T T T T T V #.F.A.+.} [ ] M D D T T A T T T T T > 6 k.m.oX.X+XoX;XoX.X7.2.d.m.M.M.M.M.l.e., H H T U T T T T T T T T T T T T T T ",
"T T T T ( S.*. .W W W R ` ` M B T T T T T T T T 1 x.m.d.f..X.XoX,XoX.X{.h.r.M.M.M.M.M.M.l.t.H T A T T T T T T T T T T T T T T T ",
"T T T T &.O.E R R T T T T /.^./ T T T T T T T T 6 b.m.3.s.:X+XoX,XoX.XuX}.6.M.M.M.M.M.b.t.7 H T A T T T T T T T T T T T T T T T ",
"T T A T T T T T T T H T T o.L.!.T T T T T U T T 1 d.v.2.>XqX>X.X,XoX.XuX}.6.M.M.M.M.M.d.7 F T U A T T T T T T T T T T T T T T T ",
"T T A T T T T T E E L T T T D._ i B T T T T T T # < 3 4 >XqX>X.X,XoX.X}.h.r.M.M.`.`.c.1 F T T T A T T T T T T T T T b x D G G T ",
"T H H T T T T T T E E T T T T T T T T T T T T T A H + # -.'.{..X.XoX.X8.3.d.b.t.7 1 1 a T T T A T T T T Y l k M / B.G.!._ k z n ",
"T A H T T T T T T E E E T T T T T T T T A T T T T T A H H f.8..XT..X.X5 $ : , 7 u.i.1 H U T T T T T ! B e u G.9X9X9X9X6X6XN.i v ",
"T T A A A A A T T T E E E T T T T T T T A T T T T T T T T H 2 _.R..X.Xg.,., >.v.8X8X7 H U T T T E R l a B.(.^.J.Z.#.+.@.H.(.s z ",
"T T A A A A A A A T A T T T T T T T T T T T T T T T T T B T 2 _.$X.X.XE.i.1 3.:XqXiX-.H A A T T R m M ~.^.@.[ { { [ [ } #.~.u T ",
"H T A A A A A A A A A T T T T T T T T T T T T T T T T V #.F.@ < eXXX.XE.i.3 h.aXaX7.d A A T T G k ` J.#.] W W ] ] [  . .F.~ e T ",
"T T A A A A A A A A A Z T T T T T T T T T T T T H D ( S.*. .# * wXwXXXR.s.2 0.qXqXqX:.H T T T k ..D.[ W W W W W ] [ } +.N.r T T ",
"T T T T A A A A A A A T T T T T T T T T T T T T Z  .&. .R R % 4 2.tXwXh.;.& % 4 - 4 4 A E T S z *.! E E T E W ] [ ]  .V.y q T T ",
"T T T T T T T T T T T C T T T T T T T T T T T A ! &.} U I Z D d uXaXiXqX'.& F H H H H E E E D k W E E E T T W W ]  ...r r T T T ",
"T T T T Z Z C b b b z b T T T T T T T T T T H W } } T Z n v n & }.aXaXaX}.% H T T T T T N l O.W T E E T T R E E [ A.y 0 T T T T ",
"T T T T D D B z N B N z v T T T T T T T A H E ! { T T T T T T H = '.{.'.9.% H T T T T G l J [ L H L H T H T E W  .i 9 T T T T T ",
"T T T B ~ ..C.A.A.A.*.&.J G T T T T T T H E ! ! T T T T T T T T A H H H H H T T T T H B M [ H H H H H H H L E W k q T T T T T T ",
"T T T #.F.A.+.} [ ] W } K T T T T T T T T E R T T T T T T T T T U T T T T T T T T T H D K L H H H L H H H H E G e T T T T T T T ",
"T T T T  .W W W R W W R G T T T T T T T T T T T T T T T T T T T T U T T T T T T T T H D K H H T T T T T H L H T T T T T T T T T ",
"T T T T R R T T T T R G T T T T T T T T T T H T T T T T T T T T T T T T T T T T T T T G H H T T T T T T T T T T T T T T T T T T ",
"T T T T T Z Z G G H G Z T T T T T T T T T T T T T T T T T T T T T T T T T T T T T T T H H T T T T T T T T T T T T T T T T T T T ",
"Z Z T T T n b x D G G T T T T T T T T T T T T T T T T T T T T T T T T T T T T T T T T T A T T T T T T T T T T T T T T T T T T T "
};
