/* XPM */
static const char *p_up[] = {
/* columns rows colors chars-per-pixel */
"64 64 225 2 ",
"   c #040303",
".  c #080906",
"X  c #604739",
"o  c #79544C",
"O  c #795955",
"+  c #6C605A",
"@  c #766862",
"#  c #86544F",
"$  c #855953",
"%  c #89675F",
"&  c #8A6866",
"*  c #956C68",
"=  c #8D756D",
"-  c #99756A",
";  c #887978",
":  c #977A77",
">  c #A77C72",
",  c #A87B76",
"<  c #529D34",
"1  c #49A537",
"2  c #57A839",
"3  c #5CB43D",
"4  c #6BB53C",
"5  c #54AB42",
"6  c #6FB146",
"7  c #76B745",
"8  c #76C343",
"9  c #82BA4A",
"0  c #80B656",
"q  c #89817C",
"w  c #99827D",
"e  c #AA817F",
"r  c #B2837C",
"t  c #86C549",
"y  c #8DCC4C",
"u  c #94CE4C",
"i  c #9DCF4D",
"p  c #8CD24E",
"a  c #93D44C",
"s  c #9BD34B",
"d  c #9DD84E",
"f  c #8BC854",
"g  c #95C855",
"h  c #95D152",
"j  c #9BD552",
"k  c #99D35B",
"l  c #A3D64B",
"z  c #A4DB4D",
"x  c #ACDE4E",
"c  c #A1CF54",
"v  c #A2D552",
"b  c #A4DB52",
"n  c #ADDE53",
"m  c #A8DB5C",
"M  c #B0DE54",
"N  c #A5E04D",
"B  c #AEE24F",
"V  c #A5E052",
"C  c #ADE050",
"Z  c #ACE359",
"A  c #B0E055",
"S  c #B2E45B",
"D  c #B9E85D",
"F  c #B9E95F",
"G  c #9BCF68",
"H  c #A4D665",
"J  c #A9D06C",
"K  c #B2DF68",
"L  c #A9D37A",
"P  c #B3DA76",
"I  c #A9E766",
"U  c #B6E562",
"Y  c #B8E664",
"T  c #B6E962",
"R  c #BBEA64",
"E  c #B5EE6B",
"W  c #BCEA6B",
"Q  c #B3E274",
"!  c #BBE776",
"~  c #C2E661",
"^  c #C3EE6B",
"/  c #C3ED74",
"(  c #C6E978",
")  c #C3EC7A",
"_  c #C8F67A",
"`  c #CBF57E",
"'  c #D1F272",
"]  c #758D8F",
"[  c #8D8682",
"{  c #959288",
"}  c #AA8782",
"|  c #BA8785",
" . c #AE9589",
".. c #A49C98",
"X. c #84A49F",
"o. c #A0A296",
"O. c #A3A29B",
"+. c #A9A59D",
"@. c #ABA99C",
"#. c #929EA0",
"$. c #82A2A2",
"%. c #87AEA9",
"&. c #89AEAB",
"*. c #93A5A7",
"=. c #8AB0A7",
"-. c #8BB1A9",
";. c #9BB3AD",
":. c #8DAFB2",
">. c #8EB1B1",
",. c #94B4B4",
"<. c #96BABA",
"1. c #9CBBBB",
"2. c #ADAAA4",
"3. c #A9AAA8",
"4. c #B1AEA9",
"5. c #AFB0AA",
"6. c #B8B1AC",
"7. c #A4BAB9",
"8. c #BABAB3",
"9. c #C88D8B",
"0. c #C89494",
"q. c #D59C9B",
"w. c #DDA19F",
"e. c #D8A5A4",
"r. c #C6B3AD",
"t. c #D2B4AF",
"y. c #D8B8AE",
"u. c #D4B3B2",
"i. c #DEBCB3",
"p. c #DABBBD",
"a. c #E3A5A5",
"s. c #E9ABAA",
"d. c #ECB5AD",
"f. c #E9B9AF",
"g. c #F2B6AC",
"h. c #E7B8B5",
"j. c #F4B4B3",
"k. c #F9B5B4",
"l. c #F4B9B6",
"z. c #F9BBB6",
"x. c #FEBCBC",
"c. c #ADDD85",
"v. c #BBDE88",
"b. c #BEF089",
"n. c #ABC3BD",
"m. c #BFC1B7",
"M. c #C5EB80",
"N. c #CBED89",
"B. c #CAF382",
"V. c #CBF987",
"C. c #D6F687",
"Z. c #D0F588",
"A. c #C8E698",
"S. c #DBF79C",
"D. c #E6FA89",
"F. c #E7F898",
"G. c #F0FE92",
"H. c #C7C2BD",
"J. c #D6C0B7",
"K. c #E5C3BC",
"L. c #F0C8B7",
"P. c #F2CAB9",
"I. c #D6EEA3",
"U. c #DCF7A9",
"Y. c #E9F9A9",
"T. c #F2FFA4",
"R. c #E8FAB9",
"E. c #9EBFC0",
"W. c #DEBDC0",
"Q. c #9EC4C3",
"!. c #A4C3C3",
"~. c #A9C6C5",
"^. c #A9C8C7",
"/. c #A9C6C9",
"(. c #ADCCCC",
"). c #B6C4C5",
"_. c #B1CDCE",
"`. c #ADD1CD",
"'. c #AECED1",
"]. c #B2CED0",
"[. c #AED3D2",
"{. c #B3D3D4",
"}. c #B6D6D6",
"|. c #B6DCDB",
" X c #B9DDDD",
".X c #B8E0DF",
"XX c #BADBE0",
"oX c #B8E0E0",
"OX c #CFCCCA",
"+X c #DBC8C6",
"@X c #C7D7D6",
"#X c #C7D8D7",
"$X c #DCD9D6",
"%X c #E2C4C5",
"&X c #E6C9C7",
"*X c #E4C6C9",
"=X c #EBCCCD",
"-X c #F1CECD",
";X c #EED3CB",
":X c #F2D2CE",
">X c #F3DACA",
",X c #ECCED1",
"<X c #F0CFD2",
"1X c #EED2D3",
"2X c #F3D4D3",
"3X c #F9D7D4",
"4X c #F6D9D3",
"5X c #FAD9D4",
"6X c #F9D8D9",
"7X c #F5FECE",
"8X c #E9E2DD",
"9X c #F5E3D1",
"0X c #F3FFD3",
"qX c #EAEAE4",
"wX c #EEEEEB",
"eX c #F5EAE9",
"rX c #EFF0ED",
"tX c #F1F1EF",
"yX c #EFEFF0",
"uX c #F3F3F3",
"iX c #F8F6F6",
"pX c #F6F9F6",
"aX c #F8F8F7",
"sX c #F6FBF9",
"dX c #F9F9FA",
/* pixels */
"C C C C C C C C B C C C C C C C C C C C C C C C C C C C C C C C n n x B C C C C C C C C C C C C C C C C C C C C C C C C C C C C ",
"C C C C C C C C C C C C C C C C C C C C C C C C C C C C C C C C n n x B C C C C C C C C C C C C C C C C C C C C C C C C C C C C ",
"C C C C C C C C C C C C C C C C C C C C C s i v b b C C C C C C x x C C C C B C C C C C C C C C C C C C x n b b C C C C C C C C ",
"C C C C C C C C C C C C C C C V y t g J v.A.I.L t u d =.%.%.%.%.&.t.t.t.t.t.t.n C C C C C C C C C C x x f t 7 7 9 g v v C C C C ",
"C C C B C C C C C C C C C D j 4 7 A.0X0X0X0X7X7X&.%.%.Q.>.>.:.:.*.p.%X%XK.2X2Xt.t.t.n C C C C C x x x 2 2 6 f H P P g j z C C C ",
"C C C B C C C C C C C A Z y 9 v.R.Y.S.N.) / -.&.$.[.{. X|.{.'.[.#.p.2X2X2X6X2X2X2X%Xt.n C C x x x 5 2 f M.F.T.T.F.T.Y.J j C C C ",
"C C C C C C C C x C C Z f g U.Y.( Y T T Y =.$.[.{. X|. X X!.:.&.*.p.p.&X=X4X4X6X6X2X%Xt.n C x x 1 1 K D.G.D.' ~ ~ ~ F.I.g C C C ",
"C C C C C C C x C C b t P S.) U S S U U =.$.1.!.{. X X X X(.!.Q.7.%X&X:X:X4X5X5X5X2X=X%Xt.n x 1 2 Q D.' R D S D T ~ C.L 7 z C C ",
"C C C C C C x C C C t Q C.Y S S S S S =.$.1.(.|. X X X X X X X X#X4X4X4X4X4X5X5X4X4X3X=X%Xt.2 4 C.' A A S S S S R ' ! 2 7 z C C ",
"C C C C C C x A C c u ` D A A A A S =.$.[. X X X X X X X X XXXoX#X4X4X4X4X4X5X5X4X4X4X5X:X%Xt.^ D C C C C C Z S R E 2 2 8 b C C ",
"C C C C C C A A A v t S A A A A A S X.[. X X X X X X X X X XXXoX#X4X4X4X4X4X4X5X4X4X4X4X5X2X%Xt.n n n n C C Z S I 2 1 3 a x C C ",
"C C C C C C C h y ^ S C A A C C Z =.$.`. X X X X X X X X X XXXoX#X4X4X4X4X4X4X4X4X4X4X4X5X3X%Xu.n n n C C Z Z I 2 1 5 8 b z C C ",
"C C C C C C b y m Y M n M n C n C %.[.{. X X X X X X X X X XXXoX#X4X4X4X4X4X4X4X4X4X4X4X5X4X:X%Xt.n C n C Z k < 2 3 8 b x C C C ",
"C C C C C n j g Y n n n n n n n M %.(.{.|. X X X}.|. X X X XXX.X#X4X4X4X4X4X4X4X4X4X4X4X5X5X4X:Xu.n C C C C < 5 3 8 B B C C C C ",
"C C C C C n v m M n n n M n n n n %.~.`.`.[.{.{.'.|. X X X XXXoX#X4X5X5X4X4X4X4X5X3X3X4X4X4X4X=Xu.n C C C C C 8 p C C B C C C C ",
"C C C C C n v m n n C C C C C n M %.~.(.(._.(./.{. X X X X XXXoX#X4X5X5X4X4X4X4X3X:X-X2X4X5X5X-X%Xt.n C C C C z C C C C C C C C ",
"C C C C C C b n n C C C C C C C =.%.~.(._._.(./.}. X X X X XXXoX#X4X4X4X4X4X4X4X3X2X=X-X2X5X5X2X%Xu.n C C C C C C C C C C C C C ",
"C C C C C C C C C C C C C C C C %.!.(.(.(._./.{.|. X X X X XXXoX#X4X4X4X4X4X4X4X5X3X=X%X2X4X4X2X+Xu.n C C C C C C C C C C C C C ",
"C C C C C C B C C C C C C C C C %.E.(.(.1.>.!.}. X X X X X XXXoX#X4X4X4X4X4X4X4X3X3X2X*X*X-X2X2X%Xu.n C C C x z z z z z C C C C ",
"C C C C C C B B C C C C C C C C %.1.(._.!.!.[. X X X X X{.|.XXoX#X3X4X5X2X2X5X5X5X5X3X=X%X=X2X2X%Xu.n C C z z l s s s u s C C C ",
"C C C C C B B B C C C C C C C C %.1.(.~.~.(.|. X X X X X].|.XX.X#X4X4X5X2X2X5X5X5X4X3X2X=X=X,X2X%Xu.n C C v v j u h j h C C C C ",
"C C C C C C C B C C C C C C C =.7.~._.1.!.{.|. X X X|.}.}. XXXoX#X5X4X4X3X2X2X3X5X4X5X3X=X%X=X2X=X%Xt.n j H Q M.B.B.B.` C C C C ",
"C C C C x z z z z C C C C C C %.'.(._.1.!.|. X X X|.|.(.|. XXXoX#X4X4X3X3X2X-X3X5X5X5X3X=X%X*X2X2X=Xu.k ) Z.B./ R Y U S C C C C ",
"x C C z z l s s s u s C x C C %.(.(.~.~.}. X X X X]._.!.|. X X|.#X5X5X4X5X2X=X2X2X3X4X5X2X2X*X=X2X,X*XV.` W S S S Z S S C C C C ",
"C C C v v j u h k h y a C C x n._._.1.1.{.|.|. X{././.|. X X X|.#X:X3X4X4X3X3X=X=X2X3X2X2X2X*X=X2X=X=XW Z Z Z C C C C Z C C C C ",
"C C j H Q M.B.B.B.b b m C C x !._.(.~.^._.(.(.(./.}.|. X X X X|.#X2X5X4X5X5X5X2X=X=X1X2X2X2X=X,X2X=X2Xn N z b z b b n b C C C C ",
"C k ) Z.B./ R Y U g v v C C x n._.~.~.(._._._./.(.|. X X X X X|.#X2X4X4X4X5X5X2X-X=X=X2X2X1X1X=X,X,X2Xb d a d s i v b C C C C C ",
"K V.` W S S S Z P P g j C C C n._.7.!._._._._./.'.|. X X X XXX X#X2X4X4X3X5X5X5X2X=X=X2X2X1X2X=X,X=X2Xn C C C C C C C C C C C C ",
"_ ^ A Z Z C C C C T.Y.J C C C ;.(.,.<.(._._.].].}. X X X X XXX X#X<X4X4X3X4X5X5X4X2X,X,X1X1X2X*X=X*X=Xn C C C C C C C C C C C C ",
"C C C C C C C C C ~ F.I.C C C ;.(.1.1.(._._.].].|. X X|. X XXX X#X=X4X4X4X4X3X4X4X2X,X=X1X1X2X=X,X*X*Xn C C C C C C C C C C C C ",
"C C C C A A A C C C C.L 7 j C &._.!.!.(.(._._.].}.|.}.{. X X X X@X=X4X4X4X2X2X3X3X2X1X,X=X,X2X=X=XK.u.n C C C C C C C C C C C C ",
"C C C C C A A C C C C C C B C &.n.!.~.(.!./._._.{.(.(.{. X X X X}.&X2X4X4X3X2X-X2X1X1X,X*X=X<X=X=Xu.M C C C C C C C C C C C C C ",
"C C C C C A A A C C C C C C C n &.>.1.!.!.~._._._.(.(.|. X}.{.}.).&X2X2X2X4X2X=X=X1X1X=X*X*X=X%Xp.u.n C C C C C C C C C C C C C ",
"C C C C C C A A A C C C C C C C %.%.>.7.!.<.<.~._._.].{.}.{./.~.3.+X=X1X:X2X2X1X1X=X=Xu.u.%X*XW.u.M C C C C C C C C C C C C C C ",
"C C C C C C C C C C C C C C C C n %.] <.<.f.g.1.Q.1.,.<.<.<.,.7.; } p.%X%X%X%X*Xu.u.g.g.g.u.u.u.M C C C C C C C C C C C C C C C ",
"C C C C C C C C C C C C C C C C C n %.<.f.f.h.g.1.<.<.<.<.<.<.<.& & t.u.u.u.u.u.t.g.g.g.g.g.O.n C C C C C C C C C C C C C C C C ",
"C C C C C C C C C C C C C C C C x x n  .d.g.z.h.: q.h.h.h.e.e.q.9.0.a.a.s.l.z.e.* r d.z.z.f.O.n C C C C C C C C C C C C C C C C ",
"C C C C C C C C C C C C C C C C C C x o.i.d.d.i.& q.z.x.x.k.k.j.j.k.k.k.z.x.x.w.$ : f.f.h.J.O.n C C C C C C C C C C C C C C C C ",
"C C C C C C C C C C C B C C C C C C C 8.eXeXeX6.O q.z.x.x.x.x.x.x.x.x.x.x.x.x.e.O @ 6.eXeXwXO.n C C C C C C C C C C C C C C C C ",
"C C C C C C C C x z z z z C C C C C C m.iXdXsX4.O q.z.x.x.x.x.x.x.x.x.x.x.x.x.e.O + 5.iXdXdX8.n C C C C C C C C C C C C C C C C ",
"C C C x x C C z z l s s s u s C x C o.OXiXsXtX..& q.k.x.x.x.x.x.x.x.x.x.x.x.x.a.> & +.rXsXiXH.O.n C C C C C C C C C C C C C C C ",
"C C C C C C C v v j u h k h y a C o.O.$XaXiX1X- | j.x.x.x.x.x.x.x.x.x.x.x.x.x.l.a.r : $XaXiX$XO.n C C C C C C C C C C C C C C C ",
"C C C C C C j H Q M.B.B.B.b b m C o.8.iXpX8Xe | j.x.x.x.x.x.x.x.x.x.x.x.x.x.x.x.x.d.} ..uXiXiX8.n C C C C C C C C C C C C C C C ",
"C C C C C k ) Z.B./ R Y U g v v C o.H.dX$Xr.* 0.x.x.x.x.x.x.x.x.x.x.x.x.x.x.x.x.x.x.0.: OXaXaX8.n B C C C C C C C C C C C C C C ",
"C C C C K V.` W S S S Z P P g j o.4.iXdX[ O 9.j.x.x.x.x.x.x.x.x.x.x.x.x.x.x.x.x.x.x.j.} ; iXdXaX@.n C C C C C C C C C C C C C C ",
"C C C C _ ^ A Z Z C C C C T.Y.J o.5.aXdXwXO 9.j.x.x.x.x.x.x.x.x.x.x.x.x.x.x.x.x.x.x.j., = iXdXdX2.n C C C C C C C C C C C C C C ",
"C C x C C C C C C C n n C ~ F.I.o.wXsXdXuX& | s.j.z.x.x.x.x.x.x.x.x.x.x.x.z.x.x.z.l.s., w iXdXaX4.n C C C C C C C C C C C C C C ",
"C C x C C C C C A A M C C C C.L o.wXtXiXdXH.} | a.z.x.x.x.x.x.x.x.x.x.x.x.x.x.x.k.s.e  .$XdXdXuX4.n C C C C C C C C s i v b b C ",
"C n n C C C C C C A A C C C C C o.2.wXdXuXqX+Xw | q.a.w.j.x.x.x.x.x.x.x.z.j.a.q.0.e } $XaXuXuXOXO.n n C V y t g J v.A.I.L t u d ",
"C x n C C C C C C A A A C C C C n o.{ wXuXuXtXr.* $ $ # 0.j.z.x.x.z.z.z.j.q.$ # o : r.yXuXuXuXO.n C D j 4 7 A.0X0X0X0X7X7Xc.7 a ",
"C C x x x x x C C C A A A C C C C n o.wXuXuX5.4.& - > - , | | | 0.0.9.| | r > * O ; 2.4.yXuX2.n A Z y 9 v.R.Y.S.N.) / ( S.R.0 u ",
"C C x x x x x x x C x C C C C C C C n O.O.O.O...% y.L.L.} > o O X X $ - -  .L.L.- @ o...O.O.n C Z f g U.Y.( Y T T Y Y R ) U.7 C ",
"n C x x x x x x x x x C C C C C C C B n n . . . o %X>XP.L.L.L.% .   * f.L.L.P.P.- q . . . l C b t P S.) U S S U U Y W W Z.G 4 C ",
"C C x x x x x x x x x z C C C C C C C n C z .   o ;X>X>X>X>X>X= .   = L.>X>X>X>X: ...   l C C t Q C.Y S S S S S U Y R / c.5 C C ",
"C C C C x x x x x x x C C C C C C C C C C B z . + >X9X>X>X>X9Xq .   q >X>X>X9X9X[ ... i A C c u ` D A A C A S U Y U W b.6 2 C C ",
"C C C C C C C C C C C l C C C C C C C C C C C l +.9XwXpXpXwXwX[ j s { qXwXpXsXwX[ +.v A A A v t S A A A C C S S U W Q 5 5 C C C ",
"C C C C z z l s s s u s C C C C C C C C C C n S @.wXwXsXrXsXsX2.i v +.pXsXrXwXsX{ +.n C h y ^ S C A A C C Z A A Y B.6 1 C C C C ",
"C C C C v v j u h j h u a C C C C C C C x n A D Y @.2.2.2.2.2.n C C n @.2.3.3...+.n C b y m Y M n M n C n C A S W 7 1 C C C C C ",
"C C C j G Q M.B.B.B.` _ m b C C C C C C n A S D C n n n n n n C C C n n n n n n n C n j g Y n n n n n n n M A S t 2 C C C C C C ",
"C C C ) Z.B./ R Y U S R m C C C C C C C C A Z C C C C C C C C C C n n n C C C C C C n v m M n n n M n n n n A b 4 C C C C C C C ",
"C C C C W S S S Z S S Z b C C C C C C C C C C C C C C C C C C C C C C C C C C C C C n v m n n C C C C C n M n C C C C C C C C C ",
"C C C C Z Z C C C C Z b C C C C C C C C C C n C C C C C C C C C C C C C C C C C C C C b n n C C C C C C C C C C C C C C C C C C ",
"C C C C C z z b b n b z C C C C C C C C C C C C C C C C C C C C C B B C C C C C C C C n n C C C C C C C C C C C C C C C C C C C ",
"z z C C C d s i v b b C C C C C C C C C C C C C C C C C C C C C C C B B C C C C C C C C x C C C C C C C C C C C C C C C C C C C "
};
