/* XPM */
static const char *slime1[] = {
/* columns rows colors chars-per-pixel */
"64 64 187 2 ",
"   c #010101",
".  c #060803",
"X  c #090C06",
"o  c #060308",
"O  c #09040C",
"+  c #0A0A09",
"@  c #0C1006",
"#  c #0F110C",
"$  c #0F0B10",
"%  c #5F2D79",
"&  c #622E7D",
"*  c gray46",
"=  c #3D8C34",
"-  c #3D9336",
";  c #32923D",
":  c #3C983D",
">  c #4C9A2A",
",  c #479236",
"<  c #4F9E36",
"1  c #4D9F3A",
"2  c #5C9E3A",
"3  c #4AA236",
"4  c #46A93B",
"5  c #54A535",
"6  c #52A63A",
"7  c #5BA33A",
"8  c #57AB3A",
"9  c #5BAD3C",
"0  c #5BB33D",
"q  c #6BAB3A",
"w  c #6AB63A",
"e  c #6CB43C",
"r  c #72B23C",
"t  c #74C23D",
"y  c #3F9D43",
"u  c #419C45",
"i  c #46A442",
"p  c #5EAD43",
"a  c #53B141",
"s  c #67A541",
"d  c #64AD41",
"f  c #69AB42",
"g  c #79AE45",
"h  c #64B443",
"j  c #6BB341",
"k  c #65B947",
"l  c #74B643",
"z  c #72BA44",
"x  c #77B748",
"c  c #7FBA4A",
"v  c #6AA85B",
"b  c #70AE5A",
"n  c #75B26A",
"m  c #73C243",
"M  c #7CC142",
"N  c #7AC548",
"B  c #80B84B",
"V  c #84BC4D",
"C  c #8BB86A",
"Z  c #8DB675",
"A  c #8DBD72",
"S  c #83C444",
"D  c #84CD46",
"F  c #85C54B",
"G  c #8BC64B",
"H  c #85CB4C",
"J  c #8DCC4B",
"K  c #95CE4C",
"L  c #9DCF4D",
"P  c #8CD14E",
"I  c #94D74B",
"U  c #92D24E",
"Y  c #9BD34B",
"T  c #9BD84D",
"R  c #8DC255",
"E  c #88C657",
"W  c #94C750",
"Q  c #95CC52",
"!  c #9ACF57",
"~  c #94C459",
"^  c #8CD152",
"/  c #96D053",
"(  c #9BD453",
")  c #9EDB52",
"_  c #9DD15D",
"`  c #9BD859",
"'  c #A1D446",
"]  c #A2D54B",
"[  c #A5D94D",
"{  c #AADC4D",
"}  c #A2CF5A",
"|  c #A2D553",
" . c #A4DB52",
".. c #ACDD52",
"X. c #A4D95E",
"o. c #A8DA5A",
"O. c #B0DF54",
"+. c #B1DD58",
"@. c #AAE24E",
"#. c #B1E14E",
"$. c #A4E052",
"%. c #ADE050",
"&. c #A5E258",
"*. c #ADE35A",
"=. c #B0E055",
"-. c #B2E45B",
";. c #BDE75E",
":. c #B4E95D",
">. c #B9E95F",
",. c #9ACB6D",
"<. c #9CD067",
"1. c #9EC579",
"2. c #A0D261",
"3. c #A8DB64",
"4. c #A9D06C",
"5. c #ABDF6A",
"6. c #B2DF68",
"7. c #A7D279",
"8. c #B2DB75",
"9. c #B4D778",
"0. c #A9E766",
"q. c #B6E562",
"w. c #B8E664",
"e. c #B7EB61",
"r. c #BBEA65",
"t. c #B5EE6B",
"y. c #BDE96A",
"u. c #B4E173",
"i. c #BBE776",
"p. c #C2E661",
"a. c #C1ED62",
"s. c #C3EE6C",
"d. c #CAF66F",
"f. c #C4E776",
"g. c #C2ED73",
"h. c #C2EB7A",
"j. c #D4EF73",
"k. c #C3F07B",
"l. c #C8F778",
"z. c #CAF47E",
"x. c #D0F372",
"c. c #663082",
"v. c #683085",
"b. c #8D33BC",
"n. c #9235C3",
"m. c #9737CA",
"M. c #9838CB",
"N. c #A84DD7",
"B. c #AA4ED9",
"V. c #AE50DF",
"C. c #AF51E0",
"Z. c #B254E1",
"A. c #B4B4B4",
"S. c #BBBBBB",
"D. c #BBDD89",
"F. c #B7D997",
"G. c #BBE386",
"H. c #CEE685",
"J. c #C4EC80",
"K. c #CCEC8A",
"L. c #D6EE8A",
"P. c #CAF382",
"I. c #CCFA88",
"U. c #D7F486",
"Y. c #D4F986",
"T. c #D0F588",
"R. c #D8F78A",
"E. c #C9E990",
"W. c #DDFA9E",
"Q. c #E6FA89",
"!. c #E3F595",
"~. c #E0F498",
"^. c #EEFC9D",
"/. c #F0FE92",
"(. c #D7EFA5",
"). c #D8EBAC",
"_. c #DDF8A7",
"`. c #EFFAA4",
"'. c #E8F9AA",
"]. c #F2FFA4",
"[. c #E8FABA",
"{. c #FE83FE",
"}. c #FF8CFE",
"|. c #C6C6C6",
" X c #CDCDCD",
".X c #FDF5FE",
"XX c #FEFDFF",
/* pixels */
"%.%.%.%.%.%.%.%.%.%.%.%.%.%.%.%.%.%.%.%.%.%.%.%.%.%.%.%.%.%.%.%.%.%.%.%.%.%.%.%.%.%.%.%.%.%.%.%.%.%.%.%.%.%.%.%.%.%.%.%.%.%.%.%.",
"%.%.%.%.%.%.%.%.%.%.%.%.%.%.%.%.%.%.%.%.%.%.%.%.%.%.%.%.%.%.%.%.%.%.%.%.%.%.%.%.%.%.%.%.%.%.%.%.%.%.%.%.%.%.%.%.%.%.%.%.%.%.%.%.",
"%.%.%.%.%.%.%.%.%.%.%.%.%.%.%.%.%.%.%.%.%.%.%.%.%.%.%.%.%.%.%.%.%.%.%.%.%.%.%.%.%.%.%.%.%.%.%.%.%.%.%.%.{ .. . .%.%.%.%.%.%.%.%.",
"%.%.%.%.%.%.%.%.%.%.%.%.%.%.%.%.%.%.%.%.%.%.%.%.%.%.%.%.%.%.%.%.%.%.%.%.%.%.%.%.%.%.%.%.%.%.%.%.%.%.{ { ^ S l x B W |  .%.%.%.%.",
"%.%.%.%.%.%.%.{ { { { { { { { %.%.%.%.%.%.%.%.%.%.%.%. .Y Y (  .%.%.%.%.%.%.%.%.%.%.%.%.%.%.%.%.{ { { 9 2 s R 2.8.9.~ ( [ %.%.%.",
"%.%.%.%.%.%.%.{ 1.F.Z n E ( { { %.%.%.%.%.%.%.%... .G * * * * r ] %.%.%.%.%.%.%.%.%.%.%.%.%.{ { { i 6 E J.^.].].^.`.'.4.( %.%.%.",
"%.%.%.%.%.%.{ R R.=.=.~.).v F { ..%.%.%.%.%.{ { [ * * S.S.S.S.* q T %.%.%.%.%.%.%.%.%.%.%.%.{ { 4 3 6.Q./.Q.j.p.p.p.!.(.Q %.%.%.",
"%.%.%.%.%.%.{ c P.=.=.=.=.W.A l ....%.%.%.%.{  .r * S.S.S.S.S.S.* M %.%.%.%.%.%.%.%.%.%.%.{ { 3 9 u.Q.j.r.;.-.>.e.a.U.7.l [ %.%.",
"%.%.%.%.%.%.{ S G.=.=.=.=.=.L.C 7 %.{ %.%.%...S * S.S. X X X XS.* j { %.%.%.%.%.%.%.%.%.%.{ 6 e Y.x.=.=.-.-.-.-.r.d.i.7 z [ %.%.",
"%.%.%.%.%.%.%.{ < <.=.=.=.=.=.K.A l %.%.%.%.[ * * S. X X X X XS.* d ..%.%.%.%.%.%.%.%.%. .e F s.;.%.%.%.%.%.*.-.r.t.9 8 m  .%.%.",
"%.%.%.%.%.%.%.%.w < 3.=.=.=.=.=.K.b P %.%.%.K * S.S. X X X X XS.* f %.%.%.%.%.%.%.%.%.%.' o.s.=.........&.&.*.:.0.5 3 0 I { %.%.",
"%.%.%.%.%.%.%.%.{ k < Q =.=.=.=.=.E.d  .%.%.F * S. X X X X XS.S.* z %.%.%.%.%.%.%.%.%.{ { =...........%.&.*.*.0.5 3 a N  .{ %.%.",
"%.%.%.%.%.%.%.%.%.{ h < =.=.=.=.=.=.,.F %.%.M * S. X X X XS.S.* * H #.%.%.%.%.%.%.%.%.%...{ { { { ......&.*.` > 5 0 m  .{ %.%.%.",
"%.%.%.%.%.%.%.%.%.%.{ M < =.=.=.=.=.{ %.%.%.S * S. X X XS.S.* * 1  .=.%.%.%.%.%.%.%.%.%.%.%.{ { { { { ..*.F 1 a 0 N [ ..{ %.%.%.",
"%.%.%.%.%.%.%.%.%.%.%.{ ( J =.=.=.%.%.%.%.%.J * S.S. XS.S.* * ; ^ %.%.%.{ %.%.%.%.%.%.%.%.%.%.%.%.{ { { z 6 0 m P $.[ { %.%.%.%.",
"%.%.%.%.%.%.%.%.%.%.%.%.{ { { %.%.%.%.%.%.%.( - * S.S.S.* * y N %.%.%.{ [ [ [ [ [ ] [ %.%.%.%.%.%.%.{ { { t I [ [ [ [ ] [ %.%.%.",
"%.%.%.%.%.%.%.%.%.%.%.%.%.%.%.%.%.%.%.%.%.%. .h : * * * u k D *.%.%.[ [ ] Y Y Y K Y ( %.%.%.%.%.%.%.%.%.[ [ [ Y Y Y K Y ( %.%.%.",
"%.%.%.%.%.%.%.%.%.%.%.%.%.%.%.%.%.%.%.%.%.%.%.( M w w m D T &.*.%.%.| | ( K / ( / J U  .%.%.%.%.%.%.%.%.| | ( K / ( / K U  .%.%.",
"%.%.%.%.%.%.%.%.%.%.%.%.%.%.%.%.%.%.%.%.%.%.%.=.*. .[ $.&.&.%.%.%.( 2.u.J.P.P.P.z.k.X. .%.%.%.%.%.%.%.( 2.u.J.P.P.P.z.k.X. .%.%.",
"%.%.%.%.%.%.%.%.%.%.%.%.%.%.%.%.%.%.%.%.%.%.%.%.%.%.%.%.%.%.%.%._ h.T.P.g.r.w.q.-.r.o.%.%.%.%.%.%.%._ h.T.P.g.r.w.q.-.r.o.%.%.%.",
"%.%.%.%.%.%.%.%.%.%.%.%.%.%.%.%.%.%.%.%.%.%.%.%.%.@ . . . . . . . . . . . . ..-.-.*. .%.%.%.....| 5.I.z.y.-.-.-.*.-.-.*. .%.%.%.",
"%.%.%.%.%.%.%.%.%.%.%.%.%.%.{ { { { { { { { %.%.%..                          .&.*. .%.%.%.%.{ [ y.l.s.-.*.*.%.%.&.&.*. .%.%.%.%.",
"%.%.%.%.{ [ [ [ [ %.%.%.%.{ 1.F.Z n E ( { { %.%.%..                         | .. .[ %.%.%.{ { :.l.r.%.@.[ [ [  . ... .[ %.%.%.%.",
"{ %.%.[ [ ] Y Y Y K Y %.{ R R.=.=.~.# . . . . . . b.n.n.n.N.N.N.N.N.n.n.n.n.+ . . . . . . [ -.r.r.&.[ T I T Y L |  . .%.%.%.%.%.",
"%.%.%.| | ( K / ( / J K { c P.=.=.=..             n.m.m.B.C.C.C.C.C.V.M.m.m.o              .>.e.$.J %.%.%.%.%.%.%.%.K %.%.%.%.%.",
"%.%.( 2.u.J.P.P.P.o. .X.{ S G.=.=.=..             n.m.B.C.C.C.C.C.C.C.V.M.m.o             %.:.( %.%.%.%.%.%.%.%.%.%.%.%.%.%.%.%.",
"%._ h.T.P.g.r.w.q.W |  .[ %.< <.=.@ b.n.n.n.n.N.N.V.V.C.C.C.C.C.C.C.C.C.V.V.N.N.N.N.n.n.n.+ G %.%.%.%.%.%.%.%.%.%.%.%.%.%.%.%.%.",
"5.I.z.y.-.-.-.*.8.9.~ ( [ %.X . .   n.m.m.m.B.C.C.C.C.C.C.C.C.{.{.{.{.{.{.{.Z.C.C.C.M.m.m.o . . [ %.%.%.%.%.%.%.%.%.%.%.%.%.%.%.",
"l.s.-.*.*.%.%.&.&.`.'.4.( %..       n.m.m.B.C.C.C.C.C.C.C.C.{.{.{.{.{.{.{.{.Z.C.C.C.V.M.m.o     [ %.%.%.%.%.%.%.%.%.%.%.%.%.%.%.",
"%.%.%.%.%.%.%.%.%.p.!.(.Q { .       n.m.m.V.C.C.C.C.C.C.C.{.{.{..XXX{.{.{.{.Z.C.C.C.C.V.M.o     . ] %.%.%.%.%.%.%.%.%.%.%.%.%.%.",
"%.%.%.%.=.=.=.%.%.%.U.X . . b.n.n.n.m.m.m.V.C.C.C.C.C.C.{.{.{..XXXXXXX{.{.{.{.Z.C.C.C.C.V.n.n.n.o . . . [ %.%.%.%.%.%.%.%.%.%...",
"%.%.%.%.%.=.=.%.%.%.%..     n.m.m.m.m.m.m.V.C.C.C.C.{.{.{.{.{.XXXXXXXX{.{.{.{.{.Z.C.C.C.C.M.m.m.o       [ %.%.%.%.%.%.%.%.%.%...",
"%.%.%.%.%.=.=.=.%.%.%..     n.m.m.m.m.m.m.V.C.C.C.C.{.{.{.{.{.{.XXXX}.{.{.{.{.{.{.Z.C.C.C.V.M.m.o       [ %.%.%.%.%.%.%.%.%.%.%.",
"%.%.%.%.%.%.=.=.=.%.%..     n.m.m.m.m.m.m.V.C.C.C.{.{.{.{.{.{.{.{.{.{.{..XXX{.{.{.{.Z.C.C.C.V.M.o       [ %.%.%.%. . . . .%.%.%.",
"%.%.%.%.%.%.%.%.%.%.%..     n.m.m.m.m.m.m.V.C.C.C.{.{.{.{.{.{.{.{.{.{..XXXXXXX{.{.{.Z.C.C.C.C.M.o       [ %.%.| Q V B x F ! %.%.",
"%.%.%.%.%.%.%.%.%.%.%..     n.m.m.m.m.m.m.V.C.C.C.{.{.{.{.{.{.{.{.{.{.XXXXXXXX{.{.{.Z.C.C.C.C.V.o       ] { ` x * * * * * f (  .",
"%.%.%.%.%.%.%.%.%.%.%..     n.m.m.m.m.m.m.V.C.C.C.Z.{.{.{.{.{.{.{.{.{.{.XXXX}.{.{.{.Z.C.C.C.C.C.o       ]  .s * S.S.S.S.S.* j ( ",
"%.%.%.%.%.%.%.%.%.%.%..     n.m.m.m.m.m.m.M.M.V.C.C.Z.{.{.{.{.{.{.{.{.{.{.{.{.{.{.Z.C.C.C.C.C.C.o       ] l * S.S. X XS.S.S.* Q ",
"%.%.%.%...{ { { ..{ %..     n.m.m.m.m.m.m.m.m.M.V.C.C.Z.{.{.{.{.{.{.{.{.{.{.{.Z.Z.C.C.C.C.C.C.C.o       S * S.S. X X X XS.S.* G ",
"%.%.%.%.%. .Y Y [ T X       n.m.m.m.m.m.m.m.m.m.M.V.C.C.Z.Z.Z.Z.Z.Z.Z.Z.Z.Z.Z.C.C.C.C.C.C.C.C.C.n.n.n.n.+ * S. X X X X XS.S.* F ",
"%.{ %.%.%.%.$.J X .   % & & m.m.m.m.m.m.m.m.m.m.m..XXXXXZ.C.C.C.C.C.C..XXXXXZ.C.C.C.C.C.C.C.C.C.M.m.m.m.o . . |. X X X XS.S.* G ",
"%.%.%.%.%.( j g .     & c.c.m.m.m.m.m.m.m.m.m.m.m..XXXXXZ.C.C.C.C.C.C.XXXXXXZ.C.C.C.C.C.C.C.C.C.M.m.m.m.o     |. X X X XS.* , K ",
"%.%.%.%.J B D.[.X     & c.c.m.m.m.m.m.m.m.m.m.m.m..XXXXXZ.C.C.C.C.C.C.XXXXXXZ.C.C.C.C.C.C.C.C.C.M.m.m.m.o     |. X X XS.S.* 6 [ ",
"..%.%.J ~ _.'.f..     & c.c.m.m.m.m.m.m.m.m.m.m.m..XXXXXZ.C.C.C.C.C.C.XXXXXXZ.C.C.C.C.C.C.C.C.M.m.m.m.m.o     |. X XS.S.* - H [ ",
"[  .G 8.W.h.q.:..     & c.c.v.v.m.m.m.m.m.m.m.m.m.$ + + N.C.C.C.C.C.C.$ + + N.C.C.C.C.C.C.C.M.m.m.m.m.m.o     |. XS.S.* ; h [ [ ",
",.F u.R.w.-.-.-..     & c.c.c.c.v.m.m.m.m.m.m.m.m.o     N.C.C.C.C.C.C.o     N.C.C.C.C.C.C.M.m.m.m.m.m.m.o     A.S.* * * 8 %.%.%.",
"} K z.;.=.=.=.=..     & c.c.c.c.c.v.m.m.m.m.m.m.m.o     n.M.M.M.M.M.M.o     n.M.M.M.M.M.M.m.m.m.m.m.m.v.o     * * * i k ) %.%.%.",
"| G -.=.=.=.=.=..     & c.c.c.c.c.c.v.v.v.v.v.v.v.o     n.m.m.m.m.m.m.o     n.m.m.m.m.m.m.m.m.m.m.v.v.c.      * p j P ) %.%.%.%.",
"s.-.%.O.O.=.%.*..     & c.c.c.c.c.c.c.c.c.c.c.c.c.o     n.m.m.m.m.m.m.o     n.m.m.m.m.m.m.m.m.m.m.v.c.c.o     S I &. .%.%.%.%.%.",
"q.O...O.O...O.=..     & c.c.c.c.c.c.c.c.c.c.c.c.c.o     n.m.m.m.m.m.m.o     n.m.m.m.m.m.m.m.m.m.v.c.c.c.o      .*.%.%.%.%.%.%.%.",
"............O.O. .+.S . o o o o o o & c.c.c.c.c.c.& & & v.v.v.v.v.v.v.& & & v.v.v.v.v.v.v.O o o o o o o ] [ [ %.%.%.%.%.%.%.%.%.",
"..............O.=. .e .             & c.c.c.c.c.c.c.c.c.c.c.c.c.c.c.c.c.c.c.c.c.c.c.c.c.c.o             [ %.%.%.%.%.%.%.%.%.%.%.",
"..%.%.%.%.%...O...' %..             & c.c.c.c.c.c.c.c.c.c.c.c.c.c.c.c.c.c.c.c.c.c.c.c.c.c.o             [ %.%.%.%.%.%.%.%.%.%.%.",
"%.%.%.%.%.%.%...%.%.%.[ [ [ [ [ [ [ X o o o o o o o o o o o o o o o o o o o o o o o o o o ]  .H.C 7 { [ ..%.%.%.%.%.%.%.%.%.%.%.",
"%.%.%.%.%.%.%.%.%.%.%.%.%.%.%.%.%.%..                                                      .=.=.K.A l %.%.%.%.%.%.%.%.%.%.%.%.%.",
"%.%.%.%.%.%.%.%.%.%.%.] %.%.%.%.%.%..                                                      .=.=.=.K.b P %.%.%.%.%.%.%.%. .%.%.%.",
"%.%.%.%.[ [ [ Y Y Y K Y %.%.%.%.%.%.[ [ [ [ [ K K = * * = w F [ [ [ { [ [ [ [ [ ] ] h < R =.=.=.=.=.E.d  .%.%.%.%.%.%.%. .%.%.%.",
"%.%.%.%.| | ( K / ( / K U %.%.%.%.%.%.%.%.%.%.%.( M w w m %.%.%.%.%.%.%.%.%.%.%.%.%.{ h < =.=.=.=.=.O.,.F %.%.%.%.%.%.%.%.%.%.%.",
"%.%.%.( <.u.J.P.P.P.z.k.X. .%.%.%.%.%.%.%.%.%.%.%.%.%.%.%.%.%.%.%.%.%.%.%.%.%.%.%.%.%.{ M < =.=.=.=.=.%.%.%.%.%.%.%.%.%.%.%.%.%.",
"%.%.%.h.T.P.g.r.w.q.-.r.o.%.%.%.%.%.%.%.=.=.%.%.%.%.%.%.%.%.%.%.%.%.%.%.%.%.%.%.%.%.%.%.{ ( J =.=.=.%.%.%.%.%.%.%.%.%.%.%.%.%.%.",
"%.%.%.%.y.-.-.-.*.-.-.*. .%.%.%.%.%.%.%.%.%.%.%.%.%.%.%.%.&.%.%.%.%.%.%.%.%.%.%.%.%.%.%.%.{ { { %.%.%.%.%.%.%.%.%.%.%.%.%.%.%.%.",
"%.%.%.%.*.*.%.%.&.&.*. .%.%.%.%.%.%.%.%.%.%...%.%.%.%.%.%.%.%.%.%.%.%.%.%.%.%.%.%.%.%.%.%.{ ..{ %.%.%.{ { %.%.%.%.%.%.%.%.%.%.%.",
"%.%.%.%.%.[ [  . ... .[ %.%.%.%.%.%.%.%.%.%.%.%.%.%.%.%.%.%.%.%.%.%.%.%.%.%.%.%.%.%.%.%.%.%.%.%.%.%.%.%.%.%.%.%.%.%.%.%.%.%.%.%.",
"[ [ %.%.%.T Y L |  . .%.%.%.%.%.%.%.%.%.%.%.%.%.%.%.%.%.%.%.%.%.%.%.%.%.%.%.%.%.%.%.%.%.%.%.%.%.%.%.%.%.%.%.%.%.%.%.%.%.%.%.%.%."
};
