/* XPM */
static const char *slime2[] = {
/* columns rows colors chars-per-pixel */
"64 64 183 2 ",
"   c #010101",
".  c #060803",
"X  c #080906",
"o  c #070309",
"O  c #0B0B0B",
"+  c #0C1006",
"@  c #10110B",
"#  c #0E0B10",
"$  c #5F2D79",
"%  c #622E7D",
"&  c gray46",
"*  c #3E9236",
"=  c #34923F",
"-  c #4C9A2A",
";  c #479236",
":  c #4E9F36",
">  c #4F9E3B",
",  c #5D9E3D",
"<  c #4AA336",
"1  c #45A63A",
"2  c #54A535",
"3  c #52A63A",
"4  c #5CA53B",
"5  c #57AB3A",
"6  c #5CAC3B",
"7  c #5BB33D",
"8  c #67A93C",
"9  c #6CB43D",
"0  c #6BB83B",
"q  c #72B23C",
"w  c #74C23D",
"e  c #46A442",
"r  c #5EAC43",
"t  c #53B141",
"y  c #6DA641",
"u  c #64AD41",
"i  c #68AC41",
"p  c #79AE45",
"a  c #62B443",
"s  c #6BB441",
"d  c #66B943",
"f  c #69B848",
"g  c #74B742",
"h  c #72BA43",
"j  c #77B748",
"k  c #7FBA4A",
"l  c #68A55A",
"z  c #70AE5A",
"x  c #77BF50",
"c  c #75B26A",
"v  c #74C344",
"b  c #7DC143",
"n  c #7EC844",
"m  c #80B84B",
"M  c #84BC4D",
"N  c #88BA54",
"B  c #8DBB6C",
"V  c #8DB675",
"C  c #8DBD72",
"Z  c #83C444",
"A  c #8BCD43",
"S  c #85C54B",
"D  c #8BC54B",
"F  c #86CB4C",
"G  c #8ECC4B",
"H  c #95CE4C",
"J  c #9DCF4D",
"K  c #8CD14E",
"L  c #94D74B",
"P  c #94D34C",
"I  c #9BD34B",
"U  c #9CD84E",
"Y  c #8AC556",
"T  c #94C750",
"R  c #95CD53",
"E  c #9CCF55",
"W  c #94C459",
"Q  c #96D052",
"!  c #9BD453",
"~  c #9EDB52",
"^  c #9BD25C",
"/  c #A0CF48",
"(  c #A1D446",
")  c #A3D64B",
"_  c #A5D94D",
"`  c #AADC4D",
"'  c #A2CF5A",
"]  c #A2D553",
"[  c #A4DB52",
"{  c #ACDD52",
"}  c #A4D95E",
"|  c #AADB5B",
" . c #B0DF54",
".. c #AEE24E",
"X. c #B1E14E",
"o. c #A4E052",
"O. c #ADE050",
"+. c #A5E258",
"@. c #AEE35A",
"#. c #B0E055",
"$. c #B2E45B",
"%. c #BDE75E",
"&. c #B1EA5C",
"*. c #B9E85F",
"=. c #9ACB6D",
"-. c #9CD067",
";. c #9EC579",
":. c #A1D262",
">. c #A8DB64",
",. c #A9D06C",
"<. c #ABDF6A",
"1. c #B2DF64",
"2. c #A7D279",
"3. c #B2DB75",
"4. c #B4D778",
"5. c #A9E766",
"6. c #B5E562",
"7. c #B9E664",
"8. c #B6EB66",
"9. c #BAEA64",
"0. c #BDE96A",
"q. c #B4E173",
"w. c #B9E370",
"e. c #BEED7D",
"r. c #C2E661",
"t. c #C1ED62",
"y. c #C3EE6C",
"u. c #CAF66F",
"i. c #C4E776",
"p. c #C2EE74",
"a. c #C2EB7A",
"s. c #D4EF73",
"d. c #C3F07B",
"f. c #CBF57E",
"g. c #CAF87B",
"h. c #D0F372",
"j. c #642F80",
"k. c #663082",
"l. c #683085",
"z. c #8D33BC",
"x. c #9336C4",
"c. c #9737CA",
"v. c #9839CB",
"b. c #A84DD7",
"n. c #AB4EDB",
"m. c #AE50DF",
"M. c #AF51E0",
"N. c #B254E1",
"B. c #AEAEAE",
"V. c #B4B4B4",
"C. c #BBBBBB",
"Z. c #BBDD89",
"A. c #B7D997",
"S. c #BBE386",
"D. c #C5EC80",
"F. c #CCEC8A",
"G. c #D0EE85",
"H. c #D6EE8A",
"J. c #CAF382",
"K. c #CCFA88",
"L. c #D6F787",
"P. c #D0F588",
"I. c #C5E495",
"U. c #C9E990",
"Y. c #D8EB93",
"T. c #DDF79F",
"R. c #DDFC9C",
"E. c #E6FA89",
"W. c #E2F597",
"Q. c #EEFC9D",
"!. c #F0FE92",
"~. c #D5EAA8",
"^. c #DDF8A7",
"/. c #EFFAA4",
"(. c #E7F9AC",
"). c #F2FFA4",
"_. c #E8FABA",
"`. c #FE83FE",
"'. c #FF8CFE",
"]. c #C6C6C6",
"[. c #CDCDCD",
"{. c #FDF5FE",
"}. c #FEFDFF",
/* pixels */
"O.O.O.O.O.O.O.O.O.O.O.O.O.O.O.O.O.O.O.O.O.O.O.O.O.O.O.O.O.O.O.O.O.O.O.O.O.O.O.O.O.O.O.O.O.O.O.O.O.O.O.O.O.O.O.O.O.O.O.O.O.O.O.O.",
"O.O.O.O.O.O.O.O.O.O.O.O.O.O.O.O.O.O.O.O.O.O.O.O.O.O.O.O.O.O.O.O.O.O.O.O.O.O.O.O.O.O.O.O.O.O.O.O.O.O.O.O.O.O.O.O.O.O.O.O.O.O.O.O.",
"O.O.O.O.O.O.O.O.O.O.O.O.O.O.O.O.O.O.O.O.O.O.O.O.O.O.O.O.O.O.O.O.O.O.O.O.O.O.O.O.O.O.O.O.O.O.O.O.O.O.O.O.` { [ [ O.O.O.O.O.O.O.O.",
"O.O.O.O.O.O.O.O.O.O.O.O.O.O.O.O.O.O.O.O.O.O.O.O.O.O.O.O.O.O.O.O.O.O.O.O.O.O.O.O.O.O.O.O.O.O.O.O.O.O.` ` K Z g j m T ] [ O.O.O.O.",
"O.O.O.O.O.O.O.` ` ` ` ` ` ` ` O.O.O.O.O.O.O.O.O.O.O.O.[ U U ! [ O.O.O.O.O.O.O.O.O.O.O.O.O.O.O.O.` ` ` 5 , y W :.3.4.W ! _ O.O.O.",
"O.O.O.O.O.O.O.` ;.A.V c Y ! ` ` O.O.O.O.O.O.O.O.{ [ D & & & & q ) O.O.O.O.O.O.O.O.O.O.O.O.O.` ` ` e 3 Y D.Q.).).Q./.(.,.! O.O.O.",
"O.O.O.O.O.O.` Y L.#.#.W.~.l S ` { O.O.O.O.O.` ` _ & & C.C.C.C.& 8 U O.O.O.O.O.O.O.O.O.O.O.O.` ` 1 < 1.E.!.E.s.r.r.r.W.~.R O.O.O.",
"O.O.O.O.O.O.` k J.#.#.#.#.T.C g { { O.O.O.O.` [ q & C.C.C.C.C.C.& b O.O.O.O.O.O.O.O.O.O.O.` ` < 6 w.E.s.9.*.*.*.6.t.L.2.g _ O.O.",
"O.O.O.O.O.O.` Z S.#.#.#.#.#.H.B 4 O.` O.O.O.{ Z & C.C.[.[.[.[.C.& s ` O.O.O.O.O.O.O.O.O.O.` 3 9 L.h.#.#.&.*.*.$.9.u.e.4 h _ O.O.",
"O.O.O.O.O.O.O.` : -.#.#.#.#.#.F.C g O.O.O.O._ & & C.[.[.[.[.[.C.& u { O.O.O.O.O.O.O.O.O.[ 9 S y.%.O.+.O.O.O.@.&.9.8.4 5 v [ O.O.",
"O.O.O.O.O.O.O.O.0 : >.#.#.#.#.#.F.z K O.O.O.H & C.C.[.[.[.[.[.C.& i O.O.O.O.O.O.O.O.O.O.( [ y.#.{ { { { +.+.@.&.5.2 < 7 P ` O.O.",
"O.O.O.O.O.O.O.O.` f : R #.#.#.#.#.U.u [ O.O.S & C.[.[.[.[.[.C.C.& h ..O.O.O.O.O.O.O.O.` ` #.{ { { { { O.+.+.@.5.2 < t v [ ` O.O.",
"O.O.O.O.O.O.O.O.O.` a : #.#.#.#.#.#.=.S O.O.b & C.[.O X X X X X X . . . . _ O.O.O.O.O.O.{ ` ` ` ` { { { +.@.^ - 2 7 v [ ` O.O.O.",
"O.O.O.O.O.O.O.O.O.O.` b : #.#.#.#.#.` O.O.O.Z & C.O                       . _ O.O.O.O.O.O.O.` ` ` ` ` { @.S : t 7 n _ { ` O.O.O.",
"O.O.O.O.O.O.O.O.O.O.O.` ! G #.#.#.O.O.O.O.O.G & C.X                         _ O.O.O.O.O.O.O.O.O.O.` ` ` h 3 7 v K o._ ` O.O.O.O.",
"O.O.O.O.O.O.O.O.O.O.O.O.` ` ` O.O.O.O.+ . . .   X   z.x.x.b.b.b.b.b.x.x.x.  . . . . . . _ O.O.O.O.O.` ` ` w L _ _ _ _ ) _ O.O.O.",
"O.O.O.O.O.O.O.O.O.O.O.O.O.O.O.O.O.O.+             z.c.c.n.M.M.M.M.M.m.v.c.x.            . _ O.O.O.O.O.O._ _ ) I I I H I ! O.O.O.",
"O.O.O.O.O.O.O.O.O.O.O.O.O.O.O.O.O.O..             x.c.n.M.M.M.M.M.M.M.m.v.c.              _ O.O.O.O.O.O.] ] ! H R ! Q H P [ O.O.",
"O.O.O.O.O.O.O.O.O.O.O.O.O.O.O.O.O.+     z.x.x.x.x.n.m.M.M.M.M.M.M.M.M.M.m.m.b.x.x.x.x.    . _ O.O.O.O.! :.q.D.J.J.J.f.d.} [ O.O.",
"O.O.O.O.O.O.....O.O.O.O.O.O.+ . .     z.c.c.c.c.c.m.M.M.M.M.M.`.`.`.`.`.`.`.N.m.v.c.c.x.    . . _ O.^ a.P.J.p.9.7.6.$.9.| O.O.O.",
"O.O.O.O.O.O.....O.O.O.O.O.O..       z.c.c.c.c.c.n.M.M.M.M.M.`.`.`.`.`.`.`.`.N.M.m.m.v.c.x.      E <.K.f.0.$.&.&.@.&.$.@.[ O.O.O.",
"O.O.O.O.O.O.O.O.O.O.O.O.O.O..       x.c.c.c.c.c.m.M.M.M.M.`.`.`.{.}.`.`.`.`.N.M.M.M.m.v.c.      . p.y.&.@.@.O.O.+.+.@.[ O.O.O.O.",
"O.O.O.O.` _ _ _ _ O.O.+ . .     z.x.c.c.c.c.c.c.m.M.M.M.`.`.`.{.}.}.}.`.`.`.`.N.M.M.M.m.v.x.      . . U _ _ _ [ [ { [ _ O.O.O.O.",
"` O.O._ _ ) I I I H I .       z.c.c.c.c.c.c.c.c.m.M.M.M.`.`.`.}.}.}.}.`.`.`.`.`.N.M.M.M.v.c.x.        I L U I J ] [ [ O.O.O.O.O.",
"O.O.O.] ] ! H Q ! Q G .     $ c.c.c.c.c.c.c.c.n.M.M.M.M.`.`.`.}.}.}.}.`.`.`.`.`.N.M.M.M.m.v.c.x.      _ O.O.O.O.O.O.H O.O.O.O.O.",
"O.O.! :.q.D.J.J.J.[ [ .     % c.c.c.c.c.c.c.c.m.M.M.M.M.`.`.`.}.}.}.}.`.{.}.'.`.N.M.M.M.M.v.c.c.      _ O.O.O.O.O.O.O.O.O.O.O.O.",
"O.^ a.P.J.p.9.7.6.T ] .     % l.c.c.c.c.c.c.c.m.M.M.M.M.`.`.`.`.}.}.'.{.}.}.}.'.`.N.M.M.M.m.v.c.      _ O.O.O.O.O.O.O.O.O.O.O.O.",
"<.K.f.0.$.&.&.@.3.4.W .     % k.c.c.c.c.c.c.c.m.M.M.M.M.`.`.`.`.`.`.`.}.}.}.}.'.`.N.M.M.M.M.v.c.      _ O.O.O.O.O.O.O.O.O.O.O.O.",
"g.y.$.@.@.O.O.+.+./.(.X     % k.c.c.c.c.c.c.c.m.M.M.M.M.`.`.`.`.`.`.`.}.}.}.}.`.`.N.M.M.M.M.v.c.      _ O.O.O.O.O.O.O.O.O.O.O.O.",
"O.O.O.O.O.O.O.O.O.r.@     $ k.k.l.c.c.c.c.c.c.m.M.M.M.M.N.`.`.`.`.`.`.}.}.}.}.`.`.N.M.M.M.M.v.c.j.    . _ O.O.O.O.O.O.O.O.O.O.{ ",
"O.O.O.O.#.#.#.O.O.O.X     % k.k.k.c.c.c.c.c.c.v.m.M.M.M.M.`.`.`.`.`.`.`.}.}.'.`.`.N.M.M.M.M.v.c.l.      _ O.O.O.O.O.O.O.O.O.{ { ",
"O.O.O.O.O.#.#.O.O.O..     % k.k.k.c.c.c.c.c.c.c.m.M.M.M.M.`.`.`.`.`.`.`.`.`.`.`.`.N.M.M.M.M.v.c.l.      _ O.O.O.O.O.O.O.O.O.O.{ ",
"O.O.O...O.#.#.#.O.O..     % k.k.k.c.c.c.c.c.c.c.v.m.M.M.M.N.`.`.`.`.`.`.`.`.`.`.N.M.M.M.M.M.v.c.l.      _ O.O.O.O.O.O.O.O.O.O.O.",
"O.O.O.O.O.O.#.#.#.O..     % k.k.k.l.c.c.c.c.c.c.c.m.M.M.M.M.N.N.`.`.`.`.`.`.`.N.M.M.M.M.M.M.v.c.l.      _ O.O.O.O.[ [ [ [ O.O.O.",
"O.O.O.O.O.O.O.O.O.O..     % k.k.k.k.c.c.c.c.c.c.c.v.v.v.m.M.M.M.N.`.`.`.`.`.N.M.M.M.M.M.M.M.v.c.l.      _ O.O.] R M m j S E O.O.",
"O.O.O.O.O.O.O.O.O.+     $ k.k.k.k.k.c.c.c.c.c.c.c.{.{.{.N.M.M.M.M.N.N.{.}.}.N.M.M.M.M.M.M.v.c.c.c.x.    . . ! j & & & & & i ! [ ",
"O.O.O.O.O.O.O.O.O..     % k.k.k.k.k.l.c.c.c.c.c.c.{.}.}.v.m.M.M.M.M.M.}.}.}.N.M.M.M.M.M.M.v.c.c.c.c.x.      , & C.C.C.C.C.& s ! ",
"O.O.O.O.O.O.O.O.O..     % k.k.k.k.k.k.c.c.c.c.c.c.{.}.}.v.v.m.M.M.M.M.}.}.}.N.M.M.M.M.M.v.c.c.c.c.c.c.      & C.C.[.[.C.C.C.& R ",
"O.O.O.O.{ ` ` ` { .     % k.k.k.k.k.k.l.c.c.c.c.c.{.}.}.v.c.v.m.M.M.M.}.}.}.N.M.M.M.M.v.c.c.c.c.c.c.l.      V.C.[.[.[.[.C.C.& D ",
"O.O.O.O.O.[ U U ) .     % k.k.k.k.k.k.k.l.c.c.c.c.# X X x.c.c.v.v.v.v.# X X b.M.M.M.v.c.c.c.c.c.c.c.l.      V.[.[.[.[.[.C.C.& S ",
"O.` O.O.O.O.o.G Z .     % k.k.k.k.k.k.k.k.l.c.c.c.      x.c.c.c.c.c.c.      x.v.v.v.c.c.c.c.c.c.c.l.k.      V.[.[.[.[.[.C.C.& D ",
"O.O.O.O.O.! 9 p I.X     % k.k.k.k.k.k.k.k.k.c.c.c.      x.c.c.c.c.c.c.      x.c.c.c.c.c.c.c.c.c.l.k.k.      ].[.[.[.[.[.C.& ; H ",
"O.O.O.O.G m Z._.(.X     % k.k.k.k.k.k.k.k.k.l.l.l.      j.c.c.c.c.c.c.      x.c.c.c.c.c.c.c.l.l.k.k.k.      ].[.[.[.[.C.C.& 3 _ ",
"{ O...G W ^.(.i.7..     % k.k.k.k.k.k.k.k.k.k.k.k.      % l.c.c.c.c.c.      x.c.c.c.c.c.l.l.k.k.k.k.k.      ].[.[.[.C.C.& * F _ ",
"_ [ D 3.R.a.6.$.$..     % k.k.k.k.k.k.k.k.k.k.k.k.      % k.l.l.l.l.c.      x.c.c.l.l.l.k.k.k.k.k.k.o       V.[.[.C.C.& = a _ _ ",
"=.S q.L.7.$.$.$.$.| .       % k.k.k.k.k.k.k.k.k.k.% % % k.k.k.k.k.k.l.% % % l.l.l.k.k.k.k.k.k.k.k.o       B.C.C.C.& & & 5 O.O.O.",
"' H f.*.$.$.$.$.$.6.1..         % k.k.k.k.k.k.k.k.k.k.k.k.k.k.k.k.k.k.k.k.k.k.k.k.k.k.k.k.k.k.o         > & & & & & e d ~ O.O.O.",
"] D &.#.#.$.$.$.$.$.6..         % k.k.k.k.k.k.k.k.k.k.k.k.k.k.k.k.k.k.k.k.k.k.k.k.k.k.k.k.k.k.          G s & & r s K ~ O.O.O.O.",
"y.$.O. . .O.O.@.$.$.7.e.r 1 : _ X                                                             / ` _ _ [ $.+.L A L +.[ O.O.O.O.O.",
"7. .{  .{ {  .O.@.$.0.x < 6 O.O..                                                             ) ` ..O.O.$.&.&.@.@.O.O.O.O.O.O.O.",
"{ { { {  . . . .$.*.S 3 9 O.O.O..                                                             ) ` O.O.O...O.O.O.O.O.O.O.O.O.O.O.",
"{ { { {  .{ {  .#.[ 9 S { { O.O._ _ _ _ _ _ _ G & V.V.].].V.V.& 8 _ ) ) _ _ _ ) N G.[ [ Y.~.l S ` { O.O...O.O.O.O.O.O.O.O.O.O.O.",
"{ O.O.O.O.O.{  .{ ( O.O.O.O.O.O.O.O.O.O.O.O.O.S & C.[.[.[.[.C.& i O.....O.O.` ` k J.#.#.#.#.T.C g { { ` ..O.O.O.O.O.O.O.O.O.O.O.",
"O.O.O.O.O.O.O.{ O.O.O.O.O.O.O.O.O.O.O.O.O.O.O.b & C.[.[.[.C.& h h O.....O.O._ ` Z S.#.#.#.#.#.H.B 4 O.` { O.O.O.O.O.O.O.O.O.O.O.",
"O.O.O.O.O.O.O.O.O.O.O.O.O.O.O.O.O.O.O.O.O.O.O.Z & C.C.[.C.C.& F F O.X...O.O.O.` ` : -.#.#.#.#.#.F.C g O.O.O.O.O.O.O.O.O.O.O.O.O.",
"O.O.O.O.O.O.O.O.O.O.O.) O.O.O.O.O.O.O.O.O.O.O.G * & C.C.& & * F [ O.O...O.O.O.O.` 0 : >.#.#.#.#.#.F.z K O.O.O.O.O.O.O.O.[ O.O.O.",
"O.O.O.O._ _ ) I I I H I O.O.O.O.O.O.O.O.O.O.O.! ! * & & * 0 F O.O.O.O.O.O.O.O.O.` ` f : R #.#.#.#.#.U.u [ O.O.O.O.O.O.O.[ O.O.O.",
"O.O.O.O.] ] ! H Q ! Q H P O.O.O.O.O.O.O.O.O.O.O.! b 0 0 v O.O.O.O.O.O.O.O.O.O.O.O.O.` a : #.#.#.#.#.#.=.S O.O.O.O.O.O.O.O.O.O.O.",
"O.O.O.! -.q.D.J.J.J.f.d.} [ O.O.O.O.O.O.O.O.O.O.O.O.O.O.O.O.O.O.O.O.O.O.O.O.O.O.O.O.O.` b : #.#.#.#.#.O.O.O.O.O.O.O.O.O.O.O.O.O.",
"O.O.O.a.P.J.p.9.7.6.$.9.| O.O.O.O.O.O.O.#.#.O.O.O.O.O.O.O.O.O.O.O.O.O.O.O.O.O.O.O.O.O.O.` ! G #.#.#.O.O.O.O.O.O.O.O.O.O.O.O.O.O.",
"O.O.O.O.0.$.&.&.@.&.$.@.[ O.O.O.O.O.O.O.O.O.O.O.O.O.O.O.O.+.O.O.O.O.O.O.O.O.O.O.O.O.O.O.O.` ` ` O.O.O.O.O.O.O.O.O.O.O.O.O.O.O.O.",
"O.O.O.O.@.@.O.O.+.+.@.[ O.O.O.O.O.O.O.O.O.O.{ O.O.O.O.O.O.O.O.O.O.O.O.O.O.O.O.O.O.O.O.O.O.` { ` O.O.O.` ` O.O.O.O.O.O.O.O.O.O.O.",
"O.O.O.O.O._ _ [ [ { [ _ O.O.O.O.O.O.O.O.O.O.O.O.O.O.O.O.O.O.O.O.O.O.O.O.O.O.O.O.O.O.O.O.O.O.O.O.O.O.O.O.O.O.O.O.O.O.O.O.O.O.O.O.",
"_ _ O.O.O.U I J ] [ [ O.O.O.O.O.O.O.O.O.O.O.O.O.O.O.O.O.O.O.O.O.O.O.O.O.O.O.O.O.O.O.O.O.O.O.O.O.O.O.O.O.O.O.O.O.O.O.O.O.O.O.O.O."
};
