/* XPM */
static const char *slime3[] = {
/* columns rows colors chars-per-pixel */
"64 64 194 2 ",
"   c #010101",
".  c #060803",
"X  c #080B06",
"o  c #0A040D",
"O  c #0B0B0B",
"+  c #0D1106",
"@  c #0E120A",
"#  c #111709",
"$  c #121808",
"%  c #0D0611",
"&  c #100B12",
"*  c #150E19",
"=  c #5E2C78",
"-  c #622E7D",
";  c gray46",
":  c #3E9236",
">  c #34923F",
",  c #4B9937",
"<  c #4F9F36",
"1  c #549C32",
"2  c #4AA336",
"3  c #46A93B",
"4  c #54A535",
"5  c #52A63A",
"6  c #5CA53B",
"7  c #57AB3A",
"8  c #5AAD3D",
"9  c #5BB33D",
"0  c #6BAB3A",
"q  c #69B53B",
"w  c #6CB43D",
"e  c #71B13D",
"r  c #74C23D",
"t  c #48A642",
"y  c #5BA943",
"u  c #53B141",
"i  c #6DA641",
"p  c #65AD41",
"a  c #68AC41",
"s  c #79AD45",
"d  c #62B244",
"f  c #6BB341",
"g  c #66B943",
"h  c #6ABA48",
"j  c #74B742",
"k  c #72BA44",
"l  c #7AB849",
"z  c #6AA85B",
"x  c #70AE5A",
"c  c #77BF50",
"v  c #75B26A",
"b  c #74C344",
"n  c #7EC143",
"m  c #7EC647",
"M  c #81BA48",
"N  c #83BC4C",
"B  c #8BB551",
"V  c #8DBB6C",
"C  c #8DB675",
"Z  c #8DBD72",
"A  c #83C545",
"S  c #8DC844",
"D  c #85C54B",
"F  c #8CC64B",
"G  c #86CB4C",
"H  c #8DCB4B",
"J  c #92C34C",
"K  c #95CE4C",
"L  c #9CCD4D",
"P  c #8CD14E",
"I  c #94D74B",
"U  c #93D44D",
"Y  c #9BD34B",
"T  c #9DD84F",
"R  c #8AC557",
"E  c #94C750",
"W  c #95CD53",
"Q  c #96C859",
"!  c #95D153",
"~  c #9BD453",
"^  c #9CD658",
"/  c #A0CF4B",
"(  c #A1D446",
")  c #A1D34B",
"_  c #A8D74C",
"`  c #A5DA4D",
"'  c #AADD4D",
"]  c #A2CF5A",
"[  c #A2D553",
"{  c #A4DB52",
"}  c #ACDE52",
"|  c #A5DB5D",
" . c #A8D95B",
".. c #B0DF54",
"X. c #AEE14E",
"o. c #B1E14E",
"O. c #A4E154",
"+. c #ADE050",
"@. c #AEE35A",
"#. c #B0E055",
"$. c #B2E45B",
"%. c #BDE75E",
"&. c #B1EA5C",
"*. c #B9E85F",
"=. c #91C66E",
"-. c #9ACB6D",
";. c #9CD067",
":. c #9EC579",
">. c #A1D262",
",. c #A9DA68",
"<. c #B2DF65",
"1. c #A7D279",
"2. c #B2DB75",
"3. c #B4D778",
"4. c #BCDD7F",
"5. c #A9E766",
"6. c #B5E562",
"7. c #B8E664",
"8. c #B5E865",
"9. c #BAE965",
"0. c #BDE96B",
"q. c #B3E274",
"w. c #BBE776",
"e. c #C2E661",
"r. c #C1ED62",
"t. c #C4EE6C",
"y. c #CAF66F",
"u. c #C4E776",
"i. c #C2ED74",
"p. c #C2EB7A",
"a. c #D4EF73",
"s. c #C5F37B",
"d. c #CBF57E",
"f. c #D0F372",
"g. c #662F83",
"h. c #663082",
"j. c #683085",
"k. c #6B318A",
"l. c #8731B4",
"z. c #8832B4",
"x. c #8C33BB",
"c. c #9235C3",
"v. c #9737CA",
"b. c #9939CB",
"n. c #9F46CE",
"m. c #A24BCF",
"M. c #A64CD5",
"N. c #AB4EDC",
"B. c #AE50DF",
"V. c #AF51E0",
"C. c #B354E1",
"Z. c #B856E3",
"A. c #B55EE2",
"S. c #F67EFB",
"D. c #F97FFC",
"F. c gray68",
"G. c #B4B4B4",
"H. c #BBBBBB",
"J. c #AFDE80",
"K. c #BBDD89",
"L. c #B7D997",
"P. c #BEDC90",
"I. c #BBE386",
"U. c #BEF089",
"Y. c #C5EC81",
"T. c #CCEC8A",
"R. c #D5EA8A",
"E. c #CAF382",
"W. c #CAF986",
"Q. c #D5F786",
"!. c #D0F588",
"~. c #D8F78A",
"^. c #C9E990",
"/. c #D9F79C",
"(. c #DDF79F",
"). c #E6FA89",
"_. c #E0F498",
"`. c #EAFA9A",
"'. c #F0FE92",
"]. c #D8EBA8",
"[. c #DDF8A7",
"{. c #E9F9A8",
"}. c #F2FFA4",
"|. c #E8FABA",
" X c #FF83FE",
".X c #FF8CFE",
"XX c #FF90FE",
"oX c gray78",
"OX c #CDCDCD",
"+X c #DAE4C0",
"@X c #E8F6CA",
"#X c #F6ECFC",
"$X c #FCF3FE",
"%X c #FFFEFF",
/* pixels */
"+.+.+.+.+.+.+.+.+.+.+.+.+.+.+.+.+.+.+.+.+.+.+.+.+.+.+.+.+.+.+.+.+.+.+.+.+.+.+.+.+.+.+.+.+.+.+.+.+.+.+.+.+.+.+.+.} } } +.+.+.+.+.",
"+.+.+.+.+.+.+.+.+.+.+.+.+.+.+.+.+.+.+.+.+.+.+.+.+.+.+.+.+.+.+.+.+.+.+.+.+.+.+.+.+.+.+.+.+.+.+.+.+.+.+.+.+.+.+.+.+.} } } +.+.+.+.",
"+.+.+.+.+.+.+.+.+.+.+.+.+.+.+.+.+.+.+.+.+.+.+.+.+.+.+.+.+.+.+.+.+.+.+.+.+.+.+.+.+.+.+.+.+.+.+.+.+.+.+.+.' } { { +.} +.+.+.X.+.+.",
"+.+.+.+.+.+.+.+.+.+.+.+.+.+.+.+.+.+.+.+.+.+.+.+.+.+.+.+.+.+.+.+.+.+.+.+.+.+.+.+.+.+.+.+.+.+.+.+.+.+.' ' P A j l M E [ [ +.+.+.+.",
"+.+.+.+.+.+.+._ ' _ _ _ ' ' ' +.+.+.+.+.+.+.+.+.+.+.+.{ T T ~ { +.+.+.+.+.+.+.+.+.+.+.+.+.+.+.+._ ' ' 8 6 i R >.2.3.Q ~ ` +.+.+.",
"+.+.+.+.+.+.+._ :.L.C v R ~ ' ' +.+.+.+.+.+.+.+.} { F ; ; ; ; e ) +.+.+.+.+.+.+.+.+.+.+.+.+.' ' _ t 5 R Y.`.}.}.`.}.{.,.~ +.+.+.",
"+.+.+.+.+.+.' R ~.#.#._.].z D ' } +.+.+.+.+.' ' ` ; ; H.H.H.H.; 0 T +.+.+.+.+.+.+.+.+.+.+.+.' ' 3 2 <.).'.).a.e.e.e._.].W +.+.+.",
"+.+.+.+.+.+.' l E.#.#.#.#.(.Z j } } +.+.+.+.' { e ; H.H.H.H.H.H.; n +.+.+.+.+.+.+.+.+.+.+.' ' 2 8 q.).a.9.*.*.*.8.r.Q.1.j ` +.+.",
"+.+.+.+.+.+.' A I.#.#.#.#.#.R.V 6 +.' +.+.+.} A ; H.H.OXOXOXOXH.; f ' +.+.+.+.+.+.+.+.+.+.' 5 w Q.f.#.#.&.&.*.$.9.y.w.6 k ` +.+.",
"+.+.+.+.+.+.+.' < ;.#.#.#.#.#.T.Z j +.+.+.+.` ; ; H.OXOXOXOXOXH.; p } +.+.+.+.+.+.+.+.+.{ w D t.%.+.+.+.+.+.@.&.9.8.6 7 b { +.+.",
"+.+.+.+.+.+.+.+.q < ,.#.#.#.#.#.T.x P +.+.+.K ; H.H.OXOXOXOXOXH.; a +.+.+.+.+.+.+.+.+.+.( { t.#.} } } } @.@.@.&.5.4 2 9 U ' +.+.",
"+.+.+.+.+.+.+.+.' h < W #.#.#.#.#.^.p { +.+.D ; F.. . . . . . . . . . . . $ +.+.+.+.+.' ' #.} } } } } +.@.@.@.5.4 2 u b { _ +.+.",
"+.+.+.+.+.+.+.+.+.' d < #.#.#.#.#.#.-.D +.+.n ; F.                        + +.+.+.+.+.+.} ' ' ' ' } } } @.@.^ 1 4 9 b O.' +.+.+.",
"+.+.+.+.+.+.+.+.+.+.' n < #.#.#.#.#.' +.+.+.A ; F.                        + +.+.+.+.+.+.+.+.' ' ' ' ' } @.D < u 9 m ` } ' +.+.+.",
"+.+.+.+.+.+.+.+.+.+.+.' ~ H #.#.#.) . . . . . . & c.c.c.c.N.N.N.N.M.c.c.c.z.. . . . . . $ +.+.+.+.' ' ' k 5 9 b P O.` _ +.+.+.+.",
"+.+.+.+.+.+.+.+.+.+.+.+.' ' ' +.+./             o v.v.b.B.V.V.V.V.V.N.v.v.x.            + +.+.+.+.+.' ' ' r I ` ` ` ` ) ` +.+.+.",
"+.+.+.+.+.+.+.+.+.+.+.+.+.+.+.+.+./             o v.b.B.V.V.V.V.V.V.V.N.v.x.            + +.+.+.+.+.+.+.` ` ) Y Y Y K Y ~ +.+.+.",
"+.+.+.+.+.+.+.+.+.+.+.+.+.+.+.+.) & c.c.c.c.c.N.N.B.B.V.V.V.V.V.V.V.V.V.B.B.N.N.N.M.c.c.z.$ +.+.+.+.+.+.[ [ ~ K W ! ! K U { +.+.",
"+.+.+.+.+.+.+.+.+.+.+.+.+.) . . . o v.v.v.b.B.V.V.V.V.V.V.V.C. X X X X X XS.V.V.V.N.v.v.x.  . $ +.+.+.! >.q.Y.E.E.E.d.s.| { +.+.",
"+.+.+.+.+.+.X.X.+.+.+.+.+./       o v.v.b.B.V.V.V.V.V.V.V.C. X X X X X X XD.V.V.V.B.N.v.x.    + +.+.^ p.!.E.i.9.7.7.$.9. .+.+.+.",
"+.+.+.+.+.+.X.X.+.+.+.+.+./       o v.v.b.V.V.V.V.V.V.V.C. X X.X%X$X X X XD.V.V.V.V.V.N.x.      # ,.W.d.0.$.&.@.@.&.$.@.{ +.+.+.",
"+.+.+.+.+.+.+.+.+.+.) . . & c.c.c.c.v.v.b.V.V.V.V.V.V.C. X X.X%X%X%X$X X X XS.V.V.V.V.V.N.c.c.l.  . . $ @.@.@.+.@.@.@.{ +.+.+.+.",
"+.+.+.+.' ` ` ` ` +./     o v.v.v.v.v.v.b.V.V.V.V.C. X X X X.X%X%X%X$X X X X XS.V.V.V.V.N.v.v.x.      + ` ` ` { { { { ` +.+.+.+.",
"' +.+.` ` ) Y Y Y K S     o v.v.v.v.v.v.b.V.V.V.V.C. X X X X XXX%X$X X X X X X XS.V.V.V.V.N.v.x.      + I T Y L [ { { +.+.+.+.+.",
"+.+.+.[ [ ~ K ! ! W M     o v.v.v.v.v.v.b.V.V.V.C. X X X X X X X X X X.X%X$X X X XS.V.V.V.V.N.x.      + +.+.+.+.+.+.K +.+.+.+.+.",
"+.+.! >.q.Y.E.E.E.[ L     o v.v.v.v.v.v.b.V.V.V.C. X X X X X X X X X.X%X%X%X$X X XD.V.V.V.V.N.x.      + +.+.+.+.+.+.+.+.+.+.+.+.",
"+.^ p.!.E.i.9.7.6.E J     o v.v.v.v.v.v.b.V.V.V.C. X X X X X X X X X.X%X%X%X$X X XD.V.V.V.V.V.m.      + +.+.+.+.+.+.+.+.+.+.+.+.",
",.W.d.0.$.&.&.@.2.3.B     o v.v.v.v.v.v.b.V.V.V.V.Z. X X X X X X X X XXX%X$X X X XD.V.V.V.V.V.m.      + +.+.+.+.+.+.+.+.+.+.+.+.",
"d.t.$.@.@.+.+.@.@.}.].    o v.v.v.v.v.v.v.b.b.V.V.V.Z. X X X X X X X X X X X X XD.C.V.V.V.V.V.m.      + +.+.+.+.+.+.+.+.+.+.} } ",
"+.+.+.+.+.+.+.+.+.e.R.    o v.v.v.v.v.v.v.v.v.b.V.V.V.Z. X X X X X X X X X XD.C.C.V.V.V.V.V.V.m.      + +.+.+.+.+.+.+.+.+.+.+.} ",
"+.+.+.+.#.#.#.+.+.) .     o v.v.v.v.v.v.v.v.v.v.b.V.V.V.C.C.C.C.C.C.C.C.C.C.C.V.V.V.V.V.V.V.V.N.c.c.c.z.$ +.+.+.+.+.X.+.+.+.} } ",
"+.+.+.+.+.#.#.) . . o - - g.v.v.v.v.v.v.v.v.v.v.n.%X%X#XV.V.V.V.V.V.A.%X%X#XV.V.V.V.V.V.V.V.V.N.v.v.v.x.  . $ +.+.+.+.+.+.+.+.} ",
"+.+.X.X.X.#.#./     o h.h.j.v.v.v.v.v.v.v.v.v.v.n.%X%X$XV.V.V.V.V.V.A.%X%X$XV.V.V.V.V.V.V.V.V.N.v.v.v.x.    + +.+.+.+.+.+.+.+.+.",
"+.+.+.+.X.+.#./     o h.h.j.v.v.v.v.v.v.v.v.v.v.n.%X%X$XV.V.V.V.V.V.A.%X%X$XV.V.V.V.V.V.V.V.V.N.v.v.v.x.    + +.+.{ { { { +.+.+.",
"+.+.+.+.+.+.+./     o h.h.j.v.v.v.v.v.v.v.v.v.v.n.%X%X$XV.V.V.V.V.V.A.%X%X$XV.V.V.V.V.V.V.V.N.b.v.v.v.x.    + [ W N M l D ~ +.+.",
"+.+.+.+.+.+.+./     o h.h.h.j.k.v.v.v.v.v.v.v.v.x.O O * V.V.V.V.V.V.M.O O * V.V.V.V.V.V.V.N.b.v.v.v.v.x.    + l ; ; ; ; ; a ! { ",
"+.+.+.+.+.+.+./     o h.h.h.h.h.k.v.v.v.v.v.v.v.x.    % V.V.V.V.V.V.m.    % V.V.V.V.V.V.N.b.v.v.v.v.v.x.    X ; H.H.H.H.H.; f ~ ",
"+.+.+.+.+.+.+./     o h.h.h.h.h.h.k.v.v.v.v.v.v.x.    o b.b.b.b.b.b.x.    o b.b.b.b.b.b.b.v.v.v.v.v.c.-     O H.H.OXOXH.H.H.; W ",
"+.+.+.+.} ' ' L     o h.h.h.h.h.h.h.j.j.j.j.j.j.-     o v.v.v.v.v.v.x.    o v.v.v.v.v.v.v.v.v.v.c.j.j.=     O H.OXOXOXOXH.H.; F ",
"+.+.+.+.+.{ T J     o h.h.h.h.h.h.h.h.h.h.h.h.h.=     o v.v.v.v.v.v.x.    o v.v.v.v.v.v.v.v.v.v.c.h.h.=     O OXOXOXOXOXH.H.; D ",
"+.' +.+.+.+.O.M     o h.h.h.h.h.h.h.h.h.h.h.h.h.=     o v.v.v.v.v.v.x.    o v.v.v.v.v.v.v.v.v.c.j.h.h.=     O OXOXOXOXOXH.H.; F ",
"+.+.+.+.+.~ w s P.@X+X            o h.h.h.h.h.h.h.- - - j.j.j.j.j.j.j.- - - j.j.j.j.j.j.-             @ ; G.oXOXOXOXOXOXH.; , K ",
"+.+.+.+.H M K.|.{./.4.            o h.h.h.h.h.h.h.h.h.h.h.h.h.h.h.h.h.h.h.h.h.h.h.h.h.h.=             + ; H.OXOXOXOXOXH.H.; 5 ` ",
"} +.+.H Q [.{.u.7.8. .            o h.h.h.h.h.h.h.h.h.h.h.h.h.h.h.h.h.h.h.h.h.h.h.h.h.h.=             + ; H.OXOXOXOXH.H.; : G ` ",
"` { F 2.(.p.7.$.$.7.7.<.6.8.Y.=.q F                                                     @ ` _ _ _ ` { m ; H.H.OXOXH.H.; > d ` ` ",
"-.D q.~.7.$.$.$.$.$.7.7.9.i.J.y h N                                                     + #.+.+.' +.+.! ; H.H.H.H.; ; ; 7 +.+.+.",
"] K d.*.$.$.$.$.$.7.7.7.0.U.d 8 8 /                                                     + +.+.X.' +.+.| y ; ; ; ; ; t g ^ +.+.+.",
"[ F &.#.#.$.$.$.$.$.7.0.q.y t 5 +.} ` ` ` ` ` ` ` ` ` Y K K L ) ` ` ` ` _ ` ` ` ` ` ` ` _ +.X.+.' +.+.@.! f ; ; y f P T +.+.+.+.",
"t.$.+.....+.+.@.$.$.7.W.d 3 2 +.+.+.+.+.+.+.+.+.+.+.{ ; ; n n T T +.' ' +.+.+.+.+.+.+.+.+.+.+.' +.X.+.#.$.@.I S I O.{ +.+.+.+.+.",
"7...} ..} } ..+.@.$.0.c 2 8 +.+.+.+.+.+.+.+.+.+.+.: ; H.H.; ; n n +.` ' +.+.+.+.+.' _ _ _ ' ' ' _ X.+.+.$.&.&.@.@.+.+.+.+.+.+.+.",
"} } } } } ......$.*.D 5 w +.+.+.+.+.+.+.+.+.+.+.e ; H.H.H.H.H.; f +.' ' +.+.+.+._ :.L.C v R ~ ' ' +.+.+.X.+.+.+.+.+.+.+.+.+.+.+.",
"} } } } } } } ..#.{ w D } } +.+.+.+.+.+.+.+.+.K ; H.H.OXOXH.H.; p +.} ' +.+.+.' R ~.#.#._.].z D ' +.+.+.X.+.+.+.+.+.+.+.+.+.+.+.",
"} +.+.+.+.+.} ..} ( +.+.+.+.+.+.+.+.+.+.+.+.+.D ; H.OXOXOXOXH.; a +.X.X.+.+.' ' l E.#.#.#.#.(.Z j } } ' X.+.+.+.+.+.+.+.+.+.+.+.",
"+.+.+.+.+.+.+.} +.+.+.+.+.+.+.+.+.+.+.+.+.+.+.n ; H.OXOXOXH.; k k +.X.X.+.+.` ' A I.#.#.#.#.#.R.V 6 +.' } +.+.+.+.+.+.+.+.+.+.+.",
"+.+.+.+.+.+.+.+.+.+.+.+.+.+.+.+.+.+.+.+.+.+.+.A ; H.H.OXH.H.; G G +.o.X.+.+.+.' ' < ;.#.#.#.#.#.T.Z j +.+.+.+.+.+.+.+.+.+.+.+.+.",
"+.+.+.+.+.+.+.+.+.+.+.) +.+.+.+.+.+.+.+.+.+.+.H : ; H.H.; ; : G { +.+.X.+.+.+.+._ q < ,.#.#.#.#.#.T.x P +.+.+.+.+.+.+.+.{ +.+.+.",
"+.+.+.+.` ` ) Y Y Y K Y +.+.+.+.+.+.+.+.+.+.+.~ ~ : ; ; : q G +.+.+.+.+.+.+.+.+.' ' h < W #.#.#.#.#.^.p { +.+.+.+.+.+.+.{ +.+.+.",
"+.+.+.+.[ [ ~ K ! ! ! K U +.+.+.+.+.+.+.+.+.+.+.~ n q q b +.+.+.+.+.+.+.+.+.+.+.+.+.' d < #.#.#.#.#.#.-.D +.+.+.+.+.+.+.+.+.+.+.",
"+.+.+.! ;.q.Y.E.E.E.d.s.| { +.+.+.+.+.+.+.+.+.+.+.+.+.+.+.+.+.+.+.+.+.+.+.+.+.+.+.+.+.' n < #.#.#.#.#.+.+.+.+.+.+.+.+.+.+.+.+.+.",
"+.+.+.p.!.E.i.9.7.7.$.9. .+.+.+.+.+.+.+.#.#.+.+.+.+.+.+.+.+.+.+.+.+.+.+.+.+.+.+.+.+.+.+.' ~ H #.#.#.+.+.+.+.+.+.+.+.+.+.+.+.+.+.",
"+.+.+.+.0.$.&.&.@.&.$.@.{ } +.+.+.+.+.+.+.+.+.+.+.+.+.+.+.@.+.+.+.+.+.+.+.+.+.+.+.+.+.+.+.' ' ' +.+.+.+.+.+.+.+.+.+.+.+.+.+.+.+.",
"+.+.+.+.@.@.+.+.@.@.@.{ +.+.+.+.+.+.+.+.+.+.} +.+.+.+.+.+.+.+.+.+.+.+.+.+.+.+.+.+.+.+.+.+.' } ' +.+.+.' ' +.+.+.+.+.+.+.+.+.+.+.",
"+.+.+.+.+.` ` { { } { ` +.+.+.+.+.+.+.+.+.+.+.+.+.+.+.+.+.+.+.+.+.+.+.+.+.+.+.+.+.+.+.+.+.+.+.+.+.+.+.+.+.+.+.+.+.+.+.+.+.+.+.+.",
"` ` +.+.+.T Y L [ { { +.+.+.+.+.+.+.+.+.+.+.+.+.+.+.+.+.+.+.+.+.+.+.+.+.+.+.+.+.+.+.+.+.+.+.+.+.+.+.+.+.+.+.+.+.+.+.+.+.+.+.+.+."
};
