/* XPM */
static const char *wall1[] = {
/* columns rows colors chars-per-pixel */
"64 64 256 2 ",
"   c #39081C",
".  c #091638",
"X  c #0D1C3C",
"o  c #111337",
"O  c #360325",
"+  c #301235",
"@  c #0C253A",
"#  c #122439",
"$  c #0B3432",
"%  c #21273C",
"&  c #500712",
"*  c #580416",
"=  c #70100E",
"-  c #6A031C",
";  c #77041B",
":  c #590226",
">  c #50082C",
",  c #670324",
"<  c #760423",
"1  c #720F2D",
"2  c #792B20",
"3  c #0F4A34",
"4  c #0A5736",
"5  c #2D592E",
"6  c #0B7038",
"7  c #68480E",
"8  c #0C1946",
"9  c #131A46",
"0  c #101951",
"q  c #0D2344",
"w  c #0A2949",
"e  c #132547",
"r  c #142A4C",
"t  c #0B3347",
"y  c #133248",
"u  c #0A2754",
"i  c #142755",
"p  c #0D3855",
"a  c #143558",
"s  c #262650",
"d  c #2A215D",
"f  c #142C64",
"g  c #153966",
"h  c #621E52",
"j  c #5D245A",
"k  c #671D69",
"l  c #781E79",
"z  c #672669",
"x  c #792A79",
"c  c #713175",
"v  c #104D48",
"b  c #075A47",
"n  c #2C4A4E",
"m  c #056747",
"M  c #0F6C4F",
"N  c #057945",
"B  c #1A4565",
"V  c #574873",
"C  c #724D7C",
"Z  c #8D130B",
"A  c #890A19",
"S  c #871718",
"D  c #951816",
"F  c #9A1F1B",
"G  c #9A270E",
"H  c #A93709",
"J  c #B53A0C",
"K  c #A73011",
"L  c #8D1023",
"P  c #B8450A",
"I  c #B75011",
"U  c #B2601D",
"Y  c #C65210",
"T  c #C75A15",
"R  c #CB6719",
"E  c #D16D15",
"W  c #D97519",
"Q  c #E17212",
"!  c #CE752A",
"~  c #D57826",
"^  c #812C7E",
"/  c #1D9E10",
"(  c #16951A",
")  c #31AC14",
"_  c #0E9034",
"`  c #159937",
"'  c #289C34",
"]  c #15A334",
"[  c #2EA92E",
"{  c #48B50A",
"}  c #48B515",
"|  c #56BA17",
" . c #6DA511",
".. c #529D34",
"X. c #4DAD32",
"o. c #57A739",
"O. c #6CB03C",
"+. c #58C316",
"@. c #71CC14",
"#. c #76C819",
"$. c #73D028",
"%. c #7AE635",
"&. c #0A8A47",
"*. c #35A946",
"=. c #54AB42",
"-. c #6DAE47",
";. c #76B846",
":. c #5DCA48",
">. c #77C343",
",. c #AFAA28",
"<. c #DE8A16",
"1. c #D99234",
"2. c #EF9129",
"3. c #E79839",
"4. c #CCA836",
"5. c #EEA539",
"6. c #86CB1A",
"7. c #87D61A",
"8. c #93D91A",
"9. c #8DD129",
"0. c #A4D227",
"q. c #AFE930",
"w. c #C2F13D",
"e. c #82B94D",
"r. c #8CB96E",
"t. c #DF9744",
"y. c #E89D46",
"u. c #F29E43",
"i. c #EBA347",
"p. c #F4A54F",
"a. c #EEB269",
"s. c #89C74A",
"d. c #97CD4C",
"f. c #9AD54C",
"g. c #8BC953",
"h. c #95CA54",
"j. c #9AD454",
"k. c #A3D34E",
"l. c #A6DA4E",
"z. c #ACDD4E",
"x. c #A4CF55",
"c. c #A3D552",
"v. c #A5DB52",
"b. c #ACDB52",
"n. c #AAD958",
"m. c #B0DD54",
"M. c #B1DE5A",
"N. c #ADE050",
"B. c #AFE750",
"V. c #AAE258",
"C. c #B0E055",
"Z. c #B2E45B",
"A. c #B8EA5E",
"S. c #94D06D",
"D. c #A7D569",
"F. c #AED677",
"G. c #B8E765",
"H. c #B4E573",
"J. c #C6F449",
"K. c #C3EA66",
"L. c #C4EC78",
"P. c #CDF379",
"I. c #563E88",
"U. c #7C2C80",
"Y. c #1D69A5",
"T. c #882A89",
"R. c #893489",
"E. c #8E2E91",
"W. c #952B97",
"Q. c #98379A",
"!. c #9E35A2",
"~. c #A32DA5",
"^. c #A738A9",
"/. c #AE37B1",
"(. c #B133B3",
"). c #B637B8",
"_. c #944495",
"`. c #A943AB",
"'. c #B546B8",
"]. c #B350B2",
"[. c #A777A6",
"{. c #C276BA",
"}. c #BE3AC2",
"|. c #C73AC9",
" X c #CE3BD2",
".X c #D63CD8",
"XX c #DD3CE1",
"oX c #EB3DEF",
"OX c #BE54C3",
"+X c #C646C8",
"@X c #C756CA",
"#X c #D647D9",
"$X c #D252D5",
"%X c #D562DA",
"&X c #DE52E3",
"*X c #E648EA",
"=X c #E656E9",
"-X c #EE45F2",
";X c #F348F7",
":X c #FC45FE",
">X c #FB4BFE",
",X c #EC58F2",
"<X c #F257F6",
"1X c #FC53FE",
"2X c #F55BF9",
"3X c #FB5BFE",
"4X c #E970ED",
"5X c #ED6AF2",
"6X c #F367F7",
"7X c #FB64FE",
"8X c #FB6CFE",
"9X c #F775FA",
"0X c #BC82B9",
"qX c #B5DC88",
"wX c #BEF089",
"eX c #CEF08D",
"rX c #EAFA94",
"tX c #EDCDA3",
"yX c #D8F0A5",
"uX c #E9FAAB",
"iX c #D88ED2",
"pX c #E290DB",
"aX c #E5A6C0",
"sX c #EE8BE7",
"dX c #F48DEC",
"fX c #F98CEE",
"gX c #ED99E7",
"hX c #EE93E9",
"jX c #F593EE",
"kX c #F59AED",
"lX c #F998ED",
"zX c #FE8EF4",
"xX c #FA84FD",
"cX c #F796F3",
"vX c #FE94F4",
"bX c #F69BF0",
"nX c #FE9BF5",
"mX c #F5A5ED",
"MX c #F1ADEA",
"NX c #F6A3F1",
"BX c #FEA3F5",
"VX c #FCA6F7",
"CX c #FDABF6",
"ZX c #FFAEF9",
"AX c #FDB2F6",
"SX c #F4BDF4",
"DX c #FFB3F9",
"FX c #FFBCFA",
"GX c #F5FECE",
"HX c #F3FFD3",
"JX c #FDC4F5",
"KX c #FFC4FA",
"LX c #FFCBFB",
"PX c #FED4FA",
"IX c #FFDAFC",
"UX c #FEE6FC",
/* pixels */
"N.N.N.N.N.N.N.N.N.N.N.N.N.N.N.N.N.N.N.N.N.b.b.N.b.b.N.N.N.N.N.N.].l b.N.N.N.N.N.N.N.N.b.N.N.N.N.N.N.N.N.N.N.N.N.N.N.b.N.N.N.N.N.",
"N.N.N.N.N.N.N.N.N.N.N.N.N.N.N.N.N.N.N.N.N.N.b.N.N.b.N.N.N.N.N.N.;XvX`.AXJXm.N.N.N.N.N.N.N.N.N.N.N.N.N.N.N.N.N.N.N.N.N.N.N.N.N.N.",
"N.N.N.N.N.N.N.N.N.N.N.N.N.N.N.N.N.N.N.N.N.f.f.c.v.v.N.N.JXR.R.t ;XvX@XAXgX^ 9Xm.N.N.b.N.N.N.N.N.N.N.N.N.z.b.v.v.N.N.N.N.N.N.N.N.",
"N.N.N.N.N.N.N.N.N.N.N.N.N.N.N.V.s.s.h.D.qXeXyXF.s.d.f.N.# -XvXjX:XzXIXBXBXCXiXb.N.N.N.N.N.N.N.N.N.N.z.z.g.s.;.;.e.h.c.c.N.N.N.N.",
"N.N.N.N.N.N.N.N.N.N.N.N.N.A.j.O.;.eXHXHXHXT.cXE.qX^ =Xs *XvX1XDXKX1XIX9XDXBXAXt l.UX=Xb.@ gXkXm.z.z.z.o.o.-.g.D.F.F.h.j.l.N.N.N.",
"N.N.N.N.N.N.N.N.N.N.N.C.V.s.e.qX7XuXyXeXL.@ 2XcX|.;XvX_.e kXvX3XDXVXDXDXIXDXhXCXc bXnX5XdXBXa l.z.=.o.g.eXrXuXuXrXuXuXD.j.N.N.N.",
"N.N.N.N.N.N.N.N.z.N.N.V.g.h.yXyX^.jX2X).PXSXe 2XvXW.r }. X>XvXBX1X1X1X7X7XnXLX3XW.2X8XvXvXQ.mXb.X.@XmXrXrXrXP.K.K.K.rXyXh.N.N.N.",
"N.N.N.N.N.N.N.z.N.N.v.s.F.yXL.G.w jXvXvXe +XjXa <X2X8 ;X7XzX1X7XDXLX:XIXDXsXvXBXBXr 2X8X XcX7Xy SXCX,XP.G.A.Z.A.G.K.eXF.;.l.N.N.",
"N.N.N.N.N.N.z.N.N.N.s.H.eXc mXT.;X-XzXr oXnXnXbXT.vXCX0 ;X1X>XIXUX1XIXVXUXLXnX>X8X8 bX1XoXnXZXgXa 6XDXx M.Z.Z.Z.G.P.H.o.;.l.N.N.",
"N.N.N.N.N.N.z.C.N.x.d.y ;X/. XcXvX7X# *XvXvXvXBXCXAXnXcX0 t bXnX#XnXLX8X*XAXFX#X0 hX3XBXCXCXvXnXjXW.).kXBX^.n.Z.G.G.o.o.>.v.N.N.",
"N.N.N.N.N.N.C.C.C.c.q hXvXvX8XvXvXX ,XnXnXDX>XBXDX:XDXDXNX#X=X~.;XnXBXnXnX'.8Xi hXLXUX:XDX:XIXIXDXbXE.hXnXkXq V.Z.o.X.o.f.z.N.N.",
"N.N.N.N.N.N.N.j.s.K.M.X w bXvX1X1X9XnXvXnXZXDX3X1XZXDXvXCXnX9 .XBX;X1X3XBX{.o 5XvX3XDXDX:XZXDXvXBXnXbXBXr u c.G.o.X.=.>.v.l.N.N.",
"N.N.N.N.N.N.v.s.n.G.m.v.<X7X XvX].`.3XvX3X>X:XZXDX7XnXvXvX>XjX#X^.*X8Xy @XxXt bXvXvX3X1XLX>X:X:XvXnX).7XbXn.j...o.o.>.v.N.N.N.N.",
"N.N.N.N.N.b.j.h.G.b.b.b.X Q.bXNXr 6XvX:XzXDXDX*X:XZXDXnXnXnX#Xe jX8XiXkXnX/.9X3X;XnXDXDX*XxXDXUX:XzXvXT.q l...=.o.>.N.N.N.N.N.N.",
"N.N.N.N.N.b.c.n./.lXR.n.b.2X;X=X'.8X(.zXnXDX>XnXPX;XUXCXBX<X).dX1XBXBXBXnXAX'.T.vXKXDX3XDX1XvXIXCX X8X# k.N.# kXh.N.N.N.N.N.N.N.",
"N.N.N.N.N.b.c.n.z bXbXe q w q q T.9 mX7X|.+X1XnXCX3X^.vX=X/.2XvXLX:XIXLXIXLXCX8Xr ;X).1XBX3X:XnX1X9Xr ).R.@ hXFXx b.N.N.N.N.N.N.",
"N.N.N.N.N.N.v.$ kXXXnXQ.jX#XdXbXvXQ.w p jX3XCX7X1XzX,X^.^.;XzXnXCXDX8XLXKXCXLXnX9Xi 9XnX:XBX~.cXi 6XbXnX3XmXE.jXNXp v.N.N.N.N.N.",
"N.N.N.N.z lXlXjX3XBX9 <XnXnXBXBXvXBXcX8 |.#XBX3X/.r 2X9 kXvXnX3XnXnXpXCXDXnXvXKXBXNXf p p ~.NXa 5XzXCXnXCXFXNXR.bXCXAX/.b.N.N.N.",
"N.N.N.N.@ <X3X3XgXR.dXvX:XvXDX:XIXKXBXkXXXe 9X8XnXjXzX+X9 2X#XzXKXDXvXFXUXFXdX>XBX0 gXmXNXCXnXkXW.nX7XCXKX8X<X<X9XnXBX@ l.N.N.N.",
"N.N.N.N.l.m.i 6XQ.`.nXDXDX:XKXDXDXDXPXBXe ,X3XzXIXBXvX7XQ.|.nXvXCX:XnXAXFXKXDXNX^.9XvXvXIXBX7XDXAX_.cX:XvXnXBX8XnXe w s.f.N.N.N.",
"N.N.N.N.b.N.l.y Q.jXnX1XDXDX:X7X>X:XvXr ,XvXFX:XDXBX:XLXCX.X}.nX3XoXnXFX:XZXdX3Xi bXDX>XFX8XDXCXBX@XQ.NX>XnXnXQ.E.g.h.j.N.N.N.N.",
"N.N.N.N.j j '.. dXzXBXvXBXLX-XKXDXFX9 sXvX:XDXDX>X1XZXDX:XvXvX X(.nX3XnXpXDX8X0 hXvXnXDXlXFXIXAXnXAXAXU.nX).#XQ.6XnXx <Xb.N.N.N.",
"N.N.N.@ ,XfX'.<X3X+X=XvXDX:XCXCX1XnXjXQ.3XnX:X:X:XxX:X:XzXnXa w +XBX>X:XnX~.u 5XnX:XBXDX3XIXUXFX3X8XBXp <X1X7X=XnXnXBXBX@ l.N.N.",
"Q.lXlXjX3X`.4XQ.9 f <XvX-X>XnXnX2X7XxX9 6X7XZXDX>X1XZXDX:X:XcX].0 q 6X Xi w SX-X&XBXCX>XBXBX-XBXBX*XQ.6XBXBXvXBXE.nXnXpXNXMXaXc ",
"w  X1X1X8X*Xa gX8 ,XzXvXi bXnX#XvXXXR.dXvXvXLX#XLXBX:XKXnX3X#XR.dX8 0 u t w '.a dXnX+X7XnX:XzXvXvXBXe NXIX:XUXnXCX3XBXCX1XcX|.z ",
"v.b.@ 6X^.+XdX8X'.|.+Xi gX;XvX3X|.9 . 2X:X:Xg <XvXBX3Xa 2XzXa ).zXcXdXdXjXk 8 mX1XB #XnX8XnX^.>X+Xf gXBX;Xx.CXKX>X1Xa 2XvX# x.b.",
"N.j.H.X 6XnX#X=X5XiXe /.vXf dX,X9 gXjXa 8 p sXNX<X1XzXjXi r ,XvXvXKXnXnXvXT.. 8 8 5XvX|.nXkXAXr t !.BXBX8X8XLX1XZXZXcX^.# k.N.N.",
"D.eXe W.'.mXvXnX6X8X_.}.9 w Q.0 hXvXvX6X*X;XvXi 2XVXB jXr -XvX3X>XDX7XDXKXBXkX<X#XOXBXf 9Xg i u hXnXa ;XnXBX8XnX>X-Xr MX<Xc b.N.",
"P.K.MXbX#X8X1X>XnXQ.9X7X<Xt 6XjX:XDXnX:XCXi X u <X8X0 9 ,XBXBXDX>XDXFXDXDXnXvXU.6XpXi ^.9 u 4XNXCXnXNXi bXBX,XBXW.gXNX3XBXNXx b.",
"b.R.BX(.nX#X-XZXIX*X8XnX9 mXvXnXUX3X:XZXBXdXdX;X9 8 w oXnXvX1X3XZX>XVX:XnXBXnXbXi jXdXAX}.PXDX1XvXDX>XbXa 2X+X1X/.8XbXnX:XvXmXx ",
"@ hXnXnXi #XvXFX/.vXf 2X2X>XnXDXFX-XFXKXUXnXnXvX;X).w cXnX1X:XFXIX*XDXDX1X7X8Xq hX>XzXDXBXAXDXBX3XzXBX).).a '.i 6XCXbX(.vXnXkXz ",
"l.# E.E. XvX=XQ.bXnX0X0  XzX7X:XDX3X1XDX>XvX-XvXvXe 8 '.`.oXnXDX>XPX3XDXDX(.#X!.^.>XvXPX3X:XKXDXCX:XvXBX# hX3XNX|.:XnXnXW.~.X k.",
"b.l.b.b.7X+Xe kX+X1X^.dXzX7X#XZXIXDXnXDXDX>XzX).vXkX9Xa *XzXnX8X;XDXKX|.CXnXT.mX8XvXvX;XvXZX}.CXvXnX|.:X8 kX3XxXCX|.:XvX@ c.l.N.",
"N.N.N.@ ~.8 gXr '.7X^.>X Xr jXDX|.AXnX.XUXnX3X7X).@X9 ).nXvX1X(.3XVXDX+X5XBX|.^.1X3Xa }.vXCX:XQ.;X:X8XB ,XnX9Xa NXBXW.|.W.b.N.N.",
"N.N.$ gXW.Q.8XbX+Xy &Xe . gXnX/.).3XzXoX~.zXBX~.o w `.0 *X-Xi ;XnX:X:XvXW./.CX/.0 u gXnX|.:XvX|.nXr 9 =X3XBX/.mX^.BXbXT.kXj b.N.",
"N.b.@ ~.X q 9 +Xg pX!.c kXvX|.a 6XnXvX>XQ.1X3X3XT.t . sXvXi gX7XoX9X~.6XCXW.CX+ . 5XnXg ,X3X).bX+XE.$X'.#XnXnXW.9X).p q ~.~.b.N.",
"N.N.l.b.l.l.l.X &XvXX !.3X).0 }.1XnXzX>Xy 8 0 oXzX8 . ;Xg (.cX#X/.nX$X'.nXk 2Xx ,X7Xi /.8XnX~.7Xi T.CX#X3X,XBXbXa 8 k.l.b.b.N.N.",
"N.N.N.N.N.SX# +X9 e w $Xx o #XzXi ;XpXe gXdX0 8 ;X8 V > . <Xg W.(.CX_.k ^.l > O ~.p ^.OXBXCXi 8 gXpXr ,XnX=Xi 6Xq ,Xz b.N.N.b.b.",
"N.z.z.N.p 9XbX%Xc z ^.x c q -X#X^.X X gXa jX2Xo o O ^., . . . <X|.x <XQ.o 8 > < O . <X`. Xi R.).%XBX8 8 <Xe t q E.2XNXz b.N.N.N.",
"N.N.N.N.v.r X a z jX#X. '.8 . . /.jX$X1XbX0 +X> S : : : F * o 2XE.. XXC S - F F S < 0 <X9 !.+XbX9 #X8 U.x @ -XjXR.q X 4Xb.N.N.N.",
"N.N.N.z.N.l.l.f.kX3XX s.# [.T.q . NXnX9 t c O < - L - ; , ; - 9 8 1 % 2 K K I T Y S O 9 E.bXr NXq X @X@Xq k.X <XvXn.l.b.N.N.N.N.",
"N.N.N.N.N.N.N.c.x X s.^.z x # %X8 @ t . U.$Xk o > K A F , F < - S 2 I Y H K 2.Q , O . x X R.^.9 +Xx Q.e k b.l.X T.b.N.N.N.N.N.N.",
"N.N.N.N.N.N.j.D.F.H.eXE.dX^.z `.w '.@ x 9Xr &XX k.  S D , P S - J Z 2.T J 2.Z & x.l.'.+X. x _.R.9XiXT.oXvXQ.b.l.b.N.N.N.N.N.N.N.",
"N.N.N.N.N.j.L.eXeXL.w 2Xr w cXk $Xw j $Xc q Q.c.N.l.O O , H D ; T H 5.! W G * O.b.b.c # @Xx z 9Xx z x.r +XBXq l.N.N.N.N.N.N.N.N.",
"N.N.N.N.D.eXP.G.Z.Z.n.M.F.F.x jXa E.6Xq 6X%Xn.N.N.N.l.d , H J A W E Q I I E * r.o.N.l._.OXU.6Xe =XcX_.c.b.m.l.N.N.N.N.N.N.N.N.N.",
"N.N.N.N.P.K.C.V.V.z.z.N.N.].dXW.c.E.pXn.p xXm.N.N.N.N.+ 1 , G T Z 5.2.T ~ I * eXr.;.N.V C c 9Xn.@ 6X|.b.N.N.N.N.N.N.N.N.N.N.N.N.",
"N.N.z.N.N.N.N.N.N.N.N.N.N._.x yXN.y x b.v.m.N.N.N.C.C.d h A A D K 3.2.R 2.H tXC.eX-.g.b.b.B c b.l.q E.b.N.N.N.N.N.N.N.N.N.N.N.N.",
"N.N.z.N.N.N.N.N.C.C.C.N.N.b.eXF.;.h.b.N.N.N.N.N.N.N.m.Y.> G R D K E W ~ R P a.C.N.eX-.v.N.v.b.N.z.l.b.N.N.N.N.N.N.N.f.f.c.v.v.N.",
"N.b.b.N.N.N.N.N.N.C.C.N.N.N.N.N.N.N.N.N.N.N.N.N.N.N.N.Y.: = W D P 2.H 2.R u.a.m.N.N.S.s.N.N.N.z.N.N.N.N.V.s.s.h.D.qXeXyXF.s.d.f.",
"N.z.b.N.N.N.N.N.N.C.C.C.N.N.N.N.N.N.N.N.z.N.N.N.N.N.N.Y., , Y T Z 2.G p.~ u.G b.N.N.z.N.N.N.N.N.N.N.A.j.O.;.eXHXHXHXHXGXGXqX;.d.",
"N.N.z.z.z.z.z.N.N.N.C.m.C.N.N.N.N.N.N.N.z.N.N.N.N.N.N.s h , F E ; 2.Y ~ R 5.Z b.C.N.N.N.N.N.N.N.C.V.s.e.qXuXuXyXeXL.L.L.rXuXe.d.",
"N.N.z.z.z.z.z.z.z.N.z.b.N.N.N.N.N.N.N.N.N.N.n b.n b.N.+ > , A W A E ~ I T P Z l.N.N.6 v.z.z.N.N.V.g.h.yXyXL.G.G.G.G.G.G.L.yX;.b.",
"b.N.z.z.z.z.z.z.z.z.z.b.N.N.N.n b.N.n 3 l.N.v $ v b.+ V , - D P I Z 3.! R W = m $ ] 4 l.z.3 3 f.s.F.yXL.G.Z.Z.G.G.G.G.G.eXS.O.N.",
"N.N.z.z.z.z.z.z.z.z.z.l.n l.v q.v $ A.' 3 3 m &.m M Y.> , A < P R Z 2.! R R 2.* m &.J.3 3 _ q.3 S.4 G.4 M.Z.Z.Z.G.G.G.L.qX=.N.N.",
"N.N.N.N.z.z.z.z.z.z.z.3 A.3 9.4 t *.b b ' 6 N N N   I.: , F L Y E Z 2.W E G 2.= & N M ' ` 6 6 N b %.3 $.N.4 M.G.G.G.G.wX-.o.N.N.",
"N.N.N.N.N.N.N.N.N.4 4 9.v +.6 m [ m X.] _ ` &.& * 1 : : L A T T < K 2.G T G H T 5.* ] ] ] ] ] ` _ N 9.b b q.4 6 G.G.H.=.=.N.N.N.",
"N.N.N.N.l.l.k.f.#.4 q.6 _ _ ` [ ' ' ] &.: ; ; K S 1 : > A <.P T < Z 2.G I I S D Q Q D K P - ' [ } ) ` 8.6 N q.6 <.L.-.X.N.N.N.N.",
"N.N.N.N.c.c.j.b b N ( } N | 0.$.[ [ ] & , A < , : : : : F Q J J - - 3.D I p.* - S Y F A A ; 2 } $.6.6.) 7.@.) +./ ;...N.N.N.N.N.",
"N.N.N.j.S.H.eX1.U 6.+.6.| b q.v 7.6.) ` _ &.N &.&.&.; <.<.J , < - - D S 6 5 1.6 5 1 - - ' |  .0.v 9.9.9.+.@.6.0.U o.N.N.N.N.N.N.",
"N.N.N.L.eXeXL.G./ @.6.6.8.b b w.} } 7.@.| | | ] M < W P ; * &.6 0.6 3 , O.7 ! 3 B.4 #.#.#.#.6.7.6.+.} 9.9.9.#. .O.N.N.N.N.N.N.N.",
"N.N.N.N.G.Z.Z.Z.v.V./ ) ) 7.#.#.4.4.) 4.y.t.| #.` - ; - ` _ b | q._ [ X.( `   l.3 :.#.#.3.y.3.} 0.4.4.3.{ } l.z.N.N.N.N.N.N.N.N.",
"N.N.N.N.V.V.N.N.N.N.V.l.z.U 3.3.i.y.i.y.y.y.{ 0.$.6.#.@.| +.9.] 8.( 9.) ( %.9.( #.7.@.3.3.y.i.i.5.3.~ ! z.z.N.N.N.N.N.N.N.N.N.N.",
"N.N.N.N.N.l.l.v.v.b.v.l.N.z.z.z. .a.y.! y.3.i.1.3.3.i.i.6.6.8.7.8.@.@.@.@.7.@.,.1.i.u.3.3.1.~  .z.z.z.z.N.N.N.N.N.N.N.N.N.N.N.N.",
"l.l.N.N.N.f.f.f.c.v.v.z.N.N.N.N.z.C.b.z.z.z.b.z.m.z.b.! p.a.E E ~ ~ ~ ~ ~ ! z.N.z.a.z.z.z.z.z.z.b.b.N.N.N.N.N.N.N.N.N.N.N.N.N.N."
};
