/* XPM */
static const char *wall2[] = {
/* columns rows colors chars-per-pixel */
"64 64 208 2 ",
"   c #16271F",
".  c #18281F",
"X  c #242B1F",
"o  c #2A2D1E",
"O  c #322E1E",
"+  c #2F311F",
"@  c #36331F",
"#  c #3A321E",
"$  c #3B3A1F",
"%  c #092420",
"&  c #0B2B23",
"*  c #102620",
"=  c #122C22",
"-  c #1A2920",
";  c #093326",
":  c #0A3827",
">  c #0D3428",
",  c #083E2A",
"<  c #143224",
"1  c #1A3423",
"2  c #163926",
"3  c #1B3A25",
"4  c #123428",
"5  c #133A29",
"6  c #183E2B",
"7  c #222D20",
"8  c #2A2F20",
"9  c #223323",
"0  c #2C3622",
"q  c #213B26",
"w  c #353A22",
"e  c #46391D",
"r  c #483A1E",
"t  c #0A422B",
"y  c #0A482E",
"u  c #11442B",
"i  c #1C442A",
"p  c #13492C",
"a  c #1B4D2B",
"s  c #1B552E",
"d  c #094630",
"f  c #094D33",
"g  c #124C32",
"h  c #095236",
"j  c #125535",
"k  c #155A37",
"l  c #145A3A",
"z  c #264225",
"x  c #294728",
"c  c #2B562C",
"v  c #335A2B",
"b  c #3C5B2A",
"n  c #364D32",
"m  c #235D33",
"M  c #336331",
"N  c #366935",
"B  c #4D4121",
"V  c #504523",
"C  c #524827",
"Z  c #564B28",
"A  c #584F29",
"S  c #435828",
"D  c #47672D",
"F  c #596D2B",
"G  c #51732F",
"H  c #526F30",
"J  c #497434",
"K  c #527433",
"L  c #547C33",
"P  c #5A7B32",
"I  c #60712B",
"U  c #5A7F43",
"Y  c #5B8536",
"T  c #4F9631",
"R  c #4D9E38",
"E  c #648735",
"W  c #6B9439",
"Q  c #709538",
"!  c #729A3B",
"~  c #4AA336",
"^  c #46A93B",
"/  c #54A535",
"(  c #52A63A",
")  c #5BAA3B",
"_  c #5CB43D",
"`  c #78A43C",
"'  c #7BA43D",
"]  c #6BB53C",
"[  c #5F8D41",
"{  c #668257",
"}  c #4CA841",
"|  c #5BA743",
" . c #53B141",
".. c #6DA641",
"X. c #79AA43",
"o. c #63B345",
"O. c #77B746",
"+. c #78B945",
"@. c #77BF50",
"#. c #75B26A",
"$. c #74C243",
"%. c #7EC844",
"&. c #81AB3E",
"*. c #84AE46",
"=. c #86B746",
"-. c #8DB843",
";. c #91BC45",
":. c #80B656",
">. c #8DB675",
",. c #86C548",
"<. c #84C44B",
"1. c #8DCC4C",
"2. c #95C346",
"3. c #98C647",
"4. c #96C749",
"5. c #94CD4C",
"6. c #9CCC4A",
"7. c #8CD24E",
"8. c #93D44C",
"9. c #9BD34B",
"0. c #9DD84E",
"q. c #8BC655",
"w. c #93C750",
"e. c #94CC52",
"r. c #94C45A",
"t. c #95D152",
"y. c #9BD552",
"u. c #96D559",
"i. c #9DD15D",
"p. c #A0CF4F",
"a. c #A1D446",
"s. c #A3D54D",
"d. c #A6DA4E",
"f. c #ABDD4E",
"g. c #A3CA57",
"h. c #A3D552",
"j. c #A9D652",
"k. c #A4DB52",
"l. c #ACDE52",
"z. c #A6D85C",
"x. c #ACDB5A",
"c. c #B0DE54",
"v. c #A5E04D",
"b. c #AEE24F",
"n. c #A5E052",
"m. c #ADE050",
"M. c #ACE359",
"N. c #B0E055",
"B. c #B2E45B",
"V. c #BDE75E",
"C. c #B4E95C",
"Z. c #B9E95F",
"A. c #96C968",
"S. c #9AC976",
"D. c #A1D262",
"F. c #A9D06C",
"G. c #ABDF6A",
"H. c #B2DF68",
"J. c #AAD37A",
"K. c #B2DB75",
"L. c #B4D778",
"P. c #B7DA79",
"I. c #A9E766",
"U. c #B6E562",
"Y. c #B8E664",
"T. c #B6E962",
"R. c #BBEA64",
"E. c #B5EE6B",
"W. c #BCEA6B",
"Q. c #B3E274",
"!. c #BCE877",
"~. c #C2E661",
"^. c #C1ED62",
"/. c #C4EE6C",
"(. c #C3ED74",
"). c #C6E979",
"_. c #C3EC7A",
"`. c #D4EF73",
"'. c #CDF471",
"]. c #C4F278",
"[. c #CBF57E",
"{. c #CAF87B",
"}. c #ACDC87",
"|. c #B9DB86",
" X c #BBDE88",
".X c #BBDB94",
"XX c #BEF089",
"oX c #C7D58B",
"OX c #C5EB80",
"+X c #CBED89",
"@X c #C6F783",
"#X c #CAF382",
"$X c #CCFA88",
"%X c #D6F687",
"&X c #D0F588",
"*X c #C8E698",
"=X c #DCF897",
"-X c #DAF79D",
";X c #E6FA89",
":X c #E9F999",
">X c #F0FE92",
",X c #D6EEA3",
"<X c #DCF6AA",
"1X c #E9F9AA",
"2X c #F2FFA4",
"3X c #E8FBB9",
"4X c #F5FECE",
"5X c #F3FFD3",
/* pixels */
"m.m.m.m.m.m.m.m.b.m.m.m.m.m.m.m.m.m.m.m.m.m.m.m.m.m.m.m.m.m.m.m.m.1 d.m.m.m.m.m.m.m.m.m.m.m.m.m.m.m.m.m.m.m.m.m.m.m.m.m.m.m.m.m.",
"m.m.m.m.m.m.m.m.m.m.m.m.m.m.m.m.m.m.m.m.m.m.m.m.m.m.m.m.m.m.m.m.z % & d.m.m.m.m.m.m.m.m.m.m.m.m.m.m.m.m.m.m.m.m.m.m.m.m.m.m.m.m.",
"m.m.m.m.m.m.m.m.m.m.m.m.m.m.m.m.m.m.m.m.m.9.6.h.k.k.m.m.m.m.E x % ; % & & d.m.m.m.m.m.m.m.m.m.m.m.m.m.m.f.l.k.k.m.m.m.m.m.m.m.m.",
"m.m.m.m.m.m.m.m.m.m.m.m.m.m.m.n.1.<.e.F. X*X,XJ.<.5.0.m.m.< % % % , % % % & 3.l.m.m.m.m.m.m.m.m.m.m.f.f.1.<.+.O.=.w.h.h.m.m.m.m.",
"m.m.m.b.m.m.m.m.m.m.m.m.m.Z.y.] X.*X5X5X5X5X4X4X}.+.8.6.< n = n , : % % 1 &.f.m.m.m.m.m.m.m.m.m.f.f.f.) / ..r.D.K.L.r.y.d.m.m.m.",
"m.m.m.b.m.m.m.m.m.m.m.N.M.1.=. X3X1X-X+X_.(.).=X3X:.` = % % , : : & f , % s.m.m.m.m.m.m.m.m.f.f.f.} ( q.OX:X2X2X:X2X1XF.y.m.m.m.",
"m.m.m.m.m.m.m.m.f.m.m.M.1.r.<X1X).Y.T.T.Y.Y.R._.<XJ = f , h h h h h h % % & & d.m.m.m.m.m.m.f.f.^ ~ H.;X>X;X`.~.~.~.:X,Xe.m.m.m.",
"m.m.m.m.m.m.m.f.m.m.k.<.K.-X_.U.B.B.U.U.Y.W.W.&X= % & h t h y h h t t % % % % D f.m.m.m.m.f.f.~ ) Q.;X`.R.Z.B.Z.T.^.%XJ.O.d.m.m.",
"m.m.m.m.m.m.f.m.m.m.<.Q.%XY.B.B.B.B.B.U.Y.R.(.l f f h h h f h h y & & % % % ;.P b f.m.m.m.f.( ] %X'.N.N.B.B.B.B.R.'.!.) O.d.m.m.",
"m.m.m.m.m.m.f.N.m.g.5.[.V.N.N.N.N.B.U.Y.U.W.XXh h h t , h d h , & % % % % % b % % j.m.m.k.] <./.V.m.m.m.m.m.M.B.R.E.) ) $.k.m.m.",
"m.m.m.m.m.m.N.N.N.h.<.B.N.N.N.N.N.B.B.U.W.Q.| s ` t % % d & % % % % % % % % % % z d.m.m.a.k./.B.l.l.l.l.m.m.M.C.I./ ~ _ 8.f.m.m.",
"m.m.m.m.m.m.m.t.1./.B.m.N.N.m.m.M.N.N.Y.@Xo.^ s.p , , % % % % % 9 , % % % % % % s.s.l.f.f.B.l.l.l.l.l.m.m.M.M.I./ ~  .$.k.d.m.m.",
"m.m.m.m.m.m.k.1.z.Y.c.l.c.l.m.l.m.N.B.W.@.~ m.p , , , , % % % q O o % , , , & ; t y d.m.l.m.m.m.m.m.m.l.m.M.u.T / _ $.k.f.m.m.m.",
"m.m.m.m.m.l.y.e.Y.l.l.l.l.l.l.l.c.N.B.<.( m.s.d.D : , , , , h % O 8 , % % , , , : , d.m.m.m.m.m.m.m.m.m.m.m.R  ._ %.m.m.m.m.m.m.",
"m.m.m.m.m.l.h.x.c.l.l.l.c.l.l.l.l.N.k.] m.m.N y h h f f f h , , , , % % & ; , & % % , & &.f.m.m.m.m.m.m.m.m.m.$.7.m.m.m.m.m.m.m.",
"m.m.m.m.m.l.h.x.l.l.m.m.m.m.m.l.c.l.m.m.l.W W h h f h t h y ; , 2 , & ; ; , , , , , , ; & d.m.m.m.m.m.m.m.m.m.d.m.m.m.m.m.m.m.m.",
"m.m.m.m.m.m.k.l.l.m.m.m.m.m.m.m.m.m.2.l.m.Q W p t y d : 1 , , : O q % % ; ; ; , ; ; ; % K ;.l.m.m.m.m.m.m.m.m.m.m.m.m.m.m.m.m.m.",
"m.m.m.m.m.m.m.m.m.m.m.m.m.m.m.m.2.6.p h y y h h y L t , t , , , 2 f % % % % % % % % % % % G f.2.l.m.m.m.m.m.m.m.m.m.m.m.m.m.m.m.",
"m.m.m.m.m.m.b.m.m.m.m.m.m.m.m.m.l.k f h h h h h t t y h h h & , h 8 % % % % % % % % , % ; % t a d.m.m.m.m.m.f.d.d.d.d.d.m.m.m.m.",
"m.m.m.m.m.m.b.b.m.m.m.m.m.m.m.m.m.N Y N h h h t f Y h h h h h h h o % % % % % % % , , , , , , a d.m.m.m.m.d.d.s.9.9.9.5.9.m.m.m.",
"m.m.m.m.m.b.b.b.m.m.m.m.m.m.m.m.p u t u t t t , & & % , % h % 7 - O % % : % % % 1 2.d.d.` s.s.d.m.m.m.m.m.h.h.y.5.t.y.t.m.m.m.m.",
"m.m.m.m.m.m.m.b.m.m.m.m.m.m.m.m.&.c t , , , & x = & : & % % t % % O O % & , , , M d.m.m.f.m.m.m.m.m.m.m.y.D.Q.OX#X#X#X[.m.m.m.m.",
"m.m.m.m.f.d.d.d.d.m.m.m.m.m.m.m.f.0.9.9.d.d.& ; , , , % % f & & ; , , % % % % i K u y L f.m.m.m.m.m.m.i._.&X#X(.R.Y.U.B.m.m.m.m.",
"f.m.m.d.d.s.9.9.9.5.9.m.f.m.m.d.S..X>.#.[ = ; f y t t ; f h t : , , , , , & & % < 5.y v v d.m.m.l.h.G.$X[.W.B.B.B.M.B.B.m.m.m.m.",
"m.m.m.h.h.y.5.t.u.t.1.8.m.m.f.q.%XN.l.< & f & h h h h h h h , % , , , , , , , , , y , s.d.m.m.m.d.W.{.W.M.M.M.m.m.m.m.M.m.m.m.m.",
"m.m.y.D.Q.OX#X#X#Xk.k.z.m.m.f.+.x = > ; , , h h h h h h h t * % & , , , , , , , , , , y y d.m.f.Z.].R.m.v.d.k.d.k.k.l.k.m.m.m.m.",
"m.i._.&X#X(.R.Y.U.w.h.h.m.m.f.< : f d , t , h h h h h h h & % % & , , , , , , , , , % & : t k.B.R.R.m.d.0.8.0.9.6.h.k.m.m.m.m.m.",
"G.$X[.W.B.B.B.M.K.L.r.y.m.m.m.h f h h h h h h y t h f t h h & % , t h t , , , , , , , , , t l.Z.T.m.m.m.m.m.m.m.m.m.m.m.m.m.m.m.",
"{./.N.M.M.m.m.m.m.2X1XF.m.l.m.d.h j N m ! ! y , , t , & h h 9 8 5 & h t , ; f > > 0 , > Y k.C.Z.m.m.m.m.m.m.m.m.m.m.m.m.m.m.m.m.",
"m.m.m.m.m.m.m.m.m.~.:X,Xm.l.l.m.d.o.R w.l.W ; % % % % & , ; % O 2 1 i h : f h , f h h 0 d.-.f.m.W W f.m.m.m.m.m.m.m.m.m.m.m.m.m.",
"m.m.m.m.N.N.N.m.m.b.%XJ.O.y.m.m.m.f.o.T p % % % % % % % o & X O X : , f h f h h h h h h W j h h h h d.m.m.m.m.m.m.m.m.m.m.m.m.m.",
"m.m.m.m.m.N.N.m.m.m.m.m.m.m.m.m.m.m.Y & % % r * % % % % , , % % % % , , t t t t f h h h h h h h h 4.l.m.m.m.m.m.m.m.m.m.m.m.m.m.",
"m.m.m.m.m.N.N.N.m.m.m.m.m.m.m.m.m.< % % * O j.3 % & , , , % % % . O O e % % % % w h h h h h h h h d.m.m.m.m.m.m.m.m.m.m.m.m.m.m.",
"m.m.m.m.m.m.N.N.N.m.m.m.m.m.m.3 = % X S 6.s.k f h h h > % : % X O O e * % % % % , t t t f f y t 6.l.m.m.m.m.m.m.m.m.m.m.m.m.m.m.",
"m.m.m.m.m.m.m.m.m.m.m.m.&.= x % % @ g m M j h h y h f h : , 7 O 1 , - : , , & % & % > % , > : % & d.m.m.m.m.m.m.m.m.m.m.m.m.m.m.",
"m.m.m.m.m.m.m.m.m.m.m.m.f.d.d.: , b t y f y t h h f y t , , , & , , , , , , & % % % % % % % % D s.m.m.m.m.m.m.m.m.m.m.m.m.m.m.m.",
"m.m.m.m.m.m.m.m.m.m.m.m.s.a t , , t , , , , h h y t , , , , , 3 , , , ; ; & % % % % % % % % % % & Q f.m.m.m.m.m.m.m.m.m.m.m.m.m.",
"m.m.m.m.m.m.m.m.m.m.m.m.l.t t h h t d h h h f t , , , , , , , , 2 % % $ & % % % % % % % % % % % % % & W H f.m.m.m.m.m.m.m.m.m.m.",
"m.m.m.m.m.m.m.m.m.m.m.l ! y h h h h h h h h t , , , , , , , & # O % % , , h % % % % 6.3 % % % % % = % % H f.m.m.m.m.m.m.m.m.m.m.",
"m.m.m.m.m.m.m.m.f.d.d.y t s.d.d.3 : h % % , , , , , , , , , , # X , % % , t h % % % & % s.d.` a s.d.;.t s.m.m.m.m.m.m.m.m.m.m.m.",
"m.m.m.f.f.m.m.d.d.s.9.4.2.5.9.z % % > > , > % % % % % & , , , 9 X & , , , , t h h f h ; > u j t y a t W f.m.m.m.m.m.m.m.m.m.m.m.",
"m.m.m.m.m.m.m.h.h.y.5.t.u.t.= & > > > & > & % % % % ; , , f , , , 2 , , , , , > h h h h h h h f , f h *.f.m.m.m.m.m.m.m.m.m.m.m.",
"m.m.m.m.m.m.y.D.Q.OX#X#X#X6 > > & & & & > % % %   9 ; , h h t , , , , , , , , , t t t f h h h h h h y d.m.m.m.m.m.m.m.m.m.m.m.m.",
"m.m.m.m.m.i._.&X#X(.R.Y.*.& & h % ; t , f % . 9   & t h h t , , , , , % % , , , ; > % : , t , h t f Q f.m.m.m.m.m.m.m.m.m.m.m.m.",
"m.m.m.m.G.$X[.W.B.B.B.M.K.h t h h h h h 5 $ h h h h h h t , , , , , , % % , , , & : % =.d.d.` c p s.f.m.m.m.m.m.m.m.m.m.m.m.m.m.",
"m.m.m.m.{./.N.M.M.m.m.m.m.oXl h f h , p e h h h h h h h t , , , , , , , % % % % % % % & & P d.d.d.m.m.m.m.m.m.m.m.m.m.m.m.m.m.m.",
"m.m.f.m.m.m.m.m.m.m.m.m.` g.= % % % e @ & h h h h % % % , , , , , t h t , , & & % , , , , ; & u < = = & d.m.q d.m.m.m.m.m.m.m.m.",
"m.m.f.m.m.m.m.m.N.N.N.K a t , , , , , h h h h ; ; , % ; , , , : , , h h t , , , : , , , , t : , % % % % 1 = z d.m.m.9.6.h.k.k.m.",
"m.l.l.m.m.m.m.m.m.N.J s f h f f f h h h h h h y ; ; > > > , ; > , , y h h : ; , ; ; A.<.` ! 9 + % E s.= W 1 % w.F. X*X,XJ.<.5.0.",
"m.f.l.m.m.m.m.m.W l h h h h h h h h ; f , t & , : > > > : : 8 4 2 , , f h h ; : , : E W W W W F F I x.e.] X..X5X5X5X5X4X4X}.+.8.",
"m.m.f.f.f.f.f.m.j , , t , > f z z % % % > > ; : ; ; & % % % O 2 , , , , t f h h t t t t t t v s.-.u a Y |.3X1X-X+X_.(.).=X3X:.5.",
"m.m.f.f.f.f.f.f.d.x ` d.d.d.d.d.s.b > > ; % > % % % , % % , : , , , , , , t t h h h h t , , t y t , t t { ).Y.T.T.Y.Y.R._.<XO.m.",
"l.m.f.f.f.f.f.f.f.d.f.m.m.m.d.6 5 , , & : , , & , , , , , , , , , , , , , , , t & h h h h h f , , , , , K M.B.U.U.Y.W.W.&XS.] m.",
"m.m.f.f.f.f.f.f.f.f.f.d.m.3.6 > : , , , , , , & & % f t > % % & : , , , , , , , , , & & h h h h h P.z.x.x.B.B.B.U.Y.R.(.}.| m.m.",
"m.m.m.m.f.f.f.f.f.f.f.m.c 5 & % , t , f t , f d f f h t & O O o > < > > , , , , , , , , t t ; = !.V.N.N.N.N.B.U.Y.U.W.XXo.) m.m.",
"m.m.m.m.m.m.m.m.m.m.m.G 4 > % : h h h h f h h h y y t , > # O O @ 0 > > > : , , , , , , , , & % & & H H H E M.B.U.W.Q.| } m.m.m.",
"m.m.m.m.d.d.s.9.9.9.x 4 ; & ; h h h h h h h h f t , , : > e # # e e e > > > > > : : : > % % % % % % % % % v l.N.Y.@Xo.^ m.m.m.m.",
"m.m.m.m.h.h.y.5.t.y.e.5 h h h h h h h h f > > > ; > > > % e e e e e e e > > > > > > > ; <.= % % % % 1 % = s.N.B.W.@.~ m.m.m.m.m.",
"m.m.m.y.D.Q.OX#X#X#X[.U h h h h h h h % % % > % % % % % % C r B e e e e 4 > > > > > > % & x.j.= p.= s.j.j.c.N.B.<.( m.l.m.m.m.m.",
"m.m.m._.&X#X(.R.Y.U.B.U.z.d.s.h s.d.d.d.d.j.= s.S % % % C Z Z B e e e e * % & > > > > > > 4 j.j.l.j.l.l.l.l.N.k.] m.l.m.m.m.m.m.",
"m.m.m.m.W.B.B.B.M.B.B.M.k.m.m.d.m.m.m.m.m.m.d.6.s.& 3.-.A Z Z Z V e e e e z & > > > > > > & & d.m.m.m.m.l.c.l.m.m.m.m.m.m.m.m.m.",
"m.m.m.m.M.M.m.m.m.m.M.k.m.m.m.m.m.m.m.m.m.m.l.l.m.d.l.B Z Z Z Z Z e # e e s.&.` ` ! ! ! ` X.&.f.m.m.m.m.m.m.m.m.m.m.m.m.m.m.m.m.",
"m.m.m.m.m.d.d.k.k.l.k.d.m.m.m.m.m.m.m.m.m.m.m.m.m.m.2.A Z Z Z Z Z e O # e 6.f.f.f.f.f.l.l.f.f.m.m.m.m.m.m.m.m.m.m.m.m.m.m.m.m.m.",
"d.d.m.m.m.0.9.6.h.k.k.m.m.m.m.m.m.m.m.m.m.m.m.m.m.m.V Z Z Z r Z Z O O O e ;.l.m.m.m.m.m.f.m.m.m.m.m.m.m.m.m.m.m.m.m.m.m.m.m.m.m."
};
