/* XPM */
static const char *wall3[] = {
/* columns rows colors chars-per-pixel */
"64 64 238 2 ",
"   c #6D5F3E",
".  c #554D47",
"X  c #58534B",
"o  c #5A5A4D",
"O  c #554F53",
"+  c #585452",
"@  c #635748",
"#  c #67544C",
"$  c #645B52",
"%  c #675C56",
"&  c #5D6154",
"*  c #64644C",
"=  c #74684C",
"-  c #666156",
";  c #786757",
":  c #786862",
">  c #7E7462",
",  c #906C37",
"<  c #9D6D33",
"1  c #9D733A",
"2  c #A56E2A",
"3  c #B1762A",
"4  c #A26E32",
"5  c #A37234",
"6  c #AA7333",
"7  c #A97938",
"8  c #B57A38",
"9  c #8E6C4F",
"0  c #926C44",
"q  c #89784A",
"w  c #947443",
"e  c #99744A",
"r  c #9C7C4B",
"t  c #886A54",
"y  c #846B5C",
"u  c #8B6D5A",
"i  c #8B7457",
"p  c #947B54",
"a  c #9C7C55",
"s  c #977758",
"d  c #A77B44",
"f  c #A37C4E",
"g  c #827260",
"h  c #857166",
"j  c #8A7865",
"k  c #529D34",
"l  c #49A537",
"z  c #57A739",
"x  c #5CB43D",
"c  c #6BB53C",
"v  c #54A842",
"b  c #53B141",
"n  c #6EB048",
"m  c #76B745",
"M  c #76C343",
"N  c #B98139",
"B  c #BD833E",
"V  c #D2852A",
"C  c #CC8633",
"Z  c #C98637",
"A  c #C3843C",
"S  c #CC8A3D",
"D  c #D48C34",
"F  c #D38E3C",
"G  c #CA9D39",
"H  c #D89239",
"J  c #CEA036",
"K  c #CCA13C",
"L  c #D6A73B",
"P  c #D2A53C",
"I  c #9B8249",
"U  c #8C825E",
"Y  c #988459",
"T  c #A88549",
"R  c #BC8442",
"E  c #B98947",
"W  c #B3844B",
"Q  c #B58B4C",
"!  c #BA9748",
"~  c #BC9A4D",
"^  c #AB8454",
"/  c #A68858",
"(  c #B58A54",
")  c #AD9355",
"_  c #BC9354",
"`  c #B99757",
"'  c #83B949",
"]  c #80B656",
"[  c #998564",
"{  c #8E8670",
"}  c #A38A64",
"|  c #BC9E62",
" . c #A18A70",
".. c #C68B45",
"X. c #C68A46",
"o. c #CA8D44",
"O. c #C38C4C",
"+. c #D28F42",
"@. c #CC9146",
"#. c #C79A46",
"$. c #CA9F42",
"%. c #C4954C",
"&. c #CB924A",
"*. c #C49E4C",
"=. c #D49344",
"-. c #D99949",
";. c #C39453",
":. c #C29C53",
">. c #CC9B54",
",. c #C4945A",
"<. c #CD9758",
"1. c #D89B52",
"2. c #E39B44",
"3. c #CCA344",
"4. c #C7A14C",
"5. c #CBA44A",
"6. c #CBA44B",
"7. c #D1A744",
"8. c #D5AA45",
"9. c #DBAD44",
"0. c #D4AB4A",
"q. c #DBAE4B",
"w. c #DDB145",
"e. c #DCB14B",
"r. c #DFB94D",
"t. c #C5A253",
"y. c #C9A554",
"u. c #CAA757",
"i. c #CBA45C",
"p. c #D4AD52",
"a. c #DBB253",
"s. c #D6B259",
"d. c #DBB55B",
"f. c #E5B545",
"g. c #E8B745",
"h. c #E7B847",
"j. c #E8B846",
"k. c #E5B64A",
"l. c #E6B94C",
"z. c #E8B94B",
"x. c #E1A155",
"c. c #E3B752",
"v. c #E6BA53",
"b. c #E9BC52",
"n. c #E4BB5A",
"m. c #E5BB5C",
"M. c #C59C63",
"N. c #C8A868",
"B. c #D3B262",
"V. c #DAB867",
"C. c #CCB376",
"Z. c #D0B473",
"A. c #E3BD62",
"S. c #87C548",
"D. c #85C54B",
"F. c #8DCC4C",
"G. c #94CE4C",
"H. c #9DCF4D",
"J. c #8CD24E",
"K. c #97D54D",
"L. c #9BD34B",
"P. c #8BC854",
"I. c #96C954",
"U. c #95D152",
"Y. c #9BD552",
"T. c #9BD35B",
"R. c #A6CE4E",
"E. c #A4D54D",
"W. c #ABD64F",
"Q. c #A4DB4D",
"!. c #ACDD4E",
"~. c #B4D74F",
"^. c #B1DD4F",
"/. c #A3CE54",
"(. c #A2D552",
"). c #ABD452",
"_. c #A4DB52",
"`. c #ACDD52",
"'. c #A5DA5E",
"]. c #ABDB59",
"[. c #B1DC53",
"{. c #B3D957",
"}. c #AEE24F",
"|. c #A5E052",
" X c #ADE050",
".X c #ACE359",
"XX c #B0E055",
"oX c #B2E45B",
"OX c #BAE85E",
"+X c #99CD6D",
"@X c #B5CF6D",
"#X c #A7D468",
"$X c #B7DE63",
"%X c #AAD37A",
"&X c #B3DA76",
"*X c #A9E766",
"=X c #B6E562",
"-X c #B8E664",
";X c #B6EA64",
":X c #BBEA64",
">X c #BCEA6B",
",X c #B3E274",
"<X c #BBE776",
"1X c #EBC05B",
"2X c #E7C269",
"3X c #E3C376",
"4X c #C2E761",
"5X c #C4ED6C",
"6X c #C3ED74",
"7X c #C6E779",
"8X c #C3EC7A",
"9X c #D4EF73",
"0X c #CDF471",
"qX c #C8F67A",
"wX c #CBF57E",
"eX c #A39786",
"rX c #ACDC87",
"tX c #BBDE88",
"yX c #BEF089",
"uX c #C7EC83",
"iX c #CAF382",
"pX c #CAF986",
"aX c #D6F787",
"sX c #D0F588",
"dX c #C8E696",
"fX c #DBEE91",
"gX c #DCF69A",
"hX c #E6FA89",
"jX c #E9F999",
"kX c #F0FE92",
"lX c #D6EEA3",
"zX c #DCF7A9",
"xX c #E8F8A9",
"cX c #F2FFA4",
"vX c #E8FAB9",
"bX c #F0F7C9",
"nX c #F4FDCC",
"mX c #F3FFD3",
/* pixels */
" X X X X X X X X}. X X X X X X X X X X X X X X X X X X X X X X X^.[.`. X`. X X X X X X X X X X X X X X X X X X X X`. X X X X X X",
" X X X X X X X X X X X X X X X X X X X X X X X X X X X X X X`.~.l.l.i.[.| ^.`.`. X X X X X X X X X X X X X X X X X X X X X X X X",
" X X X X X X X X X X X X X X X X X X X X XL.H.(._._. X`. X~.M.@.C.l.y.k.A.l.`. X X X X X X X X X X X X X!.`._._. X X X X X X X X",
" X X X X X X X X X X X X X X X|.F.D.I.#XtXdXlX%XD.G.R.:.[.;.y.l.B.f.v.K k.l.;.`.^. X X X X X X X X X!.!.P.D.m m ' I.(.(. X X X X",
" X X X}. X X X X X X X X XOXY.c m dXmXbXbXbXnXnXrX' @.4.k.p.z.z.l.l.z.l.l.c.c.| l.^.W.W. X X X X!.!.!.x z n P.#X&X&XI.Y.Q. X X X",
" X X X}. X X X X X X XXX.XF.' tXvXxXfXk.k.>.7XfXxXl.B.7.a.b.k.l.l.l.k.l.k.v.j.c.d.k.r r ). X!.!.!.v z P.uXjXcXcXjXcXxX#XY. X X X",
" X X X X X X X X!. X X.XP.I.zXxX7X$Xk.3.0.B.l.<.l.s.f.k.l.k.k.l.l.l.l.l.8.v.z.g.h.w.Q T p ).!.!.l l $XhXkXhX9X4X4X4XjXlXI. X X X",
" X X X X X X X!. X X_.D.&XgX8X=X{.>.k.l.b.v.z.Z.y.k.k.l.z.z.l.z.l.l.l.l.8.8.z.v.l.k.z.c.T Y !.l z ,XhX9X:XOXoXOX;X4XaX%Xm Q. X X",
" X X X X X X!. X X XD.,XaX-XoX{.M.y.7.v.j.j.z.c.n.c.P w.l.z.l.l.l.z.l.l.l.8.f.l.l.l.k.c.v.r.z c aX0X]. XoXoXoXoX:X0X<Xz m Q. X X",
" X X X X X X!.XX X/.G.wXOXXXXXXX~.k.:.v.g.z.l.k.k.3.l.k.l.l.z.l.l.l.l.z.k.J J l.l.l.v.a.e.) Q 5XOX X X X X X.XoX:X;Xz z M _. X X",
" X X X X X XXXXXXX(.D.oXXXXXXX).r k.$.k.v.v.w.3.k.H k.J L b.l.z.l.l.l.l.k.8.s.l.k.k.z.e.6.z.k.i.`.`.`.`. X X.XoX*Xz l x K.!. X X",
" X X X X X X XU.F.5XoX XXXXX XW.d =.4.c.n.l.v.z.l.d.k.p.k.v.l.z.z.l.k.l.k.8.s.l.l.f.z.h.h.k.K k.;.`.`. X X.X.X*Xz l b M _.Q. X X",
" X X X X X X_.F.'.-X[.`.[.`. X).d =.o.o.F y.z.z.A.b.l.e.k.k.P z.l.l.l.k.l.k.k.l.l.n.f.3.l.a.d.1.7 `. X`. X.XT.k z x M _.!. X X X",
" X X X X X`.Y.I.-X`.`.`.[.[.).W t.4.-.2.l.m.k.b.l.l.l.w.8.8.b.l.k.k.k.k.k.z.l.z.l.V.l.z.k.w.l.z.k.` `. X X Xk b x M }.}. X X X X",
" X X X X X`.(.].[.`.`.[.k.k.( @.4.3.6.8.w.l.0.l.l.z.z.z.f.k.k.e.e.e.e.w.l.k.v.j.k.d.z.k.k.7.w.k.6.q.` `.`. X`.M J. X X X X X X X",
" X X X X X`.(.].`.`.~.k.3.K y.k.F 4.~ >.z.z.n.A.l.l.z.l.l.e.e.e.e.l.l.e.l.n.n.l.A.Z.k.6.l.k.k.4.9.1 C.N.M.!. XQ. X X X X X X X X",
" X X X X X X_.`.`.~.@.t.$.l.n.p.y.6.z.n.z.z.c.k.k.e.l.h.l.l.l.e.z.l.z.l.l.z.m.V.z.z.c.l.b.4.4.=.3 k.m.k.%.`. X X X X X X X X X X",
" X X X X X X X X^.k.3.6.c.z.h.l.c.z.n.l.l.z.l.e.e.l.z.f.k.l.k.l.l.v.l.z.z.j.v.g.n.l.b.l.z.8.~ z.k.7.j.l.i.>.^. X X X X X X X X X",
" X X X X X X}. X^.z.k.t.9.v.z.l.0.k.k.L k.l.e.e.z.h.k.8.e.l.L 9.z.j.l.v.f.k.l.l.l.l.g.l.P l.q.c.k.z.l.l.m.k.l.Q.Q.Q.Q.Q. X X X X",
" X X X X X X}.}.[.k.k.4.0.l.l.e.e.0.6.9.l.l.l.l.l.l.8.e.w.8.q.w.l.l.j.k.s.b.l.l.e.e.k.l.e.0.e.z.l.b.z.v.9.4.e.E.L.L.L.G.L. X X X",
" X X X X X}.}.}.W.^ k.*.C t.n.0.l.z.k.l.l.l.l.v.k.3.7.l.b.3.b.z.n.l.l.7.1Xz.k.j.l.q.J b.v.w.l.z.l.j.l.l.m.A 1 Y.G.U.Y.U. X X X X",
" X X X X X X X}. XW.N S 7 w k.*.6.v.b.z.j.g.k.c.G l.v.w.z.v.l.f.k.l.l.f.b.k.-.z.v.v.l.K J z.l.z.z.l.z.l.v.6.l.uXiXiXiXwX X X X X",
" X X X X!.Q.Q.Q.Q.[.k.$.k.5 B =.0.b.b.g.l.a.@.d.3.l.l.k.k.e.e.z.z.z.l.l.l.z.v.z.m.l.l.z.l.l.l.l.l.l.V.z.k.l.` 6X:X-X=XoX X X X X",
"!. X XQ.Q.E.L.L.E.z.k.3.3.l.V.n.z.l.B.k.$.o.H 6.k.k.e.e.e.e.l.l.l.l.l.l.l.b.l.k.6.9.z.k.l.z.l.l.l.v.d.k./ >XoXoXoX.XoXoX X X X X",
" X X X(.(.Y.G.U.T.k.4.6.l.d.l.z.l.l.a.o.=.F k.f.l.e.e.e.e.l.l.k.l.l.l.l.l.c.d.a.f.w.v.e.e.l.z.z.k.P f.c./ ]..X X`. X X.X X X X X",
" X XY.#X,XuXiXiXiXR.3 k.k.z.A.c.z.v.k.Z S D p.l.e.e.l.e.l.l.l.l.z.z.k.e.k.k.z.j.l.a.v.k.e.l.l.l.l.c.4.k.k.>.).Q._._.`._. X X X X",
" XT.8XsXiX6X:X-X$XW o.4.6.k.-.z.k.e.@.S F D k.f.e.z.k.e.l.l.l.z.l.l.l.e.e.e.l.l.k.9.b.l.e.e.l.e.w.a.H 1.k.y.k.E.H.(._. X X X X X",
"#XpXwX>XoXoX{.].@XB N z.k.3.k.l.Z.k.f.F F o.@.8.l.f.e.e.l.z.z.l.l.k.l.l.l.e.e.l.l.z.l.l.z.a.k.0.k.z.k.$.7.7.3.l.`.`. X X X X X X",
"qX5XXX.X.XW.e &.+.-.k.k.=.3.6.z.k.*.V F @.k.K J z.l.l.l.z.l.z.k.l.k.l.l.l.e.e.e.z.j.l.l.l.z.b.n.&.z.n.f.f.l.d.t.y.N. X X X X X X",
" X X X X XW.d O.F y.$.z.z.k.3.k.t.k.H z.k.k.$.&.3Xj.l.j.l.z.l.z.z.l.z.l.l.l.l.z.b.l.K 1Xz.j.z.n.s.k.j.l.z.k.3.3.$.i. X X X X X X",
" X X X XXXXX).2 -.k.6.z.z.z.k._ D k.7.k.P 3.@.@.l.2Xz.v.l.l.l.l.l.z.z.l.l.n.j.v.p.n.3.6.z.z.l.z.k.3.w.k.l.k.a.X.2  X X X X X X X",
" X X X X X).W o.=.k.z.z.z.v.n.B.d.b.k.l.9.e.k.@.k.C.n.f.z.j.z.z.l.l.l.l.l.l.L k.y.@.3.3.b.v.z.l.b.l.7.k.l.p.*.6.@. X X X X X X X",
" X X X X`.} E X.k.6.z.f.l.z.v.z.n.v.l.z.9.k.6.*.C d.l.l.l.z.z.l.l.l.l.l.v.b.0.o.o.! 4.@.l.l.l.z.l.n.w.k.k.o.A o.Q  X X X X X X X",
" X X X X XW.w 2 k.y.9.2 z.l.l.c.~ &.z.k.l.k.G 6.t.@.n.t.k.m.k.z.z.z.f.w.K n.c.F @.@.y.C 4.b.z.v.n.z.k.A 1 @.@.&.`. X X X X X X X",
" X X X X X XW.7 O.X.8 k.k.a.w.c.&.2Xv.l.v.z.b.a.V X.o.o.@.=.y.z.v.k.l.b.n.o.Z y.q.@.F C @.p.k.*.@.6.a.o.1.z.v.p.>.`. X X X X X X",
" X X X X XW.r E X.Z 3 o.o.@.n.k.&.3Xl.z.f.l.v.a.A 5 k.K z.z.l.g.z.l.l.v.k.G =.c.z.l.G o.o.2.o.@.6.d.@.~ l.b.n.l.n.N. X X X X X X",
" X X X X X XW.T 8 o.3.o.D $.` p.n.l.B.l.l.b.e.~ < ! w.g.z.l.l.k.z.k.n.@.k.P 1.n.v.l.v.*.A N S &.1Xk.z.k.l.w.~ Y q  X X X}. X X X",
" X X X X X X XW.I X.G 3.@.-.&.d.z.j.n.c.l.k.q.o.Z Q 0.b.v.n.l.z.k.o.@.~ l.x.z.2Xk.f.8.X.d 7 8 &.m.l.v.9.k.e.@. X X X X X X X X X",
" X X X X X X X XW.w 8 D k.6.p.9.l.n.k.k.c.t._ o.S X.&.k.k.k.n.n.:.A z.b.n.m.l.v.` &.O.2 < 4 d @.k.k.v.V.t.:.#. X X X X X X X X X",
" X X X X X X X XW.f R o.4.k.8.k.k.p.o.~ ) C 8 X.o.S &.E T 6 k.o.R @.k.c.c.k.k.c.y.o.7 8 6 <.o.o.2 T Q %.d T  X X X X X X X X X X",
" X X X!.!. X XQ.E.T o.R o.o.o.q.e.4.o.5 6 O.< 8 &.O.o.8 7 o.6 @.H D &.Z.&.a.l.l.8.o.D S o.=.X.o.E w I ).U  X X X X X X X X X X X",
" X X X X X X X(.(.H.5 &.Z X.B o.G *.S 6 Z D R d <.B o.D o.@.@.3.$.J 3.@.t.3.G K 4.*.@.X.o.E 5 7  X X X X X X X X X X X X X X X X",
" X X X X X XY.#X,X7X/ ,.X.d R S +.o.( d R S S Z o.6 o.o.o.6.K *.4.3.3.3.4.6.3.o.$.o.S 5 I  X X X X X X X X X X X X X X X X X X X",
" X X X X XT.8XsXiX6X-XY Y I./.( ;.1 / ).a d ,.( 1 A o.S B X.` 2 4.3.3.y.3.4.4.o.S o.%. X X X X X X}. X X X X X X X X X X X X X X",
" X X X X#XpXwX>XoXoXoX.X&X&XI.Y. X X X X X).p g j d 8 o.X.6 d 1.-.o.o.o.*.8 &.X.B o.W  X X X!.}.!. X X X X X X X X X X X X X X X",
" X X X XqX5XXX.X.X X X`. XcXxX#X X X X X X X).$ % $ 4 o.X.&.o.X.o.O.W o.1. .} ^ a W I  X}.XX X X!. X X X X X X X X X X X X X X X",
" X X!. X X X X X X X`.`. X4XjXlX X X X X X X XE.$ > j a { a &.5 F } eXe [ y : U uXn J. X X X X}.!. X X X X X X X X X X X X X X X",
" X X!. X X X X XXXXX[. X X XaX%Xm Y. X X X X X XE.@ h ; y g 0 1 f Y / $ y i =  XXXdXn _. X X X X!. X X X X X X X X XL.H.(._._. X",
" X`.`. X X X X X XXXXX X X X X X X X X X X X X X XE.o ; y p @ w ,.` X u a   XXXXXXXX+XD. X X X!. X X X X|.F.D.I.#XtXdXlX%XD.G.Y.",
" X!.`. X X X X X XXXXXXX X X X X X X X X!. X X X X X).; u ` a :.;.9 ; i } XXXXXXXXXX!. X X X X X X XOXY.c m dXmXmXmXmXnXnXrXm G.",
" X X!.!.!.!.!. X X XXXXXXX X X X X X X X!. X X X X X).% y ,._ _ ^ a ^ a ; D.[.[.XX X X X X X X XXX.XF.' tXvXxXgXuX8X6X7XgXvX] G.",
" X X!.!.!.!.!.!.!. X!. X X X X X X X X X X X X X X X).% p ,._ T ( _ ;.q o !.!.`. X X X X!.!. X X.XP.I.zXxX7X-X;X;X-X-X:X8XzXm  X",
"`. X!.!.!.!.!.!.!.!.!. X X X X X X X X X X X X X X`.R.% f ;.;.` _ %.f q &  X X X X X X!.!. X X_.D.&XgX8X=XoXoX=X=X=X>X>XsX+Xc  X",
" X X!.!.!.!.!.!.!.!.!.Q. X X X X X X X X X X X X`.H.. = f Q %.%.;.%.f ^ -  X X X X X X!. X X XD.,XaX-XoXoXoXoXoX=X-X:X6XrXv  X X",
" X X X X!.!.!.!.!.!.!. X X X X X X X X X X X X XL.#X@ ; w f _ T ;.;.f _ [ E. X X X X X!.XX X/.G.wXOXXXXX XXXoX=X-X=X>XyXn x  X X",
" X X X X X X X X X X XE. X X X X X X X X X X XR.- . g @ , 9 _ 9 a Q f ^ / @ E.E. X X XXXXXXX(.D.oXXXXXXX X XoXoX=X>X,Xv v  X X X",
" X X X XQ.Q.E.L.L.L.G.L. X X X X X X X X X X(.% $ . % # , 0 _ u y ^ _ r a p   o ).`. X XU.F.5XoX XXXXX X X.XXXXX-XpXn l  X X X X",
" X X X X(.(.Y.G.U.Y.U.G.G. X X X X X X X!.`./.X % ; + ; ^ ^ _ s t u ;.( 9 _ _ s = ). X_.F.'.-X[.`.[.`. X`. XXXoX>Xm l  X X X X X",
" X X XY.+X,XuXiXiXiXwXqX'._. X X X X X X`.).X $ ; $ X s ^ ,._ u y s ;.W 9 ( ;.Q w - `.Y.I.-X`.`.`.`.`.`.`.[.XXoXD.z  X X X X X X",
" X X X8XsXiX6X:X-X=XoX:X]. X X X X X X X X).o X . O ; / _ ;.T : ; a _ ^ y i / ( ^ U `.(.].[.`.`.`.[.`.`.`.`.XX_.c  X X X X X X X",
" X X X X>XoXoXoX.XoXoX.X_. X X X X X X X X XE.X O y Y a W _ t : . = a e : ; i i q  X`.(.].`.`. X X X X X`.[.`. X X X X X X X X X",
" X X X X.X.X X X X X.X_. X X X X X X X X X X`.E.X i a a a [ > X o ; Y a s @  X X X X X_.`.`. X X X X X X X X X X X X X X X X X X",
" X X X X XQ.Q._._.`._.Q. X X X X X X X X X X X).g s p i U  X X X X X).[ U *  X X X X X`.`. X X X X X X X X X X X X X X X X X X X",
"Q.Q. X X XY.L.H.(._._. X X X X X X X X X X X X X X X X X X X X X X X X X X X X X X X X X!. X X X X X X X X X X X X X X X X X X X"
};
