/* XPM */
static const char *wall4[] = {
/* columns rows colors chars-per-pixel */
"64 64 248 2 ",
"   c #17391C",
".  c #143323",
"X  c #163A24",
"o  c #1A3D24",
"O  c #163629",
"+  c #1B3C2B",
"@  c #1E3F30",
"#  c #213B22",
"$  c #19461A",
"%  c #23471D",
"&  c #30501D",
"*  c #365A1B",
"=  c #3F681C",
"-  c #1D4126",
";  c #1E422B",
":  c #1F4930",
">  c #254727",
",  c #264A25",
"<  c #22442C",
"1  c #254A2C",
"2  c #2A4D2C",
"3  c #304E2A",
"4  c #2C5325",
"5  c #265128",
"6  c #2D532C",
"7  c #31562C",
"8  c #345928",
"9  c #345B2C",
"0  c #264932",
"q  c #2A4D32",
"w  c #2B5233",
"e  c #325534",
"r  c #345B33",
"t  c #395D33",
"y  c #33543B",
"u  c #365C3A",
"i  c #3A5E3A",
"p  c #3B6326",
"a  c #38642E",
"s  c #3C642D",
"d  c #3C6433",
"f  c #386334",
"g  c #3E6A32",
"h  c #3B633B",
"j  c #445A30",
"k  c #436827",
"l  c #436C2C",
"z  c #4A6D2C",
"x  c #4A742A",
"c  c #577B2B",
"v  c #557C2D",
"b  c #436B33",
"n  c #446835",
"m  c #436C3A",
"M  c #496D3B",
"N  c #457232",
"B  c #4B7434",
"V  c #4E7A34",
"C  c #457239",
"Z  c #4D753A",
"A  c #4D793B",
"S  c #517432",
"D  c #537C33",
"F  c #597C34",
"G  c #52733B",
"H  c #537B3A",
"J  c #5A7C3C",
"K  c #3D5945",
"L  c #3B6243",
"P  c #445D44",
"I  c #456743",
"U  c #4D7342",
"Y  c #577A44",
"T  c #4E6B51",
"R  c #617F49",
"E  c #59852E",
"W  c #5C842D",
"Q  c #548233",
"!  c #5C8434",
"~  c #5E8935",
"^  c #56813A",
"/  c #5A833B",
"(  c #529D34",
")  c #64892C",
"_  c #6A912D",
"`  c #729029",
"'  c #628535",
"]  c #658B34",
"[  c #6A8D33",
"{  c #64853A",
"}  c #638B3B",
"|  c #6A8D3B",
" . c #6A9335",
".. c #6A9737",
"X. c #66923D",
"o. c #6B933B",
"O. c #749737",
"+. c #739C3C",
"@. c #7B9C3B",
"#. c #49A538",
"$. c #57A839",
"%. c #5CB43D",
"&. c #79A43A",
"*. c #7CA33C",
"=. c #6BB53C",
"-. c #5C8543",
";. c #5E8742",
":. c #648B43",
">. c #668847",
",. c #6C9543",
"<. c #6A9746",
"1. c #6B944B",
"2. c #749A42",
"3. c #769947",
"4. c #668A52",
"5. c #6D9451",
"6. c #789B53",
"7. c #4FAC41",
"8. c #5CA742",
"9. c #7CA443",
"0. c #7BAB44",
"q. c #77A148",
"w. c #7CA34A",
"e. c #7CAC4A",
"r. c #62B244",
"t. c #76B746",
"y. c #74B74B",
"u. c #7AA553",
"i. c #798D68",
"p. c #7BA065",
"a. c #76C343",
"s. c #83A43C",
"d. c #85A839",
"f. c #8AAB3D",
"g. c #91AB3E",
"h. c #8AB33E",
"j. c #95B43E",
"k. c #82A543",
"l. c #85AB43",
"z. c #8AAB44",
"x. c #83A54B",
"c. c #84AB4A",
"v. c #8BAD4B",
"b. c #8BB346",
"n. c #8CB24A",
"m. c #87B848",
"M. c #94B443",
"N. c #9ABA45",
"B. c #93B54B",
"V. c #95BC4C",
"C. c #9BBC4C",
"Z. c #85AB52",
"A. c #96AC58",
"S. c #8AB455",
"D. c #94B955",
"F. c #9BBD52",
"G. c #A2BD4A",
"H. c #A0BF54",
"J. c #8EAD67",
"K. c #88C74A",
"L. c #94C34A",
"P. c #9CC34E",
"I. c #94CE4C",
"U. c #9CCC4D",
"Y. c #8CD24E",
"T. c #9CD34B",
"R. c #98D64D",
"E. c #8BC657",
"W. c #9DC254",
"Q. c #98C855",
"!. c #9BD552",
"~. c #98D257",
"^. c #A4C44D",
"/. c #A6C94C",
"(. c #A2D54C",
"). c #A8D24D",
"_. c #A4DB4D",
"`. c #ACDE4E",
"'. c #A3C454",
"]. c #AAC553",
"[. c #A4CC53",
"{. c #ABCB54",
"}. c #A5C55B",
"|. c #A5CB5C",
" X c #ACCB59",
".X c #B2CD53",
"XX c #B2CD5D",
"oX c #A4D552",
"OX c #ABD353",
"+X c #A4DB52",
"@X c #ABDD52",
"#X c #ADD35B",
"$X c #A8DA5B",
"%X c #B2D255",
"&X c #B1DD54",
"*X c #B4D35A",
"=X c #BAD65A",
"-X c #B4DA5B",
";X c #BBDA5B",
":X c #AEE24F",
">X c #A5E052",
",X c #ADE050",
"<X c #ACE359",
"1X c #B0E055",
"2X c #B2E45B",
"3X c #BAE65D",
"4X c #99C869",
"5X c #A8CA62",
"6X c #B1CB64",
"7X c #A7D567",
"8X c #B6D866",
"9X c #BBDC62",
"0X c #ABD179",
"qX c #B6D675",
"wX c #A9E766",
"eX c #B6E562",
"rX c #B9E564",
"tX c #B6EA64",
"yX c #BBEA64",
"uX c #BCEA6B",
"iX c #B5E374",
"pX c #C2DA5C",
"aX c #C5E35F",
"sX c #C4DD67",
"dX c #C4E463",
"fX c #C6EA6A",
"gX c #C5EA76",
"hX c #C3EC7A",
"jX c #CBF67D",
"kX c #D1F272",
"lX c #ADDD85",
"zX c #BBDE88",
"xX c #BEF089",
"cX c #C7EC83",
"vX c #CAF382",
"bX c #CAF986",
"nX c #D6F686",
"mX c #D0F588",
"MX c #CBE795",
"NX c #DBF79B",
"BX c #E9FB8B",
"VX c #E9F999",
"CX c #D6EEA3",
"ZX c #DCF7AA",
"AX c #E8F9A9",
"SX c #EBFCB2",
"DX c #F5FECE",
"FX c #F3FFD3",
/* pixels */
",X,X,X,X,X,X,X,X:X,X,X,X,X,X,X,X,X,X,X,X,X,X,X,X,X,X,X,X,X,X,X,X,X,X,X,X,X,X,X,X,X,X,X,X,X,X,X,X,X,X,X,X,X,X,X,X,X,X,X,X,X,X,X,X",
",X,X,X,X,X,X,X,X,X,X,X,X,X,X,X,X,X,X,X,X,X,X,X,X,X,X,X,X,X,X,X,X,X,X,X,X,X,X,X,X,X,X,X,X,X,X,X,X,X,X,X,X,X,X,X,X,X,X,X,X,X,X,X,X",
",X,X,X,X,X,X,X,X,X,X,X,X,X,X,X,X,X,X,X,X,XT.U.oX+X+X,X,X,X,X,X,X,X,X,X,X,X,X,X,X,X,X,X,X,X,X,X,X,X,X,X,X`.@X+X+X,X,X,X,X,X,X,X,X",
",X,X,X,X,X,X,X,X,X,X,X,X,X,X,X>XY.K.Q.7XzXMXCX0XK.I.!.,X,X,X,X,X,X,X,X,X,X,X,X,X,X,X,X,X,X,X,X,X,X,X`.`.E.K.t.t.m.Q.oXoX,X,X,X,X",
",X,X,X:X,X,X,X,X,X,X,X,X,X3X!.=.0.MXFXFXFXFXDXDXlXt.I.,X,X,X,X,X,X,X,X,X,X,X,X,X,X,X,X,X,X,X,X,X`.`.`.%.$.q.E.7XqXqXQ.!._.,X,X,X",
",X,X,X:X,X,X,X,X,X,X,X1X<XY.m.zXSXAXNXcXhXgXhXNXSXS.I.,X,X,X,X,X,X,X,X,X,X,X,X,X,X,X,X,X,X,X`.`.`.7.$.E.cXVXAXAXVXAXSX7X!.,X,X,X",
",X,X,X,X,X,X,X,X`.,X,X<XE.Q.ZXAXgXrXtXtXrXrXyXhXZXy.,X@X,X,X,X,X,X,X,X,X,X,X,X,X,X,X,X,X,X,X`.`.#.#.eXBXBXBXkXdXdXdXVXCXQ.,X,X,X",
",X,X,X,X,X,X,X`.,X,X+XK.qXNXhXeX2X2XeXeXrXuXuXmX4X=.,X@X@X,X,X,X,X,X,X,X,X,X,X,X,X,X,X,X,X`.`.#.$.iXBXkXyX3X2X3XtXdXnX0Xt._.,X,X",
",X,X,X,X,X,X`.,X,X,XK.iXnXrX2X2X2X2X2XeXrXyXgXlX8.,X,X,X,X,X,X,X,X,X,X,X,X,X,X,X,X,X,X,X,X`.$.=.nXkX@X1X2X2X2X2XyXkXiX$.t._.,X,X",
",X,X,X,X,X,X`.1X,X|.I.jX3X1X1X1X1X2XeXrXeXuXxXr.%.,X,X,X,X,X,X,X,X,X,X,X,X,X,X,X,X@X,X,X+X=.K.fX3X@X,X,X,X,X<X2XyXuX$.$.a.+X,X,X",
",X,X,X,X,X,X1X1X1XoXK.2X1X1X1X1X1X2X2XeXuXiX8.7.,X,X,X,X,X,X,X,X@X,X:X:X,X,X,X,X,X,X,X,X(.+XfX2X@X@X@X@X,X,X<X2XwX$.#.%.R.`.,X,X",
",X,X,X,X,X,X,X~.Y.fX2X,X1X1X,X,X<X1X,XrXbXr.#.,X,X,X,X,X,XqX-X,X,X`.:X`.,X,X,X,X,X,X,X`.`.2X@X@X@X@X@X,X,X<X<XwX$.#.7.a.+X_.,X,X",
",X,X,X,X,X,X+XY.$XrX&X@X&X@X,X@X,X1X2XuXy.#.,X,X,X,X@XrXgX%X;X&X:X:X:X:X@X,X,X,X,X,X,X,X@X,X,X,X,X,X,X@X,X<X~.( $.%.a.+X`.,X,X,X",
",X,X,X,X,X@X!.Q.rX@X@X@X@X@X@X@X&X@X'.K.$.,X,X,X1X@X,X#X6X].XXgX,XsX,X,X@X,X,X,X,X,X,X,X,X,X,X,X,X,X,X,X,X,X( 7.%.a.:X:X,X,X,X,X",
",X,X,X,X,X@XoX$X&X@X@X@X&X@X@X@X@X|.^.m.,X,X,X@X9X-XOX-X@X X XsX&XsX8X3X1X,X2X&X,X,X,X,X,X,X,X,X,X,X,X,X,X,X,Xa.Y.,X,X:X,X,X,X,X",
",X,X,X,X,X@XoX$X@X@X,X,X,X,X,XOX{.F.F.qX,X,X,X[.*X6X6X*X{.6XG.*X=X*XqXsX&X1XdX}.,X2XrX1X,X,X,X,X,X,X,X,X,X,X,X_.,X,X,X,X,X,X,X,X",
",X,X,X,X,X,X+X@X@X,X,X,X,X,X,XOX'.F.V.J.`.P.|.5XM.[.*X%X*XN.G.{.G.*X9X*X*X;XG.qX3XsX6XOX,X,X,X,X,X,X,X,X,X,X,X,X,X,X,X,X,X,X,X,X",
",X,X,X,X,X,X,X,X,X,X,X,X,X,X,XOX'.D.oX2.|.f.{.*X*X'.{.;X*Xj.{.N.=XdX%XN.XXj.A.2XOXA.'.@X,X,X,X,X,X,X,X,X,X,X,X,X,X,X,X,X,X,X,X,X",
",X,X,X,X,X,X:X,X,X,X,X,X,X,X,X,XV.v.M D.W.{.OX*X8Xs.;XC.` ` f.dX9X{.{.pX^.].^.=X;X-X@X,X,X,X,X,X,X,X,X,X,X,X`._._._._._.,X,X,X,X",
",X,X,X,X,X,X:X:X,X,X,X,X,X,X@X|.|.@XG S.V.[.N.z. XD.5Xz.9Xz.O.}.B.@.H.%X9XP.j.pXpX&X@X@X,X,X,X,X@X@X,X,X,X_._.(.T.T.T.I.T.,X,X,X",
",X,X,X,X,X:X:X:X,X,X,X,X,X,X@XV.k.9.Z.| l.M. XC. X'.D.}. X@.@.-XOXl.) s.z.C.f.*X%X^.'.%X,X,X,X,X#X@X,X,X,XoXoX!.I.~.!.~.,X,X,X,X",
",X,X,X,X,X,X,X:X,X,X,X,X,X,X,X[.x.9.] ' l. XC.[.[.B.}.s.[.@.}.{.C.) z.^.@.N.c.k.C.^.;X;X9X,X,X,X,X,X,X,X!.7XiXcXvXvXvXjX,X,X,X,X",
",X,X,X,X`._._._._.,X,X,X,X,X,XOXW.W.d.2.2.5XF.'.F.'.{.k.z.k.c.z.n.O.B.*Xf.@.c D.V.{.V..XsX@X).,X,X,X,X~.hXmXvXgXyXrXeX2X,X,X,X,X",
"`.,X,X_._.(.T.T.T.I.T.,X`.s.,XU.D.B.n.{ ! ] S.W.V.5X#XD.F | [ s.b.] z.{.d.) W.V.V.n.O.V.;X}.^.=X&XoX7XbXjXuX2X2X2X<X2X2X,X,X,X,X",
",X,X,XoXoX!.I.~.E.S.Y.I.,X(.0.e.<.J.W.W.W.9.! 9.s.x }.c &.*.@.%X*.F n.v.{ k. Xx  . .)  .@.M.'.{.^.-XkXuX<X<X<X,X,X@X,X<X,X,X,X,X",
",X,X!.7XiXcXvXvXvX+X+X$X,X_.V.Y X.6.V.W.W.W.:.x c.D.* | #Xc.&.{.O.S 4X2.S w.+.1.:.|  .[ O.6X*X*XM.*XfXnX_._.+X_.+X+X@X+X,X,X,X,X",
",X~.hXmXvXgXyXrXeXQ.oXoX,XQ V M V b s q.c 9.+.~ } b.b. .B.d.M.&.) 2 x l b p.k z X.n B c @.D.z.{.C./.dX6X XrXR.T.U.oX+X,X,X,X,X,X",
"7XbXjXuX2X2X2X<XqXqXQ.!.,Xb a s d ^ X.1...~ s a b +.c.l.W ' O._ b 8 8 9 9 D 3.s x S 8 n.'.|.| *.W.{.%X{.*X@X@X@X@X,X,X,X,X,X,X,X",
"jXfX1X<X<X,X,X,X:XAXSXZ.0.b f 4 a Z ! b ^ N 9 H 8 z v w.} p ] _ ! s s f r 6 m d g <.! 0.) B.k.] F.'.H.C.{.@X#X,X,X0X,X,X,X,X,X,X",
",X,X,X,X,X,X,X,X,XdXVX>.V 9 r , 9 b V s / B l o.] 7 8 b H ! ..h.D t r 6 2 1 > C m ;.<.u.E 9.x.S 2.B.) F.8X{.9X,X,X7X,X,X,X,X,X,X",
",X,X,X,X1X1X1X,X:X,XnXY g b > 6 N b 9 ^ ~ V z X...% 9 ^ 9 v +.q...W & 6.H 6 I 6 d r r d X.= :.S +.O.3.F.9X9X-X,X,X,X,X,X,X,X,X,X",
",X,X,X,X,X1X1X,X,X,X,X1.^ Q b 5 N B , ^ D z ^ }  .% ~ X.m N | &.+.] * M.! 9 b M 4 7 U m 4.3.e.1.| o.| P.^.9X X6X@X,X,X,X,X,X,X,X",
",X,X,X,X,X1X1X1X,X0.b 4 7 b s , 1 m f ^ v , s V ] * 9 ~ N l ! W W , { 9X:.*XqX9X,.l z D +.X.} 8 p x ! 2.F.8XXXXX@X,X,X,X,X,X,X,X",
",X,X,X,X,X,X1X1XOXw.^ 7 i h f r 1 h d V D 6 6 g Q 6 7 b b a l ~ N a 9.g.s.6X` aX|.9.d.*XdXB a r Z N ~ 3.c.B.F.5X{.@X,X,X,X,X,X,X",
",X,X,X,X,X,X,X,XQ.Z.,XY 1 1 1 > 6 g C b Q V g r V l d 9 V H / ,.<. .*.B..XdXpX/.N.s.'.pXpXF :.t d g B V ^ 9.B.L.P.@X,X,X,X,X,X,X",
",X,X,X,X,X,X,X9.oXU.n.Y i < 1 < 6 m g 1 g Q Q 6 a Q Q A ! ' e.] S.n.*.k.f.].*X/./.v.sXpXpX^.F.* 8 7 9 7 Y 6.[ | [.,X,X,X,X,X,X,X",
",X,X,X,X,X,X,XU.,Xm.Y I 1 o < w q w w 6 N A A w ; 9 Q V s D e.e.F c.3.qX.Xf.f.pXsXsX].N.pXfXj.N.2.~ 4.r b ^ J v.@X,X:X:X,X,X,X,X",
",X,X,X,X,X,X,X,X@X0.n i w w q 1 < < 0 N A B N f ; X w C g :. .Z.S x  .'.*XO.F.9XsXsXG.N.pX.X%X[.,.d 4 t d ~ } ! U.,X:X:X,X,X,X,X",
",X,X,X,X,X,X,X,X@X@X@XR K 1 q 1 ; 2 1 q 7 1 o a N A $ % a z D E ,.z ' @.x.z.F.@.g.;X X X9XM.{.f.J t i u d t G ,.T.,X,X,X,X,X,X,X",
",X,X,X,X,X,X,X,X`._.w.I I 1 < + + u 6 X ; ; o r N m I A f ;.d k 9.* W 2.c *.W.o.O.C.W.z.N.*X*X'.o.m e u e e M >.(.,X,X,X,X,X,X,X",
",X,X,X`.`.,X,X_._.(.T.Y P T < o + w 9 J 4.n i t 6 1 > M m B B x ~ Z x w.F v.5Xx.) [ k. X X%X{.C.'.3.J u u L r :.(.,X,X,X,X,X,X,X",
",X,X,X,X,X,X,XoXoX!.I.u.u.I 1 < -   l fXgX3.>.J ,.+ X e t ;.1.p ;.3.= 3.| v.V.F.@.B.F.'.` #X^.h.n.D.' L I h u m U.,X,X,X,X,X,X,X",
",X,X,X,X,X,X!.7XiXcXvXvXvXe.| x.k.@.'.%XdXM.C.C.@.: o u > M ^ J ,.D & B S | S.F [ W.c.+.c W.W.f.5X,., u 1 w L w L.,X,X,X,X,X,X,X",
",X,X,X,X,X~.hXmXvXgXyXrXeXj x.5X}.'.;XpX].^..X.X*X1 - y 1 5 m ;.X.9 n x k = Z.@.W 9.' ' z n.2.8XrX7X6.0 ; > 1 K Q.,X,X,X,X,X,X,X",
",X,X,X,X7XbXjXuX2X2X2X<XJ u.0. .l.d.O.fX X;X.X].M.x.& O < 2 6 b ;.H ,.:.z w.b.u.c v.B.v l :.v v ! ,.g w ; w I M U.,X,X,X,X,X,X,X",
",X,X,X,XjXfX1X<X<X,X(.5.L.1. .W V.P.d.s.f.*X].^.%X%X}.q < b ;.h Z :.Q D V ~ W W o.]  .S.D.|  .3.z b f u w o H oX,X,X,X,X,X,X,X,X",
",X,X`.,X,X,X,X,X,X,Xm.Z b :.e.2.h.b.o.'.O.'.}.*X'.z.F.4.+ < r Y 6 H p k z a l ,.~ ;.6.Z.v.Z.v X.B l A w w b y v.,X,X,X,X,X,X,X,X",
",X,X`.,X,X,X,X,X1X1XL.Z 8 p ;.:.+.+.x n.) @.k.z.B.[ x.8 % e n h 1 H J b s 7 Z Z Z ;.^ } 1.5.p a a m f w t <.<.P.,X,XT.U.oX+X+X,X",
",X@X@X,X,X,X,X,X,XF.{ b g ;.Z ;.^ v z S k ' ) ' } S { H t 1 n U e s V V p b N d Z :.H b A ;.^ A m m w I m.e.K.Q.7XzXMXCX0XK.I.!.",
",X`.@X,X,X,X,X,X,Xc.Y Z 9 <.^ V <.S 9 7 t z z D 1.2 k p o   ; q 0 2 Z V b A D s ;.1.1.b s ^ <.<.^ U u I =.0.MXFXFXFXFXDXDXlXt.I.",
",X,X`.`.`.`.`.,X:X0.b b 4 4 l V Z M % ^ H :.3.H D m <.Z t X X b Z V 9 6 a N Z d b ^ :.9 % 9 d 9 0 1 h I zXSXAXNXcXhXgXhXNXSXS.I.",
",X,X`.`.`.`.`.`.`.+.s t d 9 d Y r 2 6 n b J <.B l Z S k 6 O + m B s 9 r 9 w - e d N A 9 y 7 9 g h L I ZXZXgXrXtXtXrXrXyXhXZXy.,X",
"@X,X`.`.`.`.`.`.L.G e w r i h 6 < q 2 r 5 Y D 9 7 , 2 b 2 O + o o + + q r < + m h 6 7 - + + ; r w q P hXeX2X2XeXeXrXuXuXmX4X=.,X",
",X,X`.`.`.`.`.`.`.q.e 1 q < 1 1 < q q m r d s f 8 9 e o   + + < > q < > 6 - O e y > - ; 1 0 w u y 4.1.2X2X2X2X2XeXrXyXgXlX8.,X,X",
",X,X,X,X`.`.`.`.`.q.e 0 + < < < @ + < < e 6 5 2 7 , , , > 0 X . 2 < + o n 8 + o 1 w 1 1 w e w q e 6.V.P.N.-X2XeXrXeXuXxXr.%.,X,X",
",X,X,X,X,X,X,X,X,XU.4.y < o < + @ + . + ; + . o 1 o < d 6 . . . t Y e > F k > ; 1 1 1 X ; q - 1 h J n.'.d.OX-X2XeXuXiX8.7.,X,X,X",
",X,X,X,X_._.(././.D.i.i.#   < + O @ <   - i U 8 o 0 4 x ! D Z > > k M J ' z >.o > U Y 7 l ! Q Q ] @.'.OX{.OXOXOXeXbXr.#.,X,X,X,X",
",X,X,X,XoXoX!.^.d.d.6.j 3 Y , <     U 4.< 7 H H V b q.~ ~ ~ E s , J z { ] >.J G >.F ' J ^ x W *.V. XOXOX9XdX*X{.rXy.#.,X,X,X,X,X",
",X,X,X!.4XiXhXOXOXN.d.d.6.4.R Y n F { x D ! ]  . .9.0.....&.&.9.) W ' ' { } ] ] ' ' ] ] ] [ k.N.OX*X-X=X%XOX&X2XK.$.,X,X,X,X,X,X",
",X,X,XhXmXvXgXyX2XOXOX$XoX3.1.3.,.3.2.| | +.9.9.9.*.*.b.0.&.&.l.*.*.O.O.9.b.n.n.v.z.b.V.M.h.P.[.OX-X3XrX-X*X1X+X=.,X,X,X,X,X,X,X",
",X,X,X,XuX2X2X2X<X2X2X<X+XOX[.n.3.w.w.Z.S.n.k.9.0.b.m.Q.V.b.V.Q.Q.m.m.L.[.[.[.W.|.|.[.[.[.OXOX).@X,X,X,X@X&X@X,X,X,X,X,X,X,X,X,X",
",X,X,X,X<X<X,X,X,X@X<X+X,X,X,XoXU.U.U.OXoXOX[.U.T.oX@X@XoXoX@X_.@X@X@X@X@X@X@XoXOX@X@XoXoX@X,X,X:X,X:X:X,X,X,X,X,X,X,X,X,X,X,X,X",
",X,X,X,X,X_._.+X+X@X+X_.,X,X,X,X,X@X@X@X,X:X,X,X,X,X,X,X,X,X,X,X,X,X,X,X,X,X,X,X,X,X,X@X@X,X,X,X,X:X:X:X,X@X@X,X,X,X,X,X,X,X,X,X",
"_._.,X,X,X!.T.U.oX+X+X,X,X,X,X,X,X,X@X@X,X,X,X,X,X,X,X,X,X,X,X,X,X,X,X,X,X,X,X,X,X,X,X,X`.,X,X,X`.:X:X:X,X@X,X,X,X,X,X,X,X,X,X,X"
};
